<svg width="20" height="20" viewBox="0 0 20 20" fill="none" xmlns="http://www.w3.org/2000/svg">
<g id="bag-remove">
<g id="Group 126">
<path id="Vector" d="M12.7082 5.00001C12.7082 5.34518 12.988 5.62501 13.3332 5.62501C13.6783 5.62501 13.9582 5.34518 13.9582 5.00001H12.7082ZM6.0415 5.00001C6.0415 5.34518 6.32133 5.62501 6.6665 5.62501C7.01168 5.62501 7.2915 5.34518 7.2915 5.00001H6.0415ZM9.99984 2.29167C11.4956 2.29167 12.7082 3.50423 12.7082 5.00001H13.9582C13.9582 2.81388 12.186 1.04167 9.99984 1.04167V2.29167ZM9.99984 1.04167C7.81371 1.04167 6.0415 2.81388 6.0415 5.00001H7.2915C7.2915 3.50423 8.50409 2.29167 9.99984 2.29167V1.04167Z" fill="#40C96D"/>
<path id="Vector_2" d="M7.10914 5.625H12.8906V4.375H7.10914V5.625ZM15.578 7.99741L16.4114 14.6641L17.6517 14.509L16.8184 7.84237L15.578 7.99741ZM13.7239 17.7083H6.27581V18.9583H13.7239V17.7083ZM3.58839 14.6641L4.42172 7.99741L3.18138 7.84236L2.34804 14.509L3.58839 14.6641ZM6.27581 17.7083C4.64675 17.7083 3.38633 16.2806 3.58839 14.6641L2.34804 14.509C2.05273 16.8716 3.89488 18.9583 6.27581 18.9583V17.7083ZM16.4114 14.6641C16.6134 16.2806 15.3529 17.7083 13.7239 17.7083V18.9583C16.1049 18.9583 17.947 16.8716 17.6517 14.509L16.4114 14.6641ZM12.8906 5.625C14.2564 5.625 15.4086 6.64208 15.578 7.99741L16.8184 7.84237C16.5708 5.8615 14.8869 4.375 12.8906 4.375V5.625ZM7.10914 4.375C5.11286 4.375 3.42899 5.8615 3.18138 7.84236L4.42172 7.99741C4.59114 6.64208 5.74327 5.625 7.10914 5.625V4.375Z" fill="#40C96D"/>
<g id="Vector_3">
<path d="M9.99973 11.8929H9.74221C9.74221 12.0037 9.81315 12.1021 9.91828 12.1372L9.99973 11.8929ZM10.2572 10.1761C10.2572 10.0339 10.1419 9.91857 9.99973 9.91857C9.85751 9.91857 9.74221 10.0339 9.74221 10.1761H10.2572ZM10.9484 12.4806C11.0833 12.5255 11.2291 12.4526 11.2741 12.3177C11.3191 12.1828 11.2462 12.0369 11.1113 11.992L10.9484 12.4806ZM10.2572 11.8929V10.1761H9.74221V11.8929H10.2572ZM9.91828 12.1372L10.9484 12.4806L11.1113 11.992L10.0812 11.6486L9.91828 12.1372ZM13.1758 11.8929C13.1758 13.647 11.7538 15.069 9.99973 15.069V15.584C12.0383 15.584 13.6909 13.9315 13.6909 11.8929H13.1758ZM9.99973 15.069C8.24562 15.069 6.82364 13.647 6.82364 11.8929H6.30859C6.30859 13.9315 7.96117 15.584 9.99973 15.584V15.069ZM6.82364 11.8929C6.82364 10.1388 8.24562 8.71681 9.99973 8.71681V8.20177C7.96117 8.20177 6.30859 9.85434 6.30859 11.8929H6.82364ZM9.99973 8.71681C11.7538 8.71681 13.1758 10.1388 13.1758 11.8929H13.6909C13.6909 9.85434 12.0383 8.20177 9.99973 8.20177V8.71681Z" fill="#40C96D"/>
<path d="M9.74221 11.8929H9.99973L9.91828 12.1372M9.74221 11.8929C9.74221 12.0037 9.81315 12.1021 9.91828 12.1372M9.74221 11.8929V10.1761M9.74221 11.8929H10.2572V10.1761M9.91828 12.1372L10.9484 12.4806M9.91828 12.1372L10.0812 11.6486L11.1113 11.992M10.2572 10.1761C10.2572 10.0339 10.1419 9.91857 9.99973 9.91857C9.85751 9.91857 9.74221 10.0339 9.74221 10.1761M10.2572 10.1761H9.74221M10.9484 12.4806C11.0833 12.5255 11.2291 12.4526 11.2741 12.3177C11.3191 12.1828 11.2462 12.0369 11.1113 11.992M10.9484 12.4806L11.1113 11.992M13.1758 11.8929C13.1758 13.647 11.7538 15.069 9.99973 15.069M13.1758 11.8929H13.6909M13.1758 11.8929C13.1758 10.1388 11.7538 8.71681 9.99973 8.71681M9.99973 15.069V15.584M9.99973 15.069C8.24562 15.069 6.82364 13.647 6.82364 11.8929M9.99973 15.584C12.0383 15.584 13.6909 13.9315 13.6909 11.8929M9.99973 15.584C7.96117 15.584 6.30859 13.9315 6.30859 11.8929M13.6909 11.8929C13.6909 9.85434 12.0383 8.20177 9.99973 8.20177M6.82364 11.8929H6.30859M6.82364 11.8929C6.82364 10.1388 8.24562 8.71681 9.99973 8.71681M6.30859 11.8929C6.30859 9.85434 7.96117 8.20177 9.99973 8.20177M9.99973 8.71681V8.20177" stroke="#40C96D" stroke-width="0.6"/>
</g>
</g>
</g>
</svg>
