<svg width="20" height="20" viewBox="0 0 20 20" fill="none" xmlns="http://www.w3.org/2000/svg">
<g id="clipboard-06">
<path id="Vector" d="M18.2657 10.4337C18.3544 10.3597 18.438 10.2798 18.5158 10.1945H18.6028V9.99868L18.4832 9.85729C18.4053 9.77195 18.3218 9.69201 18.233 9.61802L17.3629 8.91106L16.8518 8.5739L17.6131 8.12797L18.2765 7.68205C18.3653 7.6042 18.4489 7.52064 18.5267 7.43189H18.6137V7.23612L18.4941 7.10561C18.422 7.01483 18.3378 6.93432 18.2439 6.86633C15.9889 5.32916 13.7158 3.79561 11.4245 2.26569L10.3369 1.5261C10.2436 1.44918 10.1305 1.40016 10.0106 1.38471C9.89367 1.39914 9.78377 1.4484 9.6952 1.5261L1.65766 6.84458C1.58451 6.88357 1.52169 6.93942 1.47441 7.0075C1.42713 7.07559 1.39674 7.15396 1.38576 7.23612C1.39525 7.32157 1.42614 7.40324 1.47557 7.47358C1.525 7.54392 1.59137 7.60066 1.66854 7.63854L3.00632 8.53039L3.07157 8.65003L2.84317 8.81318L1.62503 9.62889C1.5527 9.65994 1.49106 9.71152 1.44775 9.77725C1.40443 9.84298 1.38135 9.91997 1.38135 9.99868C1.38135 10.0774 1.40443 10.1544 1.44775 10.2201C1.49106 10.2858 1.5527 10.3374 1.62503 10.3685L3.00632 11.2821L3.07157 11.4126L2.84317 11.5757L1.62503 12.3915C1.55722 12.4279 1.49972 12.481 1.45788 12.5456C1.41605 12.6103 1.39124 12.6844 1.38576 12.7612C1.39274 12.8349 1.41708 12.9058 1.45678 12.9682C1.49649 13.0306 1.55042 13.0827 1.61416 13.1202L9.7387 18.5583L9.85834 18.6453H10.0976L13.9478 16.1111L18.2983 13.2289C18.3896 13.1619 18.4734 13.0854 18.5484 13.0005L18.6355 12.9353V12.7395L18.5158 12.609C18.4437 12.5182 18.3596 12.4377 18.2657 12.3697L17.3847 11.7715L16.8518 11.4235L17.6022 10.9232C17.8306 10.7383 18.0481 10.5969 18.2657 10.4337ZM2.82142 7.44277L2.66915 7.32313L2.6039 7.19262L2.8323 7.04035L9.79308 2.38533C9.86038 2.3644 9.93244 2.3644 9.99973 2.38533C10.0721 2.3857 10.1419 2.41281 10.1955 2.46146L17.1563 7.08386L17.4608 7.30138L10.1846 12.1413C10.1271 12.1689 10.0632 12.1802 9.99973 12.1739C9.93273 12.1724 9.86797 12.1495 9.81483 12.1087L2.82142 7.44277ZM17.0475 12.4785L17.4717 12.7612L10.1955 17.612C10.1375 17.6514 10.0698 17.674 9.99973 17.6773C9.93366 17.6711 9.87014 17.6487 9.81483 17.612L2.79967 12.9353L2.53864 12.7504L3.34348 12.2066C3.45986 12.1404 3.57242 12.0678 3.68064 11.989C3.73037 11.9411 3.79647 11.9139 3.86554 11.9129C3.94029 11.918 4.01201 11.9444 4.07219 11.989L9.67344 15.7087C9.76671 15.7856 9.87982 15.8346 9.99973 15.8501C10.1196 15.8346 10.2327 15.7856 10.326 15.7087L15.9164 11.989C15.9782 11.9493 16.0496 11.9268 16.123 11.9238C16.2016 11.9268 16.2773 11.9533 16.3406 11.9999L17.0475 12.4785ZM10.1955 14.8386C10.1384 14.8813 10.0707 14.9077 9.99973 14.9147C9.93273 14.9132 9.86797 14.8903 9.81483 14.8495L2.81054 10.1945L2.53864 9.99868L3.47399 9.34611C3.57813 9.25402 3.70645 9.19364 3.84379 9.17209C3.97693 9.19666 4.10095 9.25679 4.2027 9.34611L9.64081 12.9788C9.72957 13.0425 9.83608 13.0768 9.94535 13.0768C10.0546 13.0768 10.1611 13.0425 10.2499 12.9788L15.9273 9.23735C15.9865 9.19094 16.0588 9.16431 16.1339 9.16121C16.206 9.16348 16.2751 9.19035 16.3297 9.23735L17.0258 9.70503L17.4717 9.99868L10.1955 14.8386Z" fill="#40C96D" stroke="#40C96D" stroke-width="0.3"/>
</g>
</svg>
