<svg width="20" height="20" viewBox="0 0 20 20" fill="none" xmlns="http://www.w3.org/2000/svg">
<g id="clipboard-04">
<g id="Group 124">
<path id="Vector" d="M10.0702 17.22H4.0702C3.90334 17.2379 3.73459 17.219 3.57579 17.1648C3.41699 17.1105 3.27199 17.0221 3.15097 16.9059C3.02995 16.7896 2.93583 16.6483 2.87524 16.4918C2.81464 16.3353 2.78903 16.1674 2.8002 16V4.05C2.78138 3.88082 2.80069 3.70958 2.85671 3.54884C2.91272 3.3881 3.00402 3.24194 3.12391 3.1211C3.24379 3.00026 3.38922 2.9078 3.5495 2.8505C3.70979 2.79321 3.88088 2.77253 4.0502 2.79H10.3902V5.35C10.375 5.51446 10.396 5.68025 10.4518 5.8357C10.5076 5.99116 10.5968 6.13249 10.7131 6.24975C10.8294 6.36701 10.97 6.45735 11.125 6.51441C11.28 6.57147 11.4456 6.59386 11.6102 6.58H14.1802V9.19C14.1867 9.28034 14.2105 9.36859 14.2502 9.45C14.2809 9.49918 14.3236 9.5397 14.3744 9.5677C14.4252 9.59571 14.4822 9.61027 14.5402 9.61H14.6502C14.7293 9.58609 14.7985 9.53702 14.8472 9.47025C14.8959 9.40348 14.9216 9.32265 14.9202 9.24V8.24C14.9202 7.7 14.9202 7.16 14.9202 6.61C14.9269 6.42375 14.8938 6.2382 14.8231 6.06575C14.7524 5.8933 14.6457 5.73793 14.5102 5.61L11.3202 2.46C11.1935 2.32287 11.0383 2.21511 10.8656 2.14428C10.6929 2.07346 10.5067 2.04128 10.3202 2.05H4.0502C3.91372 2.04005 3.77669 2.04005 3.6402 2.05C3.18093 2.11909 2.76413 2.35751 2.47175 2.71836C2.17936 3.07921 2.03256 3.53639 2.0602 4V16C2.05025 16.1298 2.05025 16.2602 2.0602 16.39C2.13991 16.84 2.38083 17.2456 2.73788 17.5309C3.09494 17.8161 3.54369 17.9616 4.0002 17.94H10.0002C10.089 17.9378 10.1738 17.903 10.2384 17.842C10.303 17.7811 10.3428 17.6985 10.3502 17.61C10.3575 17.5223 10.3334 17.4349 10.282 17.3634C10.2307 17.2919 10.1556 17.2411 10.0702 17.22ZM11.1302 3.28L11.4002 3.55L13.2902 5.45L13.6802 5.84H11.5702C11.5118 5.84606 11.4528 5.83919 11.3973 5.81987C11.3419 5.80055 11.2913 5.76926 11.2493 5.72821C11.2073 5.68717 11.1749 5.63738 11.1543 5.58239C11.1337 5.52739 11.1255 5.46854 11.1302 5.41V3.28Z" fill="#40C96D" stroke="#40C96D" stroke-width="0.25"/>
<path id="Vector_2" d="M17.5703 14.72C17.4528 14.5956 17.3874 14.4311 17.3874 14.26C17.3874 14.0889 17.4528 13.9244 17.5703 13.8L17.6403 13.7L17.8303 13.46C17.8855 13.4026 17.9218 13.3296 17.9343 13.251C17.9468 13.1723 17.9349 13.0917 17.9003 13.02C17.7403 12.7 17.5703 12.38 17.3903 12.07C17.3484 11.9665 17.2765 11.8778 17.1838 11.8154C17.0912 11.7531 16.982 11.7198 16.8703 11.72H16.6503H16.4303H16.2503C16.1041 11.7233 15.9609 11.678 15.8432 11.5911C15.7256 11.5042 15.6401 11.3807 15.6003 11.24V11.13C15.6003 11.04 15.5203 10.96 15.4903 10.87C15.4679 10.781 15.4163 10.7021 15.3438 10.6459C15.2713 10.5897 15.182 10.5595 15.0903 10.56H13.8303C13.7385 10.5595 13.6493 10.5897 13.5767 10.6459C13.5042 10.7021 13.4527 10.781 13.4303 10.87L13.3403 11.11L13.2903 11.21C13.2525 11.3562 13.1672 11.4857 13.0477 11.5781C12.9282 11.6704 12.7813 11.7204 12.6303 11.72C12.5606 11.729 12.49 11.729 12.4203 11.72H11.9303C11.8783 11.7196 11.827 11.7311 11.7802 11.7537C11.7334 11.7762 11.6924 11.8091 11.6603 11.85C11.3536 12.2007 11.1191 12.6085 10.9703 13.05C10.9378 13.1063 10.9207 13.1701 10.9207 13.235C10.9207 13.3 10.9378 13.3638 10.9703 13.42L11.2503 13.79C11.3181 13.8545 11.372 13.932 11.4089 14.018C11.4458 14.1039 11.4648 14.1965 11.4648 14.29C11.4648 14.3835 11.4458 14.4761 11.4089 14.562C11.372 14.648 11.3181 14.7256 11.2503 14.79L10.9803 15.14C10.9331 15.1899 10.9021 15.2529 10.8914 15.3207C10.8807 15.3885 10.8907 15.458 10.9203 15.52C11.0703 15.85 11.2403 16.17 11.4103 16.52C11.4571 16.6286 11.5335 16.7218 11.6307 16.789C11.728 16.8562 11.8422 16.8946 11.9603 16.9H12.1903C12.2568 16.8929 12.3238 16.8929 12.3903 16.9H12.5703C12.7174 16.8978 12.8613 16.9434 12.9803 17.03C13.0993 17.1165 13.187 17.2394 13.2303 17.38L13.2803 17.48L13.3803 17.75C13.4027 17.839 13.4542 17.9179 13.5267 17.9741C13.5993 18.0303 13.6885 18.0605 13.7803 18.06H15.0103C15.1029 18.0583 15.1924 18.0259 15.2647 17.968C15.3371 17.9102 15.3882 17.83 15.4103 17.74C15.4359 17.6584 15.4659 17.5783 15.5003 17.5V17.41C15.54 17.263 15.6273 17.1332 15.7485 17.041C15.8697 16.9487 16.018 16.8991 16.1703 16.9H16.3703L16.8503 16.96C16.9053 16.962 16.9601 16.9513 17.0104 16.9287C17.0607 16.9062 17.1051 16.8724 17.1403 16.83C17.4436 16.4732 17.6776 16.0628 17.8303 15.62C17.8555 15.5605 17.8633 15.495 17.8527 15.4313C17.8421 15.3675 17.8135 15.3081 17.7703 15.26L17.5703 14.72ZM16.9903 15.72C16.9553 15.8137 16.8901 15.8931 16.805 15.9456C16.7199 15.9981 16.6197 16.0208 16.5203 16.01C16.4174 15.9964 16.3132 15.9964 16.2103 16.01C15.9706 16.0181 15.7381 16.0944 15.5403 16.23C15.2774 16.3671 15.077 16.5997 14.9803 16.88C14.9103 17.09 14.8203 17.2 14.7003 17.23H14.4903H14.2403L14.0003 17.11V17C13.9661 16.9319 13.936 16.8618 13.9103 16.79C13.8668 16.6607 13.7974 16.5417 13.7063 16.4402C13.6151 16.3388 13.5042 16.257 13.3803 16.2C13.1803 16.0634 12.9424 15.9934 12.7003 16C12.5941 15.9856 12.4865 15.9856 12.3803 16H12.2703C12.1981 15.996 12.1284 15.9724 12.0685 15.9319C12.0087 15.8914 11.9609 15.8355 11.9303 15.77C11.7403 15.46 11.7203 15.35 11.9903 15.04C12.0818 14.9523 12.1506 14.8437 12.1906 14.7235C12.2307 14.6032 12.2409 14.475 12.2203 14.35V14.21C12.252 14.0505 12.24 13.8854 12.1854 13.7322C12.1308 13.579 12.0357 13.4435 11.9103 13.34C11.8314 13.258 11.7874 13.1487 11.7874 13.035C11.7874 12.9213 11.8314 12.812 11.9103 12.73C11.9402 12.6547 11.9909 12.5894 12.0563 12.5416C12.1218 12.4939 12.1994 12.4656 12.2803 12.46H12.3803H12.5603H12.8103C12.9171 12.4598 13.0202 12.4207 13.1003 12.35C13.1846 12.2797 13.279 12.2224 13.3803 12.18C13.5028 12.1372 13.6127 12.0644 13.7 11.9684C13.7873 11.8724 13.8493 11.756 13.8803 11.63C13.9036 11.5064 13.9693 11.3948 14.066 11.3145C14.1628 11.2342 14.2845 11.1902 14.4103 11.19C14.4898 11.1771 14.5708 11.1771 14.6503 11.19C14.7019 11.2032 14.7493 11.2294 14.7878 11.2662C14.8263 11.303 14.8547 11.349 14.8703 11.4C14.9253 11.6034 15.0286 11.7904 15.1714 11.9454C15.3141 12.1003 15.4921 12.2185 15.6903 12.29C15.8057 12.3611 15.9355 12.4055 16.0703 12.42H16.1703H16.3703H16.5403C16.6341 12.4246 16.7249 12.4551 16.8025 12.508C16.8802 12.561 16.9417 12.6343 16.9803 12.72C17.0449 12.812 17.0744 12.9242 17.0634 13.0361C17.0524 13.1481 17.0016 13.2523 16.9203 13.33C16.846 13.4106 16.7791 13.4976 16.7203 13.59C16.59 13.9725 16.59 14.3875 16.7203 14.77L16.9803 15.11C17.031 15.1435 17.0729 15.1886 17.1026 15.2417C17.1322 15.2947 17.1487 15.3541 17.1507 15.4148C17.1526 15.4756 17.14 15.5359 17.1138 15.5907C17.0877 15.6456 17.0487 15.6933 17.0003 15.73L16.9903 15.72Z" fill="#40C96D" stroke="#40C96D" stroke-width="0.25"/>
<path id="Vector_3" d="M11.9101 9C11.9291 8.94173 11.9345 8.87986 11.9259 8.81918C11.9172 8.75849 11.8947 8.70061 11.8601 8.65C11.8105 8.59339 11.7488 8.5487 11.6795 8.51927C11.6103 8.48983 11.5353 8.47641 11.4601 8.48H5.4601C5.37325 8.47556 5.28717 8.49819 5.21373 8.54476C5.14029 8.59133 5.08312 8.65955 5.0501 8.74C5.01944 8.79864 5.00342 8.86383 5.00342 8.93C5.00342 8.99617 5.01944 9.06136 5.0501 9.12C5.09383 9.18197 5.15251 9.23188 5.22069 9.2651C5.28888 9.29832 5.36435 9.31376 5.4401 9.31H11.4401C11.5429 9.3257 11.6479 9.30268 11.7347 9.24542C11.8216 9.18815 11.884 9.1007 11.9101 9Z" fill="#40C96D" stroke="#40C96D" stroke-width="0.25"/>
<path id="Vector_4" d="M5.44035 14.58H8.83035C8.88746 14.5856 8.9451 14.5792 8.99956 14.5611C9.05402 14.543 9.10407 14.5137 9.14649 14.475C9.1889 14.4364 9.22273 14.3893 9.24579 14.3367C9.26885 14.2842 9.28062 14.2274 9.28035 14.17C9.28282 14.1158 9.27336 14.0618 9.25262 14.0116C9.23188 13.9615 9.20038 13.9166 9.16035 13.88C9.11968 13.8364 9.06998 13.8021 9.01471 13.7797C8.95944 13.7572 8.89994 13.7471 8.84035 13.75H5.47035C5.35788 13.7671 5.25139 13.8118 5.16035 13.88C5.09831 13.9304 5.05481 14 5.0367 14.0779C5.0186 14.1557 5.02692 14.2374 5.06035 14.31C5.08617 14.3899 5.1371 14.4594 5.20557 14.508C5.27404 14.5567 5.35638 14.5819 5.44035 14.58Z" fill="#40C96D" stroke="#40C96D" stroke-width="0.25"/>
<path id="Vector_5" d="M6.94026 11.94H8.82026C8.90306 11.9533 8.98745 11.9533 9.07026 11.94C9.14844 11.8978 9.20988 11.8303 9.24443 11.7484C9.27898 11.6666 9.28457 11.5754 9.26026 11.49C9.24428 11.3998 9.19783 11.3178 9.12866 11.2577C9.0595 11.1977 8.97181 11.1632 8.88026 11.16H5.51026C5.22026 11.16 5.04026 11.32 5.04026 11.57C5.03699 11.6249 5.04507 11.6798 5.064 11.7315C5.08293 11.7831 5.11229 11.8302 5.15026 11.87C5.24681 11.9552 5.37152 12.0015 5.50026 12L6.94026 11.94Z" fill="#40C96D" stroke="#40C96D" stroke-width="0.25"/>
<path id="Vector_6" d="M14.4404 13.28C14.1752 13.28 13.9209 13.3854 13.7333 13.5729C13.5458 13.7604 13.4404 14.0148 13.4404 14.28C13.4404 14.5452 13.5458 14.7996 13.7333 14.9871C13.9209 15.1746 14.1752 15.28 14.4404 15.28C14.7056 15.28 14.96 15.1746 15.1475 14.9871C15.3351 14.7996 15.4404 14.5452 15.4404 14.28C15.4367 14.0211 15.3328 13.7738 15.1504 13.59C15.0587 13.4937 14.9486 13.4167 14.8267 13.3634C14.7048 13.3102 14.5734 13.2818 14.4404 13.28Z" fill="#40C96D" stroke="#40C96D" stroke-width="0.25"/>
</g>
</g>
</svg>
