<svg width="20" height="20" viewBox="0 0 20 20" fill="none" xmlns="http://www.w3.org/2000/svg">
<g id="clipboard-05" clip-path="url(#clip0_469_31384)">
<path id="Vector" d="M19.194 10.2933L15.2749 8.98304C15.1954 8.97132 15.1237 8.92891 15.0752 8.86491C15.0266 8.8009 15.0051 8.72041 15.0152 8.64072V2.46705C15.0152 2.0775 14.9326 1.98307 14.5785 1.86502L10.2109 0.401287C10.1366 0.388958 10.0608 0.388958 9.98658 0.401287C9.90075 0.385281 9.81271 0.385281 9.72688 0.401287L5.35928 1.87683C5.29732 1.88533 5.23775 1.90635 5.18419 1.93863C5.13063 1.97091 5.08421 2.01377 5.04776 2.06458C5.01131 2.11539 4.98559 2.17309 4.97217 2.23417C4.95876 2.29525 4.95793 2.35842 4.96973 2.41983C4.96973 2.41983 4.96973 6.94089 4.96973 8.61711C4.9777 8.70224 4.95461 8.78738 4.9047 8.85681C4.8548 8.92624 4.78146 8.97527 4.69823 8.99485L0.8028 10.2933C0.472279 10.3996 0.389648 10.5176 0.389648 10.8481V17.5412C0.389648 17.8835 0.472279 18.0134 0.8028 18.1196L5.13499 19.5597L5.26484 19.6306H5.53634L7.0473 19.0994L9.79771 18.2613C9.8682 18.2515 9.93969 18.2515 10.0102 18.2613H10.14L14.0237 19.4417L14.4132 19.5951H14.7201L16.2429 19.0758L19.2294 18.0724C19.2906 18.0624 19.3493 18.0403 19.402 18.0076C19.4548 17.9749 19.5005 17.9321 19.5367 17.8816C19.5729 17.8312 19.5988 17.7741 19.6129 17.7137C19.627 17.6533 19.629 17.5906 19.6189 17.5294V10.8481C19.6307 10.7834 19.6288 10.7169 19.6133 10.6529C19.5978 10.589 19.5692 10.529 19.5292 10.4767C19.4892 10.4245 19.4387 10.3812 19.3809 10.3496C19.3232 10.318 19.2595 10.2988 19.194 10.2933ZM13.9528 3.02185H14.1063V8.64072C14.115 8.71503 14.0974 8.79005 14.0564 8.85263C14.0153 8.91522 13.9536 8.96138 13.882 8.98304C13.0911 9.23093 12.312 9.50243 11.5211 9.76213L10.5886 10.0572H10.4469V4.45018C10.4362 4.3708 10.4557 4.29029 10.5017 4.22466C10.5476 4.15904 10.6166 4.11312 10.6948 4.09605L13.0557 3.31696L13.7994 3.06907L13.9528 3.02185ZM4.95793 16.8211V18.5446L2.01865 17.5648H1.84158C1.66092 17.5454 1.49329 17.4616 1.36941 17.3287C1.29073 17.1634 1.26595 16.9776 1.29858 16.7975C1.29858 16.7385 1.29858 16.6795 1.29858 16.6204V11.4265L4.73365 12.607C4.80338 12.6211 4.86568 12.6599 4.90906 12.7163C4.95244 12.7727 4.97399 12.8429 4.96973 12.9139L4.95793 16.8211ZM5.4183 11.7689H5.27665L2.75052 10.9308L2.30195 10.7537L3.29352 10.4232C3.7893 10.2736 4.27328 10.1084 4.74545 9.92739C4.95239 9.84573 5.17226 9.80176 5.39469 9.79754C5.62083 9.80281 5.8444 9.84672 6.05573 9.92739C6.49249 10.1045 6.94106 10.2461 7.38962 10.3878L7.96803 10.5766L8.16871 10.6475L8.26314 10.8245L8.00345 10.9426L5.54814 11.7571L5.4183 11.7689ZM9.53801 17.0808C9.5463 17.1505 9.52945 17.2209 9.49051 17.2793C9.45157 17.3378 9.39307 17.3804 9.32553 17.3995L6.13836 18.4619L5.86686 18.5328V12.8785C5.85617 12.796 5.87696 12.7125 5.9251 12.6447C5.97323 12.5769 6.04517 12.5297 6.12656 12.5125L9.37275 11.4383L9.53801 11.521V17.0808ZM9.53801 9.99821V10.1163L6.15017 8.93583C6.11604 8.93907 6.0816 8.93552 6.04885 8.92539C6.01609 8.91526 5.98567 8.89875 5.95933 8.8768C5.93299 8.85485 5.91126 8.8279 5.89539 8.79751C5.87952 8.76713 5.86982 8.73389 5.86686 8.69974V3.13989V2.97463L8.55825 3.87176L9.33734 4.09605C9.3905 4.11811 9.43699 4.15368 9.47219 4.19923C9.50738 4.24478 9.53007 4.29873 9.53801 4.35574C9.53801 6.22083 9.53801 8.0623 9.5144 9.99821H9.53801ZM9.99838 3.34057H9.86853L7.3306 2.47885L6.94106 2.30179L9.88034 1.32203H10.1046L12.6662 2.17194L13.0439 2.36081L10.1754 3.31696C10.1191 3.33844 10.0584 3.34652 9.99838 3.34057ZM14.1063 16.8329V18.5446L11.1788 17.5648H11.0018C10.8211 17.5454 10.6535 17.4616 10.5296 17.3287C10.4509 17.1634 10.4261 16.9776 10.4588 16.7975C10.4646 16.7386 10.4646 16.6793 10.4588 16.6204V11.4265L10.6122 11.4856L13.8938 12.5716C13.9636 12.5857 14.0258 12.6245 14.0692 12.6809C14.1126 12.7373 14.1342 12.8074 14.1299 12.8785L14.1063 16.8329ZM14.5549 11.7689H14.4368L11.8989 10.919L11.4857 10.7419L12.4183 10.4468C12.8904 10.2933 13.3508 10.1399 13.7994 9.9628C14.0386 9.86213 14.2954 9.80997 14.5549 9.80935C14.8182 9.80996 15.0788 9.86209 15.3221 9.9628C15.7235 10.1281 16.1484 10.2579 16.5616 10.3878L17.1282 10.5766L17.3289 10.6475L17.4351 10.8127L17.1872 10.9308L14.7083 11.7571L14.5549 11.7689ZM18.6864 17.0808C18.6977 17.1524 18.6823 17.2256 18.6431 17.2866C18.604 17.3475 18.5437 17.3919 18.4739 17.4113L16.0186 18.2613L15.2867 18.5091L15.027 18.58V18.3793C15.027 18.3793 15.027 14.2596 15.027 12.8903C15.0159 12.8063 15.0364 12.7213 15.0843 12.6515C15.1323 12.5818 15.2044 12.5322 15.2867 12.5125L17.6476 11.7335L18.5211 11.4383H18.6746V17.0808H18.6864Z" fill="#40C96D" stroke="#40C96D" stroke-width="0.2"/>
</g>
<defs>
<clipPath id="clip0_469_31384">
<rect width="20" height="20" fill="white"/>
</clipPath>
</defs>
</svg>
