<svg width="40" height="40" viewBox="0 0 40 40" fill="none" xmlns="http://www.w3.org/2000/svg">
<g id="close">
<path id="Vector" d="M11.1772 8.82116C10.5263 8.17029 9.47106 8.17029 8.82018 8.82116C8.16931 9.47204 8.16931 10.5273 8.82018 11.1782L17.6417 19.9997L8.82023 28.8212C8.16936 29.472 8.16936 30.5273 8.82023 31.1782C9.47111 31.829 10.5264 31.829 11.1773 31.1782L19.9987 22.3567L28.8202 31.1782C29.471 31.829 30.5264 31.829 31.1772 31.1782C31.828 30.5273 31.828 29.472 31.1772 28.8212L22.3557 19.9997L31.1772 11.1782C31.8282 10.5273 31.8282 9.47204 31.1772 8.82116C30.5264 8.17029 29.471 8.17029 28.8202 8.82116L19.9987 17.6427L11.1772 8.82116Z" fill="white"/>
</g>
</svg>
