<svg width="20" height="21" viewBox="0 0 20 21" fill="none" xmlns="http://www.w3.org/2000/svg">
<g id="flag.3">
<path id="Vector" d="M12.4981 12.7559C12.1529 12.7559 11.8731 13.0357 11.8731 13.3809C11.8731 13.726 12.1529 14.0059 12.4981 14.0059V12.7559ZM7.49806 14.0059C7.84324 14.0059 8.12306 13.726 8.12306 13.3809C8.12306 13.0357 7.84324 12.7559 7.49806 12.7559V14.0059ZM15.5174 14.9804L16.4066 16.0474L17.3668 15.2471L16.4777 14.1801L15.5174 14.9804ZM15.6063 17.7559H4.3898V19.0059H15.6063V17.7559ZM3.58957 16.0474L4.47872 14.9804L3.51843 14.1801L2.62929 15.2471L3.58957 16.0474ZM13.4368 12.7559H12.4981V14.0059H13.4368V12.7559ZM6.55931 14.0059H7.49806V12.7559H6.55931V14.0059ZM4.3898 17.7559C3.50663 17.7559 3.02418 16.7258 3.58957 16.0474L2.62929 15.2471C1.38543 16.7397 2.44683 19.0059 4.3898 19.0059V17.7559ZM16.4066 16.0474C16.9719 16.7258 16.4895 17.7559 15.6063 17.7559V19.0059C17.5493 19.0059 18.6107 16.7397 17.3668 15.2471L16.4066 16.0474ZM16.4777 14.1801C15.7257 13.2777 14.6116 12.7559 13.4368 12.7559V14.0059C14.2406 14.0059 15.0028 14.3629 15.5174 14.9804L16.4777 14.1801ZM4.47872 14.9804C4.99328 14.3629 5.75553 14.0059 6.55931 14.0059V12.7559C5.38456 12.7559 4.27049 13.2777 3.51843 14.1801L4.47872 14.9804Z" fill="#40C96D"/>
<path id="Vector_2" d="M9.375 15.8796C9.375 16.2247 9.65483 16.5046 10 16.5046C10.3452 16.5046 10.625 16.2247 10.625 15.8796H9.375ZM11.6667 2.33789H16.1517V1.08789H11.6667V2.33789ZM16.338 2.63939L15.4607 4.39404L16.5787 4.95306L17.456 3.19841L16.338 2.63939ZM15.4607 5.69841L16.338 7.45306L17.456 6.89404L16.5787 5.13939L15.4607 5.69841ZM10.625 15.8796V8.37956H9.375V15.8796H10.625ZM10.625 8.37956V3.37956H9.375V8.37956H10.625ZM16.1517 7.75456H10V9.00456H16.1517V7.75456ZM16.338 7.45306C16.4072 7.59157 16.3065 7.75456 16.1517 7.75456V9.00456C17.2357 9.00456 17.9408 7.86368 17.456 6.89404L16.338 7.45306ZM15.4607 4.39404C15.2553 4.8046 15.2553 5.28785 15.4607 5.69841L16.5787 5.13939C16.5493 5.08074 16.5493 5.01171 16.5787 4.95306L15.4607 4.39404ZM16.1517 2.33789C16.3065 2.33789 16.4072 2.50087 16.338 2.63939L17.456 3.19841C17.9408 2.22877 17.2357 1.08789 16.1517 1.08789V2.33789ZM11.6667 1.08789C10.401 1.08789 9.375 2.11391 9.375 3.37956H10.625C10.625 2.80426 11.0913 2.33789 11.6667 2.33789V1.08789Z" fill="#40C96D"/>
</g>
</svg>
