<svg width="20" height="20" viewBox="0 0 20 20" fill="none" xmlns="http://www.w3.org/2000/svg">
<g id="Outline / Essentional, UI / Crown Minimalistic">
<g id="Vector">
<path fill-rule="evenodd" clip-rule="evenodd" d="M9.85844 4.02351C9.69819 4.26138 9.5153 4.63343 9.24082 5.19587L7.73907 8.27318C7.60662 8.54462 7.49154 8.78047 7.38145 8.95965C7.26871 9.14314 7.12004 9.33882 6.88846 9.45536C6.67951 9.56052 6.44407 9.59915 6.21105 9.56233C5.94886 9.52089 5.7499 9.37197 5.59413 9.22795C5.44312 9.08832 5.2741 8.89588 5.08237 8.67759L5.06578 8.6587C4.6599 8.19664 4.38058 7.87957 4.16425 7.67733C4.05719 7.57725 3.98682 7.52594 3.94356 7.50176C3.94336 7.50165 3.94317 7.50154 3.94297 7.50143C3.92046 7.50964 3.89431 7.52591 3.86851 7.55569C3.86848 7.55567 3.86856 7.55566 3.86851 7.55569C3.87023 7.55659 3.83122 7.63586 3.83364 7.94626C3.83616 8.27113 3.87826 8.7233 3.93919 9.3707L4.09199 10.9942C4.21898 12.3435 4.31101 13.3133 4.46532 14.0486C4.61784 14.7755 4.81873 15.2047 5.11779 15.5106C5.4095 15.809 5.7842 15.9798 6.40869 16.0711C7.05357 16.1654 7.89684 16.1667 9.09357 16.1667H10.9068C12.1035 16.1667 12.9468 16.1654 13.5917 16.0711C14.2162 15.9798 14.5909 15.809 14.8826 15.5106C15.1816 15.2047 15.3825 14.7755 15.5351 14.0486C15.6894 13.3133 15.7814 12.3435 15.9084 10.9942L16.0612 9.37071C16.1221 8.7233 16.1642 8.27113 16.1667 7.94626C16.1691 7.63586 16.13 7.55657 16.1317 7.55567C16.132 7.55553 16.1332 7.55722 16.1357 7.56019C16.1086 7.52753 16.081 7.51005 16.0574 7.50143C16.0572 7.50154 16.057 7.50165 16.0568 7.50176C16.0136 7.52594 15.9432 7.57725 15.8361 7.67733C15.6198 7.87957 15.3405 8.19664 14.9346 8.6587L14.918 8.67758C14.7263 8.89587 14.5573 9.08832 14.4062 9.22795C14.2505 9.37197 14.0515 9.52089 13.7893 9.56233C13.5563 9.59915 13.3209 9.56052 13.1119 9.45536C12.8803 9.33882 12.7317 9.14314 12.6189 8.95965C12.5088 8.78046 12.3937 8.5446 12.2613 8.27314L10.7595 5.19587C10.4851 4.63343 10.3022 4.26138 10.1419 4.02351C10.0741 3.92277 10.0274 3.8724 10.0002 3.84814C9.97294 3.8724 9.92631 3.92277 9.85844 4.02351ZM10.0296 3.82732C10.0295 3.82763 10.0275 3.8289 10.0234 3.83019C10.0276 3.82765 10.0296 3.827 10.0296 3.82732ZM9.97698 3.83019C9.97291 3.8289 9.97083 3.82763 9.97081 3.82732C9.97078 3.827 9.97282 3.82765 9.97698 3.83019ZM9.02908 3.46479C9.23021 3.16625 9.52929 2.83334 10.0002 2.83334C10.4711 2.83334 10.7702 3.16625 10.9713 3.46479C11.1754 3.76779 11.3884 4.20433 11.641 4.72189L13.1495 7.81307C13.2955 8.11229 13.3894 8.3035 13.471 8.43615C13.5275 8.52822 13.5584 8.55786 13.5657 8.56414C13.5865 8.57383 13.6059 8.57692 13.6238 8.57566C13.6354 8.56924 13.6678 8.54879 13.7274 8.49371C13.8354 8.3938 13.9699 8.24162 14.1833 7.99874L14.2027 7.97667C14.5845 7.54201 14.8963 7.18696 15.1532 6.94683C15.2849 6.82369 15.4234 6.71021 15.5689 6.62888C15.7168 6.54617 15.9026 6.47971 16.1146 6.49833C16.43 6.52603 16.7098 6.68553 16.906 6.92259C17.1427 7.20859 17.1694 7.6084 17.1667 7.95404C17.1638 8.3274 17.1172 8.82293 17.0592 9.43867L16.901 11.1199C16.7776 12.4303 16.6811 13.4566 16.5137 14.254C16.3433 15.0663 16.087 15.7091 15.5977 16.2097C15.101 16.7178 14.4906 16.9503 13.7364 17.0606C13.0109 17.1667 12.0944 17.1667 10.9464 17.1667H9.05394C7.90596 17.1667 6.98952 17.1667 6.26399 17.0606C5.50973 16.9503 4.89941 16.7178 4.40271 16.2097C3.91336 15.7091 3.6571 15.0663 3.48663 14.254C3.31931 13.4566 3.22273 12.4303 3.0994 11.1199L2.94117 9.43869C2.88321 8.82294 2.83657 8.32741 2.83367 7.95404C2.83098 7.6084 2.85762 7.20859 3.09433 6.92259C3.29053 6.68553 3.57038 6.52603 3.88576 6.49833C4.09775 6.47971 4.28354 6.54617 4.43149 6.62888C4.57699 6.71021 4.71543 6.82369 4.84715 6.94683C5.10402 7.18696 5.41589 7.542 5.79768 7.97666L5.81708 7.99874C6.03043 8.24162 6.16497 8.3938 6.27302 8.49371C6.33259 8.54879 6.36498 8.56924 6.37654 8.57566C6.39445 8.57692 6.41387 8.57382 6.4347 8.56414C6.44194 8.55786 6.47285 8.52823 6.52942 8.43615C6.61093 8.3035 6.70486 8.11229 6.85089 7.81307L8.3594 4.7219C8.61194 4.20434 8.82496 3.76779 9.02908 3.46479Z" fill="#40C96D"/>
<path d="M3.86851 7.55569C3.89431 7.52591 3.92046 7.50964 3.94297 7.50143C3.94317 7.50154 3.94336 7.50165 3.94356 7.50176C3.98682 7.52594 4.05719 7.57725 4.16425 7.67733C4.38058 7.87957 4.6599 8.19664 5.06578 8.6587L5.08237 8.67759C5.27409 8.89588 5.44312 9.08832 5.59413 9.22795C5.7499 9.37197 5.94886 9.52089 6.21105 9.56233C6.44407 9.59915 6.67951 9.56052 6.88846 9.45536C7.12004 9.33882 7.26871 9.14314 7.38145 8.95965C7.49154 8.78047 7.60662 8.54462 7.73907 8.27318L9.24082 5.19587C9.5153 4.63343 9.69819 4.26138 9.85844 4.02351C9.92631 3.92277 9.97294 3.8724 10.0002 3.84814C10.0274 3.8724 10.0741 3.92277 10.1419 4.02351C10.3022 4.26138 10.4851 4.63343 10.7595 5.19587L12.2613 8.27314C12.3937 8.5446 12.5088 8.78046 12.6189 8.95965C12.7317 9.14314 12.8803 9.33882 13.1119 9.45536C13.3209 9.56052 13.5563 9.59915 13.7893 9.56233C14.0515 9.52089 14.2505 9.37197 14.4062 9.22795C14.5573 9.08832 14.7263 8.89587 14.918 8.67758L14.9346 8.6587C15.3405 8.19664 15.6198 7.87957 15.8361 7.67733C15.9432 7.57725 16.0136 7.52594 16.0568 7.50176C16.057 7.50165 16.0572 7.50154 16.0574 7.50143C16.081 7.51005 16.1086 7.52753 16.1357 7.56019C16.1332 7.55722 16.132 7.55553 16.1317 7.55567C16.13 7.55657 16.1691 7.63586 16.1667 7.94626C16.1642 8.27113 16.1221 8.7233 16.0612 9.3707L15.9084 10.9942C15.7814 12.3435 15.6894 13.3133 15.5351 14.0486C15.3825 14.7755 15.1816 15.2047 14.8826 15.5106C14.5909 15.809 14.2162 15.9798 13.5917 16.0711C12.9468 16.1654 12.1035 16.1667 10.9068 16.1667H9.09357C7.89684 16.1667 7.05357 16.1654 6.40869 16.0711C5.7842 15.9798 5.4095 15.809 5.11779 15.5106C4.81873 15.2047 4.61784 14.7755 4.46532 14.0486C4.31101 13.3133 4.21898 12.3435 4.09199 10.9942L3.93919 9.3707C3.87826 8.7233 3.83616 8.27113 3.83364 7.94626C3.83122 7.63586 3.87023 7.55659 3.86851 7.55569ZM3.86851 7.55569C3.86848 7.55567 3.86856 7.55566 3.86851 7.55569ZM10.0296 3.82732C10.0295 3.82763 10.0275 3.8289 10.0234 3.83019C10.0276 3.82765 10.0296 3.827 10.0296 3.82732ZM9.97698 3.83019C9.97291 3.8289 9.97083 3.82763 9.97081 3.82732C9.97078 3.827 9.97282 3.82765 9.97698 3.83019ZM10.0002 2.83334C9.52929 2.83334 9.23021 3.16625 9.02908 3.46479C8.82496 3.76779 8.61194 4.20434 8.3594 4.7219L6.85089 7.81307C6.70486 8.11229 6.61093 8.3035 6.52942 8.43615C6.47285 8.52823 6.44194 8.55786 6.4347 8.56414C6.41387 8.57382 6.39445 8.57692 6.37654 8.57566C6.36498 8.56924 6.33259 8.54879 6.27302 8.49371C6.16497 8.3938 6.03043 8.24162 5.81708 7.99874L5.79768 7.97666C5.41589 7.542 5.10402 7.18696 4.84715 6.94683C4.71543 6.82369 4.57699 6.71021 4.43149 6.62888C4.28354 6.54617 4.09775 6.47971 3.88576 6.49833C3.57038 6.52603 3.29053 6.68553 3.09433 6.92259C2.85762 7.20859 2.83098 7.6084 2.83367 7.95404C2.83657 8.32741 2.88321 8.82294 2.94117 9.43869L3.0994 11.1199C3.22273 12.4303 3.31931 13.4566 3.48663 14.254C3.6571 15.0663 3.91336 15.7091 4.40271 16.2097C4.89941 16.7178 5.50973 16.9503 6.26399 17.0606C6.98952 17.1667 7.90596 17.1667 9.05394 17.1667H10.9464C12.0944 17.1667 13.0109 17.1667 13.7364 17.0606C14.4906 16.9503 15.101 16.7178 15.5977 16.2097C16.087 15.7091 16.3433 15.0663 16.5137 14.254C16.6811 13.4566 16.7776 12.4303 16.901 11.1199L17.0592 9.43867C17.1172 8.82293 17.1638 8.3274 17.1667 7.95404C17.1694 7.6084 17.1428 7.20859 16.906 6.92259C16.7098 6.68553 16.43 6.52603 16.1146 6.49833C15.9026 6.47971 15.7168 6.54617 15.5689 6.62888C15.4234 6.71021 15.2849 6.82369 15.1532 6.94683C14.8963 7.18696 14.5845 7.54201 14.2027 7.97667L14.1833 7.99874C13.9699 8.24162 13.8354 8.3938 13.7273 8.49371C13.6678 8.54879 13.6354 8.56924 13.6238 8.57566C13.6059 8.57692 13.5865 8.57383 13.5657 8.56414C13.5584 8.55786 13.5275 8.52822 13.471 8.43615C13.3894 8.3035 13.2955 8.11229 13.1495 7.81307L11.641 4.72189C11.3884 4.20433 11.1754 3.76779 10.9713 3.46479C10.7702 3.16625 10.4711 2.83334 10.0002 2.83334Z" stroke="#40C96D" stroke-width="0.4"/>
</g>
</g>
</svg>
