<svg width="20" height="21" viewBox="0 0 20 21" fill="none" xmlns="http://www.w3.org/2000/svg">
<g id="Linear / Settings, Fine Tuning / Widget 4">
<path id="Rectangle 1880" d="M3.66797 6.38151C3.66797 5.12443 3.66797 4.49589 4.05849 4.10537C4.44902 3.71484 5.07756 3.71484 6.33464 3.71484C7.59171 3.71484 8.22025 3.71484 8.61078 4.10537C9.0013 4.49589 9.0013 5.12443 9.0013 6.38151V13.7148C9.0013 14.9719 9.0013 15.6005 8.61078 15.991C8.22025 16.3815 7.59171 16.3815 6.33464 16.3815C5.07756 16.3815 4.44902 16.3815 4.05849 15.991C3.66797 15.6005 3.66797 14.9719 3.66797 13.7148V6.38151Z" stroke="#40C96D"/>
<path id="Rectangle 1884" d="M11 12.3815C11 11.1244 11 10.4959 11.3905 10.1054C11.781 9.71484 12.4096 9.71484 13.6667 9.71484C14.9237 9.71484 15.5523 9.71484 15.9428 10.1054C16.3333 10.4959 16.3333 11.1244 16.3333 12.3815V13.7148C16.3333 14.9719 16.3333 15.6005 15.9428 15.991C15.5523 16.3815 14.9237 16.3815 13.6667 16.3815C12.4096 16.3815 11.781 16.3815 11.3905 15.991C11 15.6005 11 14.9719 11 13.7148V12.3815Z" stroke="#40C96D"/>
<path id="Rectangle 1881" d="M11 5.71484C11 5.09359 11 4.78296 11.1015 4.53793C11.2368 4.21123 11.4964 3.95166 11.8231 3.81634C12.0681 3.71484 12.3787 3.71484 13 3.71484H14.3333C14.9546 3.71484 15.2652 3.71484 15.5102 3.81634C15.8369 3.95166 16.0965 4.21123 16.2318 4.53793C16.3333 4.78296 16.3333 5.09359 16.3333 5.71484C16.3333 6.3361 16.3333 6.64673 16.2318 6.89176C16.0965 7.21846 15.8369 7.47802 15.5102 7.61335C15.2652 7.71484 14.9546 7.71484 14.3333 7.71484H13C12.3787 7.71484 12.0681 7.71484 11.8231 7.61335C11.4964 7.47802 11.2368 7.21846 11.1015 6.89176C11 6.64673 11 6.3361 11 5.71484Z" stroke="#40C96D"/>
</g>
</svg>
