<svg width="20" height="21" viewBox="0 0 20 21" fill="none" xmlns="http://www.w3.org/2000/svg">
<g id="ticket.1">
<g id="Vector">
<path d="M7.70964 6.71354C7.70964 7.05872 7.98946 7.33854 8.33464 7.33854C8.6798 7.33854 8.95964 7.05872 8.95964 6.71354H7.70964ZM8.95964 5.04688C8.95964 4.7017 8.6798 4.42188 8.33464 4.42188C7.98946 4.42188 7.70964 4.7017 7.70964 5.04688H8.95964ZM7.70964 15.0469C7.70964 15.392 7.98946 15.6719 8.33464 15.6719C8.6798 15.6719 8.95964 15.392 8.95964 15.0469H7.70964ZM8.95964 13.3802C8.95964 13.035 8.6798 12.7552 8.33464 12.7552C7.98946 12.7552 7.70964 13.035 7.70964 13.3802H8.95964ZM7.70964 10.8802C7.70964 11.2254 7.98946 11.5052 8.33464 11.5052C8.6798 11.5052 8.95964 11.2254 8.95964 10.8802H7.70964ZM8.95964 9.21354C8.95964 8.86837 8.6798 8.58854 8.33464 8.58854C7.98946 8.58854 7.70964 8.86837 7.70964 9.21354H8.95964ZM5.0013 16.9219C3.50553 16.9219 2.29297 15.7093 2.29297 14.2135H1.04297C1.04297 16.3997 2.81518 18.1719 5.0013 18.1719V16.9219ZM17.7096 14.2135C17.7096 15.7093 16.4971 16.9219 15.0013 16.9219V18.1719C17.1875 18.1719 18.9596 16.3997 18.9596 14.2135H17.7096ZM15.0013 3.17188C16.4971 3.17188 17.7096 4.38443 17.7096 5.88021H18.9596C18.9596 3.69408 17.1875 1.92188 15.0013 1.92188V3.17188ZM5.0013 1.92188C2.81518 1.92188 1.04297 3.69408 1.04297 5.88021H2.29297C2.29297 4.38443 3.50553 3.17188 5.0013 3.17188V1.92188ZM17.7209 11.8193C16.9859 11.5649 16.4596 10.8665 16.4596 10.0469H15.2096C15.2096 11.4155 16.0891 12.5771 17.3119 13.0005L17.7209 11.8193ZM16.4596 10.0469C16.4596 9.22721 16.9859 8.52887 17.7209 8.27446L17.3119 7.09325C16.0891 7.5166 15.2096 8.67821 15.2096 10.0469H16.4596ZM3.54297 10.0469C3.54297 10.8665 3.01668 11.5649 2.28174 11.8193L2.69069 13.0005C3.91348 12.5771 4.79297 11.4155 4.79297 10.0469H3.54297ZM2.28174 8.27446C3.01668 8.52887 3.54297 9.22721 3.54297 10.0469H4.79297C4.79297 8.67821 3.91349 7.5166 2.69069 7.09325L2.28174 8.27446ZM18.9596 6.71354V5.88021H17.7096V6.71354H18.9596ZM17.7096 13.3802V14.2135H18.9596V13.3802H17.7096ZM1.04297 13.3802V14.2135H2.29297V13.3802H1.04297ZM2.29297 6.71354V5.88021H1.04297V6.71354H2.29297ZM2.28174 11.8193C1.71618 12.0151 1.04297 12.5448 1.04297 13.3802H2.29297C2.29297 13.3336 2.31031 13.2725 2.37774 13.198C2.44847 13.1196 2.55942 13.046 2.69069 13.0005L2.28174 11.8193ZM17.7209 8.27446C18.2865 8.07865 18.9596 7.54892 18.9596 6.71354H17.7096C17.7096 6.7601 17.6923 6.82118 17.6249 6.8958C17.5541 6.97408 17.4432 7.0478 17.3119 7.09325L17.7209 8.27446ZM2.69069 7.09325C2.55942 7.0478 2.44847 6.97408 2.37774 6.8958C2.31031 6.82118 2.29297 6.7601 2.29297 6.71354H1.04297C1.04297 7.54892 1.71618 8.07865 2.28174 8.27446L2.69069 7.09325ZM17.3119 13.0005C17.4432 13.046 17.5541 13.1196 17.6249 13.198C17.6923 13.2725 17.7096 13.3336 17.7096 13.3802H18.9596C18.9596 12.5448 18.2865 12.0151 17.7209 11.8193L17.3119 13.0005ZM8.95964 6.71354V5.04688H7.70964V6.71354H8.95964ZM8.95964 15.0469V13.3802H7.70964V15.0469H8.95964ZM8.95964 10.8802V9.21354H7.70964V10.8802H8.95964ZM5.0013 3.17188H15.0013V1.92188H5.0013V3.17188ZM15.0013 16.9219H5.0013V18.1719H15.0013V16.9219Z" fill="#40C96D"/>
<path d="M17.5164 12.4099L17.3119 13.0005M17.3119 13.0005C16.0891 12.5771 15.2096 11.4155 15.2096 10.0469M17.3119 13.0005L17.7209 11.8193M17.3119 13.0005C17.4432 13.046 17.5541 13.1196 17.6249 13.198C17.6923 13.2725 17.7096 13.3336 17.7096 13.3802M17.5164 7.68385L17.7209 8.27446M17.7209 8.27446C16.9859 8.52888 16.4596 9.22721 16.4596 10.0469M17.7209 8.27446L17.3119 7.09325M17.7209 8.27446C18.2865 8.07865 18.9596 7.54892 18.9596 6.71354M2.48621 12.4099L2.69069 13.0005M2.69069 13.0005L2.28174 11.8193M2.69069 13.0005C3.91348 12.5771 4.79297 11.4155 4.79297 10.0469M2.69069 13.0005C2.55942 13.046 2.44847 13.1196 2.37774 13.198C2.31031 13.2725 2.29297 13.3336 2.29297 13.3802M2.48621 7.68385L2.28174 8.27446M2.28174 8.27446C3.01668 8.52888 3.54297 9.22721 3.54297 10.0469M2.28174 8.27446L2.69069 7.09325M2.28174 8.27446C1.71618 8.07865 1.04297 7.54892 1.04297 6.71354M7.70964 6.71354C7.70964 7.05872 7.98946 7.33854 8.33464 7.33854C8.6798 7.33854 8.95964 7.05872 8.95964 6.71354M7.70964 6.71354H8.95964M7.70964 6.71354V5.04687M8.95964 6.71354V5.04687M8.95964 5.04687C8.95964 4.7017 8.6798 4.42187 8.33464 4.42187C7.98946 4.42187 7.70964 4.7017 7.70964 5.04687M8.95964 5.04687H7.70964M7.70964 15.0469C7.70964 15.392 7.98946 15.6719 8.33464 15.6719C8.6798 15.6719 8.95964 15.392 8.95964 15.0469M7.70964 15.0469H8.95964M7.70964 15.0469V13.3802M8.95964 15.0469V13.3802M8.95964 13.3802C8.95964 13.035 8.6798 12.7552 8.33464 12.7552C7.98946 12.7552 7.70964 13.035 7.70964 13.3802M8.95964 13.3802H7.70964M7.70964 10.8802C7.70964 11.2254 7.98946 11.5052 8.33464 11.5052C8.6798 11.5052 8.95964 11.2254 8.95964 10.8802M7.70964 10.8802H8.95964M7.70964 10.8802V9.21354M8.95964 10.8802V9.21354M8.95964 9.21354C8.95964 8.86837 8.6798 8.58854 8.33464 8.58854C7.98946 8.58854 7.70964 8.86837 7.70964 9.21354M8.95964 9.21354H7.70964M5.0013 16.9219C3.50553 16.9219 2.29297 15.7093 2.29297 14.2135M5.0013 16.9219V18.1719M5.0013 16.9219H15.0013M2.29297 14.2135H1.04297M2.29297 14.2135V13.3802M1.04297 14.2135C1.04297 16.3997 2.81518 18.1719 5.0013 18.1719M1.04297 14.2135V13.3802M5.0013 18.1719H15.0013M17.7096 14.2135C17.7096 15.7093 16.4971 16.9219 15.0013 16.9219M17.7096 14.2135H18.9596M17.7096 14.2135V13.3802M15.0013 16.9219V18.1719M15.0013 18.1719C17.1875 18.1719 18.9596 16.3997 18.9596 14.2135M18.9596 14.2135V13.3802M15.0013 3.17187C16.4971 3.17187 17.7096 4.38443 17.7096 5.88021M15.0013 3.17187V1.92188M15.0013 3.17187H5.0013M17.7096 5.88021H18.9596M17.7096 5.88021V6.71354M18.9596 5.88021C18.9596 3.69408 17.1875 1.92188 15.0013 1.92188M18.9596 5.88021V6.71354M15.0013 1.92188H5.0013M5.0013 1.92188C2.81518 1.92188 1.04297 3.69408 1.04297 5.88021M5.0013 1.92188V3.17187M1.04297 5.88021H2.29297M1.04297 5.88021V6.71354M2.29297 5.88021C2.29297 4.38443 3.50553 3.17187 5.0013 3.17187M2.29297 5.88021V6.71354M17.7209 11.8193C16.9859 11.5649 16.4596 10.8665 16.4596 10.0469M17.7209 11.8193C18.2865 12.0151 18.9596 12.5448 18.9596 13.3802M16.4596 10.0469H15.2096M15.2096 10.0469C15.2096 8.67821 16.0891 7.5166 17.3119 7.09325M17.3119 7.09325C17.4432 7.0478 17.5541 6.97408 17.6249 6.8958C17.6923 6.82118 17.7096 6.7601 17.7096 6.71354M3.54297 10.0469C3.54297 10.8665 3.01668 11.5649 2.28174 11.8193M3.54297 10.0469H4.79297M2.28174 11.8193C1.71618 12.0151 1.04297 12.5448 1.04297 13.3802M4.79297 10.0469C4.79297 8.67821 3.91349 7.5166 2.69069 7.09325M2.69069 7.09325C2.55942 7.0478 2.44847 6.97408 2.37774 6.8958C2.31031 6.82118 2.29297 6.7601 2.29297 6.71354M18.9596 6.71354H17.7096M17.7096 13.3802H18.9596M1.04297 13.3802H2.29297M2.29297 6.71354H1.04297" stroke="#40C96D" stroke-width="0.4"/>
</g>
</g>
</svg>
