<svg width="42" height="43" viewBox="0 0 42 43" fill="none" xmlns="http://www.w3.org/2000/svg">
<g id="Linear / Essentional, UI / Flag 2">
<path id="Vector" d="M11.1992 35.5693V24.3693M11.1992 24.3693V10.3693M11.1992 24.3693L14.6582 23.6775C16.9689 23.2154 19.3642 23.4353 21.5521 24.3105C23.9231 25.2589 26.5326 25.436 29.01 24.8166L29.1502 24.7816C29.9707 24.5765 30.3598 23.637 29.9247 22.9118L27.7398 19.2702C27.2617 18.4734 27.0226 18.075 26.9659 17.6416C26.9423 17.4609 26.9423 17.2778 26.9659 17.097C27.0226 16.6637 27.2617 16.2653 27.7398 15.4684L29.5297 12.4852C29.9982 11.7044 29.2888 10.7469 28.4054 10.9678C26.3211 11.4889 24.1255 11.3399 22.1307 10.5419L21.5521 10.3105C19.3642 9.43532 16.9689 9.2154 14.6582 9.67755L11.1992 10.3693M11.1992 10.3693V7.56934" stroke="#3F3F3F" stroke-width="2" stroke-linecap="round"/>
</g>
</svg>
