<svg width="20" height="20" viewBox="0 0 20 20" fill="none" xmlns="http://www.w3.org/2000/svg">
<g id="flag.3">
<path id="Vector" d="M12.5 12.7083C12.1549 12.7083 11.875 12.9882 11.875 13.3333C11.875 13.6785 12.1549 13.9583 12.5 13.9583V12.7083ZM7.50001 13.9583C7.8452 13.9583 8.12501 13.6785 8.12501 13.3333C8.12501 12.9882 7.8452 12.7083 7.50001 12.7083V13.9583ZM15.5194 14.9328L16.4085 15.9998L17.3688 15.1996L16.4796 14.1326L15.5194 14.9328ZM15.6083 17.7083H4.39175V18.9583H15.6083V17.7083ZM3.59152 15.9998L4.48067 14.9328L3.52039 14.1326L2.63125 15.1996L3.59152 15.9998ZM13.4388 12.7083H12.5V13.9583H13.4388V12.7083ZM6.56126 13.9583H7.50001V12.7083H6.56126V13.9583ZM4.39175 17.7083C3.50859 17.7083 3.02614 16.6783 3.59152 15.9998L2.63125 15.1996C1.38739 16.6922 2.44879 18.9583 4.39175 18.9583V17.7083ZM16.4085 15.9998C16.9739 16.6783 16.4915 17.7083 15.6083 17.7083V18.9583C17.5512 18.9583 18.6126 16.6922 17.3688 15.1996L16.4085 15.9998ZM16.4796 14.1326C15.7276 13.2302 14.6135 12.7083 13.4388 12.7083V13.9583C14.2425 13.9583 15.0048 14.3153 15.5194 14.9328L16.4796 14.1326ZM4.48067 14.9328C4.99524 14.3153 5.75749 13.9583 6.56126 13.9583V12.7083C5.38651 12.7083 4.27245 13.2302 3.52039 14.1326L4.48067 14.9328Z" fill="#40C96D"/>
<path id="Vector_2" d="M9.375 15.8333C9.375 16.1785 9.65483 16.4583 10 16.4583C10.3452 16.4583 10.625 16.1785 10.625 15.8333H9.375ZM11.6667 2.29167H16.1517V1.04167H11.6667V2.29167ZM16.338 2.59317L15.4607 4.34782L16.5787 4.90684L17.456 3.15219L16.338 2.59317ZM15.4607 5.65219L16.338 7.40684L17.456 6.84782L16.5787 5.09317L15.4607 5.65219ZM10.625 15.8333V8.33334H9.375V15.8333H10.625ZM10.625 8.33334V3.33334H9.375V8.33334H10.625ZM16.1517 7.70834H10V8.95834H16.1517V7.70834ZM16.338 7.40684C16.4072 7.54536 16.3065 7.70834 16.1517 7.70834V8.95834C17.2357 8.95834 17.9408 7.81746 17.456 6.84782L16.338 7.40684ZM15.4607 4.34782C15.2553 4.75838 15.2553 5.24163 15.4607 5.65219L16.5787 5.09317C16.5493 5.03452 16.5493 4.96549 16.5787 4.90684L15.4607 4.34782ZM16.1517 2.29167C16.3065 2.29167 16.4072 2.45466 16.338 2.59317L17.456 3.15219C17.9408 2.18255 17.2357 1.04167 16.1517 1.04167V2.29167ZM11.6667 1.04167C10.401 1.04167 9.375 2.06769 9.375 3.33334H10.625C10.625 2.75804 11.0913 2.29167 11.6667 2.29167V1.04167Z" fill="#40C96D"/>
</g>
</svg>
