<svg width="20" height="21" viewBox="0 0 20 21" fill="none" xmlns="http://www.w3.org/2000/svg">
<g id="bag-remove">
<g id="Group 126">
<path id="Vector" d="M12.7096 5.04622C12.7096 5.3914 12.9895 5.67122 13.3346 5.67122C13.6798 5.67122 13.9596 5.3914 13.9596 5.04622H12.7096ZM6.04297 5.04622C6.04297 5.3914 6.32279 5.67122 6.66797 5.67122C7.01314 5.67122 7.29297 5.3914 7.29297 5.04622H6.04297ZM10.0013 2.33789C11.4971 2.33789 12.7096 3.55045 12.7096 5.04622H13.9596C13.9596 2.8601 12.1875 1.08789 10.0013 1.08789V2.33789ZM10.0013 1.08789C7.81518 1.08789 6.04297 2.8601 6.04297 5.04622H7.29297C7.29297 3.55045 8.50555 2.33789 10.0013 2.33789V1.08789Z" fill="#40C96D"/>
<path id="Vector_2" d="M7.10866 5.67188H12.8901V4.42188H7.10866V5.67188ZM15.5775 8.04428L16.4109 14.711L17.6512 14.5559L16.8179 7.88924L15.5775 8.04428ZM13.7235 17.7552H6.27532V19.0052H13.7235V17.7552ZM3.5879 14.711L4.42123 8.04428L3.18089 7.88923L2.34756 14.5559L3.5879 14.711ZM6.27532 17.7552C4.64626 17.7552 3.38584 16.3275 3.5879 14.711L2.34756 14.5559C2.05224 16.9185 3.89439 19.0052 6.27532 19.0052V17.7552ZM16.4109 14.711C16.613 16.3275 15.3525 17.7552 13.7235 17.7552V19.0052C16.1044 19.0052 17.9465 16.9185 17.6512 14.5559L16.4109 14.711ZM12.8901 5.67188C14.256 5.67188 15.4081 6.68895 15.5775 8.04428L16.8179 7.88924C16.5703 5.90838 14.8864 4.42188 12.8901 4.42188V5.67188ZM7.10866 4.42188C5.11237 4.42188 3.4285 5.90837 3.18089 7.88923L4.42123 8.04428C4.59065 6.68895 5.74278 5.67188 7.10866 5.67188V4.42188Z" fill="#40C96D"/>
<g id="Vector_3">
<path d="M9.99973 11.9392H9.74221C9.74221 12.05 9.81315 12.1484 9.91828 12.1835L9.99973 11.9392ZM10.2572 10.2224C10.2572 10.0802 10.1419 9.96485 9.99973 9.96485C9.85751 9.96485 9.74221 10.0802 9.74221 10.2224H10.2572ZM10.9484 12.5268C11.0833 12.5718 11.2291 12.4989 11.2741 12.364C11.3191 12.229 11.2462 12.0832 11.1113 12.0382L10.9484 12.5268ZM10.2572 11.9392V10.2224H9.74221V11.9392H10.2572ZM9.91828 12.1835L10.9484 12.5268L11.1113 12.0382L10.0812 11.6949L9.91828 12.1835ZM13.1758 11.9392C13.1758 13.6933 11.7538 15.1153 9.99973 15.1153V15.6303C12.0383 15.6303 13.6909 13.9778 13.6909 11.9392H13.1758ZM9.99973 15.1153C8.24562 15.1153 6.82364 13.6933 6.82364 11.9392H6.30859C6.30859 13.9778 7.96117 15.6303 9.99973 15.6303V15.1153ZM6.82364 11.9392C6.82364 10.1851 8.24562 8.76309 9.99973 8.76309V8.24805C7.96117 8.24805 6.30859 9.90062 6.30859 11.9392H6.82364ZM9.99973 8.76309C11.7538 8.76309 13.1758 10.1851 13.1758 11.9392H13.6909C13.6909 9.90062 12.0383 8.24805 9.99973 8.24805V8.76309Z" fill="#40C96D"/>
<path d="M9.74221 11.9392H9.99973L9.91828 12.1835M9.74221 11.9392C9.74221 12.05 9.81315 12.1484 9.91828 12.1835M9.74221 11.9392V10.2224M9.74221 11.9392H10.2572V10.2224M9.91828 12.1835L10.9484 12.5268M9.91828 12.1835L10.0812 11.6949L11.1113 12.0382M10.2572 10.2224C10.2572 10.0802 10.1419 9.96485 9.99973 9.96485C9.85751 9.96485 9.74221 10.0802 9.74221 10.2224M10.2572 10.2224H9.74221M10.9484 12.5268C11.0833 12.5718 11.2291 12.4989 11.2741 12.364C11.3191 12.229 11.2462 12.0832 11.1113 12.0382M10.9484 12.5268L11.1113 12.0382M13.1758 11.9392C13.1758 13.6933 11.7538 15.1153 9.99973 15.1153M13.1758 11.9392H13.6909M13.1758 11.9392C13.1758 10.1851 11.7538 8.76309 9.99973 8.76309M9.99973 15.1153V15.6303M9.99973 15.1153C8.24562 15.1153 6.82364 13.6933 6.82364 11.9392M9.99973 15.6303C12.0383 15.6303 13.6909 13.9778 13.6909 11.9392M9.99973 15.6303C7.96117 15.6303 6.30859 13.9778 6.30859 11.9392M13.6909 11.9392C13.6909 9.90062 12.0383 8.24805 9.99973 8.24805M6.82364 11.9392H6.30859M6.82364 11.9392C6.82364 10.1851 8.24562 8.76309 9.99973 8.76309M6.30859 11.9392C6.30859 9.90062 7.96117 8.24805 9.99973 8.24805M9.99973 8.76309V8.24805" stroke="#40C96D" stroke-width="0.6"/>
</g>
</g>
</g>
</svg>
