<svg width="20" height="21" viewBox="0 0 20 21" fill="none" xmlns="http://www.w3.org/2000/svg">
<g id="clipboard-05" clip-path="url(#clip0_7003_23177)">
<path id="Vector" d="M19.1949 10.3415L15.2759 9.03126C15.1964 9.01954 15.1247 8.97713 15.0762 8.91312C15.0276 8.84912 15.0061 8.76863 15.0162 8.68893V2.51526C15.0162 2.12572 14.9336 2.03129 14.5794 1.91324L10.2118 0.449504C10.1376 0.437176 10.0618 0.437176 9.98755 0.449504C9.90173 0.433499 9.81368 0.433499 9.72786 0.449504L5.36025 1.92505C5.2983 1.93354 5.23872 1.95457 5.18517 1.98685C5.13161 2.01913 5.08519 2.06198 5.04873 2.11279C5.01228 2.16361 4.98657 2.22131 4.97315 2.28239C4.95974 2.34347 4.9589 2.40664 4.97071 2.46805C4.97071 2.46805 4.97071 6.98911 4.97071 8.66533C4.97868 8.75046 4.95558 8.8356 4.90568 8.90503C4.85578 8.97445 4.78244 9.02349 4.69921 9.04306L0.803777 10.3415C0.473255 10.4478 0.390625 10.5658 0.390625 10.8963V17.5894C0.390625 17.9317 0.473255 18.0616 0.803777 18.1678L5.13597 19.6079L5.26582 19.6788H5.53732L7.04827 19.1476L9.79868 18.3095C9.86918 18.2998 9.94067 18.2998 10.0112 18.3095H10.141L14.0246 19.4899L14.4142 19.6434H14.7211L16.2439 19.124L19.2304 18.1206C19.2916 18.1106 19.3503 18.0886 19.403 18.0558C19.4558 18.0231 19.5015 17.9803 19.5377 17.9299C19.5739 17.8794 19.5998 17.8224 19.6139 17.7619C19.628 17.7015 19.63 17.6388 19.6199 17.5776V10.8963C19.6316 10.8316 19.6297 10.7651 19.6143 10.7012C19.5988 10.6372 19.5702 10.5772 19.5302 10.5249C19.4901 10.4727 19.4397 10.4294 19.3819 10.3978C19.3242 10.3662 19.2605 10.3471 19.1949 10.3415ZM13.9538 3.07007H14.1073V8.68893C14.116 8.76324 14.0983 8.83826 14.0573 8.90085C14.0163 8.96344 13.9546 9.0096 13.883 9.03126C13.0921 9.27915 12.313 9.55065 11.5221 9.81035L10.5896 10.1055H10.4479V4.49839C10.4372 4.41902 10.4567 4.3385 10.5027 4.27288C10.5486 4.20726 10.6176 4.16134 10.6958 4.14426L13.0567 3.36518L13.8004 3.11729L13.9538 3.07007ZM4.9589 16.8693V18.5928L2.01962 17.613H1.84256C1.6619 17.5937 1.49427 17.5098 1.37039 17.3769C1.2917 17.2117 1.26693 17.0258 1.29956 16.8457C1.29956 16.7867 1.29956 16.7277 1.29956 16.6687V11.4748L4.73462 12.6552C4.80436 12.6693 4.86666 12.7081 4.91004 12.7645C4.95342 12.8209 4.97497 12.8911 4.97071 12.9621L4.9589 16.8693ZM5.41927 11.8171H5.27762L2.75149 10.979L2.30293 10.8019L3.29449 10.4714C3.79027 10.3219 4.27425 10.1566 4.74643 9.97561C4.95336 9.89395 5.17324 9.84997 5.39566 9.84576C5.62181 9.85102 5.84538 9.89494 6.05671 9.97561C6.49347 10.1527 6.94203 10.2943 7.3906 10.436L7.96901 10.6248L8.16968 10.6957L8.26412 10.8727L8.00442 10.9908L5.54912 11.8053L5.41927 11.8171ZM9.53899 17.129C9.54727 17.1988 9.53043 17.2691 9.49149 17.3276C9.45254 17.386 9.39405 17.4286 9.32651 17.4478L6.13934 18.5101L5.86784 18.581V12.9267C5.85714 12.8442 5.87794 12.7607 5.92607 12.6929C5.97421 12.6251 6.04615 12.5779 6.12753 12.5608L9.37373 11.4866L9.53899 11.5692V17.129ZM9.53899 10.0464V10.1645L6.15114 8.98404C6.11701 8.98729 6.08258 8.98374 6.04982 8.97361C6.01707 8.96348 5.98665 8.94696 5.96031 8.92502C5.93397 8.90307 5.91224 8.87612 5.89637 8.84573C5.8805 8.81534 5.8708 8.78211 5.86784 8.74796V3.18811V3.02285L8.55923 3.91998L9.33831 4.14426C9.39148 4.16633 9.43796 4.20189 9.47316 4.24744C9.50836 4.29299 9.53105 4.34694 9.53899 4.40396C9.53899 6.26904 9.53899 8.11052 9.51538 10.0464H9.53899ZM9.99936 3.38879H9.86951L7.33158 2.52707L6.94203 2.35L9.88131 1.37024H10.1056L12.6671 2.22016L13.0449 2.40902L10.1764 3.36518C10.12 3.38666 10.0594 3.39474 9.99936 3.38879ZM14.1073 16.8811V18.5928L11.1798 17.613H11.0027C10.8221 17.5937 10.6544 17.5098 10.5306 17.3769C10.4519 17.2117 10.4271 17.0258 10.4597 16.8457C10.4656 16.7869 10.4656 16.7275 10.4597 16.6687V11.4748L10.6132 11.5338L13.8948 12.6198C13.9645 12.6339 14.0268 12.6727 14.0702 12.7291C14.1136 12.7855 14.1351 12.8557 14.1309 12.9267L14.1073 16.8811ZM14.5558 11.8171H14.4378L11.8999 10.9672L11.4867 10.7901L12.4192 10.495C12.8914 10.3415 13.3518 10.1881 13.8004 10.011C14.0395 9.91035 14.2963 9.85819 14.5558 9.85756C14.8192 9.85818 15.0798 9.91031 15.3231 10.011C15.7245 10.1763 16.1494 10.3061 16.5626 10.436L17.1292 10.6248L17.3299 10.6957L17.4361 10.8609L17.1882 10.979L14.7093 11.8053L14.5558 11.8171ZM18.6874 17.129C18.6987 17.2006 18.6833 17.2738 18.6441 17.3348C18.6049 17.3958 18.5447 17.4402 18.4749 17.4596L16.0196 18.3095L15.2877 18.5574L15.028 18.6282V18.4275C15.028 18.4275 15.028 14.3078 15.028 12.9385C15.0169 12.8546 15.0373 12.7695 15.0853 12.6997C15.1333 12.63 15.2054 12.5805 15.2877 12.5608L17.6486 11.7817L18.5221 11.4866H18.6755V17.129H18.6874Z" fill="#40C96D" stroke="#40C96D" stroke-width="0.2"/>
</g>
<defs>
<clipPath id="clip0_7003_23177">
<rect width="20" height="20" fill="white" transform="translate(0 0.0478516)"/>
</clipPath>
</defs>
</svg>
