<svg width="20" height="21" viewBox="0 0 20 21" fill="none" xmlns="http://www.w3.org/2000/svg">
<g id="Frame 1000008702">
<g id="Group 121">
<path id="Vector" d="M19.5766 10.0614H18.3861C18.3871 12.2671 17.5128 14.383 15.9551 15.9446C14.8746 17.0748 13.4844 17.8606 11.959 18.2035C8.71208 18.9251 5.97861 17.976 3.68359 15.5949L5.07115 13.5219C7.14692 15.964 9.65284 16.7799 12.6389 15.4257C13.6504 14.9479 14.5031 14.1891 15.0951 13.2399C15.6871 12.2906 15.9933 11.1911 15.9773 10.0725H14.7812L17.1789 6.46484L17.3121 6.65633L19.4351 9.85325C19.4765 9.91273 19.5219 9.96929 19.5711 10.0225L19.5766 10.0614Z" fill="#40C96D"/>
<path id="Vector_2" d="M2.81401 13.6528L0.421875 10.0646H1.58742C1.6346 9.59282 1.65125 9.13492 1.7345 8.69368C2.31727 5.64107 4.02118 3.42099 6.92672 2.29152C10.2957 0.989994 13.3289 1.7032 15.9541 4.18414C16.3177 4.52825 16.3093 4.53658 16.0318 4.95562L14.9412 6.58738C14.9419 6.59198 14.9419 6.59665 14.9412 6.60125C12.7794 4.08701 10.1847 3.27113 7.15428 4.83074C5.07572 5.8825 4.10444 7.72795 3.99621 10.059H5.20893L2.81401 13.6528Z" fill="#40C96D"/>
</g>
<path id="Vector_3" fill-rule="evenodd" clip-rule="evenodd" d="M6.71875 7.28379C6.71875 6.99762 6.95074 6.76562 7.23692 6.76562H12.7641C13.0502 6.76562 13.2822 6.99762 13.2822 7.28379C13.2822 7.56997 13.0502 7.80196 12.7641 7.80196H7.23692C6.95074 7.80196 6.71875 7.56997 6.71875 7.28379Z" fill="#40C96D" stroke="#40C96D" stroke-width="0.3"/>
<path id="Vector_4" fill-rule="evenodd" clip-rule="evenodd" d="M6.71875 10.0475C6.71875 9.76129 6.95074 9.5293 7.23692 9.5293H12.7641C13.0502 9.5293 13.2822 9.76129 13.2822 10.0475C13.2822 10.3336 13.0502 10.5656 12.7641 10.5656H7.23692C6.95074 10.5656 6.71875 10.3336 6.71875 10.0475Z" fill="#40C96D" stroke="#40C96D" stroke-width="0.3"/>
<path id="Vector_5" fill-rule="evenodd" clip-rule="evenodd" d="M6.71875 12.8111C6.71875 12.525 6.95074 12.293 7.23692 12.293H10.7879C11.074 12.293 11.306 12.525 11.306 12.8111C11.306 13.0973 11.074 13.3293 10.7879 13.3293H7.23692C6.95074 13.3293 6.71875 13.0973 6.71875 12.8111Z" fill="#40C96D" stroke="#40C96D" stroke-width="0.3"/>
</g>
</svg>
