<svg width="20" height="21" viewBox="0 0 20 21" fill="none" xmlns="http://www.w3.org/2000/svg">
<g id="Outline / Like / Star">
<g id="Vector">
<path fill-rule="evenodd" clip-rule="evenodd" d="M9.47878 3.6242C9.18786 4.00409 8.85948 4.59023 8.3825 5.44589L8.14037 5.88024C8.12578 5.90642 8.11137 5.93236 8.0971 5.95804C7.87489 6.35793 7.68734 6.69544 7.38514 6.92485C7.07968 7.15674 6.7073 7.24042 6.27453 7.33768C6.24672 7.34393 6.21866 7.35023 6.19035 7.35664L5.72016 7.46302C4.79263 7.67289 4.16163 7.81728 3.72943 7.9876C3.30768 8.15381 3.21865 8.28999 3.18472 8.39911C3.14891 8.51428 3.14784 8.69044 3.39998 9.09097C3.65589 9.49748 4.08762 10.0045 4.71901 10.7429L5.03955 11.1177C5.05818 11.1395 5.07664 11.161 5.09492 11.1823C5.3927 11.5297 5.64099 11.8193 5.75488 12.1856C5.86808 12.5496 5.83056 12.9321 5.78507 13.3959C5.78228 13.4244 5.77946 13.4531 5.77664 13.4822L5.72818 13.9823C5.63279 14.9666 5.56848 15.6444 5.59023 16.1326C5.61194 16.6199 5.71486 16.7546 5.7967 16.8168C5.86948 16.872 6.00403 16.9332 6.44235 16.8076C6.8878 16.6799 7.47983 16.4091 8.34833 16.0092L8.78856 15.8065C8.81567 15.794 8.84253 15.7816 8.86915 15.7693C9.27169 15.5832 9.62092 15.4217 10.0019 15.4217C10.383 15.4217 10.7322 15.5832 11.1347 15.7693C11.1614 15.7816 11.1882 15.794 11.2153 15.8065L11.6556 16.0092C12.5241 16.4091 13.1161 16.6799 13.5615 16.8076C13.9999 16.9332 14.1344 16.872 14.2072 16.8168C14.289 16.7546 14.3919 16.6199 14.4137 16.1326C14.4354 15.6444 14.3711 14.9666 14.2757 13.9823L14.2272 13.4822C14.2244 13.4531 14.2216 13.4244 14.2188 13.3959C14.1733 12.9321 14.1358 12.5496 14.249 12.1856C14.3629 11.8193 14.6112 11.5297 14.909 11.1823C14.9272 11.161 14.9457 11.1395 14.9643 11.1177L15.2849 10.7429C15.9163 10.0045 16.348 9.49748 16.6039 9.09096C16.856 8.69044 16.855 8.51428 16.8192 8.39911C16.7852 8.28999 16.6962 8.15381 16.2745 7.9876C15.8423 7.81728 15.2113 7.67289 14.2837 7.46302L13.8135 7.35664C13.7852 7.35023 13.7572 7.34392 13.7294 7.33767C13.2966 7.24042 12.9242 7.15674 12.6187 6.92485C12.3165 6.69544 12.129 6.35793 11.9068 5.95804C11.8925 5.93236 11.8781 5.90642 11.8635 5.88024L11.6214 5.44588C11.1444 4.59023 10.816 4.00409 10.5251 3.6242C10.2345 3.24467 10.086 3.21184 10.0019 3.21184C9.91789 3.21184 9.76943 3.24467 9.47878 3.6242ZM8.59884 2.95035C8.95105 2.49042 9.38638 2.10352 10.0019 2.10352C10.6175 2.10352 11.0528 2.49042 11.405 2.95035C11.7511 3.40227 12.1181 4.06064 12.5666 4.86528L12.8316 5.3406C13.1216 5.8609 13.1958 5.97143 13.2889 6.04208C13.3785 6.11008 13.494 6.14801 14.0581 6.27564L14.5754 6.39267C15.444 6.58918 16.1596 6.75107 16.6808 6.95646C17.2218 7.16967 17.6952 7.4839 17.8775 8.07C18.0579 8.65006 17.8552 9.18372 17.5419 9.68142C17.2374 10.165 16.7512 10.7335 16.1573 11.428L15.8067 11.838C15.4247 12.2847 15.3449 12.394 15.3073 12.5147C15.2691 12.6377 15.2727 12.7798 15.3304 13.3753L15.3833 13.9207C15.4732 14.8487 15.5466 15.6056 15.5209 16.1819C15.4947 16.7686 15.3615 17.332 14.8773 17.6995C14.3841 18.0739 13.8102 18.0318 13.2563 17.873C12.7191 17.7191 12.0494 17.4107 11.2362 17.0363L10.7518 16.8132C10.2218 16.5692 10.1083 16.5301 10.0019 16.5301C9.8956 16.5301 9.78212 16.5692 9.2521 16.8132L8.76764 17.0363C7.95447 17.4107 7.28481 17.7191 6.74763 17.873C6.19364 18.0318 5.61977 18.0739 5.12655 17.6995C4.64238 17.332 4.50914 16.7686 4.483 16.1819C4.45733 15.6056 4.53068 14.8487 4.62064 13.9207L4.67348 13.3753C4.73119 12.7798 4.73479 12.6377 4.69655 12.5147C4.65903 12.394 4.57923 12.2847 4.19723 11.838L3.84664 11.4281C3.25269 10.7336 2.76645 10.165 2.46203 9.68142C2.14872 9.18372 1.94601 8.65006 2.12639 8.07C2.30865 7.4839 2.78207 7.16967 3.32307 6.95646C3.84425 6.75107 4.55988 6.58918 5.42853 6.39267L5.47557 6.38202L5.94576 6.27564C6.50985 6.14801 6.62541 6.11008 6.715 6.04208C6.80806 5.97143 6.88226 5.8609 7.1723 5.3406L7.43727 4.86527C7.88578 4.06064 8.25276 3.40227 8.59884 2.95035Z" fill="#40C96D"/>
<path d="M5.47557 6.38202L5.42853 6.39267C4.55988 6.58918 3.84425 6.75107 3.32307 6.95646C2.78207 7.16967 2.30865 7.4839 2.12639 8.07C1.94601 8.65006 2.14872 9.18372 2.46203 9.68142C2.76645 10.165 3.25269 10.7336 3.84664 11.4281L4.19723 11.838C4.57923 12.2847 4.65903 12.394 4.69655 12.5147C4.73479 12.6377 4.73119 12.7798 4.67348 13.3753L4.62064 13.9207C4.53068 14.8487 4.45733 15.6056 4.483 16.1819C4.50914 16.7686 4.64238 17.332 5.12655 17.6995C5.61977 18.0739 6.19364 18.0318 6.74764 17.873C7.28481 17.7191 7.95447 17.4107 8.76764 17.0363L9.2521 16.8132C9.78212 16.5692 9.8956 16.5301 10.0019 16.5301C10.1083 16.5301 10.2218 16.5692 10.7518 16.8132L11.2362 17.0363C12.0494 17.4107 12.7191 17.7191 13.2563 17.873C13.8102 18.0318 14.3841 18.0739 14.8773 17.6995C15.3615 17.332 15.4947 16.7686 15.5209 16.1819C15.5466 15.6056 15.4732 14.8487 15.3833 13.9207L15.3304 13.3753C15.2727 12.7798 15.2691 12.6377 15.3073 12.5147C15.3449 12.394 15.4247 12.2847 15.8067 11.838L16.1573 11.428C16.7512 10.7335 17.2374 10.165 17.5419 9.68142C17.8552 9.18372 18.0579 8.65006 17.8775 8.07C17.6952 7.4839 17.2218 7.16967 16.6808 6.95646C16.1596 6.75107 15.444 6.58918 14.5754 6.39267L14.0581 6.27564C13.494 6.14801 13.3785 6.11008 13.2889 6.04208C13.1958 5.97143 13.1216 5.8609 12.8316 5.3406L12.5666 4.86528C12.1181 4.06064 11.7511 3.40227 11.405 2.95035C11.0528 2.49042 10.6175 2.10352 10.0019 2.10352C9.38638 2.10352 8.95105 2.49042 8.59884 2.95035C8.25276 3.40227 7.88578 4.06064 7.43727 4.86527L7.1723 5.3406C6.88226 5.8609 6.80806 5.97143 6.715 6.04208C6.62541 6.11008 6.50985 6.14801 5.94576 6.27564L5.47557 6.38202ZM5.47557 6.38202L5.59787 6.92252M8.3825 5.44589C8.85948 4.59023 9.18786 4.00409 9.47878 3.6242C9.76943 3.24467 9.91789 3.21184 10.0019 3.21184C10.086 3.21184 10.2345 3.24467 10.5251 3.6242C10.816 4.00409 11.1444 4.59023 11.6214 5.44588L11.8635 5.88024C11.8781 5.90642 11.8925 5.93236 11.9068 5.95804C12.129 6.35793 12.3165 6.69544 12.6187 6.92485C12.9242 7.15674 13.2966 7.24042 13.7294 7.33767C13.7572 7.34392 13.7852 7.35023 13.8135 7.35664L14.2837 7.46302C15.2113 7.67289 15.8423 7.81728 16.2745 7.9876C16.6962 8.15381 16.7852 8.28999 16.8192 8.39911C16.855 8.51428 16.856 8.69044 16.6039 9.09096C16.348 9.49748 15.9163 10.0045 15.2849 10.7429L14.9643 11.1177C14.9457 11.1395 14.9272 11.161 14.909 11.1823C14.6112 11.5297 14.3629 11.8193 14.249 12.1856C14.1358 12.5496 14.1733 12.9321 14.2188 13.3959C14.2216 13.4244 14.2244 13.4531 14.2272 13.4822L14.2757 13.9823C14.3711 14.9666 14.4354 15.6444 14.4137 16.1326C14.3919 16.6199 14.289 16.7546 14.2072 16.8168C14.1344 16.872 13.9999 16.9332 13.5615 16.8076C13.1161 16.6799 12.5241 16.4091 11.6556 16.0092L11.2153 15.8065C11.1882 15.794 11.1614 15.7816 11.1347 15.7693C10.7322 15.5832 10.383 15.4217 10.0019 15.4217C9.62092 15.4217 9.27169 15.5832 8.86915 15.7693C8.84253 15.7816 8.81567 15.794 8.78856 15.8065L8.34833 16.0092C7.47983 16.4091 6.8878 16.6799 6.44235 16.8076C6.00403 16.9332 5.86948 16.872 5.7967 16.8168C5.71486 16.7546 5.61194 16.6199 5.59023 16.1326C5.56848 15.6444 5.63279 14.9666 5.72818 13.9823L5.77664 13.4822C5.77946 13.4531 5.78228 13.4244 5.78507 13.3959C5.83056 12.9321 5.86808 12.5496 5.75488 12.1856C5.64099 11.8193 5.3927 11.5297 5.09492 11.1823C5.07664 11.161 5.05818 11.1395 5.03955 11.1177L4.71901 10.7429C4.08762 10.0045 3.65589 9.49748 3.39998 9.09097C3.14784 8.69044 3.14891 8.51428 3.18472 8.39911C3.21865 8.28999 3.30768 8.15381 3.72943 7.9876C4.16163 7.81728 4.79263 7.67289 5.72016 7.46302L6.19035 7.35664C6.21866 7.35023 6.24672 7.34393 6.27453 7.33768C6.7073 7.24042 7.07968 7.15674 7.38514 6.92485C7.68734 6.69544 7.87489 6.35793 8.0971 5.95804C8.11137 5.93236 8.12578 5.90642 8.14037 5.88024L8.3825 5.44589Z" stroke="#40C96D" stroke-width="0.4"/>
</g>
</g>
</svg>
