<svg width="20" height="21" viewBox="0 0 20 21" fill="none" xmlns="http://www.w3.org/2000/svg">
<g id="clipboard-06">
<path id="Vector" d="M18.2671 10.4807C18.3558 10.4067 18.4394 10.3267 18.5173 10.2414H18.6043V10.0456L18.4847 9.90422C18.4068 9.81888 18.3232 9.73893 18.2345 9.66494L17.3644 8.95799L16.8532 8.62083L17.6146 8.1749L18.278 7.72898C18.3668 7.65113 18.4503 7.56757 18.5282 7.47882H18.6152V7.28305L18.4955 7.15254C18.4234 7.06176 18.3393 6.98125 18.2454 6.91326C15.9904 5.37609 13.7172 3.84254 11.426 2.31262L10.3384 1.57303C10.2451 1.4961 10.132 1.44709 10.0121 1.43164C9.89513 1.44607 9.78524 1.49533 9.69666 1.57303L1.65913 6.89151C1.58598 6.9305 1.52316 6.98635 1.47588 7.05443C1.42859 7.12252 1.3982 7.20089 1.38722 7.28305C1.39672 7.3685 1.42761 7.45017 1.47703 7.52051C1.52646 7.59085 1.59283 7.64758 1.67 7.68547L3.00778 8.57732L3.07304 8.69696L2.84464 8.8601L1.6265 9.67582C1.55417 9.70687 1.49253 9.75845 1.44921 9.82418C1.4059 9.88991 1.38281 9.9669 1.38281 10.0456C1.38281 10.1243 1.4059 10.2013 1.44921 10.267C1.49253 10.3328 1.55417 10.3844 1.6265 10.4154L3.00778 11.329L3.07304 11.4595L2.84464 11.6227L1.6265 12.4384C1.55868 12.4749 1.50118 12.5279 1.45935 12.5925C1.41751 12.6572 1.3927 12.7314 1.38722 12.8082C1.3942 12.8818 1.41855 12.9527 1.45825 13.0151C1.49795 13.0775 1.55189 13.1296 1.61562 13.1671L9.74017 18.6052L9.8598 18.6922H10.0991L13.9493 16.1581L18.2998 13.2759C18.391 13.2089 18.4749 13.1323 18.5499 13.0475L18.6369 12.9822V12.7864L18.5173 12.6559C18.4452 12.5651 18.361 12.4846 18.2671 12.4166L17.3862 11.8184L16.8532 11.4704L17.6037 10.9701C17.8321 10.7852 18.0496 10.6438 18.2671 10.4807ZM2.82288 7.4897L2.67062 7.37006L2.60536 7.23955L2.83376 7.08728L9.79455 2.43225C9.86184 2.41133 9.9339 2.41133 10.0012 2.43225C10.0736 2.43263 10.1433 2.45974 10.197 2.50839L17.1578 7.13078L17.4623 7.34831L10.1861 12.1882C10.1286 12.2158 10.0647 12.2271 10.0012 12.2209C9.9342 12.2193 9.86943 12.1964 9.8163 12.1556L2.82288 7.4897ZM17.049 12.5254L17.4732 12.8082L10.197 17.659C10.139 17.6983 10.0712 17.7209 10.0012 17.7242C9.93513 17.7181 9.87161 17.6956 9.8163 17.659L2.80113 12.9822L2.5401 12.7973L3.34494 12.2535C3.46132 12.1874 3.57389 12.1147 3.68211 12.036C3.73183 11.988 3.79794 11.9608 3.867 11.9598C3.94175 11.9649 4.01347 11.9913 4.07365 12.036L9.67491 15.7556C9.76818 15.8326 9.88128 15.8816 10.0012 15.897C10.1211 15.8816 10.2342 15.8326 10.3275 15.7556L15.9179 12.036C15.9797 11.9962 16.0511 11.9737 16.1245 11.9707C16.203 11.9737 16.2788 12.0002 16.342 12.0468L17.049 12.5254ZM10.197 14.8855C10.1399 14.9283 10.0722 14.9546 10.0012 14.9617C9.9342 14.9601 9.86943 14.9373 9.8163 14.8964L2.81201 10.2414L2.5401 10.0456L3.47546 9.39304C3.5796 9.30095 3.70791 9.24056 3.84525 9.21902C3.9784 9.24359 4.10242 9.30372 4.20417 9.39304L9.64228 13.0257C9.73103 13.0894 9.83755 13.1237 9.94681 13.1237C10.0561 13.1237 10.1626 13.0894 10.2513 13.0257L15.9287 9.28428C15.9879 9.23787 16.0602 9.21124 16.1354 9.20814C16.2074 9.21041 16.2765 9.23728 16.3312 9.28428L17.0272 9.75195L17.4732 10.0456L10.197 14.8855Z" fill="#40C96D" stroke="#40C96D" stroke-width="0.3"/>
</g>
</svg>
