<svg width="20" height="21" viewBox="0 0 20 21" fill="none" xmlns="http://www.w3.org/2000/svg">
<g id="clipboard-04">
<g id="Group 124">
<path id="Vector" d="M10.0682 17.2683H4.06825C3.90139 17.2862 3.73264 17.2673 3.57384 17.213C3.41504 17.1588 3.27004 17.0704 3.14901 16.9542C3.02799 16.8379 2.93388 16.6966 2.87328 16.5401C2.81269 16.3836 2.78708 16.2157 2.79825 16.0483V4.09828C2.77943 3.9291 2.79874 3.75786 2.85475 3.59712C2.91077 3.43638 3.00207 3.29022 3.12195 3.16938C3.24184 3.04854 3.38726 2.95607 3.54755 2.89878C3.70784 2.84149 3.87893 2.82081 4.04825 2.83828H10.3882V5.39828C10.3731 5.56274 10.3941 5.72853 10.4499 5.88398C10.5057 6.03943 10.5949 6.18077 10.7112 6.29803C10.8275 6.41529 10.9681 6.50563 11.1231 6.56269C11.2781 6.61975 11.4437 6.64214 11.6082 6.62828H14.1782V9.23828C14.1848 9.32862 14.2085 9.41687 14.2482 9.49828C14.2789 9.54746 14.3217 9.58798 14.3724 9.61598C14.4232 9.64399 14.4803 9.65855 14.5382 9.65828H14.6482C14.7274 9.63437 14.7965 9.5853 14.8453 9.51853C14.894 9.45176 14.9196 9.37093 14.9182 9.28828V8.28828C14.9182 7.74828 14.9182 7.20828 14.9182 6.65828C14.925 6.47202 14.8919 6.28648 14.8212 6.11403C14.7505 5.94158 14.6438 5.78621 14.5082 5.65828L11.3182 2.50828C11.1916 2.37115 11.0364 2.26339 10.8636 2.19256C10.6909 2.12173 10.5047 2.08956 10.3182 2.09828H4.04825C3.91176 2.08833 3.77473 2.08833 3.63825 2.09828C3.17898 2.16737 2.76218 2.40578 2.46979 2.76664C2.17741 3.12749 2.03061 3.58467 2.05825 4.04828V16.0483C2.04829 16.1781 2.04829 16.3085 2.05825 16.4383C2.13796 16.8883 2.37887 17.2939 2.73593 17.5792C3.09298 17.8644 3.54173 18.0099 3.99825 17.9883H9.99825C10.087 17.9861 10.1719 17.9512 10.2365 17.8903C10.3011 17.8294 10.3409 17.7468 10.3482 17.6583C10.3556 17.5706 10.3314 17.4832 10.2801 17.4117C10.2288 17.3402 10.1537 17.2894 10.0682 17.2683ZM11.1282 3.32828L11.3982 3.59828L13.2882 5.49828L13.6782 5.88828H11.5682C11.5098 5.89434 11.4508 5.88747 11.3954 5.86815C11.3399 5.84883 11.2894 5.81754 11.2474 5.77649C11.2054 5.73545 11.1729 5.68566 11.1523 5.63067C11.1318 5.57567 11.1235 5.51682 11.1282 5.45828V3.32828Z" fill="#40C96D" stroke="#40C96D" stroke-width="0.25"/>
<path id="Vector_2" d="M17.5698 14.7684C17.4524 14.644 17.3869 14.4795 17.3869 14.3084C17.3869 14.1374 17.4524 13.9728 17.5698 13.8484L17.6398 13.7484L17.8298 13.5084C17.885 13.451 17.9213 13.378 17.9338 13.2994C17.9463 13.2207 17.9345 13.1401 17.8998 13.0684C17.7398 12.7484 17.5698 12.4284 17.3898 12.1184C17.3479 12.0149 17.276 11.9262 17.1834 11.8638C17.0907 11.8015 16.9815 11.7682 16.8698 11.7684H16.6498H16.4298H16.2498C16.1036 11.7717 15.9604 11.7264 15.8428 11.6395C15.7251 11.5526 15.6396 11.4291 15.5998 11.2884V11.1784C15.5998 11.0884 15.5198 11.0084 15.4898 10.9184C15.4674 10.8294 15.4158 10.7505 15.3433 10.6943C15.2708 10.6381 15.1815 10.6079 15.0898 10.6084H13.8298C13.738 10.6079 13.6488 10.6381 13.5763 10.6943C13.5037 10.7505 13.4522 10.8294 13.4298 10.9184L13.3398 11.1584L13.2898 11.2584C13.252 11.4046 13.1667 11.5341 13.0472 11.6265C12.9277 11.7188 12.7808 11.7688 12.6298 11.7684C12.5601 11.7774 12.4895 11.7774 12.4198 11.7684H11.9298C11.8778 11.768 11.8265 11.7795 11.7797 11.8021C11.7329 11.8246 11.6919 11.8576 11.6598 11.8984C11.3531 12.2491 11.1186 12.6569 10.9698 13.0984C10.9373 13.1547 10.9202 13.2185 10.9202 13.2834C10.9202 13.3484 10.9373 13.4122 10.9698 13.4684L11.2498 13.8384C11.3176 13.9029 11.3715 13.9804 11.4084 14.0664C11.4453 14.1523 11.4643 14.2449 11.4643 14.3384C11.4643 14.4319 11.4453 14.5245 11.4084 14.6104C11.3715 14.6964 11.3176 14.774 11.2498 14.8384L10.9798 15.1884C10.9326 15.2383 10.9016 15.3013 10.8909 15.3691C10.8802 15.4369 10.8902 15.5064 10.9198 15.5684C11.0698 15.8984 11.2398 16.2184 11.4098 16.5684C11.4566 16.677 11.533 16.7702 11.6302 16.8374C11.7275 16.9046 11.8417 16.943 11.9598 16.9484H12.1898C12.2563 16.9413 12.3233 16.9413 12.3898 16.9484H12.5698C12.7169 16.9462 12.8608 16.9918 12.9798 17.0784C13.0988 17.1649 13.1865 17.2878 13.2298 17.4284L13.2798 17.5284L13.3798 17.7984C13.4022 17.8874 13.4537 17.9663 13.5263 18.0225C13.5988 18.0787 13.688 18.1089 13.7798 18.1084H15.0098C15.1024 18.1067 15.1919 18.0743 15.2642 18.0164C15.3366 17.9586 15.3878 17.8784 15.4098 17.7884C15.4354 17.7068 15.4654 17.6267 15.4998 17.5484V17.4584C15.5395 17.3114 15.6268 17.1816 15.748 17.0894C15.8692 16.9971 16.0175 16.9475 16.1698 16.9484H16.3698L16.8498 17.0084C16.9049 17.0104 16.9596 16.9997 17.0099 16.9771C17.0602 16.9546 17.1046 16.9208 17.1398 16.8784C17.4431 16.5216 17.6772 16.1112 17.8298 15.6684C17.855 15.6089 17.8628 15.5434 17.8522 15.4797C17.8416 15.4159 17.813 15.3565 17.7698 15.3084L17.5698 14.7684ZM16.9898 15.7684C16.9548 15.8621 16.8896 15.9415 16.8045 15.994C16.7194 16.0465 16.6192 16.0692 16.5198 16.0584C16.4169 16.0448 16.3127 16.0448 16.2098 16.0584C15.9701 16.0665 15.7376 16.1428 15.5398 16.2784C15.2769 16.4155 15.0765 16.6481 14.9798 16.9284C14.9098 17.1384 14.8198 17.2484 14.6998 17.2784H14.4898H14.2398L13.9998 17.1584V17.0484C13.9656 16.9803 13.9355 16.9102 13.9098 16.8384C13.8664 16.7091 13.7969 16.5901 13.7058 16.4886C13.6146 16.3872 13.5037 16.3054 13.3798 16.2484C13.1798 16.1118 12.9419 16.0418 12.6998 16.0484C12.5936 16.034 12.486 16.034 12.3798 16.0484H12.2698C12.1976 16.0444 12.1279 16.0208 12.068 15.9803C12.0082 15.9398 11.9604 15.8839 11.9298 15.8184C11.7398 15.5084 11.7198 15.3984 11.9898 15.0884C12.0813 15.0007 12.1501 14.8921 12.1901 14.7719C12.2302 14.6516 12.2404 14.5234 12.2198 14.3984V14.2584C12.2515 14.0989 12.2395 13.9338 12.1849 13.7806C12.1303 13.6274 12.0352 13.4919 11.9098 13.3884C11.831 13.3064 11.7869 13.1971 11.7869 13.0834C11.7869 12.9697 11.831 12.8604 11.9098 12.7784C11.9398 12.7031 11.9904 12.6378 12.0559 12.59C12.1213 12.5423 12.1989 12.514 12.2798 12.5084H12.3798H12.5598H12.8098C12.9166 12.5082 13.0197 12.4691 13.0998 12.3984C13.1841 12.3281 13.2785 12.2708 13.3798 12.2284C13.5023 12.1856 13.6122 12.1128 13.6995 12.0168C13.7868 11.9208 13.8488 11.8044 13.8798 11.6784C13.9031 11.5548 13.9688 11.4432 14.0655 11.3629C14.1623 11.2826 14.284 11.2386 14.4098 11.2384C14.4893 11.2255 14.5703 11.2255 14.6498 11.2384C14.7014 11.2516 14.7488 11.2778 14.7873 11.3146C14.8259 11.3514 14.8543 11.3974 14.8698 11.4484C14.9248 11.6518 15.0281 11.8388 15.1709 11.9938C15.3136 12.1487 15.4916 12.2669 15.6898 12.3384C15.8052 12.4095 15.935 12.4539 16.0698 12.4684H16.1698H16.3698H16.5398C16.6337 12.473 16.7244 12.5035 16.8021 12.5564C16.8797 12.6094 16.9412 12.6827 16.9798 12.7684C17.0444 12.8604 17.0739 12.9726 17.0629 13.0845C17.0519 13.1965 17.0011 13.3007 16.9198 13.3784C16.8456 13.459 16.7786 13.546 16.7198 13.6384C16.5895 14.0209 16.5895 14.4359 16.7198 14.8184L16.9798 15.1584C17.0305 15.1919 17.0724 15.2371 17.1021 15.2901C17.1317 15.3431 17.1482 15.4025 17.1502 15.4632C17.1521 15.524 17.1395 15.5843 17.1133 15.6391C17.0872 15.694 17.0482 15.7417 16.9998 15.7784L16.9898 15.7684Z" fill="#40C96D" stroke="#40C96D" stroke-width="0.25"/>
<path id="Vector_3" d="M11.9067 9.04791C11.9257 8.98964 11.9311 8.92778 11.9225 8.86709C11.9138 8.8064 11.8913 8.74852 11.8567 8.69791C11.8071 8.6413 11.7454 8.59661 11.6761 8.56718C11.6069 8.53774 11.5319 8.52432 11.4567 8.52791H5.45668C5.36983 8.52347 5.28375 8.5461 5.21031 8.59267C5.13687 8.63924 5.0797 8.70746 5.04668 8.78791C5.01602 8.84655 5 8.91174 5 8.97791C5 9.04409 5.01602 9.10928 5.04668 9.16791C5.09041 9.22988 5.14909 9.2798 5.21727 9.31301C5.28546 9.34623 5.36093 9.36168 5.43668 9.35791H11.4367C11.5395 9.37361 11.6445 9.3506 11.7313 9.29333C11.8181 9.23606 11.8806 9.14861 11.9067 9.04791Z" fill="#40C96D" stroke="#40C96D" stroke-width="0.25"/>
<path id="Vector_4" d="M5.43644 14.6283H8.82644C8.88355 14.6339 8.9412 14.6275 8.99565 14.6094C9.05011 14.5913 9.10016 14.562 9.14258 14.5234C9.18499 14.4847 9.21883 14.4376 9.24189 14.3851C9.26494 14.3325 9.27672 14.2757 9.27644 14.2183C9.27892 14.1642 9.26945 14.1101 9.24872 14.06C9.22798 14.0099 9.19648 13.9649 9.15644 13.9283C9.11577 13.8847 9.06607 13.8505 9.0108 13.828C8.95553 13.8055 8.89603 13.7954 8.83644 13.7983H5.46644C5.35397 13.8155 5.24748 13.8601 5.15644 13.9283C5.0944 13.9787 5.0509 14.0484 5.03279 14.1262C5.01469 14.2041 5.02301 14.2857 5.05644 14.3583C5.08227 14.4383 5.1332 14.5077 5.20167 14.5564C5.27013 14.605 5.35248 14.6303 5.43644 14.6283Z" fill="#40C96D" stroke="#40C96D" stroke-width="0.25"/>
<path id="Vector_5" d="M6.93977 11.988H8.81977C8.90257 12.0013 8.98696 12.0013 9.06977 11.988C9.14795 11.9458 9.20939 11.8783 9.24394 11.7964C9.27849 11.7146 9.28408 11.6234 9.25977 11.538C9.24379 11.4478 9.19734 11.3658 9.12817 11.3058C9.05901 11.2457 8.97132 11.2112 8.87977 11.208H5.50977C5.21977 11.208 5.03977 11.368 5.03977 11.618C5.0365 11.6729 5.04459 11.7279 5.06351 11.7795C5.08244 11.8311 5.1118 11.8782 5.14977 11.918C5.24632 12.0032 5.37103 12.0495 5.49977 12.048L6.93977 11.988Z" fill="#40C96D" stroke="#40C96D" stroke-width="0.25"/>
<path id="Vector_6" d="M14.4375 13.3281C14.1723 13.3281 13.9179 13.4335 13.7304 13.621C13.5429 13.8086 13.4375 14.0629 13.4375 14.3281C13.4375 14.5933 13.5429 14.8477 13.7304 15.0352C13.9179 15.2228 14.1723 15.3281 14.4375 15.3281C14.7027 15.3281 14.9571 15.2228 15.1446 15.0352C15.3321 14.8477 15.4375 14.5933 15.4375 14.3281C15.4338 14.0693 15.3298 13.8219 15.1475 13.6381C15.0557 13.5418 14.9457 13.4648 14.8237 13.4116C14.7018 13.3583 14.5705 13.33 14.4375 13.3281Z" fill="#40C96D" stroke="#40C96D" stroke-width="0.25"/>
</g>
</g>
</svg>
