<svg width="20" height="21" viewBox="0 0 20 21" fill="none" xmlns="http://www.w3.org/2000/svg">
<g id="store-03.2">
<g id="Group 87">
<path id="Vector" d="M9.16732 18.3467V18.9717C9.51248 18.9717 9.79232 18.6918 9.79232 18.3467H9.16732ZM5.83398 18.3467H5.20898C5.20898 18.6918 5.48881 18.9717 5.83398 18.9717V18.3467ZM8.54232 15.0133V18.3467H9.79232V15.0133H8.54232ZM9.16732 17.7217H5.83398V18.9717H9.16732V17.7217ZM6.45898 18.3467V15.0133H5.20898V18.3467H6.45898ZM7.50065 13.9717C8.07595 13.9717 8.54232 14.438 8.54232 15.0133H9.79232C9.79232 13.7477 8.76632 12.7217 7.50065 12.7217V13.9717ZM7.50065 12.7217C6.235 12.7217 5.20898 13.7477 5.20898 15.0133H6.45898C6.45898 14.438 6.92535 13.9717 7.50065 13.9717V12.7217Z" fill="#40C96D"/>
<path id="Vector_2" d="M13.4041 6.88802C13.4041 6.54285 13.1242 6.26302 12.7791 6.26302C12.4339 6.26302 12.1541 6.54285 12.1541 6.88802H13.4041ZM7.84853 6.88802C7.84853 6.54285 7.5687 6.26302 7.22353 6.26302C6.87834 6.26302 6.59853 6.54285 6.59853 6.88802H7.84853ZM17.7096 5.01302V6.88802H18.9596V5.01302H17.7096ZM15.5569 9.38802C14.4351 9.38802 13.4041 8.33997 13.4041 6.88802H12.1541C12.1541 8.88785 13.6104 10.638 15.5569 10.638V9.38802ZM17.7096 6.88802C17.7096 8.33997 16.6786 9.38802 15.5569 9.38802V10.638C17.5033 10.638 18.9596 8.88785 18.9596 6.88802H17.7096ZM10.0013 9.38802C8.87955 9.38802 7.84853 8.33997 7.84853 6.88802H6.59853C6.59853 8.88785 8.05483 10.638 10.0013 10.638V9.38802ZM12.1541 6.88802C12.1541 8.33997 11.1231 9.38802 10.0013 9.38802V10.638C11.9478 10.638 13.4041 8.88785 13.4041 6.88802H12.1541ZM2.29297 6.88802V5.01302H1.04297V6.88802H2.29297ZM4.44574 9.38802C3.32397 9.38802 2.29297 8.33997 2.29297 6.88802H1.04297C1.04297 8.88785 2.49928 10.638 4.44574 10.638V9.38802ZM6.59853 6.88802C6.59853 8.33997 5.56752 9.38802 4.44574 9.38802V10.638C6.39222 10.638 7.84853 8.88785 7.84853 6.88802H6.59853ZM15.0013 1.05469H5.0013V2.30469H15.0013V1.05469ZM2.29297 5.01302C2.29297 3.51725 3.50553 2.30469 5.0013 2.30469V1.05469C2.81518 1.05469 1.04297 2.8269 1.04297 5.01302H2.29297ZM18.9596 5.01302C18.9596 2.8269 17.1875 1.05469 15.0013 1.05469V2.30469C16.4971 2.30469 17.7096 3.51725 17.7096 5.01302H18.9596Z" fill="#40C96D"/>
<path id="Vector_3" d="M12.5013 12.3047H14.168V11.0547H12.5013V12.3047ZM14.3763 12.513V13.3464H15.6263V12.513H14.3763ZM14.168 13.5547H12.5013V14.8047H14.168V13.5547ZM12.293 13.3464V12.513H11.043V13.3464H12.293ZM12.5013 13.5547C12.3862 13.5547 12.293 13.4614 12.293 13.3464H11.043C11.043 14.1518 11.6959 14.8047 12.5013 14.8047V13.5547ZM14.3763 13.3464C14.3763 13.4614 14.2831 13.5547 14.168 13.5547V14.8047C14.9734 14.8047 15.6263 14.1518 15.6263 13.3464H14.3763ZM14.168 12.3047C14.2831 12.3047 14.3763 12.3979 14.3763 12.513H15.6263C15.6263 11.7076 14.9734 11.0547 14.168 11.0547V12.3047ZM12.5013 11.0547C11.6959 11.0547 11.043 11.7076 11.043 12.513H12.293C12.293 12.3979 12.3862 12.3047 12.5013 12.3047V11.0547Z" fill="#40C96D"/>
<path id="Vector_4" d="M16.875 9.17969V15.013H18.125V9.17969H16.875ZM14.1667 17.7214H5.83333V18.9714H14.1667V17.7214ZM3.125 15.013V9.17969H1.875V15.013H3.125ZM5.83333 17.7214C4.33756 17.7214 3.125 16.5088 3.125 15.013H1.875C1.875 17.1992 3.64721 18.9714 5.83333 18.9714V17.7214ZM16.875 15.013C16.875 16.5088 15.6624 17.7214 14.1667 17.7214V18.9714C16.3528 18.9714 18.125 17.1992 18.125 15.013H16.875Z" fill="#40C96D"/>
</g>
</g>
</svg>
