<svg width="20" height="20" viewBox="0 0 20 20" fill="none" xmlns="http://www.w3.org/2000/svg">
<g id="ticket.1">
<g id="Vector">
<path d="M7.70817 6.66667C7.70817 7.01184 7.988 7.29167 8.33317 7.29167C8.67834 7.29167 8.95817 7.01184 8.95817 6.66667H7.70817ZM8.95817 5C8.95817 4.65482 8.67834 4.375 8.33317 4.375C7.988 4.375 7.70817 4.65482 7.70817 5H8.95817ZM7.70817 15C7.70817 15.3452 7.988 15.625 8.33317 15.625C8.67834 15.625 8.95817 15.3452 8.95817 15H7.70817ZM8.95817 13.3333C8.95817 12.9882 8.67834 12.7083 8.33317 12.7083C7.988 12.7083 7.70817 12.9882 7.70817 13.3333H8.95817ZM7.70817 10.8333C7.70817 11.1785 7.988 11.4583 8.33317 11.4583C8.67834 11.4583 8.95817 11.1785 8.95817 10.8333H7.70817ZM8.95817 9.16667C8.95817 8.8215 8.67834 8.54167 8.33317 8.54167C7.988 8.54167 7.70817 8.8215 7.70817 9.16667H8.95817ZM4.99984 16.875C3.50406 16.875 2.2915 15.6624 2.2915 14.1667H1.0415C1.0415 16.3528 2.81371 18.125 4.99984 18.125V16.875ZM17.7082 14.1667C17.7082 15.6624 16.4956 16.875 14.9998 16.875V18.125C17.186 18.125 18.9582 16.3528 18.9582 14.1667H17.7082ZM14.9998 3.125C16.4956 3.125 17.7082 4.33756 17.7082 5.83333H18.9582C18.9582 3.64721 17.186 1.875 14.9998 1.875V3.125ZM4.99984 1.875C2.81371 1.875 1.0415 3.64721 1.0415 5.83333H2.2915C2.2915 4.33756 3.50406 3.125 4.99984 3.125V1.875ZM17.7194 11.7724C16.9844 11.518 16.4582 10.8197 16.4582 10H15.2082C15.2082 11.3687 16.0877 12.5302 17.3104 12.9537L17.7194 11.7724ZM16.4582 10C16.4582 9.18033 16.9844 8.482 17.7194 8.22758L17.3104 7.04638C16.0877 7.46973 15.2082 8.63133 15.2082 10H16.4582ZM3.5415 10C3.5415 10.8197 3.01521 11.518 2.28027 11.7724L2.68923 12.9537C3.91201 12.5302 4.7915 11.3687 4.7915 10H3.5415ZM2.28027 8.22758C3.01521 8.482 3.5415 9.18033 3.5415 10H4.7915C4.7915 8.63133 3.91202 7.46973 2.68923 7.04638L2.28027 8.22758ZM18.9582 6.66667V5.83333H17.7082V6.66667H18.9582ZM17.7082 13.3333V14.1667H18.9582V13.3333H17.7082ZM1.0415 13.3333V14.1667H2.2915V13.3333H1.0415ZM2.2915 6.66667V5.83333H1.0415V6.66667H2.2915ZM2.28027 11.7724C1.71471 11.9682 1.0415 12.4979 1.0415 13.3333H2.2915C2.2915 13.2867 2.30885 13.2257 2.37627 13.1511C2.447 13.0727 2.55795 12.9991 2.68923 12.9537L2.28027 11.7724ZM17.7194 8.22758C18.285 8.03177 18.9582 7.50205 18.9582 6.66667H17.7082C17.7082 6.71322 17.6908 6.77431 17.6234 6.84892C17.5527 6.92721 17.4418 7.00093 17.3104 7.04638L17.7194 8.22758ZM2.68923 7.04638C2.55795 7.00093 2.447 6.92721 2.37627 6.84892C2.30885 6.77431 2.2915 6.71322 2.2915 6.66667H1.0415C1.0415 7.50205 1.71471 8.03177 2.28027 8.22758L2.68923 7.04638ZM17.3104 12.9537C17.4418 12.9991 17.5527 13.0727 17.6234 13.1511C17.6908 13.2257 17.7082 13.2867 17.7082 13.3333H18.9582C18.9582 12.4979 18.285 11.9682 17.7194 11.7724L17.3104 12.9537ZM8.95817 6.66667V5H7.70817V6.66667H8.95817ZM8.95817 15V13.3333H7.70817V15H8.95817ZM8.95817 10.8333V9.16667H7.70817V10.8333H8.95817ZM4.99984 3.125H14.9998V1.875H4.99984V3.125ZM14.9998 16.875H4.99984V18.125H14.9998V16.875Z" fill="#40C96D"/>
<path d="M17.5149 12.363L17.3104 12.9537M17.3104 12.9537C16.0877 12.5302 15.2082 11.3687 15.2082 10M17.3104 12.9537L17.7194 11.7724M17.3104 12.9537C17.4418 12.9991 17.5527 13.0727 17.6234 13.1511C17.6908 13.2257 17.7082 13.2867 17.7082 13.3333M17.5149 7.63697L17.7194 8.22758M17.7194 8.22758C16.9844 8.482 16.4582 9.18033 16.4582 10M17.7194 8.22758L17.3104 7.04638M17.7194 8.22758C18.285 8.03178 18.9582 7.50205 18.9582 6.66667M2.48475 12.363L2.68923 12.9537M2.68923 12.9537L2.28027 11.7724M2.68923 12.9537C3.91201 12.5302 4.7915 11.3687 4.7915 10M2.68923 12.9537C2.55795 12.9991 2.447 13.0727 2.37627 13.1511C2.30885 13.2257 2.2915 13.2867 2.2915 13.3333M2.48475 7.63697L2.28027 8.22758M2.28027 8.22758C3.01521 8.482 3.5415 9.18033 3.5415 10M2.28027 8.22758L2.68923 7.04638M2.28027 8.22758C1.71471 8.03178 1.0415 7.50205 1.0415 6.66667M7.70817 6.66667C7.70817 7.01184 7.988 7.29167 8.33317 7.29167C8.67834 7.29167 8.95817 7.01184 8.95817 6.66667M7.70817 6.66667H8.95817M7.70817 6.66667V5M8.95817 6.66667V5M8.95817 5C8.95817 4.65482 8.67834 4.375 8.33317 4.375C7.988 4.375 7.70817 4.65482 7.70817 5M8.95817 5H7.70817M7.70817 15C7.70817 15.3452 7.988 15.625 8.33317 15.625C8.67834 15.625 8.95817 15.3452 8.95817 15M7.70817 15H8.95817M7.70817 15V13.3333M8.95817 15V13.3333M8.95817 13.3333C8.95817 12.9882 8.67834 12.7083 8.33317 12.7083C7.988 12.7083 7.70817 12.9882 7.70817 13.3333M8.95817 13.3333H7.70817M7.70817 10.8333C7.70817 11.1785 7.988 11.4583 8.33317 11.4583C8.67834 11.4583 8.95817 11.1785 8.95817 10.8333M7.70817 10.8333H8.95817M7.70817 10.8333V9.16667M8.95817 10.8333V9.16667M8.95817 9.16667C8.95817 8.8215 8.67834 8.54167 8.33317 8.54167C7.988 8.54167 7.70817 8.8215 7.70817 9.16667M8.95817 9.16667H7.70817M4.99984 16.875C3.50406 16.875 2.2915 15.6624 2.2915 14.1667M4.99984 16.875V18.125M4.99984 16.875H14.9998M2.2915 14.1667H1.0415M2.2915 14.1667V13.3333M1.0415 14.1667C1.0415 16.3528 2.81371 18.125 4.99984 18.125M1.0415 14.1667V13.3333M4.99984 18.125H14.9998M17.7082 14.1667C17.7082 15.6624 16.4956 16.875 14.9998 16.875M17.7082 14.1667H18.9582M17.7082 14.1667V13.3333M14.9998 16.875V18.125M14.9998 18.125C17.186 18.125 18.9582 16.3528 18.9582 14.1667M18.9582 14.1667V13.3333M14.9998 3.125C16.4956 3.125 17.7082 4.33756 17.7082 5.83333M14.9998 3.125V1.875M14.9998 3.125H4.99984M17.7082 5.83333H18.9582M17.7082 5.83333V6.66667M18.9582 5.83333C18.9582 3.64721 17.186 1.875 14.9998 1.875M18.9582 5.83333V6.66667M14.9998 1.875H4.99984M4.99984 1.875C2.81371 1.875 1.0415 3.64721 1.0415 5.83333M4.99984 1.875V3.125M1.0415 5.83333H2.2915M1.0415 5.83333V6.66667M2.2915 5.83333C2.2915 4.33756 3.50406 3.125 4.99984 3.125M2.2915 5.83333V6.66667M17.7194 11.7724C16.9844 11.518 16.4582 10.8197 16.4582 10M17.7194 11.7724C18.285 11.9682 18.9582 12.4979 18.9582 13.3333M16.4582 10H15.2082M15.2082 10C15.2082 8.63133 16.0877 7.46973 17.3104 7.04638M17.3104 7.04638C17.4418 7.00093 17.5527 6.92721 17.6234 6.84892C17.6908 6.77431 17.7082 6.71322 17.7082 6.66667M3.5415 10C3.5415 10.8197 3.01521 11.518 2.28027 11.7724M3.5415 10H4.7915M2.28027 11.7724C1.71471 11.9682 1.0415 12.4979 1.0415 13.3333M4.7915 10C4.7915 8.63133 3.91202 7.46973 2.68923 7.04638M2.68923 7.04638C2.55795 7.00093 2.447 6.92721 2.37627 6.84892C2.30885 6.77431 2.2915 6.71322 2.2915 6.66667M18.9582 6.66667H17.7082M17.7082 13.3333H18.9582M1.0415 13.3333H2.2915M2.2915 6.66667H1.0415" stroke="#40C96D" stroke-width="0.4"/>
</g>
</g>
</svg>
