<svg width="20" height="21" viewBox="0 0 20 21" fill="none" xmlns="http://www.w3.org/2000/svg">
<g id="Outline / Essentional, UI / Crown Minimalistic">
<g id="Vector">
<path fill-rule="evenodd" clip-rule="evenodd" d="M9.85697 4.07103C9.69673 4.30889 9.51383 4.68095 9.23936 5.24338L7.73761 8.3207C7.60515 8.59214 7.49007 8.82799 7.37998 9.00717C7.26724 9.19065 7.11858 9.38633 6.887 9.50288C6.67804 9.60803 6.44261 9.64667 6.20959 9.60984C5.9474 9.56841 5.74844 9.41949 5.59267 9.27546C5.44165 9.13584 5.27263 8.94339 5.08091 8.7251L5.06432 8.70622C4.65843 8.24416 4.37912 7.92709 4.16278 7.72485C4.05573 7.62477 3.98535 7.57345 3.9421 7.54928C3.9419 7.54916 3.9417 7.54905 3.94151 7.54895C3.91899 7.55716 3.89285 7.57342 3.86704 7.6032C3.86701 7.60319 3.8671 7.60317 3.86704 7.6032C3.86877 7.6041 3.82976 7.68337 3.83217 7.99377C3.8347 8.31864 3.8768 8.77082 3.93773 9.41822L4.09052 11.0417C4.21752 12.391 4.30955 13.3608 4.46385 14.0961C4.61638 14.823 4.81727 15.2522 5.11633 15.5582C5.40803 15.8566 5.78273 16.0273 6.40722 16.1186C7.0521 16.2129 7.89537 16.2142 9.09211 16.2142H10.9053C12.1021 16.2142 12.9453 16.2129 13.5902 16.1186C14.2147 16.0273 14.5894 15.8566 14.8811 15.5582C15.1802 15.2522 15.3811 14.823 15.5336 14.0961C15.6879 13.3608 15.7799 12.391 15.9069 11.0417L16.0597 9.41822C16.1206 8.77082 16.1627 8.31865 16.1653 7.99378C16.1677 7.68337 16.1285 7.60408 16.1303 7.60318C16.1305 7.60305 16.1318 7.60474 16.1342 7.60771C16.1072 7.57505 16.0796 7.55756 16.0559 7.54895C16.0557 7.54905 16.0555 7.54916 16.0553 7.54928C16.0121 7.57345 15.9417 7.62477 15.8347 7.72485C15.6183 7.92709 15.339 8.24416 14.9331 8.70622L14.9165 8.7251C14.7248 8.94339 14.5558 9.13583 14.4048 9.27546C14.249 9.41949 14.05 9.56841 13.7879 9.60984C13.5548 9.64667 13.3194 9.60803 13.1104 9.50288C12.8789 9.38633 12.7302 9.19065 12.6175 9.00717C12.5074 8.82798 12.3923 8.59212 12.2598 8.32066L10.7581 5.24338C10.4836 4.68094 10.3007 4.30889 10.1405 4.07103C10.0726 3.97029 10.026 3.91992 9.99872 3.89566C9.97148 3.91992 9.92484 3.97029 9.85697 4.07103ZM10.0281 3.87483C10.0281 3.87514 10.026 3.87641 10.0219 3.87771C10.0261 3.87517 10.0281 3.87452 10.0281 3.87483ZM9.97551 3.87771C9.97145 3.87641 9.96936 3.87514 9.96934 3.87483C9.96932 3.87452 9.97135 3.87517 9.97551 3.87771ZM9.02762 3.51231C9.22874 3.21376 9.52782 2.88086 9.99872 2.88086C10.4696 2.88086 10.7687 3.21376 10.9698 3.51231C11.1739 3.8153 11.387 4.25185 11.6395 4.7694L13.148 7.86058C13.294 8.15981 13.388 8.35101 13.4695 8.48367C13.5261 8.57574 13.557 8.60537 13.5642 8.61166C13.585 8.62134 13.6045 8.62444 13.6224 8.62318C13.6339 8.61676 13.6663 8.5963 13.7259 8.54122C13.8339 8.44131 13.9685 8.28914 14.1818 8.04626L14.2012 8.02418C14.583 7.58952 14.8949 7.23448 15.1518 6.99434C15.2835 6.87121 15.4219 6.75773 15.5674 6.67639C15.7154 6.59369 15.9012 6.52723 16.1131 6.54584C16.4285 6.57354 16.7084 6.73305 16.9046 6.97011C17.1413 7.2561 17.1679 7.65592 17.1652 8.00155C17.1623 8.37492 17.1157 8.87045 17.0577 9.48619L16.8995 11.1674C16.7762 12.4778 16.6796 13.5042 16.5123 14.3015C16.3418 15.1138 16.0856 15.7566 15.5962 16.2572C15.0995 16.7653 14.4892 16.9978 13.7349 17.1081C13.0094 17.2142 12.0929 17.2142 10.945 17.2142H9.05247C7.9045 17.2142 6.98805 17.2142 6.26252 17.1081C5.50827 16.9978 4.89795 16.7653 4.40124 16.2572C3.91189 15.7566 3.65563 15.1138 3.48517 14.3015C3.31785 13.5042 3.22126 12.4778 3.09793 11.1674L2.93971 9.4862C2.88175 8.87046 2.83511 8.37492 2.8322 8.00155C2.82951 7.65592 2.85615 7.2561 3.09286 6.97011C3.28907 6.73305 3.56892 6.57354 3.8843 6.54584C4.09629 6.52723 4.28207 6.59369 4.43003 6.67639C4.57553 6.75773 4.71397 6.87121 4.84569 6.99434C5.10256 7.23448 5.41443 7.58952 5.79622 8.02417L5.81562 8.04626C6.02897 8.28914 6.1635 8.44131 6.27156 8.54122C6.33113 8.5963 6.36352 8.61676 6.37508 8.62318C6.39298 8.62444 6.41241 8.62134 6.43324 8.61166C6.44048 8.60538 6.47138 8.57574 6.52795 8.48367C6.60946 8.35101 6.7034 8.15981 6.84942 7.86058L8.35793 4.76942C8.61048 4.25186 8.82349 3.81531 9.02762 3.51231Z" fill="#40C96D"/>
<path d="M3.86704 7.6032C3.89285 7.57342 3.91899 7.55716 3.94151 7.54895C3.9417 7.54905 3.9419 7.54916 3.9421 7.54928C3.98535 7.57345 4.05573 7.62477 4.16278 7.72485C4.37912 7.92709 4.65843 8.24416 5.06432 8.70622L5.08091 8.7251C5.27263 8.94339 5.44165 9.13584 5.59267 9.27546C5.74844 9.41949 5.9474 9.56841 6.20959 9.60984C6.44261 9.64667 6.67804 9.60803 6.887 9.50288C7.11858 9.38633 7.26724 9.19065 7.37998 9.00717C7.49007 8.82799 7.60515 8.59214 7.73761 8.3207L9.23936 5.24338C9.51383 4.68095 9.69673 4.30889 9.85697 4.07103C9.92484 3.97029 9.97148 3.91992 9.99872 3.89566C10.026 3.91992 10.0726 3.97029 10.1405 4.07103C10.3007 4.30889 10.4836 4.68094 10.7581 5.24338L12.2598 8.32066C12.3923 8.59212 12.5074 8.82798 12.6175 9.00717C12.7302 9.19065 12.8789 9.38633 13.1104 9.50288C13.3194 9.60803 13.5548 9.64667 13.7879 9.60984C14.05 9.56841 14.249 9.41949 14.4048 9.27546C14.5558 9.13583 14.7248 8.94339 14.9165 8.7251L14.9331 8.70622C15.339 8.24416 15.6183 7.92709 15.8347 7.72485C15.9417 7.62477 16.0121 7.57345 16.0553 7.54928C16.0555 7.54916 16.0557 7.54905 16.0559 7.54895C16.0796 7.55756 16.1072 7.57505 16.1342 7.60771C16.1318 7.60474 16.1305 7.60305 16.1303 7.60318C16.1285 7.60408 16.1677 7.68337 16.1653 7.99378C16.1627 8.31865 16.1206 8.77082 16.0597 9.41822L15.9069 11.0417C15.7799 12.391 15.6879 13.3608 15.5336 14.0961C15.3811 14.823 15.1802 15.2522 14.8811 15.5582C14.5894 15.8566 14.2147 16.0273 13.5902 16.1186C12.9453 16.2129 12.1021 16.2142 10.9053 16.2142H9.09211C7.89537 16.2142 7.0521 16.2129 6.40722 16.1186C5.78273 16.0273 5.40803 15.8566 5.11633 15.5582C4.81727 15.2522 4.61638 14.823 4.46385 14.0961C4.30955 13.3608 4.21752 12.391 4.09052 11.0417L3.93773 9.41822C3.8768 8.77082 3.8347 8.31864 3.83217 7.99377C3.82976 7.68337 3.86877 7.6041 3.86704 7.6032ZM3.86704 7.6032C3.86701 7.60319 3.8671 7.60317 3.86704 7.6032ZM10.0281 3.87483C10.0281 3.87514 10.026 3.87641 10.0219 3.87771C10.0261 3.87517 10.0281 3.87452 10.0281 3.87483ZM9.97551 3.87771C9.97145 3.87641 9.96936 3.87514 9.96934 3.87483C9.96932 3.87452 9.97135 3.87517 9.97551 3.87771ZM9.99872 2.88086C9.52782 2.88086 9.22874 3.21376 9.02762 3.51231C8.82349 3.81531 8.61048 4.25186 8.35793 4.76942L6.84942 7.86058C6.7034 8.15981 6.60946 8.35101 6.52795 8.48367C6.47138 8.57574 6.44048 8.60538 6.43324 8.61166C6.41241 8.62134 6.39298 8.62444 6.37508 8.62317C6.36352 8.61676 6.33113 8.5963 6.27156 8.54122C6.1635 8.44131 6.02897 8.28914 5.81562 8.04626L5.79622 8.02417C5.41443 7.58952 5.10256 7.23448 4.84569 6.99434C4.71397 6.87121 4.57553 6.75773 4.43003 6.67639C4.28207 6.59369 4.09629 6.52722 3.8843 6.54584C3.56892 6.57354 3.28907 6.73305 3.09286 6.97011C2.85615 7.2561 2.82951 7.65592 2.8322 8.00155C2.83511 8.37492 2.88175 8.87046 2.93971 9.4862L3.09793 11.1674C3.22126 12.4778 3.31785 13.5042 3.48517 14.3015C3.65563 15.1138 3.91189 15.7566 4.40124 16.2572C4.89795 16.7653 5.50827 16.9978 6.26252 17.1081C6.98805 17.2142 7.9045 17.2142 9.05247 17.2142H10.945C12.0929 17.2142 13.0094 17.2142 13.7349 17.1081C14.4892 16.9978 15.0995 16.7653 15.5962 16.2572C16.0856 15.7566 16.3418 15.1138 16.5123 14.3015C16.6796 13.5042 16.7762 12.4778 16.8995 11.1674L17.0577 9.48619C17.1157 8.87045 17.1623 8.37492 17.1652 8.00155C17.1679 7.65592 17.1413 7.2561 16.9046 6.97011C16.7084 6.73305 16.4285 6.57354 16.1131 6.54584C15.9012 6.52722 15.7154 6.59369 15.5674 6.67639C15.4219 6.75773 15.2835 6.87121 15.1518 6.99434C14.8949 7.23448 14.583 7.58952 14.2012 8.02418L14.1818 8.04626C13.9685 8.28914 13.8339 8.44131 13.7259 8.54122C13.6663 8.5963 13.6339 8.61676 13.6224 8.62317C13.6045 8.62444 13.585 8.62134 13.5642 8.61166C13.557 8.60537 13.5261 8.57574 13.4695 8.48367C13.388 8.35101 13.294 8.15981 13.148 7.86058L11.6395 4.7694C11.387 4.25185 11.1739 3.8153 10.9698 3.51231C10.7687 3.21376 10.4696 2.88086 9.99872 2.88086Z" stroke="#40C96D" stroke-width="0.4"/>
</g>
</g>
</svg>
