<svg xmlns="http://www.w3.org/2000/svg" width="30" height="31" viewBox="0 0 30 31" fill="none">
  <path d="M12.6865 14.9213C12.5543 14.8766 12.425 14.8235 12.2995 14.7623L1.83252 9.08032C1.72508 9.03997 1.63251 8.96781 1.56716 8.87346C1.50181 8.77912 1.4668 8.66708 1.4668 8.55232C1.4668 8.43755 1.50181 8.32551 1.56716 8.23117C1.63251 8.13682 1.72508 8.06466 1.83252 8.02432C5.31052 6.13632 8.78652 4.24432 12.2605 2.34832C12.3865 2.27257 12.5312 2.2338 12.6782 2.23646C12.8251 2.23911 12.9684 2.28307 13.0915 2.36332C16.5175 4.23332 19.9465 6.09832 23.3785 7.95832C23.6305 8.09332 23.8675 8.23732 23.8585 8.55832C23.8495 8.87932 23.6185 9.00532 23.3815 9.13432C20.0615 10.9343 16.7425 12.7343 13.4245 14.5343C13.1755 14.6843 12.9205 14.8043 12.6865 14.9213Z" fill="#33A959"/>
  <path d="M28.5459 20.6145C28.5069 23.2575 27.6459 25.5555 25.7019 27.3975C25.1008 27.9642 24.3986 28.413 23.6319 28.7205C23.426 28.8118 23.2032 28.859 22.9779 28.859C22.7526 28.859 22.5299 28.8118 22.3239 28.7205C20.5749 27.9975 19.3809 26.7015 18.5049 25.0785C17.6049 23.3925 17.3529 21.5625 17.4429 19.6785C17.4564 19.5711 17.4932 19.468 17.5508 19.3763C17.6083 19.2846 17.6851 19.2065 17.7759 19.1475C19.3989 18.2235 21.0399 17.3295 22.6749 16.4235C22.7736 16.3624 22.8873 16.3301 23.0034 16.3301C23.1195 16.3301 23.2332 16.3624 23.3319 16.4235C24.9559 17.3275 26.5809 18.2275 28.2069 19.1235C28.3127 19.1745 28.4012 19.2554 28.4615 19.3562C28.5217 19.457 28.5511 19.5732 28.5459 19.6905V20.6145ZM22.0629 23.4135C21.7629 23.1135 21.5139 22.8135 21.2439 22.5585C21.1971 22.4968 21.1373 22.4461 21.0686 22.4102C20.9999 22.3743 20.9241 22.354 20.8467 22.3509C20.7693 22.3477 20.6921 22.3617 20.6207 22.3919C20.5493 22.4221 20.4856 22.4678 20.4339 22.5255C20.3828 22.5798 20.3436 22.6442 20.3189 22.7146C20.2942 22.7849 20.2845 22.8597 20.2905 22.934C20.2964 23.0083 20.3178 23.0806 20.3534 23.1461C20.3889 23.2117 20.4378 23.269 20.4969 23.3145C20.8649 23.6905 21.2369 24.0645 21.6129 24.4365C21.9549 24.7755 22.2129 24.7725 22.5609 24.4365C22.9089 24.1005 23.3379 23.6625 23.7249 23.2725C24.3249 22.6725 24.9249 22.0725 25.5249 21.4725C25.5787 21.4249 25.6223 21.3668 25.6531 21.3018C25.6838 21.2367 25.701 21.1661 25.7036 21.0943C25.7062 21.0224 25.6942 20.9508 25.6683 20.8837C25.6424 20.8166 25.6031 20.7555 25.5529 20.704C25.5026 20.6526 25.4425 20.6118 25.376 20.5843C25.3096 20.5568 25.2383 20.5431 25.1664 20.544C25.0944 20.5449 25.0235 20.5604 24.9577 20.5895C24.892 20.6187 24.8328 20.6609 24.7839 20.7135C24.6879 20.7975 24.6009 20.8905 24.5109 20.9805L22.0629 23.4135Z" fill="#6EEC97"/>
  <path d="M23.8618 13.7091C23.8513 13.8317 23.8066 13.9489 23.7329 14.0476C23.6593 14.1462 23.5595 14.2222 23.4448 14.2671C22.0348 15.0291 20.6258 15.7951 19.2178 16.5651C17.2048 17.6481 15.1918 18.7461 13.1998 19.8501C13.0468 19.9485 12.8688 20.0009 12.6868 20.0009C12.5049 20.0009 12.3268 19.9485 12.1738 19.8501C8.74783 17.9821 5.32183 16.1241 1.89583 14.2761C1.66183 14.1471 1.46383 14.0031 1.46683 13.7031C1.46983 13.4031 1.67383 13.2651 1.90783 13.1481C2.67883 12.7311 3.44983 12.3171 4.21183 11.8851C4.29252 11.8308 4.38757 11.8018 4.48483 11.8018C4.58209 11.8018 4.67714 11.8308 4.75783 11.8851C7.05583 13.1391 9.36283 14.3751 11.6578 15.6441C11.9629 15.8329 12.3145 15.933 12.6733 15.933C13.0321 15.933 13.3838 15.8329 13.6888 15.6441C15.9598 14.3871 18.2518 13.1631 20.5258 11.9121C20.6235 11.8482 20.7376 11.8141 20.8543 11.8141C20.971 11.8141 21.0852 11.8482 21.1828 11.9121C21.9358 12.3381 22.7008 12.7401 23.4628 13.1511C23.5749 13.1974 23.6717 13.2743 23.7422 13.3729C23.8128 13.4716 23.8542 13.588 23.8618 13.7091Z" fill="#33A959"/>
  <path d="M16.3742 19.3457C16.3092 20.5501 16.3826 21.758 16.5932 22.9457C16.5949 23.0001 16.5836 23.0541 16.5601 23.1032C16.5366 23.1522 16.5016 23.1949 16.4582 23.2277C15.3122 23.8607 14.1572 24.4757 13.0112 25.1057C12.8972 25.1711 12.7672 25.2036 12.6358 25.1993C12.5043 25.1951 12.3767 25.1543 12.2672 25.0817L2.61616 19.8227C2.34616 19.6757 2.07616 19.5227 1.80916 19.3817C1.34416 19.1147 1.33516 18.6167 1.80916 18.3587C2.64016 17.8997 3.48016 17.4587 4.30816 16.9907C4.37583 16.9533 4.45314 16.937 4.53014 16.944C4.60714 16.9509 4.68029 16.9808 4.74016 17.0297C7.03816 18.2777 9.34216 19.5167 11.6402 20.7857C11.9506 20.9869 12.3127 21.0939 12.6827 21.0939C13.0526 21.0939 13.4147 20.9869 13.7252 20.7857C14.5052 20.3237 15.3152 19.9127 16.1252 19.4807C16.1762 19.4477 16.2602 19.3997 16.3742 19.3457Z" fill="#33A959"/>
</svg>