<svg width="1344" height="664" viewBox="0 0 1344 664" fill="none" xmlns="http://www.w3.org/2000/svg">
<g opacity="0.6" filter="url(#filter0_f_300_3465)">
<path fill-rule="evenodd" clip-rule="evenodd" d="M465.565 305.488C568.796 312.332 676.85 282.611 771.873 302.992C871.297 324.317 946.913 368.288 985.045 416.909C1022.03 464.067 966.541 514.732 977.213 564.811C992.685 637.413 1162.68 720.698 1061.47 775.521C959.922 830.526 762.17 753.198 609.923 763.761C489.61 772.109 401.491 835.499 280.516 829.706C155.613 823.725 27.3904 786.888 -27.7632 733.225C-81.9734 680.479 -0.778252 619.995 4.69458 561.337C8.89907 516.272 -13.2481 473.387 0.642857 428.766C19.1557 369.297 -11.349 287.641 99.0069 258.379C211.851 228.457 337.621 297.005 465.565 305.488Z" fill="#E8FFEF"/>
</g>
<defs>
<filter id="filter0_f_300_3465" x="-296.332" y="0.866211" width="1639.78" height="1079.21" filterUnits="userSpaceOnUse" color-interpolation-filters="sRGB">
<feFlood flood-opacity="0" result="BackgroundImageFix"/>
<feBlend mode="normal" in="SourceGraphic" in2="BackgroundImageFix" result="shape"/>
<feGaussianBlur stdDeviation="125" result="effect1_foregroundBlur_300_3465"/>
</filter>
</defs>
</svg>
