<svg xmlns="http://www.w3.org/2000/svg" width="70" height="70" viewBox="0 0 70 70" fill="none">
  <path d="M47.1031 39.97L40.3131 46.76C39.3261 47.74 38.3671 48.755 37.3521 49.7C36.5376 50.473 36.0388 51.5205 35.9521 52.64C35.7631 54.355 35.4901 56.056 35.2941 57.771C35.2589 58.4566 35.2589 59.1435 35.2941 59.829H34.7831C26.7821 59.829 18.7881 59.829 10.7871 59.829C10.0069 59.8777 9.22689 59.7321 8.51685 59.4053C7.80681 59.0785 7.18895 58.5806 6.71863 57.9562C6.2483 57.3319 5.94021 56.6007 5.82196 55.828C5.70371 55.0554 5.77899 54.2654 6.04106 53.529C7.30806 49.56 8.56806 45.584 9.84906 41.629C10.133 40.7129 10.6021 39.865 11.2273 39.1377C11.8525 38.4105 12.6205 37.8195 13.4837 37.4014C14.3468 36.9833 15.2866 36.747 16.2448 36.7072C17.2031 36.6674 18.1592 36.8249 19.0541 37.17C24.8724 39.3272 31.2394 39.5068 37.1701 37.681C38.3584 37.2422 39.5905 36.9324 40.8451 36.757C43.4981 36.568 45.5561 37.8 47.1031 39.97Z" fill="#33A959"/>
  <path d="M28.8681 10.1504C31.2671 10.1532 33.6115 10.8677 35.6043 12.2034C37.5971 13.5392 39.1489 15.4361 40.0631 17.6542C40.9774 19.8723 41.213 22.3117 40.7402 24.6637C40.2674 27.0158 39.1074 29.1747 37.4071 30.8672C35.7068 32.5596 33.5425 33.7096 31.1883 34.1715C28.8341 34.6335 26.3958 34.3866 24.182 33.4621C21.9682 32.5376 20.0784 30.9771 18.7519 28.9781C17.4254 26.9791 16.7217 24.6315 16.7301 22.2324C16.7412 19.0218 18.0253 15.9466 20.3009 13.6816C22.5764 11.4166 25.6574 10.1467 28.8681 10.1504Z" fill="#33A959"/>
  <path d="M52.192 38.2129L59.143 45.1639L58.73 45.5909C54.684 49.6439 50.61 53.6619 46.606 57.7499C45.8175 58.6168 44.7233 59.1439 43.554 59.2199C42.112 59.3389 40.677 59.5769 39.242 59.7729C37.996 59.9409 37.429 59.4439 37.576 58.2119C37.8046 56.3079 38.0566 54.4062 38.332 52.5069C38.3857 52.1818 38.5343 51.8799 38.759 51.6389C43.197 47.1729 47.642 42.7209 52.094 38.2829C52.1218 38.2535 52.1551 38.2297 52.192 38.2129Z" fill="#6EEC97"/>
  <path d="M61.117 43.0009L54.208 36.0709C54.908 35.4129 56.133 34.1879 56.959 33.5859C57.478 33.2183 58.11 33.0456 58.7438 33.0981C59.3776 33.1506 59.9726 33.425 60.424 33.8729C61.474 34.8669 62.524 35.8889 63.49 36.9459C63.968 37.4525 64.24 38.1191 64.2529 38.8154C64.2658 39.5118 64.0188 40.1879 63.56 40.7119C63 41.3839 61.747 42.3989 61.117 43.0009Z" fill="#6EEC97"/>
</svg>