<svg xmlns="http://www.w3.org/2000/svg" width="20" height="21" viewBox="0 0 20 21" fill="none">
  <path fill-rule="evenodd" clip-rule="evenodd" d="M9.9987 8.79818C11.6095 8.79818 12.9154 7.49234 12.9154 5.88151C12.9154 4.27068 11.6095 2.96484 9.9987 2.96484C8.38786 2.96484 7.08203 4.27068 7.08203 5.88151C7.08203 7.49234 8.38786 8.79818 9.9987 8.79818ZM9.9987 10.0482C12.2999 10.0482 14.1654 8.18269 14.1654 5.88151C14.1654 3.58033 12.2999 1.71484 9.9987 1.71484C7.69751 1.71484 5.83203 3.58033 5.83203 5.88151C5.83203 8.18269 7.69751 10.0482 9.9987 10.0482Z" fill="#40C96D" stroke="#40C96D" stroke-width="0.5"/>
  <path fill-rule="evenodd" clip-rule="evenodd" d="M7.4987 13.1729C5.54269 13.1729 3.95703 14.7585 3.95703 16.7145V17.5479C3.95703 17.893 3.67721 18.1729 3.33203 18.1729C2.98686 18.1729 2.70703 17.893 2.70703 17.5479V16.7145C2.70703 14.0682 4.85233 11.9229 7.4987 11.9229H12.4987C15.145 11.9229 17.2904 14.0682 17.2904 16.7145V17.5479C17.2904 17.893 17.0105 18.1729 16.6654 18.1729C16.3202 18.1729 16.0404 17.893 16.0404 17.5479V16.7145C16.0404 14.7585 14.4547 13.1729 12.4987 13.1729H7.4987Z" fill="#40C96D" stroke="#40C96D" stroke-width="0.5"/>
</svg>