<svg width="35" height="36" viewBox="0 0 35 36" fill="none" xmlns="http://www.w3.org/2000/svg">
<path d="M3.0293 21.2376V19.8793C3.0293 19.7976 3.07211 19.7158 3.07989 19.6341C3.16901 18.7794 3.38411 17.9426 3.7182 17.1509C3.74727 17.09 3.78111 17.0314 3.81939 16.9758C6.47379 19.4239 9.52129 20.2802 12.9385 19.097C16.3558 17.9138 18.2435 15.3528 18.8312 11.8032C19.738 11.8032 20.6488 11.8032 21.5556 11.8032C21.6437 11.816 21.7335 11.8002 21.812 11.7582C21.8904 11.7161 21.9534 11.6501 21.9915 11.5697C22.3587 10.9057 22.873 10.3346 23.495 9.90013C24.117 9.46566 24.8303 9.17937 25.58 9.06319C26.7023 8.9489 27.8311 8.91249 28.9584 8.95422C29.1215 8.95878 29.2785 9.01748 29.4046 9.12105C29.5307 9.22463 29.6188 9.36721 29.6551 9.52635C29.7144 9.7136 29.7082 9.91548 29.6375 10.0987C29.5667 10.282 29.4356 10.4356 29.2658 10.5344C28.1739 11.3988 27.4014 12.6027 27.0707 13.9555C27.0425 14.0425 27.0399 14.1358 27.0634 14.2242C27.0869 14.3125 27.1354 14.3922 27.203 14.4537C27.5494 14.8429 27.8491 15.2321 28.1838 15.6214C28.2848 15.7401 28.4212 15.8234 28.5731 15.8588C29.4332 16.0222 30.2972 16.1624 31.1574 16.3103C31.2788 16.3151 31.3978 16.3453 31.5068 16.3988C31.6159 16.4524 31.7125 16.5281 31.7906 16.6212C31.8686 16.7143 31.9264 16.8226 31.9601 16.9393C31.9938 17.056 32.0028 17.1785 31.9864 17.2988V22.1289C32.0129 22.3381 31.9635 22.5498 31.847 22.7255C31.7306 22.9012 31.5549 23.0293 31.352 23.0864C30.6475 23.3783 29.9353 23.6546 29.2347 23.9543C29.0959 24.0177 28.9812 24.1241 28.9078 24.2579C28.341 25.4588 27.5188 26.5215 26.4986 27.3716C26.4027 27.4634 26.3468 27.5892 26.3429 27.7219C26.3429 29.014 26.3156 30.3062 26.3429 31.6139C26.3753 31.8466 26.3314 32.0836 26.2177 32.2892C26.104 32.4948 25.9267 32.658 25.7124 32.7543H21.8514C21.6771 32.667 21.525 32.541 21.407 32.3858C21.2889 32.2306 21.2079 32.0505 21.1703 31.8591C20.9368 31.0807 20.6682 30.3412 20.423 29.5823C20.4182 29.5442 20.4059 29.5074 20.3869 29.474C20.3679 29.4407 20.3424 29.4114 20.3121 29.3879C20.2817 29.3644 20.247 29.3472 20.2099 29.3371C20.1729 29.327 20.1342 29.3244 20.0961 29.3293C17.6129 29.3293 15.1285 29.3293 12.6427 29.3293C12.6047 29.3244 12.566 29.327 12.5289 29.3371C12.4919 29.3472 12.4572 29.3644 12.4268 29.3879C12.3964 29.4114 12.371 29.4407 12.3519 29.474C12.3329 29.5074 12.3206 29.5442 12.3158 29.5823C12.0706 30.3607 11.8021 31.0963 11.5685 31.8591C11.5278 32.0473 11.445 32.2238 11.3264 32.3755C11.2077 32.5271 11.0564 32.65 10.8835 32.7349H7.04204C6.82722 32.6403 6.64927 32.478 6.53541 32.2728C6.42154 32.0675 6.37803 31.8307 6.41152 31.5984C6.43876 30.3257 6.41152 29.0529 6.41152 27.7802C6.42082 27.6908 6.40753 27.6005 6.37285 27.5175C6.33817 27.4345 6.28321 27.3616 6.21302 27.3054C4.82201 26.1762 3.82237 24.6373 3.35623 22.9073C3.21222 22.3508 3.13438 21.7903 3.0293 21.2376ZM25.4711 17.4584C25.4718 17.2903 25.4226 17.1257 25.3297 16.9856C25.2368 16.8455 25.1043 16.7361 24.9491 16.6714C24.7939 16.6067 24.623 16.5896 24.458 16.6222C24.2931 16.6548 24.1415 16.7357 24.0226 16.8546C23.9037 16.9735 23.8228 17.125 23.7902 17.29C23.7576 17.4549 23.7748 17.6258 23.8395 17.781C23.9042 17.9362 24.0135 18.0687 24.1536 18.1616C24.2938 18.2546 24.4583 18.3038 24.6265 18.303C24.8489 18.298 25.0609 18.2075 25.2182 18.0501C25.3755 17.8928 25.4661 17.6809 25.4711 17.4584Z" fill="#33A959"/>
<path d="M10.7157 3.73926C10.9999 3.78985 11.2879 3.83656 11.572 3.89883C12.8465 4.16501 14.0228 4.77766 14.9714 5.66933C15.9201 6.56101 16.6044 7.69714 16.9489 8.95267C17.2935 10.2082 17.2849 11.5345 16.9242 12.7854C16.5635 14.0364 15.8647 15.1637 14.9046 16.043C13.9445 16.9224 12.7604 17.5199 11.4827 17.7696C10.2049 18.0193 8.88298 17.9117 7.66245 17.4585C6.44191 17.0053 5.37008 16.2242 4.56491 15.2011C3.75975 14.178 3.25248 12.9525 3.09894 11.6597C3.08621 11.5861 3.06931 11.5133 3.04834 11.4417V10.1962C3.06889 10.1245 3.08577 10.0517 3.09894 9.97827C3.26725 8.56414 3.8579 7.23358 4.79381 6.1602C5.72973 5.08682 6.96744 4.32045 8.34547 3.96111C8.71522 3.8677 9.09664 3.81321 9.47417 3.73926H10.7157ZM10.6146 8.28911L10.9765 8.54209C11.0524 8.61459 11.1506 8.65939 11.2551 8.66928C11.3596 8.67916 11.4644 8.65355 11.5525 8.59658C11.7118 8.48152 11.8216 8.31051 11.86 8.11785C11.8594 8.02231 11.8382 7.92801 11.798 7.84137C11.7577 7.75474 11.6992 7.6778 11.6265 7.61577C11.3046 7.4023 10.9691 7.20989 10.6223 7.03975C10.6223 7.03975 10.6223 6.99304 10.6223 6.93466C10.6223 6.51042 10.4005 6.26911 10.0541 6.27301C9.7077 6.2769 9.48585 6.56102 9.48974 6.95023C9.4981 7.02247 9.47919 7.09523 9.43672 7.15426C9.39424 7.2133 9.33126 7.25435 9.26011 7.26938C8.9294 7.39008 8.64065 7.60384 8.42864 7.88489C8.21664 8.16595 8.09044 8.50231 8.06524 8.85346C8.00273 9.20195 8.0537 9.5613 8.21063 9.87867C8.36757 10.196 8.62219 10.4547 8.93706 10.6166C9.07053 10.6824 9.20045 10.7551 9.32627 10.8345C9.35997 10.854 9.38917 10.8803 9.41197 10.9119C9.43478 10.9434 9.45067 10.9794 9.4586 11.0175C9.4586 11.7608 9.4586 12.5042 9.4586 13.3294C9.19783 13.2087 8.99545 13.1036 8.78527 13.018C8.64591 12.9463 8.49384 12.9027 8.33768 12.8895C8.22316 12.8932 8.11341 12.9363 8.02692 13.0114C7.94043 13.0866 7.88248 13.1892 7.86285 13.3021C7.82295 13.416 7.82537 13.5404 7.86969 13.6526C7.914 13.7648 7.99723 13.8573 8.10416 13.9132C8.53229 14.135 8.97599 14.3024 9.4586 14.5398C9.45102 14.6096 9.45102 14.6801 9.4586 14.75C9.46756 14.8624 9.49794 14.972 9.54812 15.073C9.61087 15.1787 9.70707 15.2605 9.82151 15.3054C9.93594 15.3503 10.0621 15.3558 10.18 15.3209C10.2979 15.2861 10.4008 15.213 10.4724 15.1131C10.5441 15.0132 10.5804 14.8923 10.5756 14.7694C10.5756 14.4853 10.6496 14.3608 10.9298 14.2479C11.4284 14.0417 11.8357 13.6622 12.0767 13.1795C12.3178 12.6968 12.3762 12.1432 12.2414 11.6207C12.1476 11.2953 11.9743 10.9983 11.7372 10.7564C11.5001 10.5146 11.2066 10.3354 10.8831 10.2351C10.778 10.1962 10.6184 10.0911 10.6184 10.0133C10.6068 9.46062 10.6146 8.89627 10.6146 8.28911Z" fill="#6EEC97"/>
<path d="M10.6252 13.1344V11.4141C10.7617 11.437 10.8874 11.5024 10.9845 11.6009C11.0817 11.6995 11.1452 11.8261 11.1662 11.9628C11.2107 12.1902 11.1824 12.4258 11.0853 12.6361C10.9881 12.8464 10.8272 13.0208 10.6252 13.1344Z" fill="#6EEC97"/>
<path d="M9.47013 8.50684V9.57327C9.08092 9.36309 9.07313 8.86102 9.47013 8.50684Z" fill="#6EEC97"/>
</svg>
