<svg xmlns="http://www.w3.org/2000/svg" viewBox="0 0 43 39" fill="none">
  <!-- Shopping Cart -->
  <path d="M17.0384 20.1923C17.3399 20.1923 17.6383 20.1799 17.9305 20.1518C21.3653 19.831 24.424 17.6533 25.913 14.4662C26.1337 13.9926 25.9845 13.4194 25.5648 13.139C25.3099 12.9677 24.996 12.9178 24.7038 12.9988C24.4116 13.0798 24.1691 13.2854 24.0417 13.5627C22.8667 16.0956 20.4515 17.8246 17.7378 18.0801C14.5237 18.3823 11.3935 16.5847 9.95119 13.6063C9.70562 13.0985 9.14299 12.8462 8.64875 13.0206C8.36899 13.1203 8.14519 13.3322 8.03328 13.6032C7.92138 13.8743 7.9276 14.1858 8.05504 14.4506C9.71495 17.9399 13.2399 20.1923 17.0384 20.1923Z" fill="#F15959"/>
  <path d="M42.3696 0.9268C42.2981 0.655758 42.1271 0.431447 41.8877 0.291253C41.6453 0.151059 41.3686 0.110558 41.1013 0.182213L35.1207 1.7555C34.3747 1.95178 33.7872 2.53748 33.5882 3.28518L32.5656 7.15454C32.5345 7.15454 32.5034 7.15142 32.4754 7.15142H1.72373C1.18597 7.15142 0.688622 7.39754 0.362237 7.82124C0.0296351 8.24806 -0.0791599 8.79326 0.057611 9.31353L4.17939 25.1898C4.37833 25.9499 5.06218 26.4795 5.84551 26.4795H28.5619C28.8572 26.4795 29.1245 26.6509 29.252 26.9157C29.4229 27.2709 29.5007 27.6634 29.4758 28.0622C29.4012 29.3021 28.3288 30.2741 27.0295 30.2741H2.49462C1.9693 30.2741 1.51236 30.6449 1.42843 31.134C1.37869 31.4424 1.46262 31.7508 1.65845 31.9845C1.85739 32.2213 2.14648 32.3552 2.45421 32.3552H7.70124C7.37796 33.0967 7.26917 33.9067 7.38729 34.7261C7.66083 36.614 9.2337 38.1468 11.1298 38.3711C11.2977 38.3898 11.4655 38.3992 11.6334 38.3992C12.6872 38.3992 13.7098 38.016 14.5025 37.3088C15.4226 36.4894 15.951 35.3149 15.951 34.0874C15.951 33.4893 15.8267 32.8973 15.5873 32.3552H20.5235C20.1971 33.0936 20.0883 33.9067 20.2096 34.7261C20.48 36.6171 22.056 38.1499 23.9521 38.3711C25.1799 38.5144 26.4109 38.1281 27.3248 37.3088C28.2449 36.4894 28.7702 35.3149 28.7702 34.0874C28.7702 33.4238 28.621 32.7758 28.335 32.187C29.196 31.944 29.9762 31.4331 30.5544 30.7228C31.2103 29.9221 31.5553 28.9532 31.5553 27.922C31.5553 26.6602 31.0238 25.4701 30.0882 24.629L33.4888 11.7685L33.5199 11.7342V11.6563L35.3694 4.68089C35.5155 4.12634 35.9538 3.69018 36.5071 3.54376L41.6266 2.19478C42.1799 2.05147 42.5125 1.48135 42.3696 0.9268ZM13.0508 35.8165C12.5317 36.2402 11.8479 36.4084 11.1827 36.2713C10.2875 36.0906 9.56941 35.3242 9.43885 34.4145C9.33006 33.6263 9.63468 32.8475 10.2439 32.3552H13.0477C13.5668 32.7758 13.8746 33.4145 13.8746 34.0874C13.8746 34.7572 13.5731 35.3865 13.0508 35.8165ZM25.8793 35.8102C25.3633 36.2371 24.6826 36.4053 24.0174 36.2744C23.1191 36.1 22.3979 35.3398 22.2642 34.427C22.1461 33.6326 22.4538 32.8475 23.0693 32.3552H25.8669C26.386 32.7758 26.6937 33.4145 26.6937 34.0874C26.6937 34.7541 26.3984 35.3834 25.8793 35.8102ZM29.5877 18.3919L27.9962 24.3984H6.11905L2.18378 9.23565H32.0154L29.5877 18.3919Z" fill="white"/>
</svg>