<svg width="554" height="466" viewBox="0 0 554 466" fill="none" xmlns="http://www.w3.org/2000/svg">
<path d="M553.064 11.302C552.049 7.45356 549.621 4.2686 546.223 2.27801C542.78 0.287412 538.852 -0.287649 535.056 0.729767L450.138 23.0687C439.546 25.8555 431.204 34.1718 428.379 44.7883L413.859 99.7287C413.417 99.7287 412.976 99.6845 412.579 99.6845H-24.0597C-31.6953 99.6845 -38.757 103.179 -43.3913 109.195C-48.1139 115.255 -49.6586 122.997 -47.7167 130.384L10.8078 355.808C13.6325 366.601 23.3424 374.121 34.4647 374.121H357.011C361.204 374.121 365 376.554 366.81 380.314C369.237 385.357 370.34 390.931 369.987 396.593C368.928 414.199 353.701 428 335.252 428H-13.114C-20.573 428 -27.061 433.264 -28.2526 440.209C-28.9588 444.588 -27.7671 448.968 -24.9866 452.285C-22.1619 455.647 -18.0572 457.549 -13.6877 457.549H60.814C56.2238 468.077 54.6791 479.579 56.3562 491.213C60.2402 518.019 82.5731 539.783 109.496 542.968C111.879 543.233 114.263 543.366 116.646 543.366C131.608 543.366 146.129 537.925 157.384 527.884C170.448 516.25 177.951 499.573 177.951 482.144C177.951 473.651 176.186 465.246 172.787 457.549H242.875C238.241 468.033 236.696 479.579 238.418 491.213C242.257 518.063 264.634 539.827 291.557 542.968C308.991 545.003 326.469 539.518 339.445 527.884C352.509 516.25 359.968 499.573 359.968 482.144C359.968 472.722 357.85 463.521 353.789 455.161C366.015 451.71 377.093 444.456 385.303 434.37C394.615 423.001 399.514 409.244 399.514 394.602C399.514 376.687 391.967 359.789 378.682 347.845L426.967 165.241L427.408 164.755V163.649L453.669 64.6058C455.744 56.7319 461.967 50.5389 469.823 48.4598L542.515 29.3059C550.371 27.271 555.094 19.176 553.064 11.302ZM136.772 506.695C129.401 512.711 119.692 515.1 110.246 513.153C97.5352 510.588 87.3398 499.706 85.4861 486.789C83.9413 475.597 88.2666 464.539 96.9173 457.549H136.728C144.099 463.521 148.468 472.589 148.468 482.144C148.468 491.655 144.187 500.59 136.772 506.695ZM318.922 506.606C311.595 512.667 301.929 515.055 292.484 513.198C279.729 510.72 269.489 499.927 267.592 486.966C265.914 475.686 270.284 464.539 279.023 457.549H318.745C326.116 463.521 330.486 472.589 330.486 482.144C330.486 491.611 326.293 500.546 318.922 506.606ZM371.576 259.286L348.979 344.572H38.3487L-17.5276 129.278H406.046L371.576 259.286Z" fill="url(#paint0_linear_53_102)"/>
<defs>
<linearGradient id="paint0_linear_53_102" x1="-48.5552" y1="271.817" x2="553.514" y2="271.817" gradientUnits="userSpaceOnUse">
<stop offset="1.33195e-07" stop-color="#2C995E"/>
<stop offset="0.750034" stop-color="#36B555"/>
</linearGradient>
</defs>
</svg>
