<svg width="31" height="30" viewBox="0 0 31 30" fill="none" xmlns="http://www.w3.org/2000/svg">
<path fill-rule="evenodd" clip-rule="evenodd" d="M17.9887 27.7078L17.1755 29.0815C16.4508 30.306 14.6402 30.306 13.9155 29.0815L13.1023 27.7078C12.4716 26.6422 12.1563 26.1094 11.6497 25.8148C11.1432 25.5201 10.5054 25.5092 9.2299 25.4872C7.34686 25.4547 6.16586 25.3394 5.17541 24.9291C3.3377 24.1679 1.87764 22.7078 1.11644 20.8701C0.545532 19.4918 0.545532 17.7446 0.545532 14.25V12.75C0.545532 7.83985 0.545532 5.38478 1.65073 3.58126C2.26915 2.57209 3.11763 1.72362 4.12679 1.1052C5.93031 0 8.38539 0 13.2955 0H17.7955C22.7057 0 25.1608 0 26.9643 1.1052C27.9734 1.72362 28.8219 2.57209 29.4403 3.58126C30.5455 5.38478 30.5455 7.83985 30.5455 12.75V14.25C30.5455 17.7446 30.5455 19.4918 29.9746 20.8701C29.2134 22.7078 27.7534 24.1679 25.9157 24.9291C24.9252 25.3394 23.7442 25.4547 21.8611 25.4872C20.5856 25.5092 19.9478 25.5201 19.4413 25.8148C18.9347 26.1094 18.6194 26.6422 17.9887 27.7078ZM9.54553 14.625C8.92421 14.625 8.42053 15.1287 8.42053 15.75C8.42053 16.3713 8.92421 16.875 9.54553 16.875H17.7955C18.4169 16.875 18.9205 16.3713 18.9205 15.75C18.9205 15.1287 18.4169 14.625 17.7955 14.625H9.54553ZM8.42053 10.5C8.42053 9.87868 8.92421 9.375 9.54553 9.375H21.5455C22.1669 9.375 22.6705 9.87868 22.6705 10.5C22.6705 11.1213 22.1669 11.625 21.5455 11.625H9.54553C8.92421 11.625 8.42053 11.1213 8.42053 10.5Z" fill="#40C96D"/>
</svg>
