<svg width="20" height="21" viewBox="0 0 20 21" fill="none" xmlns="http://www.w3.org/2000/svg">
<g id="Outline / Messages, Coversation / Chat Round Line">
<path id="Vector" fill-rule="evenodd" clip-rule="evenodd" d="M10.0007 4.38086C6.59489 4.38086 3.83398 7.14177 3.83398 10.5475C3.83398 11.5349 4.06567 12.4667 4.47718 13.2929C4.64235 13.6245 4.70595 14.021 4.60174 14.4105L4.20467 15.8945C4.13174 16.1671 4.38109 16.4164 4.65365 16.3435L6.13767 15.9464C6.52714 15.8422 6.92365 15.9058 7.25526 16.071C8.08145 16.4825 9.01328 16.7142 10.0007 16.7142C13.4064 16.7142 16.1673 13.9533 16.1673 10.5475C16.1673 7.14177 13.4064 4.38086 10.0007 4.38086ZM2.83398 10.5475C2.83398 6.58948 6.04261 3.38086 10.0007 3.38086C13.9587 3.38086 17.1673 6.58948 17.1673 10.5475C17.1673 14.5056 13.9587 17.7142 10.0007 17.7142C8.85511 17.7142 7.771 17.4451 6.80942 16.9661C6.66592 16.8946 6.51941 16.8795 6.39614 16.9125L4.91212 17.3095C3.89623 17.5813 2.96683 16.6519 3.23865 15.6361L3.63572 14.152C3.6687 14.0288 3.65354 13.8823 3.58207 13.7388C3.10312 12.7772 2.83398 11.6931 2.83398 10.5475ZM6.83398 9.54753C6.83398 9.27138 7.05784 9.04753 7.33398 9.04753H12.6673C12.9435 9.04753 13.1673 9.27138 13.1673 9.54753C13.1673 9.82367 12.9435 10.0475 12.6673 10.0475H7.33398C7.05784 10.0475 6.83398 9.82367 6.83398 9.54753ZM6.83398 11.8809C6.83398 11.6047 7.05784 11.3809 7.33398 11.3809H11.0007C11.2768 11.3809 11.5007 11.6047 11.5007 11.8809C11.5007 12.157 11.2768 12.3809 11.0007 12.3809H7.33398C7.05784 12.3809 6.83398 12.157 6.83398 11.8809Z" fill="#6C6C6C"/>
</g>
</svg>
