<svg width="40" height="41" viewBox="0 0 40 41" fill="none" xmlns="http://www.w3.org/2000/svg">
<g id="Bold / Messages, Coversation / Chat Square Line">
<rect y="0.273438" width="40" height="40" rx="20" fill="#E8FFEF"/>
<path id="Vector" fill-rule="evenodd" clip-rule="evenodd" d="M21.8323 29.8042L21.2225 30.8346C20.6789 31.7529 19.321 31.7529 18.7775 30.8346L18.1676 29.8042C17.6946 29.0051 17.458 28.6055 17.0781 28.3845C16.6982 28.1635 16.2199 28.1553 15.2633 28.1388C13.851 28.1145 12.9652 28.028 12.2224 27.7203C10.8441 27.1494 9.74908 26.0543 9.17818 24.676C8.75 23.6423 8.75 22.3319 8.75 19.7109V18.5859C8.75 14.9033 8.75 13.062 9.5789 11.7094C10.0427 10.9525 10.6791 10.3161 11.4359 9.85234C12.7886 9.02344 14.6299 9.02344 18.3125 9.02344H21.6875C25.3701 9.02344 27.2114 9.02344 28.5641 9.85234C29.3209 10.3161 29.9573 10.9525 30.4211 11.7094C31.25 13.062 31.25 14.9033 31.25 18.5859V19.7109C31.25 22.3319 31.25 23.6423 30.8218 24.676C30.2509 26.0543 29.1559 27.1494 27.7776 27.7203C27.0347 28.028 26.149 28.1145 24.7367 28.1388C23.78 28.1553 23.3017 28.1635 22.9218 28.3845C22.5419 28.6055 22.3054 29.0051 21.8323 29.8042ZM15.5 19.9922C15.034 19.9922 14.6562 20.3699 14.6562 20.8359C14.6562 21.3019 15.034 21.6797 15.5 21.6797H21.6875C22.1535 21.6797 22.5312 21.3019 22.5312 20.8359C22.5312 20.3699 22.1535 19.9922 21.6875 19.9922H15.5ZM14.6562 16.8984C14.6562 16.4324 15.034 16.0547 15.5 16.0547H24.5C24.966 16.0547 25.3438 16.4324 25.3438 16.8984C25.3438 17.3644 24.966 17.7422 24.5 17.7422H15.5C15.034 17.7422 14.6562 17.3644 14.6562 16.8984Z" fill="#40C96D"/>
</g>
</svg>
