<svg width="24" height="25" viewBox="0 0 24 25" fill="none" xmlns="http://www.w3.org/2000/svg">
<path fill-rule="evenodd" clip-rule="evenodd" d="M6 3.04297C4.34315 3.04297 3 4.38612 3 6.04297V18.043C3 19.6999 4.34315 21.043 6 21.043H18C19.6569 21.043 21 19.6999 21 18.043V6.04297C21 4.38612 19.6569 3.04297 18 3.04297H6ZM16.7071 9.75008C17.0976 9.35955 17.0976 8.72639 16.7071 8.33586C16.3166 7.94534 15.6834 7.94534 15.2929 8.33586L10 13.6288L8.20711 11.8359C7.81658 11.4454 7.18342 11.4454 6.79289 11.8359C6.40237 12.2264 6.40237 12.8596 6.79289 13.2501L8.58579 15.043C9.36684 15.8241 10.6332 15.824 11.4142 15.043L16.7071 9.75008Z" fill="#40C96D"/>
</svg>
