<svg width="35" height="36" viewBox="0 0 35 36" fill="none" xmlns="http://www.w3.org/2000/svg">
<path d="M10.1501 21.1957C10.1501 18.9032 10.1501 16.6142 10.1501 14.3217C10.1454 13.8707 10.2306 13.4233 10.4006 13.0055C10.5706 12.5878 10.8221 12.2081 11.1404 11.8885C11.4587 11.5689 11.8374 11.3159 12.2544 11.1441C12.6715 10.9724 13.1186 10.8854 13.5696 10.8882C17.9131 10.8882 22.2601 10.8882 26.6001 10.8882C27.181 10.8594 27.7633 10.9053 28.3326 11.0247C29.0662 11.2358 29.7048 11.6931 30.1408 12.3197C30.5768 12.9463 30.7837 13.704 30.7266 14.4652C30.7126 14.6729 30.7056 14.8794 30.7056 15.0847C30.7056 19.1657 30.7056 23.2491 30.7056 27.3347C30.7334 27.8363 30.7099 28.3394 30.6356 28.8362C30.4657 29.6217 30.0183 30.3196 29.3754 30.8018C28.7325 31.284 27.9372 31.5181 27.1356 31.4612C26.9291 31.4612 26.7226 31.4402 26.5161 31.4402H14.2661C13.7752 31.4667 13.2829 31.4456 12.7961 31.3772C12.0358 31.2147 11.3559 30.7926 10.873 30.1833C10.3901 29.574 10.1345 28.8155 10.1501 28.0382C10.1501 25.7586 10.1501 23.4777 10.1501 21.1957ZM19.2501 22.0287C19.216 22.0169 19.1831 22.0016 19.1521 21.9832L17.6646 20.5097C17.1501 19.9882 16.4816 19.9637 16.0161 20.4257C15.9049 20.5365 15.8182 20.6694 15.7617 20.8158C15.7052 20.9623 15.6801 21.1189 15.688 21.2757C15.6959 21.4324 15.7367 21.5858 15.8077 21.7258C15.8787 21.8657 15.9783 21.9892 16.1001 22.0882C16.8188 22.8139 17.5386 23.5361 18.2596 24.2547C18.9246 24.9197 19.4741 24.9197 20.1461 24.2547C21.6884 22.7124 23.2238 21.1736 24.7521 19.6382C24.8266 19.5679 24.8967 19.4931 24.9621 19.4142C25.1334 19.1873 25.2104 18.9029 25.1769 18.6205C25.1435 18.3381 25.0023 18.0795 24.7827 17.8988C24.5631 17.7181 24.2822 17.6292 23.9987 17.6507C23.7152 17.6722 23.4509 17.8025 23.2611 18.0142L19.2501 22.0287Z" fill="#33A959"/>
<path d="M4.29457 15.2771C4.29457 13.2121 4.29457 11.1506 4.29457 9.08563C4.26735 8.58382 4.29316 8.08053 4.37157 7.58413C4.55237 6.83084 4.98739 6.16294 5.60329 5.69305C6.21919 5.22316 6.97828 4.98002 7.75257 5.00463C8.24607 5.02213 8.73957 5.03263 9.22957 5.03263H20.7551C21.2685 5.00717 21.7832 5.03297 22.2916 5.10963C22.9774 5.27017 23.5926 5.64911 24.0446 6.18942C24.4965 6.72973 24.7608 7.40219 24.7976 8.10563C24.7976 8.53613 24.6716 8.69363 24.2376 8.69013C20.7166 8.69013 17.1991 8.70763 13.6781 8.66913C12.9206 8.64954 12.1669 8.78388 11.4629 9.06404C10.7588 9.3442 10.1189 9.76433 9.58194 10.299C9.04497 10.8337 8.62211 11.4718 8.33894 12.1746C8.05578 12.8775 7.91821 13.6305 7.93457 14.3881C7.96607 17.8881 7.93457 21.4266 7.95557 24.9441C7.95557 25.3991 7.80157 25.5426 7.35007 25.5216C6.50677 25.462 5.71796 25.083 5.14438 24.462C4.5708 23.8409 4.25562 23.0245 4.26307 22.1791C4.26307 19.8761 4.26307 17.5731 4.26307 15.2701L4.29457 15.2771Z" fill="#6EEC97"/>
</svg>
