<svg width="20" height="21" viewBox="0 0 20 21" fill="none" xmlns="http://www.w3.org/2000/svg">
<g id="clock">
<path id="Vector" fill-rule="evenodd" clip-rule="evenodd" d="M9.99935 17.6315C13.9113 17.6315 17.0827 14.4602 17.0827 10.5482C17.0827 6.63616 13.9113 3.46484 9.99935 3.46484C6.08733 3.46484 2.91602 6.63616 2.91602 10.5482C2.91602 14.4602 6.08733 17.6315 9.99935 17.6315ZM9.99935 18.8815C14.6017 18.8815 18.3327 15.1505 18.3327 10.5482C18.3327 5.9458 14.6017 2.21484 9.99935 2.21484C5.39697 2.21484 1.66602 5.9458 1.66602 10.5482C1.66602 15.1505 5.39697 18.8815 9.99935 18.8815Z" fill="#6C6C6C"/>
<path id="Vector_2" fill-rule="evenodd" clip-rule="evenodd" d="M10 5.75586C10.3452 5.75586 10.625 6.03568 10.625 6.38086V10.2024C10.625 10.2576 10.6469 10.3106 10.686 10.3497L12.5253 12.1889C12.7693 12.433 12.7693 12.8287 12.5253 13.0728C12.2812 13.3169 11.8855 13.3169 11.6414 13.0728L9.80217 11.2335C9.52867 10.96 9.375 10.5891 9.375 10.2024V6.38086C9.375 6.03568 9.65483 5.75586 10 5.75586Z" fill="#6C6C6C"/>
</g>
</svg>
