<svg xmlns="http://www.w3.org/2000/svg" width="40" height="41" viewBox="0 0 40 41" fill="none">
  <path d="M11.1792 8.85241C10.5283 8.20154 9.47302 8.20154 8.82213 8.85241C8.17127 9.50329 8.17127 10.5586 8.82213 11.2094L17.6437 20.0309L8.82218 28.8524C8.17132 29.5033 8.17132 30.5586 8.82218 31.2094C9.47307 31.8603 10.5283 31.8603 11.1792 31.2094L20.0007 22.3879L28.8222 31.2094C29.473 31.8603 30.5283 31.8603 31.1791 31.2094C31.83 30.5586 31.83 29.5033 31.1791 28.8524L22.3577 20.0309L31.1791 11.2094C31.8302 10.5586 31.8302 9.50329 31.1791 8.85241C30.5283 8.20154 29.473 8.20154 28.8222 8.85241L20.0007 17.6739L11.1792 8.85241Z" fill="white"/>
</svg>