<svg xmlns="http://www.w3.org/2000/svg" width="48" height="48" viewBox="0 0 48 48" fill="none">
  <path d="M19.0607 31.0606C18.4749 31.6464 17.5251 31.6464 16.9393 31.0606C16.3536 30.4748 16.3536 29.5252 16.9393 28.9394L22.9394 22.9394C23.231 22.6476 23.6132 22.5012 23.9956 22.5H24H24.0044C24.2062 22.5006 24.3986 22.541 24.5742 22.6138C24.751 22.687 24.9168 22.7956 25.0606 22.9394L31.0606 28.9394C31.6464 29.5252 31.6464 30.4748 31.0606 31.0606C30.4748 31.6464 29.5252 31.6464 28.9394 31.0606L25.5 27.6214V40C25.5 40.8284 24.8284 41.5 24 41.5C23.1716 41.5 22.5 40.8284 22.5 40V27.6214L19.0607 31.0606Z" fill="#3F3F3F"/>
  <path fill-rule="evenodd" clip-rule="evenodd" d="M17.4059 13.1292C19.3598 8.08082 24.2602 4.5 30 4.5C37.4558 4.5 43.5 10.5442 43.5 18C43.5 21.9984 41.7598 25.5924 39.0004 28.0622C38.383 28.6146 37.4348 28.562 36.8822 27.9448C36.3298 27.3276 36.3824 26.3792 36.9996 25.8268C39.1502 23.902 40.5 21.1096 40.5 18C40.5 12.201 35.799 7.5 30 7.5C25.0272 7.5 20.8586 10.9583 19.7746 15.6025C19.6638 16.0771 19.3295 16.4682 18.878 16.6515C18.4265 16.8347 17.9141 16.7872 17.5039 16.5241C16.4936 15.876 15.293 15.5 14 15.5C10.4101 15.5 7.5 18.4101 7.5 22C7.5 24.404 8.80432 26.5052 10.7511 27.6314C11.4682 28.0462 11.7132 28.9638 11.2984 29.6808C10.8836 30.398 9.966 30.643 9.24892 30.2282C6.41326 28.5878 4.5 25.5182 4.5 22C4.5 16.7533 8.7533 12.5 14 12.5C15.199 12.5 16.3478 12.7227 17.4059 13.1292Z" fill="#3F3F3F"/>
</svg>