<svg xmlns="http://www.w3.org/2000/svg" width="30" height="31" viewBox="0 0 30 31" fill="none">
  <path d="M18.5161 9.20589C18.3481 9.46389 18.2161 9.70089 18.0541 9.91688C17.8746 10.132 17.7505 10.3878 17.6926 10.6619C17.6348 10.936 17.6449 11.2201 17.7221 11.4894C17.7994 11.7587 17.9414 12.0049 18.1357 12.2067C18.3301 12.4085 18.5709 12.5596 18.8371 12.6469C18.7471 12.8539 18.6661 13.0699 18.5671 13.2709C18.4292 13.5161 18.3465 13.7884 18.3247 14.0689C18.3028 14.3494 18.3424 14.6312 18.4407 14.8948C18.5389 15.1584 18.6935 15.3974 18.8935 15.5952C19.0936 15.7929 19.3343 15.9447 19.5991 16.0399C19.4607 16.3762 19.4119 16.7426 19.4577 17.1034C19.5034 17.4641 19.6421 17.8068 19.8601 18.0979C20.0758 18.3879 20.3564 18.6236 20.6793 18.7861C21.0022 18.9486 21.3586 19.0334 21.7201 19.0339C21.7441 19.1119 21.7681 19.1809 21.7891 19.2499C21.9226 19.715 22.2202 20.116 22.6267 20.3786C23.0333 20.6411 23.5212 20.7475 24.0001 20.6779C24.8619 20.5949 25.665 20.204 26.2621 19.5769C26.5201 20.2129 26.7871 20.8039 27.0001 21.4129C27.3038 22.3055 27.4864 23.2348 27.5431 24.1759C27.5581 24.3679 27.4651 24.4069 27.3211 24.4579L20.1211 27.0829C19.8751 27.1729 19.6291 27.2569 19.3891 27.3559C19.2241 27.4249 19.1401 27.3829 19.0171 27.2479C18.5071 26.6839 17.9941 26.1139 17.4391 25.5919C16.8426 25.0945 16.1503 24.7248 15.4051 24.5059C13.2421 23.7229 11.0881 22.9189 8.92806 22.1299C7.25106 21.5299 6.12606 20.3299 5.37306 18.7549C4.92598 17.8884 4.71002 16.9212 4.74606 15.9469C4.74863 15.7073 4.81328 15.4724 4.93368 15.2653C5.05409 15.0581 5.22615 14.8857 5.43306 14.7649C5.68506 14.6149 5.69406 14.4649 5.56506 14.1649C5.37113 13.7644 5.21544 13.3466 5.10006 12.9169C5.02411 12.5862 5.05765 12.2397 5.19562 11.9297C5.33358 11.6197 5.56852 11.3628 5.86506 11.1979C6.15006 11.0269 6.18906 10.8709 6.03006 10.5709C5.96106 10.4419 5.90106 10.3039 5.82906 10.1749C5.41506 9.42489 6.00606 8.50989 6.81006 8.37489C7.25106 8.30589 7.35906 8.07489 7.13406 7.69089C6.97582 7.4535 6.86761 7.18636 6.81603 6.90577C6.76445 6.62518 6.77059 6.33703 6.83406 6.05889C6.96299 5.62489 7.25074 5.25541 7.63995 5.02411C8.02915 4.79282 8.49122 4.71668 8.93406 4.81089C10.6284 5.0908 12.2602 5.66658 13.7551 6.51189C15.2311 7.38489 16.7551 8.19789 18.2371 9.03789C18.3211 9.08888 18.4051 9.14289 18.5161 9.20589Z" fill="#33A959"/>
  <path d="M13.5573 24.6412C12.7683 25.4002 12.1653 26.3182 10.9863 26.5492C10.3152 26.7342 9.65848 26.9678 9.02131 27.2482L2.44531 19.1482L4.17331 17.6182C4.31431 18.0172 4.43431 18.3952 4.57831 18.7642C4.9507 19.7388 5.53532 20.6184 6.28978 21.3392C7.04424 22.0599 7.94964 22.6037 8.94031 22.9312C10.3953 23.4502 11.8413 23.9932 13.2933 24.5242C13.3683 24.5482 13.4433 24.5902 13.5573 24.6412Z" fill="#6EEC97"/>
  <path d="M13.5664 5.55496C14.1664 5.10796 14.6854 4.65496 15.2554 4.27696C15.5801 4.03389 15.9727 3.89831 16.3782 3.88917C16.7838 3.88002 17.182 3.99777 17.5174 4.22596C18.7184 4.98539 19.7925 5.92891 20.7004 7.02196C20.869 7.22459 20.9613 7.47986 20.9613 7.74346C20.9613 8.00706 20.869 8.26234 20.7004 8.46496C20.5276 8.67663 20.2852 8.81999 20.0165 8.86945C19.7478 8.91891 19.4702 8.87124 19.2334 8.73496C18.1564 8.13496 17.0854 7.53496 16.0144 6.93496L13.5664 5.55496Z" fill="#6EEC97"/>
  <path d="M23.7001 9.63477C23.9595 9.77875 24.1815 9.98161 24.3482 10.227C24.515 10.4724 24.6218 10.7536 24.6601 11.0478C24.7397 11.6081 24.5952 12.1772 24.2581 12.6318C23.3772 13.8832 22.1139 14.8148 20.6581 15.2868C20.4424 15.3798 20.2029 15.4027 19.9736 15.3521C19.7442 15.3015 19.5365 15.18 19.3801 15.0048C19.2143 14.8364 19.1073 14.6191 19.0748 14.3851C19.0424 14.1511 19.0863 13.9128 19.2001 13.7058C19.3471 13.3848 19.4131 12.9858 19.6441 12.7548C19.8751 12.5238 20.2651 12.4548 20.5861 12.3228C21.9001 11.7618 23.0041 10.9638 23.7001 9.63477Z" fill="#6EEC97"/>
  <path d="M25.1012 12.7793C25.3171 13.0206 25.4737 13.309 25.5586 13.6215C25.6435 13.9339 25.6543 14.2619 25.5902 14.5793C25.3982 15.8363 24.6422 16.7333 23.6342 17.4173C23.1547 17.7381 22.6366 17.9971 22.0922 18.1883C21.8555 18.2687 21.6016 18.2853 21.3564 18.2363C21.1112 18.1873 20.8832 18.0746 20.6954 17.9093C20.5077 17.7441 20.3669 17.5323 20.2871 17.2953C20.2074 17.0583 20.1916 16.8044 20.2412 16.5593C20.3072 16.2143 20.5232 16.1153 20.8412 16.0223C22.5141 15.5116 23.9588 14.4378 24.9302 12.9833L25.0562 12.8003C25.0704 12.7916 25.0855 12.7845 25.1012 12.7793Z" fill="#6EEC97"/>
  <path d="M19.1997 9.54755C20.7207 10.0006 22.1187 8.66855 21.5997 7.01855C21.756 7.03768 21.9112 7.06471 22.0647 7.09955C22.2639 7.15048 22.4505 7.24181 22.6129 7.36788C22.7753 7.49394 22.9101 7.65205 23.0088 7.83238C23.1075 8.01271 23.1682 8.21141 23.1869 8.41615C23.2056 8.62089 23.1821 8.8273 23.1177 9.02255C22.8794 9.72709 22.4154 10.3334 21.7977 10.7476C21.1412 11.2399 20.4071 11.6192 19.6257 11.8696C19.4447 11.9365 19.2469 11.9435 19.0617 11.8894C18.8764 11.8354 18.7134 11.7233 18.5967 11.5696C18.4798 11.4223 18.4133 11.2414 18.4068 11.0535C18.4003 10.8656 18.4542 10.6805 18.5607 10.5256C18.7617 10.2076 18.9717 9.88955 19.1997 9.54755Z" fill="#6EEC97"/>
  <path d="M25.842 16.1475C26.379 16.7475 26.46 17.8005 26.046 18.5805C25.8026 19.019 25.4381 19.3781 24.996 19.6149C24.5539 19.8516 24.0529 19.956 23.553 19.9155C23.2848 19.8889 23.0338 19.771 22.8421 19.5815C22.6504 19.392 22.5296 19.1424 22.5 18.8745C23.888 18.3654 25.0649 17.4051 25.842 16.1475Z" fill="#6EEC97"/>
</svg>