<svg xmlns="http://www.w3.org/2000/svg" width="20" height="21" viewBox="0 0 20 21" fill="none">
  <g clip-path="url(#clip0_6603_18864)">
    <path d="M17.2199 7.58285H15.4533V4.06063C15.4607 3.64045 15.3834 3.22308 15.226 2.83342C15.0686 2.44376 14.8343 2.08979 14.5371 1.79263C14.24 1.49547 13.886 1.2612 13.4963 1.10379C13.1067 0.946388 12.6893 0.869074 12.2691 0.87646H4.34141C3.92347 0.872083 3.50887 0.951174 3.12189 1.1091C2.73492 1.26702 2.38336 1.50059 2.08782 1.79613C1.79227 2.09168 1.5587 2.44324 1.40078 2.83021C1.24285 3.21719 1.16376 3.63179 1.16814 4.04973V16.0449C1.1638 16.461 1.2422 16.8738 1.39876 17.2593C1.55533 17.6448 1.78695 17.9954 2.08017 18.2907C2.37339 18.5859 2.72236 18.8199 3.1068 18.9792C3.49124 19.1384 3.90349 19.2196 4.3196 19.2182H16.6419C16.8266 19.2408 17.0134 19.2408 17.198 19.2182C17.6841 19.1058 18.1147 18.8254 18.414 18.4263C18.7133 18.0272 18.862 17.5352 18.8338 17.0372V9.18584C18.8562 8.96885 18.8298 8.74958 18.7565 8.54413C18.6832 8.33867 18.5648 8.15223 18.41 7.9985C18.2553 7.84477 18.068 7.72764 17.8621 7.65572C17.6561 7.58379 17.4367 7.5589 17.2199 7.58285ZM4.37412 18.3131C3.8183 18.3414 3.27267 18.1562 2.84896 17.7953C2.42526 17.4345 2.15554 16.9253 2.09504 16.372C2.08419 16.2487 2.08419 16.1246 2.09504 16.0013V4.10425C2.07459 3.79674 2.11954 3.48838 2.22694 3.19951C2.33434 2.91063 2.50174 2.6478 2.71812 2.42833C2.93449 2.20887 3.19492 2.03775 3.48224 1.92627C3.76957 1.81478 4.07725 1.76546 4.38503 1.78155H12.2582C12.5677 1.76079 12.878 1.80627 13.1685 1.91495C13.459 2.02364 13.7229 2.19303 13.9427 2.41182C14.1626 2.63061 14.3332 2.89377 14.4432 3.18373C14.5533 3.4737 14.6002 3.7838 14.5809 4.09335V16.83C14.5566 17.2299 14.6276 17.6298 14.7881 17.9968L14.9299 18.3131H4.37412ZM17.9287 17.0154C17.942 17.3277 17.8371 17.6336 17.635 17.872C17.4329 18.1105 17.1484 18.2641 16.8382 18.3022H16.7291C16.5624 18.3096 16.3958 18.2829 16.2398 18.2235C16.0838 18.1641 15.9416 18.0733 15.8221 17.9568C15.7025 17.8403 15.6081 17.7005 15.5447 17.5461C15.4812 17.3917 15.4501 17.2259 15.4533 17.059V8.48794H17.3507C17.4934 8.48791 17.6305 8.54385 17.7324 8.64376C17.8344 8.74366 17.8931 8.87956 17.8959 9.02227L17.9287 17.0154Z" fill="#40C96D" stroke="#40C96D" stroke-width="0.5"/>
    <path d="M17.2199 7.58285H15.4533V4.06063C15.4607 3.64045 15.3834 3.22308 15.226 2.83342C15.0686 2.44376 14.8343 2.08979 14.5371 1.79263C14.24 1.49547 13.886 1.2612 13.4963 1.10379C13.1067 0.946388 12.6893 0.869074 12.2691 0.87646H4.34141C3.92347 0.872083 3.50887 0.951174 3.12189 1.1091C2.73492 1.26702 2.38336 1.50059 2.08782 1.79613C1.79227 2.09168 1.5587 2.44324 1.40078 2.83021C1.24285 3.21719 1.16376 3.63179 1.16814 4.04973V16.0449C1.1638 16.461 1.2422 16.8738 1.39876 17.2593C1.55533 17.6448 1.78695 17.9954 2.08017 18.2907C2.37339 18.5859 2.72236 18.8199 3.1068 18.9792C3.49124 19.1384 3.90349 19.2196 4.3196 19.2182H16.6419C16.8266 19.2408 17.0134 19.2408 17.198 19.2182C17.6841 19.1058 18.1147 18.8254 18.414 18.4263C18.7133 18.0272 18.862 17.5352 18.8338 17.0372V9.18584C18.8562 8.96885 18.8298 8.74958 18.7565 8.54413C18.6832 8.33867 18.5648 8.15223 18.41 7.9985C18.2553 7.84477 18.068 7.72764 17.8621 7.65572C17.6561 7.58379 17.4367 7.5589 17.2199 7.58285ZM4.37412 18.3131C3.8183 18.3414 3.27267 18.1562 2.84896 17.7953C2.42526 17.4345 2.15554 16.9253 2.09504 16.372C2.08419 16.2487 2.08419 16.1246 2.09504 16.0013V4.10425C2.07459 3.79674 2.11954 3.48838 2.22694 3.19951C2.33434 2.91063 2.50174 2.6478 2.71812 2.42833C2.93449 2.20887 3.19492 2.03775 3.48224 1.92627C3.76957 1.81478 4.07725 1.76546 4.38503 1.78155H12.2582C12.5677 1.76079 12.878 1.80627 13.1685 1.91495C13.459 2.02364 13.7229 2.19303 13.9427 2.41182C14.1626 2.63061 14.3332 2.89377 14.4432 3.18373C14.5533 3.4737 14.6002 3.7838 14.5809 4.09335V16.83C14.5566 17.2299 14.6276 17.6298 14.7881 17.9968L14.9299 18.3131H4.37412ZM17.9287 17.0154C17.942 17.3277 17.8371 17.6336 17.635 17.872C17.4329 18.1105 17.1484 18.2641 16.8382 18.3022H16.7291C16.5624 18.3096 16.3958 18.2829 16.2398 18.2235C16.0838 18.1641 15.9416 18.0733 15.8221 17.9568C15.7025 17.8403 15.6081 17.7005 15.5447 17.5461C15.4812 17.3917 15.4501 17.2259 15.4533 17.059V8.48794H17.3507C17.4934 8.48791 17.6305 8.54385 17.7324 8.64376C17.8344 8.74366 17.8931 8.87956 17.8959 9.02227L17.9287 17.0154Z" fill="#40C96D" stroke="#40C96D" stroke-width="0.5"/>
    <path d="M12.4319 6.19787C12.3948 6.28937 12.329 6.3664 12.2445 6.41749C12.16 6.46859 12.0613 6.491 11.963 6.4814H4.64595C4.53438 6.48495 4.42552 6.44663 4.34077 6.37399C4.25602 6.30134 4.20151 6.19962 4.18795 6.08883C4.17194 5.97499 4.2004 5.85935 4.26741 5.76594C4.33442 5.67253 4.43484 5.60852 4.54781 5.58721H11.9957C12.0793 5.5843 12.1623 5.60281 12.2367 5.64098C12.3111 5.67915 12.3746 5.73572 12.421 5.80531C12.4534 5.86533 12.4712 5.93211 12.4731 6.00029C12.475 6.06847 12.4609 6.13614 12.4319 6.19787Z" fill="#40C96D" stroke="#40C96D" stroke-width="0.5"/>
    <path d="M12.4323 10.2218C12.392 10.3102 12.3252 10.3839 12.2412 10.4328C12.1572 10.4816 12.0601 10.5032 11.9634 10.4944H4.64631C4.53629 10.4944 4.43012 10.4538 4.34814 10.3805C4.26615 10.3071 4.2141 10.206 4.20195 10.0967C4.1898 9.98734 4.2184 9.87734 4.28228 9.78776C4.34616 9.69817 4.44083 9.63528 4.54817 9.61113H11.9634C12.0488 9.60631 12.134 9.6239 12.2105 9.66216C12.287 9.70041 12.3522 9.75801 12.3996 9.82923C12.4354 9.88751 12.4571 9.95341 12.4628 10.0216C12.4684 10.0898 12.458 10.1584 12.4323 10.2218Z" fill="#40C96D" stroke="#40C96D" stroke-width="0.5"/>
    <path d="M9.10728 14.0715C9.10758 14.1341 9.09474 14.1961 9.06959 14.2533C9.04445 14.3106 9.00756 14.362 8.9613 14.4042C8.91505 14.4463 8.86047 14.4783 8.80108 14.498C8.7417 14.5177 8.67884 14.5247 8.61657 14.5186H4.70178C4.63813 14.5263 4.57358 14.5205 4.51232 14.5016C4.45105 14.4827 4.39443 14.4512 4.34612 14.409C4.29781 14.3669 4.25889 14.3151 4.23186 14.2569C4.20484 14.1988 4.19033 14.1356 4.18926 14.0715C4.18363 14.0148 4.19156 13.9575 4.21242 13.9044C4.23328 13.8513 4.26645 13.804 4.30921 13.7662C4.35885 13.7158 4.41838 13.6762 4.48407 13.6499C4.54975 13.6237 4.62017 13.6113 4.69088 13.6135H8.60566C8.67637 13.6113 8.74679 13.6237 8.81247 13.6499C8.87816 13.6762 8.93769 13.7158 8.98733 13.7662C9.02816 13.8054 9.06002 13.853 9.08072 13.9057C9.10143 13.9585 9.11049 14.015 9.10728 14.0715Z" fill="#40C96D" stroke="#40C96D" stroke-width="0.5"/>
  </g>
  <defs>
    <clipPath id="clip0_6603_18864">
      <rect width="20" height="20" fill="white" transform="translate(0 0.0478516)"/>
    </clipPath>
  </defs>
</svg>