<svg width="19" height="19" viewBox="0 0 19 19" fill="none" xmlns="http://www.w3.org/2000/svg">
<g id="copy">
<path id="Vector" fill-rule="evenodd" clip-rule="evenodd" d="M13.25 5.52734H14C15.2427 5.52734 16.25 6.53471 16.25 7.77734V13.7773C16.25 15.02 15.2427 16.0273 14 16.0273H8C6.75736 16.0273 5.75 15.02 5.75 13.7773V13.0273H5C3.75736 13.0273 2.75 12.02 2.75 10.7773V4.77734C2.75 3.53471 3.75736 2.52734 5 2.52734H11C12.2427 2.52734 13.25 3.53471 13.25 4.77734V5.52734ZM11 3.65234H5C4.37868 3.65234 3.875 4.15602 3.875 4.77734V10.7773C3.875 11.3986 4.37868 11.9023 5 11.9023H5.75V7.77734C5.75 6.53471 6.75736 5.52734 8 5.52734H12.125V4.77734C12.125 4.15602 11.6213 3.65234 11 3.65234ZM6.875 7.77734C6.875 7.15602 7.37868 6.65234 8 6.65234H14C14.6213 6.65234 15.125 7.15602 15.125 7.77734V13.7773C15.125 14.3986 14.6213 14.9023 14 14.9023H8C7.37868 14.9023 6.875 14.3986 6.875 13.7773V7.77734Z" fill="white"/>
</g>
</svg>
