<svg width="36" height="36" viewBox="0 0 36 36" fill="none" xmlns="http://www.w3.org/2000/svg">
<g id="Bold / Essentional, UI / Crown ">
<g id="Vector">
<path d="M29.2443 20.6003L29.5117 18.1143C29.6544 16.7879 29.7486 15.912 29.6747 15.3602L29.7005 15.3604C30.9086 15.3604 31.888 14.381 31.888 13.1729C31.888 11.9647 30.9086 10.9854 29.7005 10.9854C28.4924 10.9854 27.513 11.9647 27.513 13.1729C27.513 13.7192 27.7133 14.2188 28.0445 14.6022C27.5691 14.8957 26.9474 15.5149 26.0117 16.447L26.0117 16.447C25.2908 17.1651 24.9304 17.5241 24.5283 17.5797C24.3055 17.6106 24.0784 17.5789 23.8727 17.4883C23.5014 17.3248 23.2539 16.8809 22.7588 15.9932L20.1491 11.3141C19.8437 10.7664 19.588 10.3081 19.3575 9.93922C20.303 9.45683 20.9505 8.47379 20.9505 7.33952C20.9505 5.72869 19.6447 4.42285 18.0339 4.42285C16.423 4.42285 15.1172 5.72869 15.1172 7.33952C15.1172 8.47379 15.7647 9.45683 16.7102 9.93922C16.4797 10.3081 16.2241 10.7664 15.9186 11.3141L13.3089 15.9932C12.8138 16.8809 12.5663 17.3248 12.195 17.4883C11.9893 17.5789 11.7623 17.6106 11.5395 17.5797C11.1374 17.5241 10.7769 17.1651 10.056 16.447C9.12032 15.515 8.49863 14.8957 8.02317 14.6022C8.35437 14.2188 8.55469 13.7192 8.55469 13.1729C8.55469 11.9647 7.57531 10.9854 6.36719 10.9854C5.15906 10.9854 4.17969 11.9647 4.17969 13.1729C4.17969 14.381 5.15906 15.3604 6.36719 15.3604L6.39302 15.3602C6.31909 15.912 6.41329 16.7879 6.55596 18.1143L6.82336 20.6003C6.97178 21.9802 7.09521 23.2932 7.24638 24.4749H28.8213C28.9725 23.2932 29.0959 21.9802 29.2443 20.6003Z" fill="#FFC700"/>
<path d="M16.4473 30.6729H19.6204C23.7562 30.6729 25.824 30.6729 27.2037 29.4379C27.806 28.8989 28.1873 27.9271 28.4625 26.6624H7.60525C7.88043 27.9271 8.26176 28.8989 8.86396 29.4379C10.2437 30.6729 12.3115 30.6729 16.4473 30.6729Z" fill="#FFC700"/>
</g>
</g>
</svg>
