<svg xmlns="http://www.w3.org/2000/svg" width="61" height="61" viewBox="0 0 61 61" fill="none">
  <path d="M47.322 52.4706H12.18C12.1141 52.4443 12.0458 52.4243 11.976 52.4106C10.9694 52.2647 10.0568 51.7386 9.42605 50.9406C8.95942 50.3224 8.65795 49.5956 8.55005 48.8286V23.7606C8.55005 23.7606 8.59205 23.7126 8.59205 23.6886C8.73377 22.6681 9.25575 21.7389 10.0535 21.0869C10.8512 20.4349 11.8658 20.1084 12.894 20.1726C13.776 20.2086 14.658 20.1726 15.54 20.1726C15.8798 20.1638 16.2127 20.0755 16.512 19.9146C22.912 16.2146 29.292 12.5046 35.652 8.78462C36.4688 8.24755 37.4455 8.00812 38.418 8.10662C39.0809 8.19529 39.7122 8.44367 40.2578 8.83038C40.8034 9.2171 41.2469 9.73057 41.55 10.3266C43.35 13.4706 45.15 16.6146 46.95 19.7706C47.0217 19.9162 47.1293 20.041 47.2626 20.1334C47.3959 20.2258 47.5506 20.2827 47.712 20.2986C48.5329 20.4579 49.2815 20.8749 49.849 21.4889C50.4166 22.1028 50.7736 22.8818 50.868 23.7126C50.934 24.7746 50.922 25.8486 50.934 26.9166C50.934 27.8766 50.562 28.2546 49.5961 28.2546C47.4421 28.2546 45.288 28.2546 43.134 28.2546C42.6285 28.2535 42.1234 28.2856 41.622 28.3506C39.6045 28.6636 37.7806 29.7296 36.5178 31.3338C35.2551 32.9381 34.6473 34.9614 34.817 36.9959C34.9866 39.0305 35.9212 40.9251 37.4322 42.2981C38.9433 43.671 40.9186 44.4202 42.96 44.3946C45.204 44.3946 47.442 44.3946 49.686 44.3946C50.538 44.3946 50.928 44.7786 50.934 45.6366C50.94 46.4946 50.934 47.4006 50.934 48.2826C50.9487 48.9359 50.8072 49.5832 50.5213 50.1708C50.2353 50.7583 49.8132 51.2691 49.29 51.6606C48.7029 52.0745 48.0304 52.3513 47.322 52.4706ZM39.648 11.1006C39.517 10.8584 39.3361 10.6467 39.1173 10.4795C38.8985 10.3122 38.6467 10.1932 38.3786 10.1303C38.1105 10.0674 37.8321 10.062 37.5617 10.1144C37.2914 10.1669 37.0352 10.276 36.81 10.4346C31.37 13.5946 25.93 16.7626 20.49 19.9386C20.406 19.9866 20.328 20.0586 20.166 20.1786C21.366 20.1786 22.47 20.1786 23.568 20.1786C23.8787 20.1743 24.1836 20.094 24.456 19.9446C27.896 17.9446 31.33 15.9446 34.758 13.9446L39.648 11.1006ZM44.868 20.1546L42.678 16.3326L36.228 20.0706V20.1366L44.868 20.1546Z" fill="#33A959"/>
  <path d="M46.2481 30.2703H49.7161C50.1466 30.2441 50.5777 30.3095 50.9811 30.462C51.3845 30.6145 51.751 30.8508 52.0565 31.1551C52.362 31.4595 52.5996 31.8252 52.7536 32.228C52.9076 32.6308 52.9746 33.0617 52.9501 33.4923V39.1263C52.9501 41.0163 51.7981 42.3183 49.9081 42.3603C47.4121 42.4263 44.9041 42.4443 42.4141 42.3303C40.8957 42.2775 39.4538 41.6506 38.3796 40.5762C37.3053 39.5018 36.6787 38.0598 36.6262 36.5414C36.5736 35.0229 37.0991 33.5411 38.0965 32.395C39.0939 31.2489 40.489 30.5239 42.0001 30.3663C43.411 30.2882 44.8252 30.2882 46.2361 30.3663L46.2481 30.2703ZM42.8581 34.3203C42.4611 34.3238 42.074 34.4449 41.7457 34.6681C41.4174 34.8914 41.1626 35.2069 41.0134 35.5748C40.8642 35.9428 40.8273 36.3466 40.9074 36.7355C40.9875 37.1244 41.1809 37.4808 41.4633 37.7599C41.7457 38.039 42.1044 38.2281 42.4942 38.3036C42.884 38.379 43.2874 38.3373 43.6535 38.1837C44.0197 38.0302 44.3321 37.7716 44.5515 37.4407C44.7708 37.1098 44.8873 36.7213 44.8861 36.3243C44.8829 35.789 44.6677 35.2769 44.2875 34.9001C43.9074 34.5233 43.3933 34.3127 42.8581 34.3143V34.3203Z" fill="#6EEC97"/>
</svg>