<svg xmlns="http://www.w3.org/2000/svg" width="61" height="61" viewBox="0 0 61 61" fill="none">
  <path d="M18.1501 35.3406C18.1501 31.4106 18.1501 27.4866 18.1501 23.5566C18.1421 22.7834 18.2881 22.0164 18.5796 21.3002C18.871 20.5841 19.3021 19.9331 19.8478 19.3853C20.3934 18.8374 21.0426 18.4037 21.7575 18.1093C22.4725 17.8149 23.2389 17.6657 24.0121 17.6706C31.4581 17.6706 38.9101 17.6706 46.3501 17.6706C47.346 17.6212 48.3442 17.6998 49.3201 17.9046C50.5777 18.2663 51.6724 19.0503 52.4199 20.1245C53.1673 21.1987 53.522 22.4976 53.4241 23.8026C53.4001 24.1586 53.3881 24.5126 53.3881 24.8646C53.3881 31.8606 53.3881 38.8606 53.3881 45.8646C53.4357 46.7244 53.3955 47.5869 53.2681 48.4386C52.9769 49.7851 52.2099 50.9815 51.1077 51.8081C50.0056 52.6347 48.6423 53.0361 47.2681 52.9386C46.9141 52.9386 46.5601 52.9026 46.2061 52.9026H25.2061C24.3646 52.948 23.5206 52.9118 22.6861 52.7946C21.3828 52.516 20.2171 51.7923 19.3894 50.7478C18.5616 49.7032 18.1234 48.403 18.1501 47.0706C18.1501 43.1626 18.1501 39.2526 18.1501 35.3406ZM33.7501 36.7686C33.6916 36.7483 33.6353 36.7221 33.5821 36.6906L31.0321 34.1646C30.1501 33.2706 29.0041 33.2286 28.2061 34.0206C28.0155 34.2105 27.8669 34.4383 27.77 34.6893C27.6731 34.9403 27.6301 35.2089 27.6436 35.4776C27.6572 35.7463 27.7271 36.0092 27.8488 36.2492C27.9705 36.4891 28.1413 36.7008 28.3501 36.8706C29.5821 38.1146 30.8161 39.3526 32.0521 40.5846C33.1921 41.7246 34.1341 41.7246 35.2861 40.5846C37.9301 37.9406 40.5621 35.3026 43.1821 32.6706C43.3097 32.55 43.43 32.4217 43.5421 32.2866C43.8357 31.8975 43.9677 31.4099 43.9104 30.9258C43.8531 30.4417 43.6109 29.9985 43.2346 29.6887C42.8582 29.3789 42.3766 29.2266 41.8906 29.2634C41.4045 29.3003 40.9514 29.5236 40.6261 29.8866L33.7501 36.7686Z" fill="#33A959"/>
  <path d="M8.11184 25.195C8.11184 21.6549 8.11184 18.1209 8.11184 14.5809C8.06517 13.7207 8.10942 12.8579 8.24384 12.0069C8.55378 10.7156 9.29953 9.57062 10.3554 8.76509C11.4112 7.95956 12.7125 7.54275 14.0398 7.58495C14.8858 7.61495 15.7318 7.63295 16.5718 7.63295H36.3298C37.21 7.58931 38.0924 7.63353 38.9638 7.76495C40.1396 8.04016 41.1942 8.68976 41.969 9.61601C42.7437 10.5423 43.1967 11.695 43.2598 12.9009C43.2598 13.6389 43.0438 13.9089 42.2998 13.9029C36.2638 13.9029 30.2338 13.9329 24.1978 13.8669C22.8992 13.8334 21.6073 14.0637 20.4004 14.5439C19.1934 15.0242 18.0964 15.7444 17.1759 16.661C16.2554 17.5776 15.5305 18.6715 15.0451 19.8764C14.5596 21.0813 14.3238 22.3722 14.3518 23.6709C14.4058 29.6709 14.3518 35.737 14.3878 41.767C14.3878 42.547 14.1238 42.7929 13.3498 42.7569C11.9042 42.6547 10.5519 42.005 9.56865 40.9404C8.58537 39.8757 8.04506 38.4762 8.05784 37.0269C8.05784 33.0789 8.05784 29.1309 8.05784 25.1829L8.11184 25.195Z" fill="#6EEC97"/>
</svg>