<svg width="177" height="39" viewBox="0 0 177 39" fill="none" xmlns="http://www.w3.org/2000/svg">
<path d="M49.4061 25.539V21.8192H59.1946V18.1274H49.4061V14.4169H59.5894V10.7158H45.7227V29.2308H59.8722V25.539H49.4061Z" fill="white"/>
<path d="M73.9036 18.0591C73.5803 17.7444 73.2259 17.4578 72.8498 17.221C72.4706 16.9749 72.0696 16.7786 71.6593 16.6198C70.8324 16.3051 69.959 16.1618 69.1073 16.1618C68.2555 16.1618 67.3821 16.3051 66.5552 16.6104C66.1915 16.7444 65.8465 16.9095 65.517 17.1089C65.4611 17.14 65.4082 17.1712 65.3585 17.2023C65.3492 17.2023 65.3492 17.2023 65.3492 17.2023V10.9092H62.334V29.0285H65.3492V28.1905C65.632 28.4366 65.9398 28.6547 66.2693 28.8291C67.1272 29.3182 68.1436 29.5706 69.2689 29.5706C70.0398 29.5706 70.7796 29.4429 71.6562 29.1126C72.0727 28.9537 72.4737 28.7481 72.8529 28.5113C73.2321 28.2652 73.5865 27.9817 73.9005 27.6671C74.547 27.0346 75.0413 26.2558 75.3645 25.4271C75.436 25.2308 75.5075 25.0813 75.5604 24.8756V24.8351C75.6878 24.3865 75.7655 23.9192 75.7966 23.455C75.7966 23.4457 75.7966 23.4457 75.7966 23.4394C75.8121 23.2494 75.8215 23.0531 75.8215 22.8631C75.8215 22.0094 75.6785 21.1278 75.3583 20.2991C75.0444 19.4735 74.547 18.6977 73.9036 18.0591ZM72.6415 24.3741C72.4613 24.832 72.1939 25.2495 71.8458 25.5891C71.507 25.9287 71.0904 26.1904 70.618 26.371C70.1548 26.5455 69.6419 26.6327 69.1073 26.6327C68.5726 26.6234 68.0597 26.5393 67.5966 26.3555C67.1396 26.1748 66.7231 25.9068 66.3905 25.5673C66.2568 25.4333 66.1387 25.29 66.0361 25.1342C65.8621 24.8974 65.7222 24.6358 65.6196 24.3616C65.4393 23.9036 65.3523 23.3989 65.3523 22.8693C65.3523 22.3397 65.4393 21.835 65.6134 21.377C65.66 21.2586 65.7066 21.1402 65.7719 21.0312C65.9304 20.7072 66.1356 20.4143 66.3874 20.162C66.7262 19.8224 67.1365 19.5545 67.5997 19.3738C67.8266 19.2803 68.0815 19.2149 68.3333 19.1682C68.585 19.1214 68.8461 19.0965 69.1135 19.0965C69.6481 19.0965 70.161 19.1838 70.6335 19.3645C71.0967 19.5389 71.5163 19.8068 71.8613 20.1464C72.2064 20.486 72.4768 20.8972 72.6478 21.3614C72.828 21.8256 72.9244 22.3397 72.9244 22.8693C72.9182 23.3958 72.8218 23.9067 72.6415 24.3741Z" fill="white"/>
<path d="M87.7295 16.741C86.4706 16.0618 85.0283 15.959 84.2823 15.959C82.7063 15.959 81.3386 16.3173 80.3284 16.9933C79.1161 17.8127 78.4478 19.0526 78.4478 20.4857V20.682H81.8577V20.4857C81.8577 19.2925 84.1828 19.28 84.2823 19.28C86.051 19.28 86.5204 19.8439 86.5204 20.1399C86.5204 20.1929 86.5204 20.3362 85.9484 20.4764C85.4075 20.601 84.7206 20.6664 83.9901 20.7318L83.8502 20.7443C82.5851 20.8627 81.2764 20.9842 80.145 21.4546C79.3803 21.7755 78.7773 22.2335 78.3483 22.8129C78.1276 23.1089 77.9504 23.4422 77.823 23.8036C77.6769 24.2086 77.5992 24.6604 77.5898 25.1495V25.2367C77.5898 28.1652 80.1108 29.7416 82.4794 29.7416C84.2574 29.7416 85.5847 29.3771 86.5204 28.6294V29.2214H89.9365V20.2707C89.9334 18.7566 89.1501 17.5042 87.7295 16.741ZM86.5173 23.8535V23.9688C86.5173 25.0249 86.1007 25.4517 85.7868 25.6791C85.2024 26.0997 84.273 26.3209 83.098 26.3209C82.7467 26.3209 80.9967 26.2711 80.9967 25.3022C80.9967 24.4298 83.0451 24.2523 84.0274 24.165L84.2885 24.1432C85.0345 24.0747 85.8054 24.003 86.5173 23.8535Z" fill="white"/>
<path d="M100.845 16.507L97.6306 24.495L94.4258 16.507H90.9785L95.7717 28.4298C95.5355 28.894 95.293 29.2772 95.0568 29.57C94.4537 30.3146 93.7419 30.6324 92.6819 30.6324H92.4861V34.05H92.6819C93.7699 34.05 94.7522 33.8413 95.5945 33.43C96.3934 33.0437 97.1021 32.4705 97.7021 31.7352C98.6066 30.6293 99.1972 29.2491 99.6541 28.0466L104.289 16.5039H100.845V16.507Z" fill="white"/>
<path d="M49.4061 25.539V21.8192H59.1946V18.1274H49.4061V14.4169H59.5894V10.7158H45.7227V29.2308H59.8722V25.539H49.4061Z" fill="white"/>
<path d="M73.9036 18.0591C73.5803 17.7444 73.2259 17.4578 72.8498 17.221C72.4706 16.9749 72.0696 16.7786 71.6593 16.6198C70.8324 16.3051 69.959 16.1618 69.1073 16.1618C68.2555 16.1618 67.3821 16.3051 66.5552 16.6104C66.1915 16.7444 65.8465 16.9095 65.517 17.1089C65.4611 17.14 65.4082 17.1712 65.3585 17.2023C65.3492 17.2023 65.3492 17.2023 65.3492 17.2023V10.9092H62.334V29.0285H65.3492V28.1905C65.632 28.4366 65.9398 28.6547 66.2693 28.8291C67.1272 29.3182 68.1436 29.5706 69.2689 29.5706C70.0398 29.5706 70.7796 29.4429 71.6562 29.1126C72.0727 28.9537 72.4737 28.7481 72.8529 28.5113C73.2321 28.2652 73.5865 27.9817 73.9005 27.6671C74.547 27.0346 75.0413 26.2558 75.3645 25.4271C75.436 25.2308 75.5075 25.0813 75.5604 24.8756V24.8351C75.6878 24.3865 75.7655 23.9192 75.7966 23.455C75.7966 23.4457 75.7966 23.4457 75.7966 23.4394C75.8121 23.2494 75.8215 23.0531 75.8215 22.8631C75.8215 22.0094 75.6785 21.1278 75.3583 20.2991C75.0444 19.4735 74.547 18.6977 73.9036 18.0591ZM72.6415 24.3741C72.4613 24.832 72.1939 25.2495 71.8458 25.5891C71.507 25.9287 71.0904 26.1904 70.618 26.371C70.1548 26.5455 69.6419 26.6327 69.1073 26.6327C68.5726 26.6234 68.0597 26.5393 67.5966 26.3555C67.1396 26.1748 66.7231 25.9068 66.3905 25.5673C66.2568 25.4333 66.1387 25.29 66.0361 25.1342C65.8621 24.8974 65.7222 24.6358 65.6196 24.3616C65.4393 23.9036 65.3523 23.3989 65.3523 22.8693C65.3523 22.3397 65.4393 21.835 65.6134 21.377C65.66 21.2586 65.7066 21.1402 65.7719 21.0312C65.9304 20.7072 66.1356 20.4143 66.3874 20.162C66.7262 19.8224 67.1365 19.5545 67.5997 19.3738C67.8266 19.2803 68.0815 19.2149 68.3333 19.1682C68.585 19.1214 68.8461 19.0965 69.1135 19.0965C69.6481 19.0965 70.161 19.1838 70.6335 19.3645C71.0967 19.5389 71.5163 19.8068 71.8613 20.1464C72.2064 20.486 72.4768 20.8972 72.6478 21.3614C72.828 21.8256 72.9244 22.3397 72.9244 22.8693C72.9182 23.3958 72.8218 23.9067 72.6415 24.3741Z" fill="white"/>
<path d="M87.7295 16.741C86.4706 16.0618 85.0283 15.959 84.2823 15.959C82.7063 15.959 81.3386 16.3173 80.3284 16.9933C79.1161 17.8127 78.4478 19.0526 78.4478 20.4857V20.682H81.8577V20.4857C81.8577 19.2925 84.1828 19.28 84.2823 19.28C86.051 19.28 86.5204 19.8439 86.5204 20.1399C86.5204 20.1929 86.5204 20.3362 85.9484 20.4764C85.4075 20.601 84.7206 20.6664 83.9901 20.7318L83.8502 20.7443C82.5851 20.8627 81.2764 20.9842 80.145 21.4546C79.3803 21.7755 78.7773 22.2335 78.3483 22.8129C78.1276 23.1089 77.9504 23.4422 77.823 23.8036C77.6769 24.2086 77.5992 24.6604 77.5898 25.1495V25.2367C77.5898 28.1652 80.1108 29.7416 82.4794 29.7416C84.2574 29.7416 85.5847 29.3771 86.5204 28.6294V29.2214H89.9365V20.2707C89.9334 18.7566 89.1501 17.5042 87.7295 16.741ZM86.5173 23.8535V23.9688C86.5173 25.0249 86.1007 25.4517 85.7868 25.6791C85.2024 26.0997 84.273 26.3209 83.098 26.3209C82.7467 26.3209 80.9967 26.2711 80.9967 25.3022C80.9967 24.4298 83.0451 24.2523 84.0274 24.165L84.2885 24.1432C85.0345 24.0747 85.8054 24.003 86.5173 23.8535Z" fill="white"/>
<path d="M100.845 16.507L97.6306 24.495L94.4258 16.507H90.9785L95.7717 28.4298C95.5355 28.894 95.293 29.2772 95.0568 29.57C94.4537 30.3146 93.7419 30.6324 92.6819 30.6324H92.4861V34.05H92.6819C93.7699 34.05 94.7522 33.8413 95.5945 33.43C96.3934 33.0437 97.1021 32.4705 97.7021 31.7352C98.6066 30.6293 99.1972 29.2491 99.6541 28.0466L104.289 16.5039H100.845V16.507Z" fill="white"/>
<path d="M127.002 10.7158L120.434 24.9876L113.912 10.8311L113.859 10.7158H110.244V29.2308H113.931V18.9717L118.656 29.2308H122.205L126.93 18.9717V29.2308H130.623V10.7158H127.002Z" fill="#F15959"/>
<path d="M150.302 10.7158L143.734 24.9876L137.213 10.8311L137.16 10.7158H133.545V29.2308H137.232V18.9686L141.91 29.1155L141.963 29.2308H145.506L150.231 18.9717V29.2308H153.924V10.7158H150.302Z" fill="#F15959"/>
<path d="M173.276 12.8588C171.442 11.027 168.899 10.0176 166.117 10.0176C163.339 10.0176 160.796 11.027 158.968 12.8588C157.134 14.6814 156.127 17.208 156.127 19.9776C156.127 22.7316 157.134 25.2645 158.968 27.0964C160.802 28.9189 163.339 29.922 166.117 29.922C168.896 29.922 171.439 28.9189 173.276 27.0964C175.104 25.2738 176.111 22.741 176.111 19.9776C176.111 17.1986 175.104 14.6751 173.276 12.8588ZM166.121 26.2271C162.412 26.2271 159.82 23.6538 159.82 19.9776C159.82 16.292 162.409 13.7187 166.121 13.7187C169.838 13.7187 172.428 16.292 172.428 19.9776C172.428 23.6538 169.835 26.2271 166.121 26.2271Z" fill="#F15959"/>
<path d="M17.0394 20.1923C17.3409 20.1923 17.6393 20.1799 17.9315 20.1518C21.3663 19.831 24.425 17.6533 25.9139 14.4662C26.1346 13.9926 25.9854 13.4194 25.5658 13.139C25.3109 12.9677 24.997 12.9178 24.7048 12.9988C24.4126 13.0798 24.1701 13.2854 24.0427 13.5627C22.8677 16.0956 20.4524 17.8246 17.7388 18.0801C14.5247 18.3823 11.3945 16.5847 9.95216 13.6063C9.7066 13.0985 9.14397 12.8462 8.64973 13.0206C8.36997 13.1203 8.14616 13.3322 8.03426 13.6032C7.92236 13.8743 7.92857 14.1858 8.05602 14.4506C9.71592 17.9399 13.2409 20.1923 17.0394 20.1923Z" fill="#F15959"/>
<path d="M42.3696 0.9268C42.2981 0.655758 42.1271 0.431447 41.8877 0.291253C41.6453 0.151059 41.3686 0.110558 41.1013 0.182213L35.1207 1.7555C34.3747 1.95178 33.7872 2.53748 33.5882 3.28518L32.5656 7.15454C32.5345 7.15454 32.5034 7.15142 32.4754 7.15142H1.72373C1.18597 7.15142 0.688622 7.39754 0.362237 7.82124C0.0296351 8.24806 -0.0791599 8.79326 0.057611 9.31353L4.17939 25.1898C4.37833 25.9499 5.06218 26.4795 5.84551 26.4795H28.5619C28.8572 26.4795 29.1245 26.6509 29.252 26.9157C29.4229 27.2709 29.5007 27.6634 29.4758 28.0622C29.4012 29.3021 28.3288 30.2741 27.0295 30.2741H2.49462C1.9693 30.2741 1.51236 30.6449 1.42843 31.134C1.37869 31.4424 1.46262 31.7508 1.65845 31.9845C1.85739 32.2213 2.14648 32.3552 2.45421 32.3552H7.70124C7.37796 33.0967 7.26917 33.9067 7.38729 34.7261C7.66083 36.614 9.2337 38.1468 11.1298 38.3711C11.2977 38.3898 11.4655 38.3992 11.6334 38.3992C12.6872 38.3992 13.7098 38.016 14.5025 37.3088C15.4226 36.4894 15.951 35.3149 15.951 34.0874C15.951 33.4893 15.8267 32.8973 15.5873 32.3552H20.5235C20.1971 33.0936 20.0883 33.9067 20.2096 34.7261C20.48 36.6171 22.056 38.1499 23.9521 38.3711C25.1799 38.5144 26.4109 38.1281 27.3248 37.3088C28.2449 36.4894 28.7702 35.3149 28.7702 34.0874C28.7702 33.4238 28.621 32.7758 28.335 32.187C29.196 31.944 29.9762 31.4331 30.5544 30.7228C31.2103 29.9221 31.5553 28.9532 31.5553 27.922C31.5553 26.6602 31.0238 25.4701 30.0882 24.629L33.4888 11.7685L33.5199 11.7342V11.6563L35.3694 4.68089C35.5155 4.12634 35.9538 3.69018 36.5071 3.54376L41.6266 2.19478C42.1799 2.05147 42.5125 1.48135 42.3696 0.9268ZM13.0508 35.8165C12.5317 36.2402 11.8479 36.4084 11.1827 36.2713C10.2875 36.0906 9.56941 35.3242 9.43885 34.4145C9.33006 33.6263 9.63468 32.8475 10.2439 32.3552H13.0477C13.5668 32.7758 13.8746 33.4145 13.8746 34.0874C13.8746 34.7572 13.5731 35.3865 13.0508 35.8165ZM25.8793 35.8102C25.3633 36.2371 24.6826 36.4053 24.0174 36.2744C23.1191 36.1 22.3979 35.3398 22.2642 34.427C22.1461 33.6326 22.4538 32.8475 23.0693 32.3552H25.8669C26.386 32.7758 26.6937 33.4145 26.6937 34.0874C26.6937 34.7541 26.3984 35.3834 25.8793 35.8102ZM29.5877 18.3919L27.9962 24.3984H6.11905L2.18378 9.23565H32.0154L29.5877 18.3919Z" fill="white"/>
</svg>
