<svg xmlns="http://www.w3.org/2000/svg" width="70" height="70" viewBox="0 0 70 70" fill="none">
  <path d="M41.1529 60.9C41.1529 59.066 41.2019 57.267 41.1529 55.468C41.1151 55.0463 41.1765 54.6216 41.3321 54.2278C41.4876 53.834 41.7331 53.4821 42.0489 53.2C45.6259 49.7 49.1469 46.102 52.6889 42.539C52.8466 42.3453 52.9849 42.1367 53.1019 41.916L60.0319 48.832C59.8989 48.972 59.7449 49.147 59.5839 49.308C55.8506 53.0413 52.0986 56.7607 48.3279 60.466C48.1054 60.6946 47.8115 60.8403 47.4949 60.879C45.5139 60.879 43.5399 60.879 41.5589 60.879C41.424 60.8929 41.2885 60.8999 41.1529 60.9Z" fill="#6EEC97"/>
  <path d="M62.391 46.6479L55.489 39.7599C56.343 38.9059 57.197 37.9749 58.142 37.1419C58.6163 36.7304 59.2259 36.5086 59.8537 36.5189C60.4816 36.5292 61.0835 36.771 61.544 37.1979C62.692 38.2619 63.805 39.3749 64.876 40.5229C65.3301 41.0208 65.5754 41.6742 65.5611 42.3478C65.5467 43.0215 65.2739 43.6639 64.799 44.1419C64.603 44.3519 64.393 44.5479 64.197 44.7509C63.588 45.3879 63 46.0319 62.391 46.6479Z" fill="#6EEC97"/>
  <path d="M53.599 9.40085C52.337 9.16655 51.0521 9.07964 49.77 9.14185C43.862 9.14185 37.947 9.14185 32.032 9.14185V9.09985H12.6C10.785 9.05712 9.01058 9.64063 7.57515 10.7523C6.13971 11.8639 5.13079 13.4359 4.71801 15.2038C4.52016 16.4417 4.45912 17.6976 4.53601 18.9488C4.53601 27.6335 4.53601 36.3182 4.53601 45.0028C4.55361 45.2872 4.55361 45.5724 4.53601 45.8568C4.28069 47.8259 4.77121 49.8191 5.91112 51.4448C7.05103 53.0705 8.75786 54.2109 10.696 54.6418C11.8901 54.8315 13.1015 54.8879 14.308 54.8098C21.308 54.8098 28.294 54.8098 35.266 54.8098H35.581C36.4163 54.7931 37.2123 54.4516 37.8 53.8578L58.527 33.0888C58.8332 32.7911 59.0769 32.4353 59.244 32.0423C59.4111 31.6493 59.4981 31.2269 59.5 30.7998V30.7368C59.5 26.1962 59.5187 21.6508 59.556 17.1008C59.5724 15.3348 58.9936 13.6146 57.9129 12.2177C56.8322 10.8208 55.3126 9.82854 53.599 9.40085ZM49.973 23.2748L41.538 29.3998L35.406 33.8448C34.3453 34.6797 33.0241 35.1135 31.675 35.0698C30.6462 35.0125 29.6574 34.652 28.833 34.0338C23.877 30.4498 18.9327 26.8565 14 23.2538C13.7376 23.0879 13.5119 22.8701 13.3365 22.6138C13.1612 22.3576 13.04 22.0683 12.9804 21.7636C12.9208 21.4588 12.9239 21.1452 12.9897 20.8417C13.0555 20.5383 13.1825 20.2515 13.363 19.9988C13.5502 19.7466 13.7869 19.5353 14.0586 19.3777C14.3303 19.2201 14.6313 19.1195 14.9431 19.0822C15.255 19.0448 15.5712 19.0715 15.8724 19.1605C16.1736 19.2495 16.4535 19.399 16.695 19.5998L30.982 29.9598C31.976 30.6598 31.976 30.6598 32.956 29.9598L47.243 19.5998C48.741 18.5148 50.582 19.0958 50.988 20.7828C51.114 21.2521 51.0829 21.7496 50.8997 22.1996C50.7164 22.6495 50.391 23.0271 49.973 23.2748Z" fill="#33A959"/>
  <path d="M49.9731 23.2749L41.5381 29.3999L35.4061 33.8449C34.3454 34.6797 33.0242 35.1135 31.6751 35.0699C30.6463 35.0125 29.6575 34.6521 28.8331 34.0339C23.8771 30.4499 18.9328 26.8566 14.0001 23.2539C13.7377 23.0879 13.5119 22.8702 13.3366 22.6139C13.1613 22.3577 13.0401 22.0683 12.9805 21.7636C12.9208 21.4589 12.924 21.1452 12.9898 20.8418C13.0556 20.5384 13.1826 20.2516 13.3631 19.9989C13.5503 19.7467 13.787 19.5354 14.0587 19.3777C14.3304 19.2201 14.6313 19.1196 14.9432 19.0822C15.2551 19.0449 15.5713 19.0715 15.8725 19.1605C16.1737 19.2495 16.4536 19.3991 16.6951 19.5999L30.9821 29.9599C31.9761 30.6599 31.9761 30.6599 32.9561 29.9599L47.2431 19.5999C48.7411 18.5149 50.5821 19.0959 50.9881 20.7829C51.114 21.2521 51.083 21.7497 50.8997 22.1996C50.7165 22.6496 50.391 23.0272 49.9731 23.2749Z" fill="white"/>
</svg>