<svg width="201" height="212" viewBox="0 0 201 212" fill="none" xmlns="http://www.w3.org/2000/svg">
<path opacity="0.07" d="M198.509 0.202537C192.848 1.0152 187.3 2.48263 181.978 4.57536C157.042 13.0092 132.076 21.453 107.111 29.8967L107.051 29.7195L25.0338 57.4591C17.3121 59.8698 10.6558 64.8656 6.18411 71.6066C1.71244 78.3476 -0.301922 86.4226 0.479708 94.4741C1.4117 99.9813 2.94691 105.369 5.05761 110.54C17.4552 147.196 29.8527 183.852 42.2503 220.507C42.7305 221.682 43.1376 222.886 43.4694 224.112C45.2025 232.787 50.1183 240.5 57.2502 245.734C64.3821 250.968 73.2142 253.345 82.0098 252.397C87.3203 251.493 92.5139 250.002 97.4948 247.95C127.04 237.957 156.526 227.985 185.953 218.032L187.282 217.582C190.784 216.319 193.656 213.742 195.289 210.396L253.124 93.1481C253.991 91.4544 254.512 89.6048 254.656 87.7075C254.8 85.8101 254.564 83.9031 253.963 82.0979L253.873 81.8319C247.391 62.6671 240.981 43.4559 234.643 24.1983C232.192 16.7208 227.293 10.2869 220.738 5.93366C214.182 1.58043 206.352 -0.438433 198.509 0.202537ZM203.01 63.937L176.152 101.83L156.616 129.345C153.33 134.382 148.373 138.099 142.617 139.841C138.193 141.068 133.504 140.958 129.143 139.525C103.108 131.473 77.1102 123.365 51.148 115.201C49.8035 114.875 48.5397 114.278 47.434 113.446C46.3282 112.615 45.4037 111.567 44.717 110.366C44.0304 109.165 43.596 107.837 43.4405 106.462C43.285 105.087 43.4117 103.695 43.8128 102.371C44.243 101.04 44.9402 99.8098 45.8619 98.7567C46.7836 97.7036 47.9104 96.8496 49.1734 96.2467C50.4364 95.6439 51.8091 95.305 53.2075 95.2507C54.6059 95.1964 56.0007 95.4278 57.3066 95.9309L132.397 119.263C137.592 120.798 137.592 120.798 140.729 116.445L186.241 52.323C191.015 45.6051 199.615 45.4292 203.736 51.97C204.938 53.7707 205.517 55.915 205.386 58.0757C205.255 60.2364 204.42 62.2949 203.01 63.937Z" fill="#33A959"/>
</svg>
