<svg width="20" height="21" viewBox="0 0 20 21" fill="none" xmlns="http://www.w3.org/2000/svg">
<g id="envelope-09">
<g id="Group 6">
<path id="Vector" d="M7.09608 9.96281C6.58208 9.96281 6.06408 9.99281 5.55208 9.96281C4.72356 9.88417 3.95344 9.50175 3.39006 8.88919C2.82668 8.27664 2.50988 7.47728 2.50069 6.64509C2.49151 5.8129 2.79057 5.00674 3.34029 4.3819C3.89001 3.75705 4.6515 3.35771 5.47808 3.26081C6.32566 3.16716 7.17748 3.39543 7.86466 3.90035C8.55184 4.40526 9.0242 5.14997 9.18808 5.98681C9.22585 6.21764 9.24658 6.45093 9.25008 6.68481C9.25008 7.49681 9.25008 8.31081 9.25008 9.12481C9.25008 9.68281 8.95008 9.98281 8.39408 9.98281H7.09408L7.09608 9.96281Z" fill="#33A959"/>
<path id="Vector_2" d="M12.894 9.98452H11.578C11.4663 9.99533 11.3535 9.9813 11.2478 9.94344C11.142 9.90558 11.046 9.84483 10.9665 9.76552C10.887 9.68621 10.826 9.59031 10.7879 9.48469C10.7498 9.37906 10.7355 9.26631 10.746 9.15452C10.746 8.19452 10.722 7.23252 10.776 6.27652C10.862 4.80052 12.102 3.50052 13.564 3.27652C14.0091 3.20461 14.464 3.22278 14.9019 3.32995C15.3397 3.43711 15.7517 3.63109 16.1132 3.90038C16.4747 4.16967 16.7785 4.5088 17.0065 4.89767C17.2346 5.28653 17.3822 5.71722 17.4407 6.1642C17.4993 6.61119 17.4674 7.06537 17.3472 7.49983C17.2269 7.93429 17.0207 8.34019 16.7407 8.69347C16.4607 9.04676 16.1126 9.34023 15.717 9.5565C15.3215 9.77277 14.8866 9.90743 14.438 9.95252C13.926 9.98852 13.408 9.95252 12.894 9.95252V9.98452Z" fill="#33A959"/>
<path id="Vector_3" d="M10.7462 13.7163C10.7462 13.2483 10.7462 12.7803 10.7462 12.3163C10.735 12.2047 10.7488 12.0919 10.7864 11.9862C10.824 11.8805 10.8846 11.7844 10.9637 11.7048C11.0429 11.6253 11.1387 11.5643 11.2442 11.5261C11.3498 11.488 11.4625 11.4737 11.5742 11.4843C12.5362 11.4843 13.4982 11.4583 14.4562 11.5163C15.9342 11.6023 17.2142 12.8203 17.4562 14.2863C17.5361 14.7341 17.5246 15.1935 17.4223 15.6368C17.32 16.08 17.129 16.498 16.8608 16.8654C16.5926 17.2329 16.2528 17.5422 15.8619 17.7748C15.4709 18.0074 15.037 18.1585 14.5861 18.2189C14.1352 18.2793 13.6768 18.2478 13.2384 18.1263C12.8 18.0047 12.3908 17.7957 12.0354 17.5118C11.6799 17.2279 11.3857 16.8749 11.1703 16.4742C10.9549 16.0736 10.8229 15.6334 10.7822 15.1803C10.7442 14.6963 10.7822 14.2083 10.7822 13.7223L10.7462 13.7163Z" fill="#6EEC97"/>
<path id="Vector_4" d="M7.01402 11.4765H8.41402C8.52579 11.4652 8.63866 11.479 8.74447 11.5167C8.85028 11.5545 8.94637 11.6152 9.02581 11.6947C9.10524 11.7741 9.16602 11.8702 9.20376 11.976C9.2415 12.0818 9.25525 12.1947 9.24402 12.3065C9.24402 13.2665 9.26802 14.2305 9.21402 15.1885C9.12802 16.6625 7.90402 17.9485 6.44002 18.1765C5.99499 18.2497 5.5398 18.2327 5.10144 18.1267C4.66307 18.0206 4.25048 17.8276 3.88812 17.5591C3.52577 17.2906 3.22103 16.952 2.992 16.5635C2.76297 16.175 2.6143 15.7444 2.55481 15.2973C2.49533 14.8503 2.52624 14.3958 2.64572 13.9609C2.76519 13.526 2.9708 13.1195 3.25033 12.7656C3.52987 12.4117 3.87764 12.1175 4.27302 11.9005C4.6684 11.6835 5.10334 11.5482 5.55202 11.5025C6.03402 11.4665 6.52202 11.5025 7.00802 11.5025L7.01402 11.4765Z" fill="#33A959"/>
</g>
</g>
</svg>
