<svg width="20" height="21" viewBox="0 0 20 21" fill="none" xmlns="http://www.w3.org/2000/svg">
<g id="envelope-07">
<path id="Vector" d="M7.2919 16.3286H6.4379C6.1682 16.3375 5.89956 16.291 5.64854 16.192C5.39753 16.0929 5.16949 15.9435 4.97849 15.7529C4.7875 15.5623 4.63762 15.3345 4.5381 15.0837C4.43859 14.8329 4.39155 14.5643 4.3999 14.2946C4.3999 14.0146 4.3999 13.7326 4.3999 13.4366H3.7319C3.4159 13.4366 3.0999 13.4366 2.7839 13.4366C2.64068 13.4366 2.50333 13.3797 2.40206 13.2784C2.30079 13.1772 2.2439 13.0398 2.2439 12.8966C2.2439 12.7534 2.30079 12.616 2.40206 12.5148C2.50333 12.4135 2.64068 12.3566 2.7839 12.3566C3.2579 12.3566 3.7319 12.3566 4.2059 12.3566H4.3999V9.10461H2.8259C2.75208 9.1091 2.67813 9.09844 2.6086 9.07328C2.53906 9.04812 2.47541 9.009 2.42155 8.95833C2.3677 8.90765 2.32479 8.84649 2.29545 8.77861C2.26612 8.71072 2.25099 8.63756 2.25099 8.56361C2.25099 8.48966 2.26612 8.4165 2.29545 8.34861C2.32479 8.28073 2.3677 8.21957 2.42155 8.16889C2.47541 8.11822 2.53906 8.0791 2.6086 8.05394C2.67813 8.02878 2.75208 8.01812 2.8259 8.02261H4.3999V7.11661C4.39993 6.60692 4.59671 6.11692 4.9492 5.74878C5.30169 5.38064 5.78269 5.16277 6.2919 5.14061C6.6159 5.12861 6.9419 5.14061 7.2919 5.14061V4.58061C7.2919 4.22461 7.2919 3.86861 7.2919 3.51461C7.2919 3.37139 7.34879 3.23404 7.45006 3.13277C7.55133 3.0315 7.68868 2.97461 7.8319 2.97461C7.97511 2.97461 8.11246 3.0315 8.21373 3.13277C8.315 3.23404 8.3719 3.37139 8.3719 3.51461C8.3719 3.98861 8.3719 4.46261 8.3719 4.93661V5.12861H11.6239V4.94461C11.6239 4.48328 11.6239 4.02128 11.6239 3.55861C11.6194 3.4848 11.6301 3.41085 11.6552 3.34131C11.6804 3.27177 11.7195 3.20812 11.7702 3.15427C11.8209 3.10041 11.882 3.0575 11.9499 3.02817C12.0178 2.99883 12.0909 2.9837 12.1649 2.9837C12.2388 2.9837 12.312 2.99883 12.3799 3.02817C12.4478 3.0575 12.5089 3.10041 12.5596 3.15427C12.6103 3.20812 12.6494 3.27177 12.6746 3.34131C12.6997 3.41085 12.7104 3.4848 12.7059 3.55861C12.7059 4.07661 12.7059 4.59461 12.7059 5.13461C13.0039 5.13461 13.2899 5.13461 13.5739 5.13461C14.0947 5.12217 14.5994 5.31547 14.9787 5.67263C15.3579 6.02978 15.5811 6.522 15.5999 7.04261C15.6119 7.36261 15.5999 7.68261 15.5999 8.02061H16.0539C16.4379 8.02061 16.8219 8.02061 17.2059 8.02061C17.3491 8.02061 17.4865 8.0775 17.5877 8.17877C17.689 8.28004 17.7459 8.41739 17.7459 8.56061C17.7459 8.70383 17.689 8.84118 17.5877 8.94245C17.4865 9.04372 17.3491 9.10061 17.2059 9.10061C16.7379 9.10061 16.2699 9.10061 15.8059 9.10061H15.5999V12.3526H17.1699C17.2437 12.3481 17.3177 12.3588 17.3872 12.3839C17.4567 12.4091 17.5204 12.4482 17.5742 12.4989C17.6281 12.5496 17.671 12.6107 17.7003 12.6786C17.7297 12.7465 17.7448 12.8197 17.7448 12.8936C17.7448 12.9676 17.7297 13.0407 17.7003 13.1086C17.671 13.1765 17.6281 13.2376 17.5742 13.2883C17.5204 13.339 17.4567 13.3781 17.3872 13.4033C17.3177 13.4284 17.2437 13.4391 17.1699 13.4346H15.5999V14.3286C15.61 14.8305 15.4234 15.3165 15.0799 15.6826C14.9079 15.8784 14.6972 16.0363 14.461 16.1465C14.2249 16.2566 13.9684 16.3166 13.7079 16.3226C13.3839 16.3346 13.0579 16.3226 12.7079 16.3226V16.8466C12.7079 17.2146 12.7079 17.5806 12.7079 17.9466C12.7079 18.0898 12.651 18.2272 12.5497 18.3284C12.4485 18.4297 12.3111 18.4866 12.1679 18.4866C12.0247 18.4866 11.8873 18.4297 11.7861 18.3284C11.6848 18.2272 11.6279 18.0898 11.6279 17.9466C11.6279 17.4746 11.6279 17.0006 11.6279 16.5266V16.3286H8.3759V16.5126C8.3759 16.9739 8.3759 17.4366 8.3759 17.9006C8.38039 17.9744 8.36972 18.0484 8.34457 18.1179C8.31941 18.1874 8.28029 18.2511 8.22961 18.305C8.17893 18.3588 8.11777 18.4017 8.04989 18.4311C7.98201 18.4604 7.90884 18.4755 7.8349 18.4755C7.76095 18.4755 7.68778 18.4604 7.6199 18.4311C7.55202 18.4017 7.49086 18.3588 7.44018 18.305C7.3895 18.2511 7.35038 18.1874 7.32523 18.1179C7.30007 18.0484 7.28941 17.9744 7.2939 17.9006C7.2899 17.3806 7.2919 16.8626 7.2919 16.3286ZM12.2439 10.7286C11.7759 11.1966 11.3219 11.6446 10.8779 12.0986C10.7882 12.1844 10.7198 12.2898 10.6779 12.4066C10.6438 12.5208 10.6507 12.6433 10.6974 12.7529C10.7442 12.8625 10.8279 12.9523 10.9339 13.0066C11.0412 13.0666 11.1658 13.0879 11.287 13.0672C11.4082 13.0465 11.5186 12.9848 11.5999 12.8926C12.1839 12.3126 12.7659 11.7306 13.3459 11.1466C13.4068 11.0956 13.4559 11.0318 13.4895 10.9597C13.5231 10.8877 13.5405 10.8091 13.5405 10.7296C13.5405 10.6501 13.5231 10.5716 13.4895 10.4995C13.4559 10.4275 13.4068 10.3637 13.3459 10.3126C13.0179 9.97861 12.6859 9.64861 12.3459 9.31261C12.0879 9.05261 11.8299 8.79061 11.5679 8.53661C11.4833 8.45187 11.373 8.39764 11.2543 8.38243C11.1355 8.36723 11.0151 8.39191 10.9119 8.45261C10.8086 8.50945 10.7279 8.6001 10.6835 8.70934C10.6391 8.81859 10.6336 8.93979 10.6679 9.05261C10.7053 9.16429 10.7683 9.26567 10.8519 9.34861C11.3159 9.80661 11.7739 10.2566 12.2439 10.7286ZM7.7279 10.7526C8.2359 10.2466 8.7059 9.78261 9.1699 9.31461C9.27144 9.21414 9.32956 9.07788 9.33181 8.93506C9.33405 8.79223 9.28023 8.65422 9.1819 8.55061C9.08363 8.44688 8.94827 8.38631 8.80544 8.38219C8.66262 8.37807 8.52398 8.43072 8.4199 8.52861C7.80923 9.13528 7.20256 9.74394 6.5999 10.3546C6.54994 10.4032 6.51024 10.4614 6.48313 10.5256C6.45602 10.5899 6.44205 10.6589 6.44205 10.7286C6.44205 10.7983 6.45602 10.8673 6.48313 10.9316C6.51024 10.9958 6.54994 11.054 6.5999 11.1026C7.20256 11.7133 7.80856 12.3193 8.4179 12.9206C8.46788 12.9707 8.52726 13.0105 8.59264 13.0377C8.65801 13.0648 8.72811 13.0788 8.7989 13.0788C8.86968 13.0788 8.93978 13.0648 9.00516 13.0377C9.07054 13.0105 9.12992 12.9707 9.1799 12.9206C9.27969 12.8189 9.3356 12.6821 9.3356 12.5396C9.3356 12.3971 9.27969 12.2603 9.1799 12.1586C8.7799 11.7493 8.37323 11.3426 7.9599 10.9386C7.88677 10.8703 7.80927 10.8068 7.7279 10.7486V10.7526Z" fill="#33A959"/>
</g>
</svg>
