<svg width="20" height="21" viewBox="0 0 20 21" fill="none" xmlns="http://www.w3.org/2000/svg">
<g id="envelope-08">
<g id="Group 5">
<path id="Vector" d="M14.0497 13.4464C14.0473 13.6069 14.0148 13.7655 13.9539 13.9141C12.8782 15.4807 11.7886 17.0381 10.7012 18.6024C10.6174 18.7341 10.506 18.8462 10.3749 18.9309C10.2437 19.0157 10.0958 19.0711 9.94128 19.0935C9.73567 18.9936 9.5477 18.8609 9.38475 18.7006C8.23897 17.0895 7.11189 15.4644 5.98715 13.8346C5.92168 13.7387 5.8983 13.5142 5.95675 13.4628C6.01385 13.4218 6.07945 13.3942 6.14867 13.382C6.2179 13.3699 6.28897 13.3735 6.35661 13.3926C7.36209 13.7106 8.36992 14.038 9.36605 14.3911C9.7714 14.5443 10.2187 14.5443 10.6241 14.3911C11.6015 14.0403 12.5883 13.72 13.5727 13.4066C13.7328 13.3933 13.894 13.4067 14.0497 13.4464Z" fill="#40C96D"/>
<path id="Vector_2" d="M14.3281 10.9442L10.2758 12.3145C10.1846 12.3472 10.0911 12.3706 9.99752 12.3987C9.911 12.373 9.82916 12.3496 9.74732 12.3215L5.63419 10.9349C5.12443 10.7618 5.05194 10.5701 5.31618 10.0884C6.61941 7.7189 7.92264 5.35094 9.22587 2.98455C9.39657 2.67121 9.60234 2.41633 9.98349 2.40932C10.3646 2.4023 10.5961 2.66186 10.7738 2.98455C12.0677 5.34627 13.3686 7.70487 14.6765 10.0603C14.9548 10.5795 14.8846 10.7548 14.3281 10.9442Z" fill="#33A959"/>
</g>
</g>
</svg>
