<svg width="20" height="21" viewBox="0 0 20 21" fill="none" xmlns="http://www.w3.org/2000/svg">
<g id="envelope-06">
<path id="Vector" d="M14.478 18.9161C14.3496 18.8642 14.242 18.7714 14.1718 18.652C14.1017 18.5327 14.0729 18.3935 14.09 18.2561C14.09 15.0468 14.09 11.8381 14.09 8.63009C14.09 8.17809 14.268 8.00009 14.718 8.00009C15.656 8.00009 16.594 8.00009 17.532 8.00009C17.6703 7.98048 17.811 8.0097 17.93 8.08272C18.0491 8.15573 18.1389 8.26797 18.184 8.40009V18.5281C18.1495 18.6153 18.0976 18.6946 18.0317 18.7613C17.9657 18.828 17.8869 18.8806 17.8 18.9161H14.478Z" fill="#33A959"/>
<path id="Vector_2" d="M9.00012 18.9163C8.69812 18.7783 8.62012 18.5343 8.62012 18.2163C8.62012 16.1643 8.62012 14.1123 8.62012 12.0603C8.62012 11.5843 8.79812 11.4062 9.27812 11.4062H12.1041C12.5401 11.4062 12.7261 11.5943 12.7261 12.0283C12.7261 14.1123 12.7261 16.1963 12.7261 18.2803C12.7418 18.416 12.7107 18.553 12.638 18.6686C12.5653 18.7843 12.4552 18.8716 12.3261 18.9163H9.00012Z" fill="#33A959"/>
<path id="Vector_3" d="M3.57199 18.9164C3.43949 18.8712 3.32697 18.7811 3.25392 18.6616C3.18087 18.5422 3.15189 18.401 3.17199 18.2624C3.18399 17.3144 3.17199 16.3664 3.17199 15.4164C3.17199 15.0164 3.37199 14.8164 3.77199 14.8164C4.73599 14.8164 5.70066 14.8164 6.66599 14.8164C7.06599 14.8164 7.26599 15.0164 7.26599 15.4164C7.26599 16.3544 7.26599 17.2924 7.26599 18.2304C7.28485 18.3701 7.25805 18.5122 7.18957 18.6355C7.12109 18.7588 7.0146 18.8566 6.88599 18.9144L3.57199 18.9164Z" fill="#33A959"/>
<path id="Vector_4" d="M17.8 18.9163C17.8876 18.8813 17.9672 18.8289 18.0339 18.7622C18.1006 18.6955 18.153 18.6159 18.188 18.5283V18.9123L17.8 18.9163Z" fill="white"/>
<g id="Group 4">
<path id="Vector_5" d="M6.99994 10.5286C6.74194 10.6506 6.64194 10.6326 6.45194 10.4426L4.14194 8.12857C3.94194 7.92857 3.92994 7.84657 4.04394 7.57257L2.92994 7.30857C2.83794 7.28657 2.74594 7.26257 2.65194 7.24257C2.58515 7.23398 2.52238 7.20586 2.4715 7.16175C2.42062 7.11763 2.3839 7.05947 2.36594 6.99457C2.34917 6.927 2.35213 6.85605 2.37446 6.79011C2.3968 6.72418 2.43757 6.66603 2.49194 6.62257C3.01306 6.14857 3.63974 5.80575 4.31994 5.62257C4.83976 5.46666 5.37755 5.3786 5.91994 5.36057C5.97493 5.35944 6.02901 5.34633 6.0784 5.32215C6.1278 5.29797 6.17133 5.2633 6.20594 5.22057C7.44009 3.86704 9.08284 2.95401 10.8839 2.62057C11.136 2.57889 11.3906 2.55417 11.6459 2.54657C11.7007 2.53662 11.757 2.54008 11.8101 2.55666C11.8631 2.57324 11.9114 2.60245 11.9507 2.64177C11.9901 2.6811 12.0193 2.72937 12.0358 2.78245C12.0524 2.83554 12.0559 2.89185 12.0459 2.94657C12.0016 3.86377 11.7759 4.76309 11.3819 5.59257C10.9027 6.65927 10.2098 7.61633 9.34594 8.40457C9.30703 8.44367 9.27706 8.49073 9.25807 8.54251C9.23908 8.5943 9.23153 8.64959 9.23594 8.70457C9.20407 9.48296 9.02774 10.2486 8.71594 10.9626C8.53495 11.3732 8.28614 11.7505 7.97994 12.0786C7.93739 12.1368 7.87881 12.1815 7.81134 12.207C7.74387 12.2326 7.67042 12.238 7.59994 12.2226C7.53047 12.203 7.46834 12.1633 7.42137 12.1085C7.37439 12.0537 7.34467 11.9862 7.33594 11.9146C7.23194 11.4586 7.11794 11.0046 6.99994 10.5286Z" fill="#6EEC97"/>
<path id="Vector_6" d="M3.99998 9.18807C4.30866 9.18659 4.60918 9.28718 4.85477 9.47418C5.10037 9.66119 5.27728 9.92412 5.35798 10.2221C5.44366 10.5191 5.42716 10.8362 5.31111 11.1227C5.19506 11.4092 4.98619 11.6484 4.71798 11.8021C4.08087 12.14 3.41067 12.4114 2.71798 12.6121C2.56198 12.6641 2.40598 12.7161 2.24598 12.7581C2.18836 12.776 2.12696 12.778 2.0683 12.7638C2.00965 12.7496 1.95593 12.7198 1.91285 12.6776C1.86978 12.6353 1.83895 12.5822 1.82365 12.5238C1.80836 12.4654 1.80916 12.404 1.82598 12.3461C2.04729 11.5352 2.34461 10.7471 2.71398 9.99207C2.82513 9.74615 3.00653 9.5386 3.23536 9.39554C3.46419 9.25248 3.73022 9.18029 3.99998 9.18807Z" fill="#6EEC97"/>
</g>
</g>
</svg>
