<svg width="24" height="24" viewBox="0 0 24 24" fill="none" xmlns="http://www.w3.org/2000/svg">
<path fill-rule="evenodd" clip-rule="evenodd" d="M18.2489 6.19046C16.6432 4.94756 14.5748 4 12 4C7.81811 4 4.97196 6.49956 3.27489 8.70433C2.42496 9.80853 2 10.3606 2 12C2 13.6394 2.42496 14.1915 3.27489 15.2957C4.03395 16.2818 5.02288 17.3269 6.25838 18.181L9.57708 14.8623C8.76529 14.1744 8.25 13.1474 8.25 12C8.25 9.92893 9.92893 8.25 12 8.25C13.1474 8.25 14.1744 8.76529 14.8623 9.57708L16.7705 7.66886L18.2489 6.19046ZM13.7955 10.6438C13.3847 10.1008 12.7333 9.75 12 9.75C10.7574 9.75 9.75 10.7574 9.75 12C9.75 12.7333 10.1008 13.3847 10.6438 13.7955L13.7955 10.6438ZM14.2252 12.3355L12.3355 14.2252C13.3096 14.0795 14.0795 13.3096 14.2252 12.3355ZM10.9575 15.6032C11.2884 15.6988 11.6382 15.75 12 15.75C14.0711 15.75 15.75 14.0711 15.75 12C15.75 11.6382 15.6988 11.2885 15.6032 10.9575L19.38 7.18061C19.8898 7.6817 20.3375 8.2007 20.7251 8.70433C21.575 9.80853 22 10.3606 22 12C22 13.6394 21.575 14.1915 20.7251 15.2957C19.028 17.5004 16.1819 20 12 20C10.3185 20 8.85303 19.5959 7.59133 18.9693L10.9575 15.6032Z" fill="#3F3F3F"/>
<path d="M22.7803 1.21967C23.0732 1.51256 23.0732 1.98744 22.7803 2.28033L2.78033 22.2803C2.48744 22.5732 2.01256 22.5732 1.71967 22.2803C1.42678 21.9874 1.42678 21.5126 1.71967 21.2197L5.44121 17.4981L16.2705 6.66886L21.7197 1.21967C22.0126 0.926777 22.4874 0.926777 22.7803 1.21967Z" fill="#3F3F3F"/>
</svg>
