<svg width="20" height="21" viewBox="0 0 20 21" fill="none" xmlns="http://www.w3.org/2000/svg">
<g id="eye.4">
<path id="Vector" d="M17.1549 12.2592C15.5383 13.9601 12.8993 16.109 9.99935 16.109V17.359C13.4585 17.359 16.4179 14.849 18.0609 13.1204L17.1549 12.2592ZM9.99935 16.109C7.09934 16.109 4.46041 13.9601 2.8438 12.2592L1.93775 13.1204C3.58076 14.849 6.54016 17.359 9.99935 17.359V16.109ZM2.8438 9.54222C4.46041 7.84129 7.09934 5.69238 9.99935 5.69238V4.44238C6.54016 4.44238 3.58076 6.95237 1.93775 8.68106L2.8438 9.54222ZM9.99935 5.69238C12.8993 5.69238 15.5383 7.84129 17.1549 9.54222L18.0609 8.68106C16.4179 6.95237 13.4585 4.44238 9.99935 4.44238V5.69238ZM2.8438 12.2592C2.10676 11.4837 2.10676 10.3177 2.8438 9.54222L1.93775 8.68106C0.742105 9.93905 0.742105 11.8624 1.93775 13.1204L2.8438 12.2592ZM18.0609 13.1204C19.2566 11.8624 19.2566 9.93905 18.0609 8.68106L17.1549 9.54222C17.8919 10.3177 17.8919 11.4837 17.1549 12.2592L18.0609 13.1204ZM11.8743 10.9007C11.8743 11.9362 11.0348 12.7757 9.99935 12.7757V14.0257C11.7253 14.0257 13.1243 12.6266 13.1243 10.9007H11.8743ZM9.99935 12.7757C8.96385 12.7757 8.12435 11.9362 8.12435 10.9007H6.87435C6.87435 12.6266 8.27346 14.0257 9.99935 14.0257V12.7757ZM8.12435 10.9007C8.12435 9.86522 8.96385 9.02572 9.99935 9.02572V7.77572C8.27346 7.77572 6.87435 9.17482 6.87435 10.9007H8.12435ZM9.99935 9.02572C11.0348 9.02572 11.8743 9.86522 11.8743 10.9007H13.1243C13.1243 9.17482 11.7253 7.77572 9.99935 7.77572V9.02572Z" fill="#6C6C6C"/>
</g>
</svg>
