<svg width="30" height="31" viewBox="0 0 30 31" fill="none" xmlns="http://www.w3.org/2000/svg">
<rect width="30" height="31" fill="#1E1E1E"/>
<g id="&#196;&#145;&#225;&#186;&#165;u gi&#195;&#161; (ch&#225;&#187;&#157;)" clip-path="url(#clip0_0_1)">
<rect width="1920" height="1825" transform="translate(-1235 -465)" fill="white"/>
<g id="Frame 1000008838">
<rect x="-24.5" y="-28.9521" width="459" height="688" rx="14.5" fill="white"/>
<rect x="-24.5" y="-28.9521" width="459" height="688" rx="14.5" stroke="#9C9C9C"/>
<g id="Frame 1000008837">
<g id="Frame 1000008835">
<g id="Frame 1000008834">
<g id="eye.3">
<path id="Vector" fill-rule="evenodd" clip-rule="evenodd" d="M26.4129 18.2315C27.8624 16.7064 27.8624 14.3894 26.4129 12.8642C23.9681 10.292 19.7694 6.79785 15 6.79785C10.2306 6.79785 6.03186 10.292 3.58713 12.8642C2.13762 14.3894 2.13762 16.7064 3.58713 18.2315C6.03186 20.8037 10.2306 24.2979 15 24.2979C19.7694 24.2979 23.9681 20.8037 26.4129 18.2315ZM15 19.2979C17.0711 19.2979 18.75 17.619 18.75 15.5479C18.75 13.4767 17.0711 11.7979 15 11.7979C12.9289 11.7979 11.25 13.4767 11.25 15.5479C11.25 17.619 12.9289 19.2979 15 19.2979Z" fill="#40C96D"/>
</g>
</g>
</g>
</g>
</g>
</g>
<defs>
<clipPath id="clip0_0_1">
<rect width="1920" height="1825" fill="white" transform="translate(-1235 -465)"/>
</clipPath>
</defs>
</svg>
