<svg xmlns="http://www.w3.org/2000/svg" width="41" height="41" viewBox="0 0 41 41" fill="none">
  <path d="M36.6452 20.1029C36.6452 11.4258 29.611 4.3916 20.9339 4.3916C12.2568 4.3916 5.22266 11.4258 5.22266 20.1029C5.22266 27.9447 10.968 34.4446 18.479 35.6233V24.6444H14.4898V20.1029H18.479V16.6415C18.479 12.7038 20.8247 10.5288 24.4134 10.5288C26.1318 10.5288 27.9303 10.8357 27.9303 10.8357V14.7021H25.9493C23.9976 14.7021 23.3888 15.9133 23.3888 17.157V20.1029H27.7462L27.0497 24.6444H23.3888V35.6233C30.8998 34.4446 36.6452 27.9447 36.6452 20.1029Z" fill="#337FFF"/>
  <path d="M27.0497 24.6444L27.7462 20.1029H23.3888V17.157C23.3888 15.9145 23.9976 14.7021 25.9493 14.7021H27.9303V10.8357C27.9303 10.8357 26.1318 10.5288 24.4134 10.5288C20.8247 10.5288 18.479 12.7038 18.479 16.6415V20.1029H14.4898V24.6444H18.479V35.6233C20.1057 35.8778 21.7621 35.8778 23.3888 35.6233V24.6444H27.0497Z" fill="white"/>
</svg>