<svg xmlns="http://www.w3.org/2000/svg" width="61" height="61" viewBox="0 0 61 61" fill="none">
  <path d="M30.492 7.9502H31.014C31.0771 7.98023 31.1436 8.00239 31.212 8.0162C31.9563 8.08101 32.6604 8.38158 33.222 8.8742C33.822 9.4082 34.38 9.9722 34.95 10.5362C36.258 11.8322 37.554 13.1522 38.88 14.4362C39.1642 14.7509 39.5174 14.9954 39.912 15.1505C40.3065 15.3056 40.7317 15.3671 41.154 15.3302C41.6974 15.2455 42.1968 14.9816 42.573 14.5804C42.9491 14.1792 43.1804 13.6639 43.23 13.1162C43.284 12.7262 43.314 12.3302 43.398 11.9522C43.908 9.55219 45.87 8.0522 48.198 8.4122C49.0817 8.53895 49.9162 8.89706 50.6169 9.45025C51.3176 10.0034 51.8597 10.732 52.188 11.5622C52.6058 12.461 52.6921 13.4786 52.4319 14.435C52.1717 15.3914 51.5816 16.2249 50.766 16.7882C49.9092 17.342 48.9227 17.6625 47.904 17.7182C45.798 17.9522 44.904 19.8842 46.14 21.6122C46.3514 21.9065 46.5883 22.1815 46.848 22.4342C48.468 24.0662 50.1 25.6802 51.714 27.3122C52.0171 27.6052 52.2812 27.9359 52.5 28.2962C52.9787 29.0815 53.1658 30.0101 53.0287 30.9194C52.8916 31.8288 52.4389 32.661 51.75 33.2702C50.1 34.9322 48.45 36.5882 46.776 38.2262C46.4065 38.5944 45.9813 38.9022 45.516 39.1382C45.2538 39.2803 44.9649 39.3663 44.6677 39.3909C44.3705 39.4155 44.0714 39.3781 43.7894 39.2811C43.5074 39.1841 43.2486 39.0296 43.0294 38.8273C42.8102 38.6251 42.6354 38.3795 42.516 38.1062C42.3038 37.5862 42.1664 37.0388 42.108 36.4802C41.832 34.6802 40.992 33.3302 39.276 32.6462C36.366 31.5002 32.826 34.0502 32.796 37.3862C32.8191 38.4361 33.2182 39.4429 33.9207 40.2235C34.6231 41.0042 35.5824 41.5068 36.624 41.6402C37.1868 41.6907 37.7421 41.8034 38.28 41.9762C38.5968 42.0774 38.8869 42.2484 39.1287 42.4767C39.3705 42.705 39.558 42.9847 39.6772 43.2951C39.7964 43.6056 39.8444 43.9388 39.8175 44.2703C39.7907 44.6018 39.6897 44.923 39.522 45.2102C39.3053 45.6214 39.0305 45.9993 38.706 46.3322C37.05 47.9942 35.406 49.6622 33.75 51.2702C33.2858 51.7266 32.7322 52.082 32.124 52.3142C31.3759 52.6094 30.555 52.6676 29.7727 52.4809C28.9903 52.2942 28.2842 51.8715 27.75 51.2702C26.136 49.6622 24.534 48.0362 22.902 46.4702C22.516 46.0781 22.0779 45.7409 21.6 45.4682C21.3235 45.3023 21.0134 45.2003 20.6923 45.1696C20.3713 45.1388 20.0475 45.1802 19.7445 45.2906C19.4415 45.4009 19.1669 45.5776 18.9409 45.8076C18.7149 46.0377 18.5431 46.3153 18.438 46.6202C18.2586 47.1251 18.1476 47.6518 18.108 48.1862C18.0203 49.15 17.6141 50.0571 16.9535 50.7644C16.2929 51.4717 15.4156 51.9389 14.46 52.0922C13.5929 52.2046 12.7115 52.0753 11.9132 51.7185C11.1149 51.3617 10.4307 50.7913 9.93604 50.0702C9.38841 49.464 9.02388 48.715 8.88476 47.91C8.74564 47.105 8.83762 46.277 9.15003 45.5222C9.4636 44.7718 9.97882 44.1229 10.6386 43.6474C11.2984 43.1718 12.077 42.8883 12.888 42.8282C13.3913 42.7767 13.8867 42.6659 14.364 42.4982C14.6619 42.397 14.9338 42.2313 15.1601 42.0129C15.3865 41.7944 15.5619 41.5287 15.6737 41.2346C15.7854 40.9406 15.8309 40.6255 15.8067 40.3118C15.7826 39.9981 15.6895 39.6937 15.534 39.4202C15.2746 38.924 14.943 38.469 14.55 38.0702C13.154 36.6302 11.736 35.2102 10.296 33.8102C9.33906 33.0223 8.6823 31.9291 8.43604 30.7142V29.8442C8.70037 28.6691 9.34588 27.6143 10.272 26.8442C11.736 25.4342 13.164 23.9822 14.598 22.5362C14.8869 22.2516 15.148 21.9402 15.378 21.6062C15.6209 21.2936 15.7799 20.9241 15.8398 20.5328C15.8997 20.1415 15.8585 19.7414 15.7202 19.3704C15.582 18.9995 15.3512 18.6701 15.0497 18.4134C14.7483 18.1568 14.3863 17.9815 13.998 17.9042C13.531 17.797 13.0583 17.7169 12.582 17.6642C11.5614 17.519 10.6249 17.018 9.93767 16.2495C9.25047 15.4811 8.85677 14.4946 8.82603 13.4642C8.85427 12.4712 9.16656 11.5071 9.72592 10.6862C10.2853 9.86521 11.0682 9.22181 11.982 8.8322C12.8883 8.39423 13.9217 8.29628 14.894 8.55617C15.8664 8.81606 16.7131 9.41651 17.28 10.2482C17.8346 11.1047 18.1552 12.0914 18.21 13.1102C18.378 14.7122 19.662 15.7262 21.084 15.3902C21.7812 15.1849 22.4056 14.7853 22.884 14.2382C24.528 12.5782 26.162 10.9222 27.786 9.2702C28.3467 8.67696 29.0681 8.25996 29.862 8.0702L30.492 7.9502Z" fill="#33A959"/>
</svg>