<svg width="35" height="36" viewBox="0 0 35 36" fill="none" xmlns="http://www.w3.org/2000/svg">
<path d="M17.3323 3.76855H17.6707C17.7116 3.78802 17.7547 3.80239 17.799 3.81134C18.2815 3.85336 18.738 4.04821 19.1021 4.36756C19.491 4.71374 19.8528 5.07937 20.2223 5.44499C21.0702 6.28516 21.9104 7.14088 22.77 7.97327C22.9542 8.17726 23.1832 8.33577 23.439 8.43633C23.6948 8.53689 23.9704 8.57677 24.2442 8.55282C24.5964 8.4979 24.9202 8.32681 25.1641 8.06675C25.4079 7.80669 25.5578 7.47259 25.59 7.11754C25.625 6.86472 25.6445 6.608 25.6989 6.36295C26.0295 4.80709 27.3015 3.83468 28.8106 4.06806C29.3835 4.15023 29.9245 4.38238 30.3788 4.741C30.833 5.09962 31.1844 5.57195 31.3973 6.11012C31.6681 6.69282 31.7241 7.3525 31.5554 7.9725C31.3867 8.5925 31.0041 9.13287 30.4754 9.49801C29.92 9.857 29.2804 10.0648 28.6201 10.1009C27.2548 10.2526 26.6752 11.5051 27.4765 12.6253C27.6135 12.8161 27.7671 12.9944 27.9355 13.1582C28.9857 14.2162 30.0437 15.2625 31.09 16.3205C31.2864 16.5104 31.4577 16.7248 31.5995 16.9584C31.9098 17.4674 32.0311 18.0694 31.9422 18.6589C31.8533 19.2485 31.5599 19.7879 31.1133 20.1829C30.0437 21.2603 28.974 22.3339 27.8888 23.3957C27.6492 23.6344 27.3736 23.8339 27.072 23.987C26.902 24.079 26.7147 24.1348 26.522 24.1508C26.3293 24.1667 26.1354 24.1425 25.9526 24.0796C25.7698 24.0167 25.602 23.9165 25.4599 23.7854C25.3178 23.6543 25.2045 23.4951 25.1271 23.3179C24.9895 22.9809 24.9005 22.626 24.8627 22.2638C24.6837 21.0969 24.1392 20.2218 23.0267 19.7784C21.1403 19.0354 18.8454 20.6885 18.8259 22.8512C18.8409 23.5318 19.0996 24.1845 19.555 24.6905C20.0104 25.1966 20.6322 25.5225 21.3075 25.6089C21.6723 25.6417 22.0323 25.7147 22.3811 25.8268C22.5864 25.8923 22.7745 26.0032 22.9312 26.1512C23.088 26.2992 23.2095 26.4805 23.2868 26.6818C23.3641 26.883 23.3952 27.0991 23.3778 27.314C23.3604 27.5289 23.2949 27.7371 23.1862 27.9233C23.0457 28.1899 22.8676 28.4348 22.6572 28.6506C21.5837 29.7281 20.5179 30.8094 19.4444 31.8518C19.1434 32.1477 18.7845 32.3781 18.3903 32.5286C17.9052 32.72 17.3731 32.7578 16.8659 32.6367C16.3588 32.5156 15.901 32.2417 15.5547 31.8518C14.5084 30.8094 13.4699 29.7553 12.4119 28.7401C12.1616 28.4859 11.8776 28.2673 11.5678 28.0905C11.3885 27.983 11.1875 27.9169 10.9794 27.8969C10.7713 27.877 10.5613 27.9038 10.3649 27.9754C10.1685 28.0469 9.9905 28.1615 9.84398 28.3106C9.69745 28.4597 9.58608 28.6397 9.51798 28.8374C9.40166 29.1647 9.32971 29.5061 9.30405 29.8525C9.24716 30.4774 8.98382 31.0654 8.55558 31.5239C8.12735 31.9825 7.55862 32.2853 6.93914 32.3847C6.37698 32.4576 5.80561 32.3738 5.28809 32.1425C4.77056 31.9111 4.327 31.5414 4.00635 31.0739C3.65133 30.6809 3.41502 30.1953 3.32483 29.6735C3.23464 29.1516 3.29427 28.6149 3.4968 28.1255C3.70008 27.6391 4.03409 27.2184 4.46181 26.9101C4.88954 26.6019 5.39427 26.4181 5.92006 26.3791C6.24632 26.3457 6.56749 26.2739 6.87691 26.1652C7.07001 26.0996 7.24624 25.9921 7.39301 25.8505C7.53977 25.7089 7.65345 25.5367 7.72591 25.346C7.79837 25.1554 7.82783 24.9511 7.81218 24.7478C7.79654 24.5444 7.73617 24.3471 7.63539 24.1698C7.46723 23.8481 7.25226 23.5532 6.99749 23.2946C6.0925 22.3611 5.17324 21.4405 4.23973 20.5329C3.61934 20.0222 3.19359 19.3135 3.03394 18.5259V17.9619C3.2053 17.2001 3.62377 16.5163 4.22417 16.0171C5.17324 15.103 6.09898 14.1617 7.02861 13.2243C7.21585 13.0398 7.38516 12.8379 7.53426 12.6214C7.69172 12.4188 7.79476 12.1792 7.83359 11.9255C7.87242 11.6719 7.84575 11.4125 7.75611 11.172C7.66647 10.9315 7.51684 10.718 7.32143 10.5516C7.12602 10.3853 6.89133 10.2716 6.63964 10.2215C6.3369 10.152 6.03041 10.1001 5.72168 10.0659C5.06004 9.97177 4.45291 9.64697 4.00741 9.14881C3.56191 8.65065 3.30669 8.01115 3.28676 7.34314C3.30507 6.69941 3.50752 6.07441 3.87013 5.54221C4.23275 5.01001 4.74032 4.59291 5.33272 4.34033C5.92021 4.05641 6.59012 3.99291 7.2205 4.16139C7.85087 4.32987 8.39978 4.71913 8.76728 5.25829C9.12676 5.81351 9.33462 6.45317 9.37018 7.11365C9.47909 8.15219 10.3115 8.80954 11.2333 8.59172C11.6853 8.45861 12.09 8.19957 12.4002 7.84491C13.466 6.76877 14.5253 5.69523 15.5781 4.62428C15.9415 4.2397 16.4092 3.96937 16.9239 3.84635L17.3323 3.76855Z" fill="#33A959"/>
</svg>
