<svg xmlns="http://www.w3.org/2000/svg" width="30" height="22" viewBox="0 0 30 22" fill="none">
  <g clip-path="url(#clip0_2379_29483)">
    <rect width="30" height="21.8182" fill="#F93939"/>
    <path d="M27.1429 0H2.85714C1.27919 0 0 1.30244 0 2.90909V18.9091C0 20.5157 1.27919 21.8182 2.85714 21.8182H27.1429C28.7208 21.8182 30 20.5157 30 18.9091V2.90909C30 1.30244 28.7208 0 27.1429 0Z" fill="#F93939"/>
    <path fill-rule="evenodd" clip-rule="evenodd" d="M7.85442 10.516L5.75442 11.6404L6.15442 9.25928L4.45728 7.57201L6.80442 7.22728L7.85442 5.06001L8.90299 7.22728L11.2501 7.57201L9.55013 9.25928L9.95299 11.6389L7.85442 10.516ZM12.8573 4.36328H14.2858V5.81783H12.8573V4.36328ZM14.2858 7.27237H15.7144V8.72692H14.2858V7.27237ZM14.2858 10.1815H15.7144V11.636H14.2858V10.1815ZM12.8573 13.0906H14.2858V14.5451H12.8573V13.0906Z" fill="#FFDA2C"/>
  </g>
  <defs>
    <clipPath id="clip0_2379_29483">
      <rect width="30" height="21.8182" fill="white"/>
    </clipPath>
  </defs>
</svg>