<svg xmlns="http://www.w3.org/2000/svg" width="30" height="31" viewBox="0 0 30 31" fill="none">
  <path d="M27.6004 3.21149C27.6004 3.13949 27.6004 3.06449 27.6004 2.99249C27.6004 2.97749 27.5824 2.95949 27.5584 2.92349C26.3565 2.79137 25.1434 2.79943 23.9434 2.94749C22.7175 3.05769 21.5134 3.34153 20.3674 3.79049C19.8434 3.99049 19.3314 4.21249 18.8314 4.45649C18.7289 4.5024 18.6287 4.55346 18.5314 4.60949L18.2524 4.75049C18.2202 4.7641 18.1891 4.78015 18.1594 4.79849C17.5864 5.09849 17.0494 5.41949 16.5454 5.74949C16.3564 5.87249 16.1734 5.99849 15.9934 6.12449L15.6694 6.35549L15.2404 6.67649L14.9074 6.93749C14.7934 7.02749 14.6854 7.11449 14.5804 7.20449C14.4754 7.29449 14.2984 7.44449 14.1634 7.56149C14.0284 7.67849 13.9024 7.79249 13.7734 7.90949C12.8955 8.69467 12.0921 9.55935 11.3734 10.4925V10.5135C11.3229 10.5862 11.2542 10.6444 11.1742 10.6822C11.0942 10.7201 11.0056 10.7364 10.9174 10.7295C10.0174 10.7295 9.10239 10.7295 8.19639 10.7295C7.8243 10.7294 7.45323 10.7686 7.08939 10.8465C6.50928 10.9957 5.96564 11.2615 5.49163 11.6277C5.01763 11.9939 4.62319 12.4528 4.33239 12.9765C3.75639 13.9185 3.28239 14.9205 2.76639 15.8985C2.63139 16.1475 2.52639 16.3575 2.40039 16.6125H2.74839C4.41939 16.6125 6.09039 16.6125 7.76139 16.6125C7.84993 16.6068 7.93863 16.6207 8.02111 16.6534C8.10359 16.6861 8.1778 16.7367 8.23839 16.8015C10.0684 18.6435 11.9014 20.4825 13.7374 22.3185C13.8446 22.4362 13.9063 22.5883 13.9114 22.7475C13.9114 24.4365 13.9114 26.1255 13.9114 27.8145C13.9114 27.9135 13.9114 28.0125 13.9294 28.1955C15.1894 27.5085 16.3984 26.8635 17.5924 26.1945C17.8533 26.0334 18.0957 25.8443 18.3154 25.6305C18.7937 25.2335 19.1758 24.7333 19.433 24.1675C19.6902 23.6016 19.8158 22.9849 19.8004 22.3635C19.8004 21.4635 19.8004 20.5635 19.8004 19.6425C19.7955 19.5522 19.8132 19.462 19.852 19.3803C19.8908 19.2986 19.9493 19.2278 20.0224 19.1745L20.2834 18.9615L20.3134 18.9405C24.5134 15.7995 26.3674 12.0615 27.1534 8.98949C27.1534 8.94749 27.1744 8.90249 27.1864 8.85749C27.3373 8.32219 27.4436 7.77532 27.5044 7.22249C27.7071 5.89504 27.7394 4.54712 27.6004 3.21149ZM19.7764 12.7005C19.2607 12.695 18.7677 12.4873 18.4036 12.122C18.0395 11.7568 17.8333 11.2632 17.8294 10.7475C17.8298 10.4922 17.8805 10.2395 17.9785 10.0038C18.0766 9.76808 18.2201 9.55399 18.4009 9.37375C18.5817 9.19352 18.7962 9.05065 19.0322 8.95332C19.2682 8.85599 19.5211 8.8061 19.7764 8.80649C20.2936 8.80649 20.7896 9.01194 21.1553 9.37763C21.5209 9.74333 21.7264 10.2393 21.7264 10.7565C21.7264 11.2737 21.5209 11.7697 21.1553 12.1353C20.7896 12.501 20.2936 12.7065 19.7764 12.7065V12.7005Z" fill="#33A959"/>
  <path d="M4.125 26.3962C6.438 26.0482 8.523 25.3702 9.96 23.4532C8.997 22.4962 8.028 21.5272 7.071 20.5732C5.139 22.0042 4.575 24.1462 4.125 26.3962Z" fill="#6EEC97"/>
</svg>