<svg xmlns="http://www.w3.org/2000/svg" width="31" height="31" viewBox="0 0 31 31" fill="none">
  <path d="M29.25 16.1431C29.25 15.1896 29.1727 14.2309 29.0078 13.2929H15.777V18.6944H23.3536C23.0392 20.4365 22.029 21.9776 20.5498 22.9569V26.4617H25.07C27.7244 24.0186 29.25 20.4107 29.25 16.1431Z" fill="#4285F4"/>
  <path d="M15.777 29.848C19.5602 29.848 22.7506 28.6058 25.0751 26.4617L20.5549 22.9569C19.2973 23.8125 17.6737 24.297 15.7822 24.297C12.1227 24.297 9.01992 21.8281 7.90663 18.5088H3.24212V22.1219C5.62334 26.8586 10.4734 29.848 15.777 29.848Z" fill="#34A853"/>
  <path d="M7.90148 18.5088C7.31391 16.7667 7.31391 14.8803 7.90148 13.1382V9.52516H3.24213C1.25263 13.4887 1.25262 18.1584 3.24212 22.1219L7.90148 18.5088Z" fill="#FBBC04"/>
  <path d="M15.777 7.34493C17.7768 7.31401 19.7096 8.06651 21.1579 9.44783L25.1627 5.44305C22.6269 3.06184 19.2612 1.75268 15.777 1.79391C10.4734 1.79391 5.62335 4.78334 3.24213 9.52516L7.90148 13.1382C9.00963 9.81379 12.1176 7.34493 15.777 7.34493Z" fill="#EA4335"/>
</svg>