<svg width="177" height="39" viewBox="0 0 177 39" fill="none" xmlns="http://www.w3.org/2000/svg">
<g id="Group">
<g id="Group_2">
<g id="Group_3">
<g id="Group_4">
<path id="Vector" d="M49.4069 25.539V21.8192H59.1953V18.1274H49.4069V14.4169H59.5901V10.7158H45.7234V29.2308H59.873V25.539H49.4069Z" fill="white"/>
<g id="Group_5">
<path id="Vector_2" d="M73.9044 18.0591C73.5811 17.7444 73.2268 17.4578 72.8507 17.221C72.4714 16.9749 72.0704 16.7786 71.6601 16.6198C70.8333 16.3051 69.9598 16.1618 69.1081 16.1618C68.2564 16.1618 67.3829 16.3051 66.5561 16.6104C66.1924 16.7444 65.8474 16.9095 65.5179 17.1089C65.4619 17.14 65.4091 17.1712 65.3593 17.2023C65.35 17.2023 65.35 17.2023 65.35 17.2023V10.9092H62.3348V29.0285H65.35V28.1905C65.6329 28.4366 65.9406 28.6547 66.2701 28.8291C67.128 29.3182 68.1445 29.5706 69.2698 29.5706C70.0406 29.5706 70.7804 29.4429 71.657 29.1126C72.0736 28.9537 72.4745 28.7481 72.8538 28.5113C73.233 28.2652 73.5874 27.9817 73.9013 27.6671C74.5479 27.0346 75.0421 26.2558 75.3654 25.4271C75.4369 25.2308 75.5084 25.0813 75.5612 24.8756V24.8351C75.6887 24.3865 75.7664 23.9192 75.7975 23.455C75.7975 23.4457 75.7975 23.4457 75.7975 23.4394C75.813 23.2494 75.8223 23.0531 75.8223 22.8631C75.8223 22.0094 75.6793 21.1278 75.3592 20.2991C75.0452 19.4735 74.5479 18.6977 73.9044 18.0591ZM72.6424 24.3741C72.4621 24.832 72.1948 25.2495 71.8466 25.5891C71.5078 25.9287 71.0913 26.1904 70.6188 26.371C70.1557 26.5455 69.6428 26.6327 69.1081 26.6327C68.5735 26.6234 68.0606 26.5393 67.5974 26.3555C67.1405 26.1748 66.7239 25.9068 66.3913 25.5673C66.2577 25.4333 66.1396 25.29 66.037 25.1342C65.8629 24.8974 65.723 24.6358 65.6205 24.3616C65.4402 23.9036 65.3531 23.3989 65.3531 22.8693C65.3531 22.3397 65.4402 21.835 65.6142 21.377C65.6609 21.2586 65.7075 21.1402 65.7728 21.0312C65.9313 20.7072 66.1365 20.4143 66.3882 20.162C66.7271 19.8224 67.1374 19.5545 67.6005 19.3738C67.8274 19.2803 68.0823 19.2149 68.3341 19.1682C68.5859 19.1214 68.847 19.0965 69.1143 19.0965C69.649 19.0965 70.1619 19.1838 70.6344 19.3645C71.0975 19.5389 71.5171 19.8068 71.8622 20.1464C72.2072 20.486 72.4776 20.8972 72.6486 21.3614C72.8289 21.8256 72.9253 22.3397 72.9253 22.8693C72.919 23.3958 72.8227 23.9067 72.6424 24.3741Z" fill="white"/>
<path id="Vector_3" d="M87.7308 16.741C86.4718 16.0618 85.0295 15.959 84.2835 15.959C82.7075 15.959 81.3398 16.3173 80.3296 16.9933C79.1173 17.8127 78.449 19.0526 78.449 20.4857V20.682H81.8589V20.4857C81.8589 19.2925 84.184 19.28 84.2835 19.28C86.0522 19.28 86.5216 19.8439 86.5216 20.1399C86.5216 20.1929 86.5216 20.3362 85.9496 20.4764C85.4088 20.601 84.7218 20.6664 83.9913 20.7318L83.8514 20.7443C82.5863 20.8627 81.2777 20.9842 80.1462 21.4546C79.3815 21.7755 78.7785 22.2335 78.3495 22.8129C78.1288 23.1089 77.9516 23.4422 77.8242 23.8036C77.6781 24.2086 77.6004 24.6604 77.5911 25.1495V25.2367C77.5911 28.1652 80.112 29.7416 82.4806 29.7416C84.2586 29.7416 85.5859 29.3771 86.5216 28.6294V29.2214H89.9377V20.2707C89.9346 18.7566 89.1513 17.5042 87.7308 16.741ZM86.5185 23.8535V23.9688C86.5185 25.0249 86.1019 25.4517 85.788 25.6791C85.2036 26.0997 84.2742 26.3209 83.0992 26.3209C82.748 26.3209 80.9979 26.2711 80.9979 25.3022C80.9979 24.4298 83.0464 24.2523 84.0286 24.165L84.2897 24.1432C85.0358 24.0747 85.8066 24.003 86.5185 23.8535Z" fill="white"/>
</g>
<path id="Vector_4" d="M100.845 16.507L97.631 24.495L94.4263 16.507H90.979L95.7722 28.4298C95.536 28.894 95.2935 29.2772 95.0573 29.57C94.4542 30.3146 93.7424 30.6324 92.6824 30.6324H92.4866V34.05H92.6824C93.7704 34.05 94.7526 33.8413 95.595 33.43C96.3939 33.0437 97.1026 32.4705 97.7025 31.7352C98.6071 30.6293 99.1977 29.2491 99.6546 28.0466L104.289 16.5039H100.845V16.507Z" fill="white"/>
</g>
<g id="Group_6">
<path id="Vector_5" d="M49.4069 25.539V21.8192H59.1953V18.1274H49.4069V14.4169H59.5901V10.7158H45.7234V29.2308H59.873V25.539H49.4069Z" fill="white"/>
<g id="Group_7">
<path id="Vector_6" d="M73.9044 18.0591C73.5811 17.7444 73.2268 17.4578 72.8507 17.221C72.4714 16.9749 72.0704 16.7786 71.6601 16.6198C70.8333 16.3051 69.9598 16.1618 69.1081 16.1618C68.2564 16.1618 67.3829 16.3051 66.5561 16.6104C66.1924 16.7444 65.8474 16.9095 65.5179 17.1089C65.4619 17.14 65.4091 17.1712 65.3593 17.2023C65.35 17.2023 65.35 17.2023 65.35 17.2023V10.9092H62.3348V29.0285H65.35V28.1905C65.6329 28.4366 65.9406 28.6547 66.2701 28.8291C67.128 29.3182 68.1445 29.5706 69.2698 29.5706C70.0406 29.5706 70.7804 29.4429 71.657 29.1126C72.0736 28.9537 72.4745 28.7481 72.8538 28.5113C73.233 28.2652 73.5874 27.9817 73.9013 27.6671C74.5479 27.0346 75.0421 26.2558 75.3654 25.4271C75.4369 25.2308 75.5084 25.0813 75.5612 24.8756V24.8351C75.6887 24.3865 75.7664 23.9192 75.7975 23.455C75.7975 23.4457 75.7975 23.4457 75.7975 23.4394C75.813 23.2494 75.8223 23.0531 75.8223 22.8631C75.8223 22.0094 75.6793 21.1278 75.3592 20.2991C75.0452 19.4735 74.5479 18.6977 73.9044 18.0591ZM72.6424 24.3741C72.4621 24.832 72.1948 25.2495 71.8466 25.5891C71.5078 25.9287 71.0913 26.1904 70.6188 26.371C70.1557 26.5455 69.6428 26.6327 69.1081 26.6327C68.5735 26.6234 68.0606 26.5393 67.5974 26.3555C67.1405 26.1748 66.7239 25.9068 66.3913 25.5673C66.2577 25.4333 66.1396 25.29 66.037 25.1342C65.8629 24.8974 65.723 24.6358 65.6205 24.3616C65.4402 23.9036 65.3531 23.3989 65.3531 22.8693C65.3531 22.3397 65.4402 21.835 65.6142 21.377C65.6609 21.2586 65.7075 21.1402 65.7728 21.0312C65.9313 20.7072 66.1365 20.4143 66.3882 20.162C66.7271 19.8224 67.1374 19.5545 67.6005 19.3738C67.8274 19.2803 68.0823 19.2149 68.3341 19.1682C68.5859 19.1214 68.847 19.0965 69.1143 19.0965C69.649 19.0965 70.1619 19.1838 70.6344 19.3645C71.0975 19.5389 71.5171 19.8068 71.8622 20.1464C72.2072 20.486 72.4776 20.8972 72.6486 21.3614C72.8289 21.8256 72.9253 22.3397 72.9253 22.8693C72.919 23.3958 72.8227 23.9067 72.6424 24.3741Z" fill="white"/>
<path id="Vector_7" d="M87.7308 16.741C86.4718 16.0618 85.0295 15.959 84.2835 15.959C82.7075 15.959 81.3398 16.3173 80.3296 16.9933C79.1173 17.8127 78.449 19.0526 78.449 20.4857V20.682H81.8589V20.4857C81.8589 19.2925 84.184 19.28 84.2835 19.28C86.0522 19.28 86.5216 19.8439 86.5216 20.1399C86.5216 20.1929 86.5216 20.3362 85.9496 20.4764C85.4088 20.601 84.7218 20.6664 83.9913 20.7318L83.8514 20.7443C82.5863 20.8627 81.2777 20.9842 80.1462 21.4546C79.3815 21.7755 78.7785 22.2335 78.3495 22.8129C78.1288 23.1089 77.9516 23.4422 77.8242 23.8036C77.6781 24.2086 77.6004 24.6604 77.5911 25.1495V25.2367C77.5911 28.1652 80.112 29.7416 82.4806 29.7416C84.2586 29.7416 85.5859 29.3771 86.5216 28.6294V29.2214H89.9377V20.2707C89.9346 18.7566 89.1513 17.5042 87.7308 16.741ZM86.5185 23.8535V23.9688C86.5185 25.0249 86.1019 25.4517 85.788 25.6791C85.2036 26.0997 84.2742 26.3209 83.0992 26.3209C82.748 26.3209 80.9979 26.2711 80.9979 25.3022C80.9979 24.4298 83.0464 24.2523 84.0286 24.165L84.2897 24.1432C85.0358 24.0747 85.8066 24.003 86.5185 23.8535Z" fill="white"/>
</g>
<path id="Vector_8" d="M100.845 16.507L97.631 24.495L94.4263 16.507H90.979L95.7722 28.4298C95.536 28.894 95.2935 29.2772 95.0573 29.57C94.4542 30.3146 93.7424 30.6324 92.6824 30.6324H92.4866V34.05H92.6824C93.7704 34.05 94.7526 33.8413 95.595 33.43C96.3939 33.0437 97.1026 32.4705 97.7025 31.7352C98.6071 30.6293 99.1977 29.2491 99.6546 28.0466L104.289 16.5039H100.845V16.507Z" fill="white"/>
</g>
</g>
<g id="Group_8">
<g id="Group_9">
<path id="Vector_9" d="M127.003 10.7158L120.435 24.9876L113.913 10.8311L113.86 10.7158H110.245V29.2308H113.932V18.9717L118.657 29.2308H122.206L126.931 18.9717V29.2308H130.624V10.7158H127.003Z" fill="#F15959"/>
<path id="Vector_10" d="M150.303 10.7158L143.735 24.9876L137.214 10.8311L137.161 10.7158H133.546V29.2308H137.232V18.9686L141.911 29.1155L141.964 29.2308H145.507L150.232 18.9717V29.2308H153.925V10.7158H150.303Z" fill="#F15959"/>
<path id="Vector_11" d="M173.278 12.8588C171.444 11.027 168.901 10.0176 166.119 10.0176C163.34 10.0176 160.798 11.027 158.97 12.8588C157.136 14.6814 156.129 17.208 156.129 19.9776C156.129 22.7316 157.136 25.2645 158.97 27.0964C160.804 28.9189 163.34 29.922 166.119 29.922C168.898 29.922 171.441 28.9189 173.278 27.0964C175.106 25.2738 176.113 22.741 176.113 19.9776C176.113 17.1986 175.106 14.6751 173.278 12.8588ZM166.122 26.2271C162.414 26.2271 159.821 23.6538 159.821 19.9776C159.821 16.292 162.411 13.7187 166.122 13.7187C169.84 13.7187 172.429 16.292 172.429 19.9776C172.429 23.6538 169.837 26.2271 166.122 26.2271Z" fill="#F15959"/>
</g>
</g>
</g>
<g id="Group_10">
<path id="Vector_12" d="M17.0389 20.1923C17.3404 20.1923 17.6388 20.1799 17.931 20.1518C21.3658 19.831 24.4245 17.6533 25.9135 14.4662C26.1342 13.9926 25.985 13.4194 25.5653 13.139C25.3104 12.9677 24.9965 12.9178 24.7043 12.9988C24.4121 13.0798 24.1696 13.2854 24.0422 13.5627C22.8672 16.0956 20.452 17.8246 17.7383 18.0801C14.5242 18.3823 11.394 16.5847 9.95167 13.6063C9.70611 13.0985 9.14348 12.8462 8.64924 13.0206C8.36948 13.1203 8.14568 13.3322 8.03377 13.6032C7.92187 13.8743 7.92809 14.1858 8.05553 14.4506C9.71543 17.9399 13.2404 20.1923 17.0389 20.1923Z" fill="#F15959"/>
</g>
<path id="Vector_13" d="M42.3696 0.9268C42.2981 0.655758 42.1271 0.431447 41.8877 0.291253C41.6453 0.151059 41.3686 0.110558 41.1013 0.182213L35.1207 1.7555C34.3747 1.95178 33.7872 2.53748 33.5882 3.28518L32.5656 7.15454C32.5345 7.15454 32.5034 7.15142 32.4754 7.15142H1.72373C1.18597 7.15142 0.688622 7.39754 0.362237 7.82124C0.0296351 8.24806 -0.0791599 8.79326 0.057611 9.31353L4.17939 25.1898C4.37833 25.9499 5.06218 26.4795 5.84551 26.4795H28.5619C28.8572 26.4795 29.1245 26.6509 29.252 26.9157C29.4229 27.2709 29.5007 27.6634 29.4758 28.0622C29.4012 29.3021 28.3288 30.2741 27.0295 30.2741H2.49462C1.9693 30.2741 1.51236 30.6449 1.42843 31.134C1.37869 31.4424 1.46262 31.7508 1.65845 31.9845C1.85739 32.2213 2.14648 32.3552 2.45421 32.3552H7.70124C7.37796 33.0967 7.26917 33.9067 7.38729 34.7261C7.66083 36.614 9.2337 38.1468 11.1298 38.3711C11.2977 38.3898 11.4655 38.3992 11.6334 38.3992C12.6872 38.3992 13.7098 38.016 14.5025 37.3088C15.4226 36.4894 15.951 35.3149 15.951 34.0874C15.951 33.4893 15.8267 32.8973 15.5873 32.3552H20.5235C20.1971 33.0936 20.0883 33.9067 20.2096 34.7261C20.48 36.6171 22.056 38.1499 23.9521 38.3711C25.1799 38.5144 26.4109 38.1281 27.3248 37.3088C28.2449 36.4894 28.7702 35.3149 28.7702 34.0874C28.7702 33.4238 28.621 32.7758 28.335 32.187C29.196 31.944 29.9762 31.4331 30.5544 30.7228C31.2103 29.9221 31.5553 28.9532 31.5553 27.922C31.5553 26.6602 31.0238 25.4701 30.0882 24.629L33.4888 11.7685L33.5199 11.7342V11.6563L35.3694 4.68089C35.5155 4.12634 35.9538 3.69018 36.5071 3.54376L41.6266 2.19478C42.1799 2.05147 42.5125 1.48135 42.3696 0.9268ZM13.0508 35.8165C12.5317 36.2402 11.8479 36.4084 11.1827 36.2713C10.2875 36.0906 9.56941 35.3242 9.43885 34.4145C9.33006 33.6263 9.63468 32.8475 10.2439 32.3552H13.0477C13.5668 32.7758 13.8746 33.4145 13.8746 34.0874C13.8746 34.7572 13.5731 35.3865 13.0508 35.8165ZM25.8793 35.8102C25.3633 36.2371 24.6826 36.4053 24.0174 36.2744C23.1191 36.1 22.3979 35.3398 22.2642 34.427C22.1461 33.6326 22.4538 32.8475 23.0693 32.3552H25.8669C26.386 32.7758 26.6937 33.4145 26.6937 34.0874C26.6937 34.7541 26.3984 35.3834 25.8793 35.8102ZM29.5877 18.3919L27.9962 24.3984H6.11905L2.18378 9.23565H32.0154L29.5877 18.3919Z" fill="white"/>
</g>
</svg>
