<svg width="35" height="36" viewBox="0 0 35 36" fill="none" xmlns="http://www.w3.org/2000/svg">
<path d="M14.6474 18.5449C12.3329 16.2305 9.98774 13.8853 7.66101 11.5524C10.1662 9.0472 12.6838 6.52965 15.189 4.02441C17.5158 6.35115 19.8671 8.7025 22.1815 11.0169C19.6825 13.5098 17.1649 16.0274 14.6474 18.5449Z" fill="#FF7272"/>
<path d="M20.3903 14.1621C21.0859 14.7776 21.8368 15.4424 22.5816 16.1072C26.2379 19.3572 29.9004 22.6011 33.5505 25.8573C34.6954 26.8791 34.917 28.4303 34.1168 29.649C33.0642 31.2556 30.8175 31.4218 29.5064 29.9691C28.3 28.6334 27.1181 27.2854 25.924 25.9373C23.2833 22.9581 20.6365 19.9851 17.9959 17.0059C17.9097 16.9136 17.8297 16.8089 17.762 16.7289C18.636 15.8856 19.4916 15.0423 20.3903 14.1621Z" fill="#FF7272"/>
<path d="M10.4002 35.7489C7.47019 35.7489 4.54639 35.7489 1.61643 35.7489C0.742371 35.7489 0.502311 35.5027 0.502311 34.6286C0.502311 34.0623 0.49 33.496 0.508466 32.9359C0.545398 31.6679 1.56719 30.6399 2.84135 30.6399C7.87645 30.6276 12.9054 30.6338 17.9405 30.6399C19.2454 30.6399 20.2734 31.6679 20.3103 32.9851C20.3288 33.5268 20.3165 34.0623 20.3165 34.604C20.3165 35.5088 20.0702 35.755 19.1839 35.755C16.2539 35.7489 13.324 35.7489 10.4002 35.7489Z" fill="#FF7272"/>
<path d="M3.11212 29.8467C3.11212 29.422 3.09365 29.0404 3.11827 28.6526C3.19214 27.4092 4.177 26.412 5.42038 26.4059C8.74428 26.3874 12.0682 26.3813 15.3921 26.4059C16.6601 26.412 17.6634 27.4708 17.6942 28.7388C17.7004 29.0958 17.6942 29.4528 17.6942 29.8406C12.8315 29.8467 7.99333 29.8467 3.11212 29.8467Z" fill="#FF7272"/>
<path d="M5.64818 11.423C6.14061 11.4169 6.55918 11.5892 6.89772 11.9278C9.37219 14.3961 11.8405 16.8582 14.3026 19.3388C15.0228 20.0652 14.992 21.167 14.2903 21.8625C13.5948 22.5519 12.5114 22.5765 11.7974 21.8625C9.31679 19.4004 6.84848 16.9321 4.38633 14.4515C3.83235 13.8975 3.7154 13.2142 4.01701 12.494C4.31247 11.7985 4.88492 11.4476 5.64818 11.423Z" fill="#FF7272"/>
<path d="M16.8509 0.245117C17.3434 0.245117 17.7558 0.417468 18.1005 0.762169C20.5626 3.22432 23.0248 5.68031 25.4808 8.14862C26.2071 8.88111 26.1948 9.96445 25.4931 10.6723C24.7975 11.3802 23.6957 11.3925 22.9694 10.6723C20.4949 8.21017 18.0204 5.74187 15.5644 3.26125C15.0043 2.70727 14.8997 2.01787 15.2074 1.30384C15.5091 0.602129 16.0877 0.263583 16.8509 0.245117Z" fill="#FF7272"/>
</svg>
