<svg xmlns="http://www.w3.org/2000/svg" width="20" height="21" viewBox="0 0 20 21" fill="none">
  <path fill-rule="evenodd" clip-rule="evenodd" d="M8.79267 5.41393C7.49605 4.09249 5.39889 4.09249 4.1023 5.41393C2.79924 6.74198 2.79924 8.90002 4.1023 10.228L9.2565 15.481C9.66483 15.8972 10.3352 15.8972 10.7435 15.481L15.8977 10.228C17.2008 8.90002 17.2008 6.74198 15.8977 5.41393C14.6011 4.09249 12.5039 4.09249 11.2074 5.41393L10.4461 6.18978C10.3286 6.30956 10.1678 6.37705 10 6.37705C9.83217 6.37705 9.67142 6.30956 9.55392 6.18978L8.79267 5.41393ZM9.68484 4.53848L10 4.85965L10.3152 4.53848C12.1018 2.71764 15.0033 2.71764 16.7899 4.53848C18.57 6.35269 18.57 9.28927 16.7899 11.1035L11.6358 16.3564C10.7374 17.272 9.26259 17.272 8.36425 16.3564L3.21007 11.1035C1.42998 9.28927 1.42998 6.35269 3.21007 4.53848C4.99665 2.71764 7.89828 2.71764 9.68484 4.53848Z" fill="#40C96D" stroke="#40C96D" stroke-width="0.5"/>
</svg>