<svg xmlns="http://www.w3.org/2000/svg" width="30" height="31" viewBox="0 0 30 31" fill="none">
  <rect y="0.547852" width="30" height="30" rx="15" fill="white"/>
  <path fill-rule="evenodd" clip-rule="evenodd" d="M13.7047 10.5999C12.3129 9.18148 10.0618 9.18148 8.67008 10.5999C7.27137 12.0254 7.27137 14.3419 8.67008 15.7673L14.2026 21.4059C14.6409 21.8526 15.3604 21.8526 15.7987 21.4059L21.3312 15.7673C22.7299 14.3419 22.7299 12.0254 21.3312 10.5999C19.9395 9.18148 17.6884 9.18148 16.2967 10.5999L15.4795 11.4327C15.3534 11.5613 15.1808 11.6337 15.0007 11.6337C14.8205 11.6337 14.648 11.5613 14.5218 11.4327L13.7047 10.5999ZM14.6624 9.66019L15.0007 10.0049L15.339 9.66019C17.2567 7.70572 20.3712 7.70572 22.2889 9.66019C24.1997 11.6076 24.1997 14.7597 22.2889 16.7071L16.7565 22.3456C15.7922 23.3284 14.2091 23.3284 13.2448 22.3456L7.71236 16.7071C5.80161 14.7597 5.80161 11.6076 7.71236 9.66019C9.63007 7.70572 12.7447 7.70572 14.6624 9.66019Z" fill="#F15959"/>
</svg>