<svg width="20" height="21" viewBox="0 0 20 21" fill="none" xmlns="http://www.w3.org/2000/svg">
<g id="Outline / Like / Heart ">
<path id="Vector (Stroke)" fill-rule="evenodd" clip-rule="evenodd" d="M5.75022 5.49725C4.64423 6.00281 3.83398 7.20528 3.83398 8.63919C3.83398 10.1041 4.43346 11.2333 5.29284 12.201C6.00113 12.9985 6.85854 13.6595 7.69473 14.3042C7.89334 14.4573 8.09075 14.6095 8.28468 14.7624C8.63537 15.0388 8.9482 15.2815 9.24972 15.4577C9.55141 15.634 9.79425 15.7145 10.0007 15.7145C10.2071 15.7145 10.4499 15.634 10.7516 15.4577C11.0531 15.2815 11.3659 15.0388 11.7166 14.7624C11.9106 14.6095 12.108 14.4573 12.3066 14.3042C13.1428 13.6595 14.0002 12.9985 14.7085 12.201C15.5678 11.2333 16.1673 10.1041 16.1673 8.63919C16.1673 7.20528 15.3571 6.00281 14.2511 5.49725C13.1766 5.00611 11.7329 5.13618 10.3609 6.56162C10.2666 6.65955 10.1366 6.71488 10.0007 6.71488C9.86473 6.71488 9.73466 6.65955 9.64041 6.56162C8.26843 5.13618 6.8247 5.00611 5.75022 5.49725ZM10.0007 5.52034C8.45928 4.14129 6.73329 3.94837 5.33449 4.58777C3.85713 5.26307 2.83398 6.83115 2.83398 8.63919C2.83398 10.4162 3.57432 11.7718 4.54513 12.865C5.32257 13.7404 6.27413 14.4731 7.11453 15.1202C7.30504 15.2669 7.48984 15.4092 7.6656 15.5477C8.00709 15.8169 8.37368 16.104 8.7452 16.3211C9.11656 16.5381 9.54038 16.7145 10.0007 16.7145C10.4609 16.7145 10.8847 16.5381 11.2561 16.3211C11.6276 16.104 11.9942 15.8169 12.3357 15.5477C12.5115 15.4092 12.6963 15.2669 12.8868 15.1202C13.7272 14.4731 14.6787 13.7404 15.4562 12.865C16.427 11.7718 17.1673 10.4162 17.1673 8.63919C17.1673 6.83115 16.1442 5.26307 14.6668 4.58777C13.268 3.94837 11.542 4.14129 10.0007 5.52034Z" fill="#6C6C6C"/>
</g>
</svg>
