<svg width="24" height="25" viewBox="0 0 24 25" fill="none" xmlns="http://www.w3.org/2000/svg">
<g id="home">
<path id="Vector" fill-rule="evenodd" clip-rule="evenodd" d="M2.99311 9.15312C2.36096 9.72205 2 10.5325 2 11.383V19.0469C2 20.7038 3.34315 22.0469 5 22.0469H19C20.6569 22.0469 22 20.7038 22 19.0469V11.383C22 10.5325 21.639 9.72205 21.0069 9.15312L14.0069 2.85312C12.866 1.8263 11.134 1.8263 9.9931 2.85313L2.99311 9.15312ZM11 13.0469C9.89543 13.0469 9 13.9423 9 15.0469V19.0469C9 19.5992 9.44772 20.0469 10 20.0469H14C14.5523 20.0469 15 19.5992 15 19.0469V15.0469C15 13.9423 14.1046 13.0469 13 13.0469H11Z" fill="#6C6C6C"/>
</g>
</svg>
