<svg xmlns="http://www.w3.org/2000/svg" width="24" height="25" viewBox="0 0 24 25" fill="none">
  <path fill-rule="evenodd" clip-rule="evenodd" d="M2.99311 9.1541C2.36096 9.72303 2 10.5335 2 11.384V19.0479C2 20.7048 3.34315 22.0479 5 22.0479H19C20.6569 22.0479 22 20.7048 22 19.0479V11.384C22 10.5335 21.639 9.72303 21.0069 9.1541L14.0069 2.8541C12.866 1.82728 11.134 1.82728 9.9931 2.85411L2.99311 9.1541ZM11 13.0479C9.89543 13.0479 9 13.9433 9 15.0479V19.0479C9 19.6002 9.44772 20.0479 10 20.0479H14C14.5523 20.0479 15 19.6002 15 19.0479V15.0479C15 13.9433 14.1046 13.0479 13 13.0479H11Z" fill="#6C6C6C"/>
</svg>