<svg width="1411" height="204" viewBox="0 0 1411 204" fill="none" xmlns="http://www.w3.org/2000/svg">
<path d="M40.6561 168.343V128.131H146.472V88.2215H40.6561V48.11H150.74V8.09961H0.836426V208.253H153.798V168.343H40.6561Z" fill="url(#paint0_linear_822_874)"/>
<path d="M305.483 87.4833C301.988 84.0817 298.157 80.9833 294.091 78.4237C289.991 75.763 285.657 73.6413 281.221 71.9237C272.283 68.5221 262.84 66.9729 253.633 66.9729C244.426 66.9729 234.983 68.5221 226.045 71.8226C222.113 73.2708 218.383 75.0558 214.821 77.2112C214.216 77.548 213.645 77.8848 213.108 78.2216C213.007 78.2216 213.007 78.2216 213.007 78.2216V10.1904H180.412V206.066H213.007V197.007C216.065 199.667 219.391 202.025 222.953 203.911C232.228 209.198 243.216 211.926 255.38 211.926C263.714 211.926 271.711 210.546 281.187 206.976C285.69 205.258 290.025 203.035 294.125 200.476C298.224 197.815 302.055 194.75 305.449 191.349C312.438 184.512 317.781 176.092 321.276 167.134C322.049 165.012 322.822 163.395 323.393 161.172V160.735C324.771 155.885 325.611 150.833 325.947 145.815C325.947 145.714 325.947 145.714 325.947 145.647C326.115 143.592 326.216 141.47 326.216 139.416C326.216 130.188 324.67 120.657 321.209 111.698C317.815 102.773 312.438 94.3874 305.483 87.4833ZM291.84 155.75C289.891 160.701 287.001 165.214 283.237 168.885C279.575 172.556 275.072 175.385 269.964 177.338C264.957 179.224 259.413 180.167 253.633 180.167C247.853 180.066 242.309 179.157 237.302 177.17C232.362 175.217 227.859 172.32 224.264 168.649C222.819 167.201 221.542 165.652 220.433 163.968C218.551 161.408 217.039 158.579 215.93 155.615C213.981 150.665 213.04 145.209 213.04 139.483C213.04 133.758 213.981 128.302 215.863 123.351C216.367 122.071 216.871 120.792 217.577 119.613C219.291 116.11 221.508 112.944 224.23 110.216C227.893 106.545 232.328 103.649 237.335 101.696C239.788 100.685 242.544 99.9781 245.266 99.4729C247.988 98.9677 250.81 98.6983 253.7 98.6983C259.48 98.6983 265.024 99.6413 270.132 101.595C275.139 103.481 279.675 106.377 283.405 110.048C287.135 113.719 290.059 118.165 291.907 123.183C293.856 128.201 294.898 133.758 294.898 139.483C294.83 145.175 293.789 150.698 291.84 155.75Z" fill="url(#paint1_linear_822_874)"/>
<path d="M454.949 73.2415C441.34 65.8995 425.748 64.7881 417.683 64.7881C400.646 64.7881 385.861 68.6611 374.94 75.9694C361.835 84.827 354.61 98.2311 354.61 113.723V115.845H391.473V113.723C391.473 100.824 416.608 100.69 417.683 100.69C436.803 100.69 441.878 106.786 441.878 109.985C441.878 110.558 441.878 112.107 435.695 113.622C429.848 114.969 422.421 115.677 414.525 116.384L413.012 116.519C399.336 117.799 385.189 119.112 372.957 124.197C364.691 127.666 358.172 132.617 353.535 138.881C351.149 142.081 349.234 145.685 347.856 149.591C346.277 153.97 345.437 158.853 345.336 164.141V165.084C345.336 196.742 372.588 213.783 398.193 213.783C417.414 213.783 431.763 209.843 441.878 201.76V208.159H478.807V111.4C478.774 95.0316 470.306 81.4928 454.949 73.2415ZM441.844 150.13V151.376C441.844 162.793 437.341 167.407 433.947 169.866C427.63 174.413 417.582 176.804 404.88 176.804C401.083 176.804 382.165 176.265 382.165 165.791C382.165 156.361 404.309 154.441 414.928 153.498L417.751 153.262C425.815 152.521 434.149 151.747 441.844 150.13Z" fill="url(#paint2_linear_822_874)"/>
<path d="M596.721 70.7095L561.975 157.062L527.33 70.7095H490.064L541.88 199.598C539.326 204.616 536.705 208.759 534.152 211.925C527.633 219.974 519.937 223.409 508.479 223.409H506.362V260.355H508.479C520.24 260.355 530.858 258.098 539.965 253.653C548.601 249.477 556.262 243.28 562.748 235.331C572.526 223.375 578.911 208.456 583.851 195.456L633.953 70.6758H596.721V70.7095Z" fill="url(#paint3_linear_822_874)"/>
<path d="M40.6561 168.343V128.131H146.472V88.2215H40.6561V48.11H150.74V8.09961H0.836426V208.253H153.798V168.343H40.6561Z" fill="url(#paint4_linear_822_874)"/>
<path d="M305.483 87.4833C301.988 84.0817 298.157 80.9833 294.091 78.4237C289.991 75.763 285.657 73.6413 281.221 71.9237C272.283 68.5221 262.84 66.9729 253.633 66.9729C244.426 66.9729 234.983 68.5221 226.045 71.8226C222.113 73.2708 218.383 75.0558 214.821 77.2112C214.216 77.548 213.645 77.8848 213.108 78.2216C213.007 78.2216 213.007 78.2216 213.007 78.2216V10.1904H180.412V206.066H213.007V197.007C216.065 199.667 219.391 202.025 222.953 203.911C232.228 209.198 243.216 211.926 255.38 211.926C263.714 211.926 271.711 210.546 281.187 206.976C285.69 205.258 290.025 203.035 294.125 200.476C298.224 197.815 302.055 194.75 305.449 191.349C312.438 184.512 317.781 176.092 321.276 167.134C322.049 165.012 322.822 163.395 323.393 161.172V160.735C324.771 155.885 325.611 150.833 325.947 145.815C325.947 145.714 325.947 145.714 325.947 145.647C326.115 143.592 326.216 141.47 326.216 139.416C326.216 130.188 324.67 120.657 321.209 111.698C317.815 102.773 312.438 94.3874 305.483 87.4833ZM291.84 155.75C289.891 160.701 287.001 165.214 283.237 168.885C279.575 172.556 275.072 175.385 269.964 177.338C264.957 179.224 259.413 180.167 253.633 180.167C247.853 180.066 242.309 179.157 237.302 177.17C232.362 175.217 227.859 172.32 224.264 168.649C222.819 167.201 221.542 165.652 220.433 163.968C218.551 161.408 217.039 158.579 215.93 155.615C213.981 150.665 213.04 145.209 213.04 139.483C213.04 133.758 213.981 128.302 215.863 123.351C216.367 122.071 216.871 120.792 217.577 119.613C219.291 116.11 221.508 112.944 224.23 110.216C227.893 106.545 232.328 103.649 237.335 101.696C239.788 100.685 242.544 99.9781 245.266 99.4729C247.988 98.9677 250.81 98.6983 253.7 98.6983C259.48 98.6983 265.024 99.6413 270.132 101.595C275.139 103.481 279.675 106.377 283.405 110.048C287.135 113.719 290.059 118.165 291.907 123.183C293.856 128.201 294.898 133.758 294.898 139.483C294.83 145.175 293.789 150.698 291.84 155.75Z" fill="url(#paint5_linear_822_874)"/>
<path d="M454.949 73.2415C441.34 65.8995 425.748 64.7881 417.683 64.7881C400.646 64.7881 385.861 68.6611 374.94 75.9694C361.835 84.827 354.61 98.2311 354.61 113.723V115.845H391.473V113.723C391.473 100.824 416.608 100.69 417.683 100.69C436.803 100.69 441.878 106.786 441.878 109.985C441.878 110.558 441.878 112.107 435.695 113.622C429.848 114.969 422.421 115.677 414.525 116.384L413.012 116.519C399.336 117.799 385.189 119.112 372.957 124.197C364.691 127.666 358.172 132.617 353.535 138.881C351.149 142.081 349.234 145.685 347.856 149.591C346.277 153.97 345.437 158.853 345.336 164.141V165.084C345.336 196.742 372.588 213.783 398.193 213.783C417.414 213.783 431.763 209.843 441.878 201.76V208.159H478.807V111.4C478.774 95.0316 470.306 81.4928 454.949 73.2415ZM441.844 150.13V151.376C441.844 162.793 437.341 167.407 433.947 169.866C427.63 174.413 417.582 176.804 404.88 176.804C401.083 176.804 382.165 176.265 382.165 165.791C382.165 156.361 404.309 154.441 414.928 153.498L417.751 153.262C425.815 152.521 434.149 151.747 441.844 150.13Z" fill="url(#paint6_linear_822_874)"/>
<path d="M596.721 70.7095L561.975 157.062L527.33 70.7095H490.064L541.88 199.598C539.326 204.616 536.705 208.759 534.152 211.925C527.633 219.974 519.937 223.409 508.479 223.409H506.362V260.355H508.479C520.24 260.355 530.858 258.098 539.965 253.653C548.601 249.477 556.262 243.28 562.748 235.331C572.526 223.375 578.911 208.456 583.851 195.456L633.953 70.6758H596.721V70.7095Z" fill="url(#paint7_linear_822_874)"/>
<path d="M879.491 8.09961L808.488 162.382L737.988 9.34573L737.417 8.09961H698.337V208.253H738.19V97.3484L789.267 208.253H827.642L878.718 97.3484V208.253H918.639V8.09961H879.491Z" fill="url(#paint8_linear_822_874)"/>
<path d="M1131.38 8.09961L1060.38 162.382L989.878 9.34573L989.306 8.09961H950.226V208.253H990.079V97.3147L1040.65 207.007L1041.22 208.253H1079.53L1130.61 97.3484V208.253H1170.53V8.09961H1131.38Z" fill="url(#paint9_linear_822_874)"/>
<path d="M1379.74 31.2707C1359.92 11.4676 1332.43 0.555664 1302.35 0.555664C1272.31 0.555664 1244.82 11.4676 1225.07 31.2707C1205.24 50.9728 1194.35 78.2863 1194.35 108.227C1194.35 137.999 1205.24 165.38 1225.07 185.183C1244.89 204.885 1272.31 215.73 1302.35 215.73C1332.39 215.73 1359.88 204.885 1379.74 185.183C1399.5 165.481 1410.39 138.1 1410.39 108.227C1410.39 78.1853 1399.5 50.9055 1379.74 31.2707ZM1302.39 175.786C1262.3 175.786 1234.27 147.968 1234.27 108.227C1234.27 68.3848 1262.26 40.5661 1302.39 40.5661C1342.58 40.5661 1370.57 68.3848 1370.57 108.227C1370.57 147.968 1342.54 175.786 1302.39 175.786Z" fill="url(#paint10_linear_822_874)"/>
<defs>
<linearGradient id="paint0_linear_822_874" x1="72.8444" y1="-130.486" x2="62.5007" y2="333.445" gradientUnits="userSpaceOnUse">
<stop stop-color="#36B555"/>
<stop offset="0.901814" stop-color="#2C995E" stop-opacity="0"/>
</linearGradient>
<linearGradient id="paint1_linear_822_874" x1="249.05" y1="-129.491" x2="238.027" y2="338.082" gradientUnits="userSpaceOnUse">
<stop stop-color="#36B555"/>
<stop offset="0.901814" stop-color="#2C995E" stop-opacity="0"/>
</linearGradient>
<linearGradient id="paint2_linear_822_874" x1="408.169" y1="-38.3758" x2="401.599" y2="307.024" gradientUnits="userSpaceOnUse">
<stop stop-color="#36B555"/>
<stop offset="0.901814" stop-color="#2C995E" stop-opacity="0"/>
</linearGradient>
<linearGradient id="paint3_linear_822_874" x1="557.801" y1="-60.6576" x2="547.926" y2="378.993" gradientUnits="userSpaceOnUse">
<stop stop-color="#36B555"/>
<stop offset="0.901814" stop-color="#2C995E" stop-opacity="0"/>
</linearGradient>
<linearGradient id="paint4_linear_822_874" x1="72.8444" y1="-130.486" x2="62.5007" y2="333.445" gradientUnits="userSpaceOnUse">
<stop stop-color="#36B555"/>
<stop offset="0.901814" stop-color="#2C995E" stop-opacity="0"/>
</linearGradient>
<linearGradient id="paint5_linear_822_874" x1="249.05" y1="-129.491" x2="238.027" y2="338.082" gradientUnits="userSpaceOnUse">
<stop stop-color="#36B555"/>
<stop offset="0.901814" stop-color="#2C995E" stop-opacity="0"/>
</linearGradient>
<linearGradient id="paint6_linear_822_874" x1="408.169" y1="-38.3758" x2="401.599" y2="307.024" gradientUnits="userSpaceOnUse">
<stop stop-color="#36B555"/>
<stop offset="0.901814" stop-color="#2C995E" stop-opacity="0"/>
</linearGradient>
<linearGradient id="paint7_linear_822_874" x1="557.801" y1="-60.6576" x2="547.926" y2="378.993" gradientUnits="userSpaceOnUse">
<stop stop-color="#36B555"/>
<stop offset="0.901814" stop-color="#2C995E" stop-opacity="0"/>
</linearGradient>
<linearGradient id="paint8_linear_822_874" x1="802.046" y1="-130.486" x2="794.862" y2="333.565" gradientUnits="userSpaceOnUse">
<stop stop-color="#36B555"/>
<stop offset="0.901814" stop-color="#2C995E" stop-opacity="0"/>
</linearGradient>
<linearGradient id="paint9_linear_822_874" x1="1053.94" y1="-130.486" x2="1046.75" y2="333.565" gradientUnits="userSpaceOnUse">
<stop stop-color="#36B555"/>
<stop offset="0.901814" stop-color="#2C995E" stop-opacity="0"/>
</linearGradient>
<linearGradient id="paint10_linear_822_874" x1="1296.05" y1="-148.43" x2="1287.59" y2="350.422" gradientUnits="userSpaceOnUse">
<stop stop-color="#36B555"/>
<stop offset="0.901814" stop-color="#2C995E" stop-opacity="0"/>
</linearGradient>
</defs>
</svg>
