<svg xmlns="http://www.w3.org/2000/svg" width="18" height="19" viewBox="0 0 18 19" fill="none">
  <path d="M10.5 7.00293L10.032 6.69091C9.91687 6.86352 9.90615 7.08545 10.004 7.26835C10.102 7.45125 10.2925 7.56543 10.5 7.56543V7.00293ZM9 2.50293V1.94043C8.79817 1.94043 8.61172 2.04859 8.5116 2.22385L9 2.50293ZM3 6.81543H4.5V5.69043H3V6.81543ZM5.4375 7.75293V14.5029H6.5625V7.75293H5.4375ZM4.5 15.4404H3V16.5654H4.5V15.4404ZM2.0625 14.5029V7.75293H0.9375V14.5029H2.0625ZM3 15.4404C2.48223 15.4404 2.0625 15.0207 2.0625 14.5029H0.9375C0.9375 15.642 1.86091 16.5654 3 16.5654V15.4404ZM5.4375 14.5029C5.4375 15.0207 5.01777 15.4404 4.5 15.4404V16.5654C5.63908 16.5654 6.5625 15.642 6.5625 14.5029H5.4375ZM4.5 6.81543C5.01777 6.81543 5.4375 7.23516 5.4375 7.75293H6.5625C6.5625 6.61384 5.63908 5.69043 4.5 5.69043V6.81543ZM3 5.69043C1.86091 5.69043 0.9375 6.61384 0.9375 7.75293H2.0625C2.0625 7.23516 2.48223 6.81543 3 6.81543V5.69043ZM9.15832 16.5654H11.9077V15.4404H9.15832V16.5654ZM15.3638 13.8669L16.5797 9.00318L15.4883 8.73033L14.2724 13.5941L15.3638 13.8669ZM14.5788 6.44043H10.5V7.56543H14.5788V6.44043ZM10.968 7.31495L12.0247 5.73001L11.0886 5.10597L10.032 6.69091L10.968 7.31495ZM9.99652 1.94043H9V3.06543H9.99652V1.94043ZM8.5116 2.22385L5.61043 7.30092L6.5872 7.85906L9.4884 2.782L8.5116 2.22385ZM5.4375 7.95213V14.1015H6.5625V7.95213H5.4375ZM6.02195 15.1936L7.18221 15.9671L7.80622 15.0311L6.646 14.2575L6.02195 15.1936ZM5.4375 14.1015C5.4375 14.5404 5.65682 14.9502 6.02195 15.1936L6.646 14.2575C6.59383 14.2228 6.5625 14.1642 6.5625 14.1015H5.4375ZM16.5797 9.00318C16.9052 7.70142 15.9206 6.44043 14.5788 6.44043V7.56543C15.1888 7.56543 15.6363 8.13858 15.4883 8.73033L16.5797 9.00318ZM11.9077 16.5654C13.5424 16.5654 14.9673 15.4529 15.3638 13.8669L14.2724 13.5941C14.0011 14.6792 13.0261 15.4404 11.9077 15.4404V16.5654ZM9.15832 15.4404C8.67712 15.4404 8.20665 15.298 7.80622 15.0311L7.18221 15.9671C7.76737 16.3572 8.45497 16.5654 9.15832 16.5654V15.4404ZM12.0247 5.73001C13.1045 4.11016 11.9434 1.94043 9.99652 1.94043V3.06543C11.0448 3.06543 11.6701 4.23374 11.0886 5.10597L12.0247 5.73001ZM5.61043 7.30092C5.4971 7.49923 5.4375 7.72369 5.4375 7.95213H6.5625C6.5625 7.9195 6.57101 7.8874 6.5872 7.85906L5.61043 7.30092Z" fill="#585858"/>
</svg>