<svg xmlns="http://www.w3.org/2000/svg" width="30" height="31" viewBox="0 0 30 31" fill="none">
  <path d="M7.34471 23.7887C6.5264 23.8319 5.7081 23.7035 4.9424 23.4115C4.17671 23.1196 3.48056 22.6707 2.89871 22.0937C2.15771 21.4253 1.58006 20.5957 1.21025 19.6689C0.840441 18.742 0.688355 17.7426 0.76571 16.7477C0.880323 15.2739 1.47961 13.8796 2.47005 12.7822C3.46049 11.6849 4.78635 10.9463 6.24071 10.6817C6.91871 10.5737 6.91871 10.5737 7.04471 9.90471C7.42284 8.06413 8.42753 6.41163 9.88756 5.22883C11.3476 4.04602 13.1726 3.4061 15.0516 3.41814C16.9305 3.43017 18.7472 4.0934 20.192 5.2948C21.6367 6.49621 22.6202 8.16144 22.9747 10.0067C23.0887 10.5707 23.0887 10.5707 23.6527 10.6667C25.2062 10.917 26.6203 11.711 27.6428 12.907C28.6653 14.103 29.2298 15.6233 29.2355 17.1968C29.2413 18.7704 28.688 20.2948 27.6743 21.4982C26.6605 22.7017 25.2523 23.506 23.7007 23.7677C23.3482 23.7948 22.9942 23.7948 22.6417 23.7677V23.4467C22.6417 22.1417 22.6417 20.8367 22.6417 19.5467C22.6746 18.9575 22.485 18.3774 22.1106 17.9213C21.7361 17.4652 21.2041 17.1662 20.6197 17.0837C20.5571 17.0806 20.4982 17.0531 20.4556 17.0071C20.413 16.9612 20.3901 16.9004 20.3917 16.8377C20.2359 15.5464 19.6225 14.3536 18.6627 13.4758C17.7029 12.5979 16.4604 12.0931 15.1603 12.0528C13.8602 12.0125 12.5888 12.4395 11.5765 13.2563C10.5642 14.073 9.87814 15.2255 9.64271 16.5047C9.57371 16.8857 9.46871 17.0627 9.04271 17.1617C8.54336 17.2954 8.10387 17.594 7.79562 18.009C7.48738 18.424 7.32847 18.931 7.34471 19.4477C7.34471 20.7707 7.34471 22.0967 7.34471 23.4197V23.7887Z" fill="#6EEC97"/>
  <path d="M10.9615 18.4487V17.5097C10.9585 16.4948 11.3384 15.5161 12.0253 14.769C12.7121 14.0219 13.6555 13.5612 14.667 13.4791C15.6786 13.3969 16.6839 13.6992 17.4823 14.3256C18.2808 14.9521 18.8136 15.8566 18.9745 16.8587C19.009 17.1122 19.0271 17.3678 19.0285 17.6237C19.0285 17.8877 19.0285 18.1517 19.0285 18.4487C19.4515 18.4487 19.8445 18.4487 20.2285 18.4487C20.3619 18.4398 20.4956 18.4595 20.6207 18.5067C20.7457 18.5538 20.8593 18.6271 20.9536 18.7217C21.048 18.8164 21.121 18.9301 21.1677 19.0554C21.2144 19.1806 21.2338 19.3143 21.2245 19.4477C21.2245 21.8597 21.2245 24.2717 21.2245 26.6837C21.2328 26.8127 21.2143 26.942 21.1703 27.0636C21.1262 27.1852 21.0576 27.2963 20.9686 27.3901C20.8796 27.4839 20.7722 27.5583 20.6531 27.6086C20.534 27.659 20.4058 27.6842 20.2765 27.6827H9.92652C9.74854 27.6885 9.57066 27.6683 9.39852 27.6227C9.20888 27.5633 9.04423 27.4427 8.93027 27.2799C8.81631 27.1171 8.75943 26.9212 8.76852 26.7227C8.76852 24.2927 8.76852 21.8607 8.76852 19.4267C8.76522 19.3005 8.78764 19.175 8.83441 19.0577C8.88119 18.9405 8.95134 18.834 9.04059 18.7447C9.12985 18.6555 9.23633 18.5853 9.35357 18.5386C9.47081 18.4918 9.59634 18.4694 9.72252 18.4727C10.1245 18.4427 10.5295 18.4487 10.9615 18.4487ZM12.8425 18.4247H17.1295C17.1295 18.0677 17.1295 17.7317 17.1295 17.3957C17.1021 16.8672 16.88 16.3676 16.5061 15.9931C16.1322 15.6187 15.6329 15.3959 15.1045 15.3677C14.5801 15.3391 14.064 15.5081 13.6581 15.8413C13.2521 16.1745 12.9858 16.6478 12.9115 17.1677C12.8654 17.5851 12.8424 18.0047 12.8425 18.4247Z" fill="#33A959"/>
</svg>