<svg xmlns="http://www.w3.org/2000/svg" width="250" height="55" viewBox="0 0 250 55" fill="none">
  <path d="M70.3498 36.3574V31.0978H84.19V25.8779H70.3498V20.6316H84.7481V15.3984H65.1416V41.5773H85.1481V36.3574H70.3498Z" fill="black"/>
  <path d="M104.986 25.7813C104.529 25.3364 104.028 24.9312 103.497 24.5964C102.96 24.2484 102.393 23.9709 101.813 23.7462C100.644 23.3013 99.4091 23.0987 98.2049 23.0987C97.0006 23.0987 95.7656 23.3013 94.5965 23.733C94.0823 23.9224 93.5944 24.1559 93.1285 24.4378C93.0494 24.4819 92.9747 24.5259 92.9044 24.57C92.8912 24.57 92.8912 24.57 92.8912 24.57V15.6719H88.6279V41.2913H92.8912V40.1064C93.2911 40.4544 93.7262 40.7627 94.1921 41.0094C95.4052 41.701 96.8424 42.0578 98.4334 42.0578C99.5234 42.0578 100.569 41.8772 101.809 41.4103C102.398 41.1856 102.965 40.8949 103.501 40.5601C104.037 40.2121 104.538 39.8112 104.982 39.3663C105.896 38.4721 106.595 37.3709 107.052 36.1992C107.153 35.9216 107.254 35.7102 107.329 35.4195V35.3622C107.509 34.7279 107.619 34.0671 107.663 33.4108C107.663 33.3976 107.663 33.3976 107.663 33.3888C107.685 33.1201 107.698 32.8425 107.698 32.5738C107.698 31.3669 107.496 30.1203 107.043 28.9485C106.6 27.7812 105.896 26.6844 104.986 25.7813ZM103.202 34.7103C102.947 35.3578 102.569 35.9481 102.077 36.4282C101.598 36.9084 101.009 37.2784 100.341 37.5339C99.686 37.7805 98.9608 37.9039 98.2049 37.9039C97.4489 37.8907 96.7237 37.7717 96.0688 37.5118C95.4228 37.2564 94.8338 36.8775 94.3635 36.3974C94.1745 36.208 94.0075 36.0053 93.8625 35.7851C93.6164 35.4503 93.4186 35.0803 93.2736 34.6926C93.0186 34.0451 92.8956 33.3315 92.8956 32.5827C92.8956 31.8338 93.0186 31.1202 93.2648 30.4727C93.3307 30.3053 93.3966 30.1379 93.4889 29.9837C93.7131 29.5256 94.0031 29.1115 94.3591 28.7547C94.8382 28.2746 95.4184 27.8957 96.0732 27.6402C96.3941 27.5081 96.7545 27.4156 97.1105 27.3495C97.4665 27.2834 97.8357 27.2482 98.2137 27.2482C98.9696 27.2482 99.6948 27.3715 100.363 27.627C101.018 27.8737 101.611 28.2525 102.099 28.7327C102.587 29.2128 102.969 29.7943 103.211 30.4506C103.466 31.107 103.602 31.8338 103.602 32.5827C103.593 33.3271 103.457 34.0495 103.202 34.7103Z" fill="black"/>
  <path d="M124.533 23.9182C122.753 22.9579 120.714 22.8125 119.659 22.8125C117.431 22.8125 115.497 23.3191 114.068 24.275C112.354 25.4335 111.409 27.1867 111.409 29.213V29.4905H116.231V29.213C116.231 27.5258 119.518 27.5082 119.659 27.5082C122.16 27.5082 122.823 28.3055 122.823 28.724C122.823 28.7989 122.823 29.0015 122.015 29.1997C121.25 29.3759 120.279 29.4684 119.246 29.561L119.048 29.5786C117.259 29.746 115.409 29.9178 113.809 30.5829C112.728 31.0366 111.875 31.6842 111.269 32.5035C110.957 32.922 110.706 33.3933 110.526 33.9043C110.319 34.4769 110.209 35.1157 110.196 35.8072V35.9306C110.196 40.0713 113.761 42.3002 117.11 42.3002C119.624 42.3002 121.5 41.7848 122.823 40.7276V41.5646H127.654V28.909C127.649 26.7682 126.542 24.9974 124.533 23.9182ZM122.819 33.9748V34.1377C122.819 35.631 122.23 36.2345 121.786 36.5561C120.96 37.1508 119.646 37.4635 117.984 37.4635C117.488 37.4635 115.013 37.393 115.013 36.0231C115.013 34.7897 117.91 34.5386 119.299 34.4153L119.668 34.3844C120.723 34.2875 121.813 34.1862 122.819 33.9748Z" fill="black"/>
  <path d="M143.08 23.5874L138.535 34.8818L134.004 23.5874H129.13L135.907 40.4453C135.573 41.1017 135.23 41.6435 134.896 42.0576C134.044 43.1104 133.037 43.5597 131.538 43.5597H131.262V48.3919H131.538C133.077 48.3919 134.466 48.0968 135.657 47.5154C136.786 46.9691 137.788 46.1586 138.636 45.119C139.915 43.5553 140.751 41.6038 141.397 39.9035L147.95 23.583H143.08V23.5874Z" fill="black"/>
  <path d="M70.3537 36.3574V31.0978H84.1939V25.8779H70.3537V20.6316H84.7521V15.3984H65.1455V41.5773H85.152V36.3574H70.3537Z" fill="url(#paint0_linear_356_3769)"/>
  <path d="M104.988 25.7813C104.531 25.3364 104.03 24.9312 103.499 24.5964C102.962 24.2484 102.395 23.9709 101.815 23.7462C100.646 23.3013 99.4111 23.0987 98.2068 23.0987C97.0026 23.0987 95.7675 23.3013 94.5984 23.733C94.0842 23.9224 93.5963 24.1559 93.1305 24.4378C93.0514 24.4819 92.9766 24.5259 92.9063 24.57C92.8931 24.57 92.8931 24.57 92.8931 24.57V15.6719H88.6299V41.2913H92.8931V40.1064C93.2931 40.4544 93.7282 40.7627 94.1941 41.0094C95.4071 41.701 96.8443 42.0578 98.4354 42.0578C99.5253 42.0578 100.571 41.8772 101.811 41.4103C102.4 41.1856 102.967 40.8949 103.503 40.5601C104.039 40.2121 104.54 39.8112 104.984 39.3663C105.898 38.4721 106.597 37.3709 107.054 36.1992C107.155 35.9216 107.256 35.7102 107.331 35.4195V35.3622C107.511 34.7279 107.621 34.0671 107.665 33.4108C107.665 33.3976 107.665 33.3976 107.665 33.3888C107.687 33.1201 107.7 32.8425 107.7 32.5738C107.7 31.3669 107.498 30.1203 107.045 28.9485C106.601 27.7812 105.898 26.6844 104.988 25.7813ZM103.204 34.7103C102.949 35.3578 102.571 35.9481 102.079 36.4282C101.6 36.9084 101.011 37.2784 100.343 37.5339C99.688 37.7805 98.9628 37.9039 98.2068 37.9039C97.4509 37.8907 96.7257 37.7717 96.0708 37.5118C95.4247 37.2564 94.8358 36.8775 94.3655 36.3974C94.1765 36.208 94.0095 36.0053 93.8644 35.7851C93.6183 35.4503 93.4205 35.0803 93.2755 34.6926C93.0206 34.0451 92.8975 33.3315 92.8975 32.5827C92.8975 31.8338 93.0206 31.1202 93.2667 30.4727C93.3326 30.3053 93.3986 30.1379 93.4909 29.9837C93.715 29.5256 94.0051 29.1115 94.3611 28.7547C94.8402 28.2746 95.4203 27.8957 96.0752 27.6402C96.396 27.5081 96.7564 27.4156 97.1124 27.3495C97.4684 27.2834 97.8376 27.2482 98.2156 27.2482C98.9716 27.2482 99.6968 27.3715 100.365 27.627C101.02 27.8737 101.613 28.2525 102.101 28.7327C102.589 29.2128 102.971 29.7943 103.213 30.4506C103.468 31.107 103.604 31.8338 103.604 32.5827C103.595 33.3271 103.459 34.0495 103.204 34.7103Z" fill="url(#paint1_linear_356_3769)"/>
  <path d="M124.541 23.9182C122.761 22.9579 120.722 22.8125 119.667 22.8125C117.438 22.8125 115.505 23.3191 114.076 24.275C112.362 25.4335 111.417 27.1867 111.417 29.213V29.4905H116.239V29.213C116.239 27.5258 119.526 27.5082 119.667 27.5082C122.168 27.5082 122.831 28.3055 122.831 28.724C122.831 28.7989 122.831 29.0015 122.023 29.1997C121.258 29.3759 120.286 29.4684 119.254 29.561L119.056 29.5786C117.267 29.746 115.417 29.9178 113.817 30.5829C112.736 31.0366 111.883 31.6842 111.277 32.5035C110.964 32.922 110.714 33.3933 110.534 33.9043C110.327 34.4769 110.217 35.1157 110.204 35.8072V35.9306C110.204 40.0713 113.769 42.3002 117.118 42.3002C119.632 42.3002 121.508 41.7848 122.831 40.7276V41.5646H127.661V28.909C127.657 26.7682 126.549 24.9974 124.541 23.9182ZM122.827 33.9748V34.1377C122.827 35.631 122.238 36.2345 121.794 36.5561C120.968 37.1508 119.654 37.4635 117.992 37.4635C117.496 37.4635 115.021 37.393 115.021 36.0231C115.021 34.7897 117.917 34.5386 119.306 34.4153L119.676 34.3844C120.73 34.2875 121.82 34.1862 122.827 33.9748Z" fill="url(#paint2_linear_356_3769)"/>
  <path d="M143.08 23.5874L138.535 34.8818L134.004 23.5874H129.13L135.907 40.4453C135.573 41.1017 135.23 41.6435 134.896 42.0576C134.044 43.1104 133.037 43.5597 131.538 43.5597H131.262V48.3919H131.538C133.077 48.3919 134.466 48.0968 135.657 47.5154C136.786 46.9691 137.788 46.1586 138.636 45.119C139.915 43.5553 140.751 41.6038 141.397 39.9035L147.95 23.583H143.08V23.5874Z" fill="url(#paint3_linear_356_3769)"/>
  <path d="M180.062 15.3984L170.775 35.5777L161.554 15.5614L161.48 15.3984H156.368V41.5773H161.581V27.0717L168.261 41.5773H173.281L179.961 27.0717V41.5773H185.182V15.3984H180.062Z" fill="#F15959"/>
  <path d="M213.011 15.3984L203.725 35.5777L194.504 15.5614L194.429 15.3984H189.317V41.5773H194.53V27.0673L201.145 41.4143L201.219 41.5773H206.23L212.91 27.0717V41.5773H218.132V15.3984H213.011Z" fill="#F15959"/>
  <path d="M245.493 18.4295C242.9 15.8393 239.305 14.4121 235.371 14.4121C231.442 14.4121 227.847 15.8393 225.262 18.4295C222.669 21.0064 221.245 24.5788 221.245 28.4949C221.245 32.3889 222.669 35.9702 225.262 38.5603C227.855 41.1372 231.442 42.5556 235.371 42.5556C239.3 42.5556 242.895 41.1372 245.493 38.5603C248.077 35.9834 249.501 32.4021 249.501 28.4949C249.501 24.5656 248.077 20.9976 245.493 18.4295ZM235.375 37.3313C230.132 37.3313 226.466 33.6928 226.466 28.4949C226.466 23.2838 230.128 19.6452 235.375 19.6452C240.632 19.6452 244.293 23.2838 244.293 28.4949C244.293 33.6928 240.628 37.3313 235.375 37.3313Z" fill="#F15959"/>
  <path d="M24.5897 28.7989C25.016 28.7989 25.4379 28.7813 25.8511 28.7417C30.7077 28.2879 35.0324 25.2089 37.1377 20.7025C37.4497 20.033 37.2388 19.2225 36.6454 18.826C36.285 18.5837 35.8411 18.5133 35.428 18.6278C35.0149 18.7423 34.672 19.0331 34.4918 19.4251C32.8305 23.0064 29.4155 25.4511 25.5786 25.8123C21.034 26.2396 16.6082 23.6979 14.5689 19.4868C14.2216 18.7688 13.4261 18.4119 12.7273 18.6586C12.3317 18.7996 12.0153 19.0991 11.8571 19.4824C11.6989 19.8656 11.7076 20.3061 11.8878 20.6805C14.2348 25.6141 19.2189 28.7989 24.5897 28.7989Z" fill="#F15959"/>
  <path d="M60.4066 1.55799C60.3055 1.17475 60.0638 0.857591 59.7253 0.659366C59.3825 0.461142 58.9914 0.403877 58.6134 0.505192L50.1572 2.72971C49.1024 3.00723 48.2717 3.83537 47.9904 4.89257L46.5444 10.3636C46.5005 10.3636 46.4565 10.3592 46.417 10.3592H2.93626C2.1759 10.3592 1.47269 10.7072 1.0112 11.3062C0.540925 11.9097 0.387097 12.6806 0.580481 13.4162L6.40839 35.8641C6.68967 36.9389 7.65659 37.6878 8.76416 37.6878H40.8836C41.3011 37.6878 41.6791 37.93 41.8593 38.3045C42.101 38.8066 42.2109 39.3617 42.1757 39.9255C42.0702 41.6787 40.5539 43.053 38.7168 43.053H4.02624C3.28347 43.053 2.63739 43.5772 2.51872 44.2688C2.4484 44.7049 2.56707 45.141 2.84396 45.4714C3.12524 45.8062 3.53399 45.9956 3.9691 45.9956H11.388C10.9309 47.044 10.7771 48.1893 10.9441 49.3478C11.3309 52.0172 13.5548 54.1845 16.2358 54.5016C16.4732 54.5281 16.7105 54.5413 16.9478 54.5413C18.4378 54.5413 19.8838 53.9995 21.0045 52.9995C22.3055 51.841 23.0526 50.1803 23.0526 48.4448C23.0526 47.599 22.8768 46.762 22.5384 45.9956H29.5178C29.0563 47.0396 28.9025 48.1893 29.0739 49.3478C29.4563 52.0216 31.6846 54.1889 34.3656 54.5016C36.1017 54.7043 37.8422 54.158 39.1343 52.9995C40.4353 51.841 41.178 50.1803 41.178 48.4448C41.178 47.5065 40.9671 46.5903 40.5627 45.7577C41.7802 45.4141 42.8833 44.6917 43.7008 43.6874C44.6282 42.5553 45.116 41.1853 45.116 39.7273C45.116 37.9432 44.3645 36.2605 43.0416 35.0712L47.8498 16.8874L47.8937 16.8389V16.7288L50.5088 6.866C50.7154 6.08192 51.3351 5.46522 52.1174 5.25818L59.3562 3.35082C60.1385 3.14819 60.6088 2.34207 60.4066 1.55799ZM18.952 50.8895C18.218 51.4886 17.2511 51.7265 16.3105 51.5327C15.0448 51.2772 14.0295 50.1935 13.8449 48.9073C13.6911 47.7928 14.1218 46.6916 14.9832 45.9956H18.9476C19.6816 46.5903 20.1167 47.4933 20.1167 48.4448C20.1167 49.3918 19.6904 50.2816 18.952 50.8895ZM37.0906 50.8807C36.361 51.4842 35.3985 51.7221 34.4579 51.5371C33.1877 51.2904 32.1681 50.2156 31.9791 48.9249C31.8121 47.8016 32.2472 46.6916 33.1174 45.9956H37.073C37.807 46.5903 38.2421 47.4933 38.2421 48.4448C38.2421 49.3874 37.8246 50.2772 37.0906 50.8807ZM42.3339 26.2524L40.0836 34.7452H9.15093L3.58673 13.3061H45.7665L42.3339 26.2524Z" fill="url(#paint4_linear_356_3769)"/>
  <defs>
    <linearGradient id="paint0_linear_356_3769" x1="65.1442" y1="31.8974" x2="147.946" y2="31.8974" gradientUnits="userSpaceOnUse">
      <stop stop-color="#36B555"/>
      <stop offset="0.3736" stop-color="#35AB58"/>
      <stop offset="1" stop-color="#2C995E"/>
    </linearGradient>
    <linearGradient id="paint1_linear_356_3769" x1="65.1412" y1="31.8978" x2="147.943" y2="31.8978" gradientUnits="userSpaceOnUse">
      <stop stop-color="#36B555"/>
      <stop offset="0.3736" stop-color="#35AB58"/>
      <stop offset="1" stop-color="#2C995E"/>
    </linearGradient>
    <linearGradient id="paint2_linear_356_3769" x1="65.1443" y1="31.8979" x2="147.946" y2="31.8979" gradientUnits="userSpaceOnUse">
      <stop stop-color="#36B555"/>
      <stop offset="0.3736" stop-color="#35AB58"/>
      <stop offset="1" stop-color="#2C995E"/>
    </linearGradient>
    <linearGradient id="paint3_linear_356_3769" x1="65.1403" y1="31.8975" x2="147.942" y2="31.8975" gradientUnits="userSpaceOnUse">
      <stop stop-color="#36B555"/>
      <stop offset="0.3736" stop-color="#35AB58"/>
      <stop offset="1" stop-color="#2C995E"/>
    </linearGradient>
    <linearGradient id="paint4_linear_356_3769" x1="0.496974" y1="27.5002" x2="60.4514" y2="27.5002" gradientUnits="userSpaceOnUse">
      <stop offset="1.33195e-07" stop-color="#2C995E"/>
      <stop offset="0.750034" stop-color="#36B555"/>
    </linearGradient>
  </defs>
</svg>