<svg xmlns="http://www.w3.org/2000/svg" width="20" height="21" viewBox="0 0 20 21" fill="none">
  <path fill-rule="evenodd" clip-rule="evenodd" d="M17.2904 4.21452C17.2904 2.94887 16.2644 1.92285 14.9987 1.92285H9.9987C8.73303 1.92285 7.70703 2.94887 7.70703 4.21452V5.04785C7.70703 5.39303 7.98686 5.67285 8.33203 5.67285C8.6772 5.67285 8.95703 5.39303 8.95703 5.04785V4.21452C8.95703 3.63922 9.42336 3.17285 9.9987 3.17285H14.9987C15.574 3.17285 16.0404 3.63922 16.0404 4.21452V15.8812C16.0404 16.4565 15.574 16.9229 14.9987 16.9229H9.9987C9.42336 16.9229 8.95703 16.4565 8.95703 15.8812V15.0479C8.95703 14.7027 8.6772 14.4229 8.33203 14.4229C7.98686 14.4229 7.70703 14.7027 7.70703 15.0479V15.8812C7.70703 17.1469 8.73303 18.1729 9.9987 18.1729H14.9987C16.2644 18.1729 17.2904 17.1469 17.2904 15.8812V4.21452Z" fill="#40C96D" stroke="#40C96D" stroke-width="0.25"/>
  <path d="M10.4406 6.68892C10.1965 6.44484 9.80086 6.44484 9.55678 6.68892C9.3127 6.93299 9.3127 7.32872 9.55678 7.5728L11.4064 9.42252H3.33203C2.98686 9.42252 2.70703 9.70236 2.70703 10.0475C2.70703 10.3927 2.98686 10.6725 3.33203 10.6725H11.4064L9.55678 12.5223C9.3127 12.7664 9.3127 13.162 9.55678 13.4061C9.80086 13.6502 10.1965 13.6502 10.4406 13.4061L12.768 11.0787C13.3375 10.5092 13.3375 9.58586 12.768 9.01636L10.4406 6.68892Z" fill="#40C96D" stroke="#40C96D" stroke-width="0.25"/>
</svg>