<svg width="30" height="31" viewBox="0 0 30 31" fill="none" xmlns="http://www.w3.org/2000/svg">
<path d="M5.55414 9.28316C5.42284 9.49223 5.50855 9.75981 5.71846 9.88974L14.4791 15.313C14.7983 15.5106 15.2019 15.5106 15.5211 15.313L24.282 9.88965C24.4919 9.75971 24.5776 9.49212 24.4462 9.28305C23.921 8.44663 22.9902 7.89062 21.9296 7.89062H8.07089C7.01023 7.89062 6.07944 8.44667 5.55414 9.28316Z" fill="black"/>
<path d="M24.8992 12.7243C24.8992 12.3365 24.4735 12.0993 24.1437 12.3034L16.5632 16.9962C15.6054 17.589 14.3946 17.589 13.4369 16.9962L5.85655 12.3035C5.52681 12.0994 5.10107 12.3366 5.10107 12.7244V20.7592C5.10107 22.3994 6.43067 23.7289 8.0708 23.7289H21.9295C23.5697 23.7289 24.8992 22.3994 24.8992 20.7592V12.7243Z" fill="black"/>
</svg>
