<svg xmlns="http://www.w3.org/2000/svg" width="20" height="21" viewBox="0 0 20 21" fill="none">
  <g clip-path="url(#clip0_6603_18834)">
    <path d="M10.2647 0.360352C10.3941 0.386752 10.5222 0.419674 10.6483 0.45899C10.9443 0.533015 11.2186 0.675802 11.449 0.875754C11.6794 1.07571 11.8594 1.32719 11.9744 1.60977C11.9871 1.65702 12.016 1.6983 12.0561 1.72635C12.0962 1.75441 12.1449 1.76746 12.1936 1.76321C12.5663 1.76321 12.9389 1.76321 13.2896 1.76321C13.3879 1.75235 13.4872 1.75235 13.5855 1.76321C13.6805 1.77686 13.7666 1.82664 13.8258 1.90218C13.885 1.97773 13.9128 2.0732 13.9034 2.16872V2.89207H15.5364C15.7543 2.88982 15.9716 2.91561 16.183 2.96879C16.6044 3.06713 16.9806 3.30433 17.2509 3.64226C17.5212 3.98019 17.6701 4.39921 17.6735 4.83196V17.9837C17.6643 18.412 17.5025 18.8229 17.2171 19.1424C16.9318 19.4619 16.5417 19.669 16.1172 19.7263C15.9603 19.7376 15.8029 19.7376 15.646 19.7263H4.39023C3.96388 19.7328 3.54491 19.6147 3.18465 19.3866C2.93152 19.2456 2.71952 19.0411 2.5696 18.7931C2.41969 18.5452 2.33703 18.2624 2.32979 17.9728V4.94155C2.31851 4.66852 2.36471 4.39615 2.46541 4.14212C2.56611 3.88808 2.71906 3.65803 2.91435 3.46687C3.10963 3.27572 3.3429 3.12772 3.59904 3.03248C3.85517 2.93724 4.12846 2.89687 4.40119 2.91399H6.06709V2.2564C6.06709 1.9276 6.1986 1.78513 6.5274 1.77417C6.85619 1.76321 7.34938 1.77417 7.76586 1.77417C7.81211 1.78086 7.85919 1.76993 7.89776 1.74354C7.93634 1.71715 7.96358 1.67723 7.97409 1.63169C8.11207 1.3125 8.32777 1.03294 8.60154 0.818525C8.8753 0.604111 9.1984 0.461666 9.54135 0.404191H9.61807L10.2647 0.360352ZM13.9582 3.85653V4.78812C13.9582 5.23747 13.7828 5.41283 13.3225 5.41283H6.71372C6.26436 5.41283 6.09997 5.24843 6.09997 4.78812V3.85653H5.96845C5.39854 3.85653 4.87247 3.85653 4.25872 3.85653C4.12463 3.86471 3.99358 3.89988 3.87342 3.95995C3.75327 4.02002 3.64649 4.10375 3.55949 4.2061C3.47248 4.30845 3.40706 4.42733 3.36713 4.55559C3.3272 4.68386 3.3136 4.81886 3.32713 4.95251V17.9399C3.31113 18.135 3.36526 18.3293 3.47978 18.488C3.59429 18.6468 3.76169 18.7594 3.95184 18.8057C4.12011 18.8492 4.29317 18.8713 4.46695 18.8715H15.8432C15.9668 18.8692 16.0884 18.8412 16.2005 18.7892C16.3125 18.7372 16.4125 18.6624 16.494 18.5695C16.5755 18.4767 16.6367 18.3679 16.6738 18.25C16.7108 18.1321 16.7228 18.0079 16.7091 17.8851V4.83196C16.7052 4.58917 16.6129 4.35613 16.4494 4.17655C16.286 3.99697 16.0627 3.88319 15.8213 3.85653C15.2076 3.82365 14.5829 3.85653 13.9582 3.85653ZM7.00963 4.52508H12.9937V2.68383H11.8429C11.7692 2.69621 11.6938 2.69339 11.6212 2.67553C11.5486 2.65767 11.4805 2.62516 11.4209 2.57999C11.3614 2.53482 11.3117 2.47796 11.275 2.41288C11.2382 2.34781 11.2152 2.27591 11.2072 2.2016C11.1336 1.91127 10.9607 1.65586 10.7185 1.47969C10.4762 1.30353 10.18 1.21771 9.8811 1.23714C9.60526 1.263 9.34426 1.37391 9.13418 1.55454C8.9241 1.73516 8.77532 1.97659 8.7084 2.24544C8.70031 2.31188 8.67907 2.37604 8.64592 2.43418C8.61278 2.49232 8.56838 2.54328 8.51533 2.58409C8.46229 2.6249 8.40164 2.65473 8.33694 2.67186C8.27224 2.68898 8.20478 2.69305 8.13849 2.68383H7.04251L7.00963 4.52508Z" fill="#40C96D" stroke="#40C96D" stroke-width="0.25"/>
    <path d="M12.1948 7.99924H14.7922C14.9043 7.98674 15.0172 8.01387 15.1113 8.07594C15.2054 8.13801 15.2747 8.23109 15.3074 8.339C15.3235 8.40027 15.3268 8.46421 15.3171 8.52683C15.3074 8.58944 15.2848 8.64937 15.2509 8.70287C15.2169 8.75637 15.1723 8.80228 15.1198 8.83773C15.0673 8.87319 15.008 8.89742 14.9457 8.90891H14.7046H9.50961C9.39236 8.90322 9.28198 8.85187 9.2021 8.76584C9.12222 8.67982 9.07918 8.56595 9.08218 8.44859C9.08204 8.33022 9.12752 8.21634 9.20916 8.13061C9.2908 8.04489 9.40233 7.99392 9.52057 7.98828H12.1948V7.99924Z" fill="#40C96D" stroke="#40C96D" stroke-width="0.25"/>
    <path d="M12.1927 16.3292H9.62807C9.29928 16.3292 9.102 16.1758 9.08008 15.9127C9.06956 15.7976 9.10171 15.6827 9.17041 15.5897C9.23912 15.4968 9.33959 15.4323 9.45272 15.4086H14.7901C14.8538 15.401 14.9183 15.4065 14.9798 15.4247C15.0412 15.4429 15.0983 15.4735 15.1476 15.5145C15.1968 15.5555 15.2372 15.6062 15.2662 15.6634C15.2952 15.7205 15.3122 15.783 15.3162 15.847C15.3258 15.9582 15.2926 16.0689 15.2233 16.1565C15.1541 16.2441 15.054 16.3019 14.9436 16.3182C14.8636 16.3296 14.7824 16.3296 14.7025 16.3182L12.1927 16.3292Z" fill="#40C96D" stroke="#40C96D" stroke-width="0.25"/>
    <path d="M12.1948 12.6245H9.58637C9.5214 12.6307 9.45586 12.6231 9.39407 12.6021C9.33229 12.5811 9.27568 12.5471 9.228 12.5026C9.18033 12.458 9.14267 12.4038 9.11754 12.3436C9.0924 12.2833 9.08036 12.2185 9.08222 12.1532C9.0819 12.0424 9.12355 11.9356 9.19878 11.8543C9.27402 11.773 9.37725 11.7231 9.48773 11.7148H14.7923C14.9141 11.6991 15.0372 11.7315 15.1355 11.8052C15.2338 11.8789 15.2994 11.988 15.3184 12.1094C15.3267 12.1786 15.3195 12.2488 15.2974 12.3149C15.2754 12.381 15.2389 12.4413 15.1907 12.4917C15.1425 12.542 15.0837 12.581 15.0186 12.6058C14.9535 12.6307 14.8837 12.6408 14.8142 12.6355H12.1948V12.6245Z" fill="#40C96D" stroke="#40C96D" stroke-width="0.25"/>
    <path d="M6.13378 12.0544L7.4928 10.7611C7.58455 10.6775 7.69283 10.614 7.81064 10.5748C7.90955 10.5522 8.01321 10.5637 8.10475 10.6075C8.19629 10.6512 8.27032 10.7247 8.31479 10.8159C8.36887 10.9033 8.38872 11.0077 8.37051 11.1088C8.3523 11.21 8.29732 11.3008 8.21615 11.3639C7.70104 11.8681 7.17497 12.3613 6.6489 12.8544C6.57019 12.9368 6.48597 13.0137 6.39682 13.0846C6.35697 13.1257 6.30928 13.1584 6.25656 13.1807C6.20385 13.203 6.14719 13.2145 6.08995 13.2145C6.0327 13.2145 5.97604 13.203 5.92333 13.1807C5.87061 13.1584 5.82292 13.1257 5.78307 13.0846C5.46524 12.7668 5.1474 12.4489 4.82957 12.1092C4.78582 12.0663 4.75107 12.0152 4.72735 11.9587C4.70363 11.9022 4.69141 11.8416 4.69141 11.7804C4.69141 11.7191 4.70363 11.6585 4.72735 11.6021C4.75107 11.5456 4.78582 11.4944 4.82957 11.4516C4.87162 11.4064 4.92251 11.3705 4.97908 11.3458C5.03564 11.3212 5.09667 11.3085 5.15836 11.3085C5.22005 11.3085 5.28108 11.3212 5.33765 11.3458C5.39421 11.3705 5.44511 11.4064 5.48716 11.4516L6.13378 12.0544Z" fill="#40C96D" stroke="#40C96D" stroke-width="0.25"/>
    <path d="M6.12263 8.36061L7.36109 7.18791L7.56932 6.99063C7.61312 6.94656 7.6652 6.91158 7.72257 6.88772C7.77994 6.86385 7.84146 6.85156 7.9036 6.85156C7.96573 6.85156 8.02725 6.86385 8.08462 6.88772C8.14199 6.91158 8.19407 6.94656 8.23787 6.99063C8.28129 7.03254 8.31583 7.08277 8.33942 7.13832C8.363 7.19387 8.37516 7.2536 8.37516 7.31395C8.37516 7.3743 8.363 7.43403 8.33942 7.48958C8.31583 7.54512 8.28129 7.59535 8.23787 7.63726L6.40758 9.36891C6.36853 9.417 6.31925 9.45578 6.26332 9.48241C6.20739 9.50904 6.14622 9.52286 6.08427 9.52286C6.02232 9.52286 5.96115 9.50904 5.90522 9.48241C5.84929 9.45578 5.8 9.417 5.76095 9.36891L4.85129 8.42637C4.80322 8.38033 4.76496 8.32504 4.73883 8.26382C4.71269 8.20261 4.69922 8.13674 4.69922 8.07017C4.69922 8.00361 4.71269 7.93774 4.73883 7.87653C4.76496 7.81531 4.80322 7.76002 4.85129 7.71398C4.90185 7.67311 4.96015 7.64288 5.02269 7.62511C5.08523 7.60734 5.15072 7.6024 5.21522 7.6106C5.27972 7.61879 5.34189 7.63993 5.39801 7.67277C5.45412 7.7056 5.50302 7.74944 5.54176 7.80166L6.12263 8.36061Z" fill="#40C96D" stroke="#40C96D" stroke-width="0.25"/>
    <path d="M6.11983 15.7694L7.52269 14.4652C7.59124 14.3817 7.68701 14.3249 7.79321 14.3049C7.89941 14.2848 8.00928 14.3028 8.10356 14.3556C8.17014 14.385 8.22837 14.4304 8.273 14.4878C8.31764 14.5453 8.34727 14.613 8.35923 14.6847C8.37119 14.7565 8.3651 14.8301 8.34152 14.8989C8.31793 14.9678 8.27758 15.0296 8.22412 15.079L6.39383 16.7777C6.35375 16.8223 6.30473 16.858 6.24998 16.8824C6.19522 16.9068 6.13594 16.9194 6.07599 16.9194C6.01605 16.9194 5.95677 16.9068 5.90201 16.8824C5.84726 16.858 5.79824 16.8223 5.75816 16.7777L4.85946 15.8571C4.80933 15.8159 4.76847 15.7646 4.73958 15.7065C4.71068 15.6484 4.69439 15.5848 4.69178 15.52C4.68917 15.4552 4.70029 15.3905 4.72442 15.3303C4.74855 15.2701 4.78514 15.2156 4.83179 15.1705C4.87844 15.1254 4.9341 15.0907 4.99511 15.0686C5.05613 15.0466 5.12112 15.0376 5.18583 15.0424C5.25053 15.0472 5.31349 15.0657 5.37057 15.0965C5.42765 15.1274 5.47757 15.1699 5.51704 15.2214L6.11983 15.7694Z" fill="#40C96D" stroke="#40C96D" stroke-width="0.25"/>
  </g>
  <defs>
    <clipPath id="clip0_6603_18834">
      <rect width="20" height="20" fill="white" transform="translate(0 0.0478516)"/>
    </clipPath>
  </defs>
</svg>