<svg xmlns="http://www.w3.org/2000/svg" width="70" height="70" viewBox="0 0 70 70" fill="none">
  <path d="M31.227 19.3693C31.227 21.7703 31.227 24.1783 31.227 26.5793C31.22 29.4003 29.4 31.2273 26.6 31.2273H12.096C11.4784 31.2698 10.8588 31.1794 10.279 30.9622C9.69922 30.7451 9.17271 30.4062 8.73493 29.9684C8.29715 29.5306 7.95826 29.0041 7.74111 28.4243C7.52395 27.8446 7.43356 27.225 7.47603 26.6073C7.47603 21.7633 7.47603 16.917 7.47603 12.0683C7.43804 11.4557 7.53085 10.8421 7.74828 10.2681C7.96572 9.69413 8.30279 9.173 8.73712 8.73933C9.17146 8.30566 9.6931 7.96938 10.2674 7.75283C10.8417 7.53627 11.4555 7.4444 12.068 7.48331H26.663C27.2717 7.44769 27.881 7.54133 28.4509 7.75809C29.0207 7.97485 29.5383 8.30981 29.9694 8.74094C30.4005 9.17207 30.7355 9.68959 30.9522 10.2595C31.169 10.8293 31.2627 11.4386 31.227 12.0473C31.234 14.4833 31.227 16.9263 31.227 19.3693Z" fill="#33A959"/>
  <path d="M61.257 19.3549C61.257 21.7559 61.257 24.1569 61.257 26.5649C61.257 29.4419 59.458 31.2269 56.567 31.2269H42.203C39.305 31.2269 37.506 29.4419 37.506 26.5649C37.506 21.7209 37.506 16.8769 37.506 12.0329C37.4535 10.9926 37.7789 9.9683 38.4221 9.14889C39.0653 8.32948 39.9829 7.77014 41.006 7.57393C41.4101 7.50166 41.8206 7.47116 42.231 7.48293H56.56C59.479 7.48293 61.25 9.26793 61.257 12.2009V19.3549Z" fill="#33A959"/>
  <path d="M31.2271 49.4065C31.2271 51.7935 31.2271 54.1735 31.2271 56.5605C31.2271 59.4515 29.4351 61.2505 26.5651 61.2505C21.7537 61.2505 16.9447 61.2505 12.1381 61.2505C9.26107 61.2505 7.47607 59.4515 7.47607 56.5605C7.47607 51.7725 7.47607 46.9868 7.47607 42.2035C7.47607 39.3055 9.26107 37.5065 12.1381 37.5065H26.6771C27.7174 37.454 28.7417 37.7794 29.5611 38.4226C30.3805 39.0658 30.9399 39.9834 31.1361 41.0065C31.2051 41.4086 31.2356 41.8165 31.2271 42.2244C31.2341 44.6044 31.2271 47.0055 31.2271 49.4065Z" fill="#33A959"/>
  <path d="M49.3641 36.253C49.9454 36.2493 50.5218 36.3606 51.06 36.5804C51.5982 36.8002 52.0876 37.1243 52.5001 37.534C55.4261 40.446 58.3521 43.351 61.2501 46.291C61.6626 46.6916 61.9906 47.1709 62.2146 47.7006C62.4385 48.2303 62.554 48.7995 62.554 49.3745C62.554 49.9496 62.4385 50.5188 62.2146 51.0484C61.9906 51.5781 61.6626 52.0574 61.2501 52.458C58.3614 55.398 55.4447 58.3147 52.5001 61.208C52.0984 61.6262 51.6163 61.9589 51.0828 62.1861C50.5493 62.4134 49.9755 62.5306 49.3956 62.5306C48.8157 62.5306 48.2418 62.4134 47.7084 62.1861C47.1749 61.9589 46.6928 61.6262 46.2911 61.208C43.3511 58.3147 40.4414 55.412 37.5621 52.5C37.1383 52.0972 36.8008 51.6124 36.5702 51.0751C36.3396 50.5378 36.2207 49.9592 36.2207 49.3745C36.2207 48.7898 36.3396 48.2112 36.5702 47.6739C36.8008 47.1366 37.1383 46.6518 37.5621 46.249C40.4367 43.351 43.3254 40.4624 46.2281 37.583C46.6367 37.1648 47.1244 36.8319 47.6627 36.6036C48.201 36.3752 48.7793 36.2561 49.3641 36.253Z" fill="#6EEC97"/>
</svg>