<svg width="20" height="21" viewBox="0 0 20 21" fill="none" xmlns="http://www.w3.org/2000/svg">
<g id="Frame 1000006753">
<g id="Group">
<g id="Group 14">
<path id="Vector" d="M3.90237 17.5561C3.71082 17.4884 3.50479 17.4461 3.33048 17.3477C2.77349 17.0336 2.49655 16.5416 2.49577 15.9024C2.49342 14.0257 2.49499 12.1491 2.49499 10.2729C2.49499 9.04134 2.49264 7.80984 2.49577 6.57833C2.49812 5.80237 2.99754 5.16664 3.74138 4.99077C3.87299 4.95982 4.01204 4.94729 4.14757 4.94729C6.26315 4.94455 8.37872 4.94533 10.4943 4.94572C10.7951 4.94572 10.9941 5.11807 10.9976 5.37934C11.0012 5.64569 10.799 5.82509 10.4916 5.82548C8.39556 5.82587 6.29957 5.82548 4.20358 5.82587C3.66265 5.82587 3.37475 6.11573 3.37475 6.6602C3.37475 9.72447 3.37475 12.7884 3.37475 15.8526C3.37475 16.3846 3.66735 16.6772 4.19888 16.6772C7.26707 16.6772 10.3357 16.6772 13.4038 16.6772C13.9268 16.6772 14.2233 16.3822 14.2233 15.8628C14.2237 13.7762 14.2233 11.6892 14.2237 9.60265C14.2237 9.5392 14.2201 9.47417 14.2315 9.41268C14.2734 9.19097 14.4795 9.03508 14.6984 9.05309C14.9205 9.0715 15.0936 9.25247 15.1015 9.48201C15.1066 9.6332 15.1027 9.78479 15.1027 9.93638C15.1027 11.9105 15.0932 13.8851 15.1066 15.8593C15.1132 16.8205 14.4144 17.4551 13.7325 17.5358C13.7196 17.5373 13.7074 17.5495 13.6953 17.5565C10.4312 17.5561 7.1668 17.5561 3.90237 17.5561Z" fill="#33A959" stroke="#33A959" stroke-width="0.23"/>
<path id="Vector_2" d="M17.5078 4.56455C17.4326 4.88261 17.225 5.10863 17.001 5.33189C14.8905 7.43689 12.7839 9.54542 10.6785 11.6555C10.5454 11.7891 10.402 11.8729 10.2148 11.9082C9.57709 12.0272 8.94214 12.1612 8.30524 12.285C7.95153 12.3539 7.69653 12.0989 7.76508 11.7483C7.89552 11.0828 8.0236 10.4166 8.16501 9.75341C8.1889 9.64138 8.2551 9.52231 8.33657 9.44122C10.5195 7.24966 12.7064 5.0628 14.8944 2.87593C15.3472 2.42313 15.9606 2.42665 16.4177 2.87946C16.6191 3.07883 16.8134 3.28565 17.0206 3.47915C17.2493 3.69302 17.4409 3.92686 17.5082 4.24218C17.5078 4.34951 17.5078 4.45723 17.5078 4.56455ZM8.75217 11.2877C8.80896 11.2834 8.83795 11.2842 8.86576 11.2787C9.23396 11.2054 9.60294 11.1345 9.96918 11.0535C10.0342 11.039 10.0977 10.988 10.147 10.9391C11.8752 9.21365 13.6014 7.48625 15.328 5.75924C15.3652 5.72203 15.4009 5.68325 15.4169 5.66641C15.0679 5.31701 14.7283 4.97701 14.3848 4.63271C14.3844 4.6331 14.3688 4.64407 14.3554 4.65739C12.594 6.41886 10.8329 8.18034 9.07219 9.94221C9.04555 9.96884 9.01382 10.001 9.00677 10.035C8.9206 10.4452 8.83912 10.856 8.75217 11.2877ZM15.0566 3.94606C15.4158 4.30525 15.7554 4.64485 16.1016 4.99151C16.2477 4.84344 16.4087 4.6805 16.5693 4.51677C16.6426 4.44195 16.6524 4.36244 16.5756 4.28527C16.3038 4.01186 16.0315 3.73924 15.7573 3.46779C15.6911 3.40238 15.614 3.40316 15.5482 3.46583C15.3758 3.62996 15.207 3.79878 15.0566 3.94606Z" fill="#33A959" stroke="#33A959" stroke-width="0.1"/>
</g>
</g>
</g>
</svg>
