<svg width="14" height="14" viewBox="0 0 14 14" fill="none" xmlns="http://www.w3.org/2000/svg">
<path fill-rule="evenodd" clip-rule="evenodd" d="M7.69922 0.954102C7.69922 0.567937 7.38616 0.254883 7 0.254883C6.61384 0.254883 6.30078 0.567937 6.30078 0.954102V5.84863H1.40625C1.02009 5.84863 0.707031 6.1617 0.707031 6.54785C0.707031 6.93401 1.02009 7.24707 1.40625 7.24707H6.30078V12.1416C6.30078 12.5278 6.61384 12.8408 7 12.8408C7.38616 12.8408 7.69922 12.5278 7.69922 12.1416V7.24707H12.5938C12.9799 7.24707 13.293 6.93401 13.293 6.54785C13.293 6.1617 12.9799 5.84863 12.5938 5.84863H7.69922V0.954102Z" fill="white" stroke="white" stroke-width="0.5"/>
</svg>
