<svg width="25" height="26" viewBox="0 0 25 26" fill="none" xmlns="http://www.w3.org/2000/svg">
<path d="M13.2812 6.79785C13.2812 6.36638 12.9315 6.0166 12.5 6.0166C12.0685 6.0166 11.7188 6.36638 11.7188 6.79785H13.2812ZM11.7188 19.2979C11.7188 19.7293 12.0685 20.0791 12.5 20.0791C12.9315 20.0791 13.2812 19.7293 13.2812 19.2979H11.7188ZM18.75 13.8291C19.1815 13.8291 19.5312 13.4793 19.5312 13.0479C19.5312 12.6164 19.1815 12.2666 18.75 12.2666V13.8291ZM6.25 12.2666C5.81853 12.2666 5.46875 12.6164 5.46875 13.0479C5.46875 13.4793 5.81853 13.8291 6.25 13.8291V12.2666ZM11.7188 6.79785V19.2979H13.2812V6.79785H11.7188ZM18.75 12.2666H6.25V13.8291H18.75V12.2666Z" fill="#28303F"/>
</svg>
