<svg width="20" height="21" viewBox="0 0 20 21" fill="none" xmlns="http://www.w3.org/2000/svg">
<g id="s&#225;&#186;&#163;n ph&#225;&#186;&#169;m-05">
<g id="Group 3">
<path id="Vector" d="M8.92197 6.03423C8.92197 6.72023 8.92197 7.40823 8.92197 8.09423C8.91997 8.90023 8.39997 9.42223 7.59997 9.42223H3.45597C3.2795 9.43436 3.10247 9.40854 2.93682 9.34649C2.77117 9.28445 2.62074 9.18762 2.49566 9.06254C2.37058 8.93746 2.27375 8.78703 2.21171 8.62138C2.14967 8.45573 2.12384 8.2787 2.13597 8.10223C2.13597 6.71823 2.13597 5.33356 2.13597 3.94823C2.12512 3.7732 2.15164 3.59787 2.21376 3.43388C2.27588 3.26989 2.37219 3.121 2.49629 2.99709C2.62038 2.87319 2.76942 2.77711 2.93351 2.71523C3.09759 2.65336 3.27296 2.62711 3.44797 2.63823H7.61797C7.79188 2.62805 7.96597 2.65481 8.12879 2.71674C8.29161 2.77867 8.43947 2.87437 8.56265 2.99755C8.68583 3.12073 8.78153 3.26859 8.84346 3.43142C8.9054 3.59424 8.93215 3.76832 8.92197 3.94223C8.92397 4.63823 8.92197 5.33623 8.92197 6.03423Z" fill="#33A959"/>
<path id="Vector_2" d="M17.5019 6.0304C17.5019 6.7164 17.5019 7.4024 17.5019 8.0904C17.5019 8.9124 16.9879 9.4224 16.1619 9.4224H12.0579C11.2299 9.4224 10.7159 8.9124 10.7159 8.0904C10.7159 6.7064 10.7159 5.3224 10.7159 3.9384C10.7009 3.64115 10.7939 3.3485 10.9777 3.11439C11.1614 2.88027 11.4236 2.72046 11.7159 2.6644C11.8314 2.64375 11.9487 2.63504 12.0659 2.6384H16.1599C16.9939 2.6384 17.4999 3.1484 17.5019 3.9864V6.0304Z" fill="#33A959"/>
<path id="Vector_3" d="M8.92199 14.6164C8.92199 15.2984 8.92199 15.9784 8.92199 16.6604C8.92199 17.4864 8.40999 18.0004 7.58999 18.0004C6.21532 18.0004 4.84132 18.0004 3.46799 18.0004C2.64599 18.0004 2.13599 17.4864 2.13599 16.6604C2.13599 15.2924 2.13599 13.9251 2.13599 12.5584C2.13599 11.7304 2.64599 11.2164 3.46799 11.2164H7.62199C7.91923 11.2014 8.21188 11.2944 8.44599 11.4782C8.68011 11.6619 8.83992 11.9241 8.89599 12.2164C8.91572 12.3313 8.92442 12.4478 8.92199 12.5644C8.92399 13.2444 8.92199 13.9304 8.92199 14.6164Z" fill="#33A959"/>
</g>
<path id="Vector_4" d="M14.1039 10.8584C14.27 10.8574 14.4347 10.8891 14.5884 10.952C14.7422 11.0148 14.882 11.1074 14.9999 11.2244C15.8359 12.0564 16.6719 12.8864 17.4999 13.7264C17.6178 13.8409 17.7115 13.9778 17.7755 14.1292C17.8394 14.2805 17.8724 14.4431 17.8724 14.6074C17.8724 14.7717 17.8394 14.9344 17.7755 15.0857C17.7115 15.237 17.6178 15.374 17.4999 15.4884C16.6746 16.3284 15.8412 17.1618 14.9999 17.9884C14.8851 18.1079 14.7474 18.203 14.595 18.2679C14.4425 18.3328 14.2786 18.3663 14.1129 18.3663C13.9472 18.3663 13.7832 18.3328 13.6308 18.2679C13.4784 18.203 13.3407 18.1079 13.2259 17.9884C12.3859 17.1618 11.5546 16.3324 10.7319 15.5004C10.6108 15.3853 10.5144 15.2468 10.4485 15.0933C10.3826 14.9398 10.3486 14.7745 10.3486 14.6074C10.3486 14.4404 10.3826 14.2751 10.4485 14.1215C10.5144 13.968 10.6108 13.8295 10.7319 13.7144C11.5532 12.8864 12.3786 12.0611 13.2079 11.2384C13.3246 11.1189 13.464 11.0238 13.6178 10.9586C13.7716 10.8933 13.9368 10.8593 14.1039 10.8584Z" fill="#6EEC97"/>
</g>
</svg>
