<svg xmlns="http://www.w3.org/2000/svg" width="20" height="21" viewBox="0 0 20 21" fill="none">
  <path fill-rule="evenodd" clip-rule="evenodd" d="M3.61026 10.714L9.86828 4.45597C10.1263 4.19794 10.4842 4.06554 10.848 4.09353L15.2254 4.43025C15.8401 4.47753 16.3285 4.96597 16.3758 5.5807L16.7125 9.958C16.7405 10.3218 16.6081 10.6797 16.3501 10.9377L10.092 17.1958C9.60395 17.6839 8.81245 17.6839 8.3243 17.1958L3.61026 12.4817C3.12211 11.9936 3.12211 11.2022 3.61026 10.714ZM17.9589 9.86217C18.0148 10.5898 17.75 11.3056 17.2339 11.8217L10.9759 18.0797C9.99961 19.056 8.4167 19.056 7.44041 18.0797L2.72637 13.3657C1.75006 12.3893 1.75006 10.8064 2.72637 9.83008L8.98436 3.57208C9.50045 3.05602 10.2162 2.79124 10.9439 2.84722L15.3212 3.18393C16.5507 3.27851 17.5275 4.25538 17.6221 5.48483L17.9589 9.86217Z" fill="#40C96D"/>
  <path d="M12.1552 6.88369C11.667 7.37185 11.667 8.16331 12.1552 8.65146C12.6434 9.13961 13.4349 9.13961 13.9229 8.65146C14.4111 8.16331 14.4111 7.37185 13.9229 6.88369C13.4349 6.39554 12.6434 6.39554 12.1552 6.88369Z" fill="#40C96D"/>
  <path fill-rule="evenodd" clip-rule="evenodd" d="M6.40962 12.0396L8.76664 14.3966C9.01073 14.6407 9.40648 14.6407 9.65056 14.3966C9.89464 14.1526 9.89464 13.7568 9.65056 13.5128L7.2935 11.1557C7.04943 10.9116 6.65369 10.9116 6.40962 11.1557C6.16554 11.3998 6.16554 11.7956 6.40962 12.0396Z" fill="#40C96D"/>
</svg>