<svg width="20" height="21" viewBox="0 0 20 21" fill="none" xmlns="http://www.w3.org/2000/svg">
<g id="s&#225;&#186;&#163;n ph&#225;&#186;&#169;m-04">
<g id="Group 2">
<path id="Vector" d="M13.4581 11.9203L11.5181 13.8603C11.2361 14.1403 10.9621 14.4303 10.6721 14.7003C10.4394 14.9211 10.2969 15.2204 10.2721 15.5403C10.2181 16.0303 10.1401 16.5163 10.0841 17.0063C10.074 17.2022 10.074 17.3984 10.0841 17.5943H9.93809C7.65209 17.5943 5.36809 17.5943 3.08209 17.5943C2.85919 17.6082 2.63633 17.5666 2.43346 17.4732C2.23059 17.3798 2.05406 17.2376 1.91968 17.0592C1.7853 16.8808 1.69727 16.6719 1.66349 16.4511C1.6297 16.2304 1.65121 16.0047 1.72609 15.7943C2.08809 14.6603 2.44809 13.5243 2.81409 12.3943C2.8952 12.1325 3.02924 11.8903 3.20787 11.6825C3.38651 11.4747 3.60594 11.3058 3.85254 11.1864C4.09915 11.0669 4.36767 10.9994 4.64145 10.9881C4.91523 10.9767 5.18843 11.0217 5.44409 11.1203C7.10646 11.7366 8.92562 11.7879 10.6201 11.2663C10.9596 11.1409 11.3116 11.0524 11.6701 11.0023C12.4281 10.9483 13.0161 11.3003 13.4581 11.9203Z" fill="#33A959"/>
<path id="Vector_2" d="M8.24805 3.40039C8.9335 3.40119 9.60331 3.60533 10.1727 3.98697C10.7421 4.36861 11.1854 4.9106 11.4466 5.54433C11.7079 6.17807 11.7752 6.87505 11.6401 7.54706C11.505 8.21907 11.1736 8.8359 10.6878 9.31947C10.202 9.80303 9.58362 10.1316 8.91099 10.2636C8.23836 10.3956 7.54169 10.325 6.90918 10.0609C6.27666 9.79673 5.73673 9.35087 5.35772 8.77973C4.97872 8.20859 4.77768 7.53784 4.78005 6.85239C4.78323 5.93507 5.15013 5.05646 5.80028 4.40932C6.45043 3.76217 7.33072 3.39933 8.24805 3.40039Z" fill="#33A959"/>
</g>
<path id="Vector_3" d="M14.912 11.418L16.898 13.404L16.78 13.526C15.624 14.684 14.46 15.832 13.316 17C13.0907 17.2477 12.7781 17.3982 12.444 17.42C12.032 17.454 11.622 17.522 11.212 17.578C10.856 17.626 10.694 17.484 10.736 17.132C10.8013 16.588 10.8733 16.0446 10.952 15.502C10.9673 15.4091 11.0098 15.3228 11.074 15.254C12.342 13.978 13.612 12.706 14.884 11.438C14.8919 11.4296 14.9015 11.4228 14.912 11.418Z" fill="#6EEC97"/>
<path id="Vector_4" d="M17.462 12.7861L15.488 10.8061C15.688 10.6181 16.038 10.2681 16.274 10.0961C16.4223 9.9911 16.6029 9.94174 16.784 9.95674C16.9651 9.97174 17.1351 10.0501 17.264 10.1781C17.564 10.4621 17.864 10.7541 18.14 11.0561C18.2766 11.2009 18.3543 11.3913 18.358 11.5903C18.3617 11.7892 18.2911 11.9824 18.16 12.1321C18 12.3241 17.642 12.6141 17.462 12.7861Z" fill="#6EEC97"/>
</g>
</svg>
