<svg width="20" height="21" viewBox="0 0 20 21" fill="none" xmlns="http://www.w3.org/2000/svg">
<g id="s&#225;&#186;&#163;n ph&#225;&#186;&#169;m-03">
<path id="Vector" d="M16.2559 4.11621H3.74994C2.62594 4.11621 1.88794 4.85021 1.88794 5.97221V15.0202C1.88794 16.1462 2.62194 16.8842 3.74194 16.8842H16.2479C17.3739 16.8842 18.1099 16.1502 18.1099 15.0282V5.98021C18.1099 4.85421 17.3759 4.11621 16.2559 4.11621ZM8.68194 10.8722C7.78061 11.7802 6.87594 12.6862 5.96794 13.5902C5.91539 13.6519 5.85088 13.7024 5.7783 13.7385C5.70571 13.7746 5.62656 13.7956 5.54563 13.8003C5.46469 13.805 5.38365 13.7932 5.30739 13.7657C5.23113 13.7382 5.16124 13.6955 5.10194 13.6402C5.04412 13.5824 4.99907 13.5132 4.9697 13.4369C4.94033 13.3606 4.9273 13.2791 4.93145 13.1974C4.93559 13.1158 4.95683 13.036 4.99378 12.9631C5.03072 12.8902 5.08256 12.8258 5.14594 12.7742C5.88461 12.0315 6.62261 11.2909 7.35994 10.5522C7.40594 10.5062 7.46194 10.4682 7.55994 10.3882C7.49027 10.3431 7.42347 10.2936 7.35994 10.2402C6.61994 9.50154 5.88127 8.76221 5.14394 8.02221C5.08121 7.97048 5.03002 7.90619 4.99367 7.83347C4.95731 7.76075 4.93659 7.68122 4.93285 7.6C4.9291 7.51878 4.94242 7.43768 4.97193 7.36193C5.00145 7.28617 5.0465 7.21744 5.1042 7.16016C5.1619 7.10288 5.23096 7.05833 5.30693 7.02937C5.38291 7.00041 5.4641 6.98769 5.54529 6.99203C5.62647 6.99637 5.70585 7.01767 5.7783 7.05456C5.85075 7.09145 5.91467 7.14311 5.96594 7.20621C6.87127 8.11288 7.77594 9.01888 8.67994 9.92421C8.99994 10.2402 8.99994 10.5562 8.68194 10.8722ZM14.5779 13.8722H10.0539C9.97372 13.8789 9.893 13.8688 9.81686 13.8427C9.74073 13.8166 9.67084 13.775 9.61161 13.7205C9.55238 13.6659 9.50511 13.5997 9.47277 13.526C9.44043 13.4523 9.42373 13.3727 9.42373 13.2922C9.42373 13.2117 9.44043 13.1321 9.47277 13.0584C9.50511 12.9847 9.55238 12.9185 9.61161 12.864C9.67084 12.8095 9.74073 12.7678 9.81686 12.7417C9.893 12.7156 9.97372 12.7055 10.0539 12.7122H14.5699C14.6502 12.7055 14.7309 12.7156 14.807 12.7417C14.8832 12.7678 14.953 12.8095 15.0123 12.864C15.0715 12.9185 15.1188 12.9847 15.1511 13.0584C15.1835 13.1321 15.2001 13.2117 15.2001 13.2922C15.2001 13.3727 15.1835 13.4523 15.1511 13.526C15.1188 13.5997 15.0715 13.6659 15.0123 13.7205C14.953 13.775 14.8832 13.8166 14.807 13.8427C14.7309 13.8688 14.6502 13.8789 14.5699 13.8722H14.5779Z" fill="#33A959"/>
<path id="Vector_2" d="M15.212 13.2996C15.2112 13.38 15.1938 13.4594 15.1609 13.5327C15.128 13.6061 15.0803 13.6719 15.0208 13.726C14.9613 13.78 14.8912 13.8212 14.815 13.847C14.7388 13.8727 14.6582 13.8825 14.578 13.8756H10.054C9.97382 13.8822 9.89309 13.8722 9.81696 13.8461C9.74082 13.82 9.67093 13.7783 9.6117 13.7238C9.55248 13.6693 9.5052 13.6031 9.47286 13.5294C9.44052 13.4557 9.42383 13.3761 9.42383 13.2956C9.42383 13.2151 9.44052 13.1355 9.47286 13.0618C9.5052 12.988 9.55248 12.9218 9.6117 12.8673C9.67093 12.8128 9.74082 12.7712 9.81696 12.7451C9.89309 12.7189 9.97382 12.7089 10.054 12.7156H14.57C14.6514 12.7078 14.7335 12.7171 14.811 12.7429C14.8886 12.7687 14.9599 12.8104 15.0204 12.8654C15.0808 12.9204 15.1291 12.9874 15.1621 13.0622C15.1951 13.137 15.2121 13.2178 15.212 13.2996Z" fill="white"/>
<path id="Vector_3" d="M8.68191 10.8722C7.78058 11.7802 6.87591 12.6862 5.96791 13.5902C5.91536 13.652 5.85085 13.7024 5.77827 13.7385C5.70568 13.7746 5.62653 13.7956 5.5456 13.8003C5.46466 13.805 5.38362 13.7932 5.30736 13.7657C5.2311 13.7382 5.16121 13.6955 5.10191 13.6402C5.04409 13.5825 4.99904 13.5132 4.96967 13.4369C4.9403 13.3607 4.92727 13.2791 4.93142 13.1974C4.93556 13.1158 4.9568 13.036 4.99375 12.9631C5.03069 12.8902 5.08253 12.8258 5.14591 12.7742C5.88458 12.0316 6.62258 11.2909 7.35991 10.5522C7.40591 10.5062 7.46191 10.4682 7.55991 10.3882C7.49024 10.3431 7.42344 10.2937 7.35991 10.2402C6.61991 9.50155 5.88124 8.76222 5.14391 8.02222C5.08119 7.97049 5.03 7.9062 4.99364 7.83348C4.95728 7.76076 4.93656 7.68123 4.93282 7.60001C4.92907 7.51879 4.94239 7.43769 4.9719 7.36194C5.00142 7.28618 5.04647 7.21745 5.10417 7.16017C5.16187 7.10289 5.23093 7.05834 5.30691 7.02938C5.38288 7.00042 5.46407 6.9877 5.54526 6.99204C5.62644 6.99638 5.70582 7.01768 5.77827 7.05457C5.85072 7.09146 5.91464 7.14312 5.96591 7.20622C6.87124 8.11289 7.77591 9.01889 8.67991 9.92422C8.99991 10.2402 8.99991 10.5562 8.68191 10.8722Z" fill="white"/>
</g>
</svg>
