<svg width="35" height="36" viewBox="0 0 35 36" fill="none" xmlns="http://www.w3.org/2000/svg">
<path d="M27.167 31.1885H6.66755C6.62905 31.1732 6.58921 31.1615 6.54855 31.1535C5.96132 31.0684 5.42901 30.7615 5.06105 30.296C4.78885 29.9354 4.61299 29.5114 4.55005 29.064V14.441C4.55005 14.441 4.57455 14.413 4.57455 14.399C4.65722 13.8037 4.96171 13.2617 5.42705 12.8813C5.89239 12.501 6.48423 12.3105 7.08405 12.348C7.59855 12.369 8.11305 12.348 8.62755 12.348C8.82572 12.3429 9.01993 12.2913 9.19455 12.1975C12.9279 10.0392 16.6495 7.87501 20.3595 5.70501C20.836 5.39172 21.4057 5.25205 21.973 5.30951C22.3597 5.36123 22.728 5.50612 23.0462 5.7317C23.3645 5.95729 23.6232 6.25681 23.8 6.60451C24.85 8.43851 25.9 10.2725 26.95 12.1135C26.9918 12.1984 27.0546 12.2712 27.1324 12.3251C27.2101 12.379 27.3004 12.4122 27.3945 12.4215C27.8734 12.5144 28.31 12.7577 28.6411 13.1158C28.9722 13.474 29.1804 13.9284 29.2355 14.413C29.274 15.0325 29.267 15.659 29.274 16.282C29.274 16.842 29.057 17.0625 28.4935 17.0625C27.237 17.0625 25.9805 17.0625 24.724 17.0625C24.4291 17.0619 24.1345 17.0806 23.842 17.1185C22.6652 17.3011 21.6012 17.9229 20.8646 18.8587C20.128 19.7945 19.7734 20.9748 19.8724 22.1616C19.9714 23.3484 20.5165 24.4536 21.398 25.2545C22.2794 26.0554 23.4317 26.4924 24.6225 26.4775C25.9315 26.4775 27.237 26.4775 28.546 26.4775C29.043 26.4775 29.2705 26.7015 29.274 27.202C29.2775 27.7025 29.274 28.231 29.274 28.7455C29.2826 29.1266 29.2001 29.5042 29.0333 29.8469C28.8665 30.1897 28.6202 30.4876 28.315 30.716C27.9726 30.9574 27.5802 31.1189 27.167 31.1885ZM22.6905 7.05601C22.6141 6.91472 22.5086 6.79124 22.3809 6.69368C22.2533 6.59612 22.1064 6.52671 21.95 6.49001C21.7936 6.4533 21.6312 6.45015 21.4735 6.48074C21.3158 6.51134 21.1664 6.57499 21.035 6.66751C17.8617 8.51084 14.6884 10.3588 11.515 12.2115C11.466 12.2395 11.4205 12.2815 11.326 12.3515C12.026 12.3515 12.67 12.3515 13.3105 12.3515C13.4918 12.349 13.6696 12.3021 13.8285 12.215C15.8352 11.0483 17.8384 9.88168 19.838 8.71501L22.6905 7.05601ZM25.7355 12.3375L24.458 10.108L20.6955 12.2885V12.327L25.7355 12.3375Z" fill="#33A959"/>
<path d="M26.5404 18.2386H28.5634C28.8145 18.2234 29.066 18.2615 29.3013 18.3505C29.5367 18.4394 29.7505 18.5772 29.9287 18.7548C30.1069 18.9324 30.2455 19.1456 30.3353 19.3806C30.4252 19.6156 30.4642 19.867 30.4499 20.1181V23.4046C30.4499 24.5071 29.7779 25.2666 28.6754 25.2911C27.2194 25.3296 25.7564 25.3401 24.3039 25.2736C23.4182 25.2428 22.5771 24.8772 21.9505 24.2504C21.3238 23.6237 20.9583 22.7825 20.9276 21.8968C20.897 21.011 21.2035 20.1466 21.7853 19.4781C22.3671 18.8095 23.1809 18.3866 24.0624 18.2946C24.8855 18.2491 25.7104 18.2491 26.5334 18.2946L26.5404 18.2386ZM24.5629 20.6011C24.3313 20.6032 24.1056 20.6738 23.914 20.8041C23.7225 20.9343 23.5739 21.1183 23.4869 21.333C23.3998 21.5476 23.3783 21.7832 23.425 22.01C23.4717 22.2369 23.5846 22.4448 23.7493 22.6076C23.914 22.7704 24.1233 22.8807 24.3507 22.9247C24.5781 22.9687 24.8134 22.9444 25.0269 22.8548C25.2405 22.7652 25.4228 22.6144 25.5507 22.4214C25.6787 22.2283 25.7466 22.0017 25.7459 21.7701C25.7441 21.4579 25.6185 21.1592 25.3968 20.9394C25.175 20.7196 24.8751 20.5967 24.5629 20.5976V20.6011Z" fill="#6EEC97"/>
</svg>
