<svg width="54" height="53" viewBox="0 0 54 53" fill="none" xmlns="http://www.w3.org/2000/svg">
<rect x="0.58" y="1.12785" width="52.84" height="50.84" rx="25.42" fill="white"/>
<rect x="0.58" y="1.12785" width="52.84" height="50.84" rx="25.42" stroke="url(#paint0_linear_258_2775)" stroke-width="1.16"/>
<path d="M42.543 26.5738H40.6109C40.6125 30.0208 39.1935 33.3276 36.6656 35.7681C34.9121 37.5343 32.6559 38.7625 30.1802 39.2984C24.9108 40.426 20.4746 38.9428 16.75 35.2217L19.0019 31.982C22.3707 35.7985 26.4376 37.0735 31.2836 34.9571C32.9253 34.2105 34.3091 33.0247 35.2699 31.5412C36.2306 30.0577 36.7276 28.3393 36.7016 26.5912H34.7605L38.6517 20.9531L38.8679 21.2524L42.3133 26.2485C42.3804 26.3415 42.4542 26.4299 42.534 26.5131L42.543 26.5738Z" fill="#33A959"/>
<path d="M15.3402 32.186L11.458 26.5783H13.3496C13.4261 25.841 13.4532 25.1254 13.5883 24.4359C14.5341 19.6652 17.2994 16.1957 22.0148 14.4305C27.4823 12.3965 32.4049 13.5111 36.6655 17.3883C37.2555 17.9261 37.242 17.9391 36.7916 18.594L35.0216 21.1441C35.0227 21.1513 35.0227 21.1586 35.0216 21.1658C31.5132 17.2365 27.3022 15.9615 22.3841 18.3988C19.0108 20.0425 17.4345 22.9266 17.2588 26.5696H19.227L15.3402 32.186Z" fill="#33A959"/>
<defs>
<linearGradient id="paint0_linear_258_2775" x1="-0.00184553" y1="26.5485" x2="53.9981" y2="26.5485" gradientUnits="userSpaceOnUse">
<stop offset="1.33195e-07" stop-color="#2C995E"/>
<stop offset="0.750034" stop-color="#36B555"/>
</linearGradient>
</defs>
</svg>
