<svg width="24" height="25" viewBox="0 0 24 25" fill="none" xmlns="http://www.w3.org/2000/svg">
<g id="close">
<rect y="0.547852" width="24" height="24" rx="12" fill="#FF0000"/>
<path id="Vector" d="M8.25885 6.83438C7.97447 6.55 7.51338 6.55 7.22899 6.83438C6.94459 7.11878 6.94459 7.57986 7.22899 7.86426L11.0834 11.7187L7.22892 15.5731C6.94453 15.8575 6.94453 16.3186 7.22892 16.603C7.51331 16.8874 7.97439 16.8874 8.25879 16.603L12.1132 12.7485L15.9677 16.603C16.2521 16.8874 16.7132 16.8874 16.9976 16.603C17.282 16.3186 17.282 15.8575 16.9976 15.5731L13.1431 11.7187L16.9975 7.86426C17.2819 7.57986 17.2819 7.11878 16.9975 6.83438C16.7131 6.55 16.252 6.55 15.9677 6.83438L12.1132 10.6888L8.25885 6.83438Z" fill="white"/>
</g>
</svg>
