<svg width="20" height="21" viewBox="0 0 20 21" fill="none" xmlns="http://www.w3.org/2000/svg">
<g id="Frame 1000006753">
<g id="Group">
<g id="Group 14">
<path id="Vector" d="M3.90139 17.5561C3.70985 17.4884 3.50381 17.4461 3.32951 17.3477C2.77251 17.0336 2.49558 16.5416 2.49479 15.9024C2.49244 14.0257 2.49401 12.1491 2.49401 10.2729C2.49401 9.04134 2.49166 7.80984 2.49479 6.57833C2.49714 5.80237 2.99656 5.16664 3.7404 4.99077C3.87201 4.95982 4.01107 4.94729 4.14659 4.94729C6.26217 4.94455 8.37774 4.94533 10.4933 4.94572C10.7941 4.94572 10.9931 5.11807 10.9967 5.37934C11.0002 5.64569 10.7981 5.82509 10.4906 5.82548C8.39459 5.82587 6.2986 5.82548 4.20261 5.82587C3.66167 5.82587 3.37377 6.11573 3.37377 6.6602C3.37377 9.72447 3.37377 12.7884 3.37377 15.8526C3.37377 16.3846 3.66637 16.6772 4.19791 16.6772C7.2661 16.6772 10.3347 16.6772 13.4029 16.6772C13.9258 16.6772 14.2223 16.3822 14.2223 15.8628C14.2227 13.7762 14.2223 11.6892 14.2227 9.60265C14.2227 9.5392 14.2192 9.47417 14.2305 9.41268C14.2724 9.19097 14.4785 9.03508 14.6974 9.05309C14.9195 9.0715 15.0927 9.25247 15.1005 9.48201C15.1056 9.6332 15.1017 9.78479 15.1017 9.93638C15.1017 11.9105 15.0923 13.8851 15.1056 15.8593C15.1122 16.8205 14.4135 17.4551 13.7315 17.5358C13.7186 17.5373 13.7064 17.5495 13.6943 17.5565C10.4303 17.5561 7.16582 17.5561 3.90139 17.5561Z" fill="#33A959" stroke="#33A959" stroke-width="0.23"/>
<path id="Vector_2" d="M17.5064 4.56455C17.4312 4.88261 17.2236 5.10863 16.9995 5.33189C14.889 7.43689 12.7825 9.54542 10.6771 11.6555C10.5439 11.7891 10.4005 11.8729 10.2133 11.9082C9.57562 12.0272 8.94068 12.1612 8.30377 12.285C7.95007 12.3539 7.69507 12.0989 7.76362 11.7483C7.89405 11.0828 8.02214 10.4166 8.16354 9.75341C8.18744 9.64138 8.25363 9.52231 8.33511 9.44122C10.5181 7.24966 12.7049 5.0628 14.893 2.87593C15.3458 2.42313 15.9592 2.42665 16.4163 2.87946C16.6176 3.07883 16.8119 3.28565 17.0191 3.47915C17.2479 3.69302 17.4394 3.92686 17.5068 4.24218C17.5064 4.34951 17.5064 4.45723 17.5064 4.56455ZM8.7507 11.2877C8.8075 11.2834 8.83648 11.2842 8.86429 11.2787C9.23249 11.2054 9.60148 11.1345 9.96772 11.0535C10.0327 11.039 10.0962 10.988 10.1455 10.9391C11.8737 9.21365 13.6 7.48625 15.3266 5.75924C15.3638 5.72203 15.3994 5.68325 15.4155 5.66641C15.0665 5.31701 14.7269 4.97701 14.3834 4.63271C14.383 4.6331 14.3673 4.64407 14.354 4.65739C12.5925 6.41886 10.8314 8.18034 9.07072 9.94221C9.04409 9.96884 9.01236 10.001 9.00531 10.035C8.91913 10.4452 8.83766 10.856 8.7507 11.2877ZM15.0551 3.94606C15.4143 4.30525 15.7539 4.64485 16.1002 4.99151C16.2463 4.84344 16.4073 4.6805 16.5679 4.51677C16.6411 4.44195 16.6509 4.36244 16.5741 4.28527C16.3023 4.01186 16.0301 3.73924 15.7559 3.46779C15.6897 3.40238 15.6125 3.40316 15.5467 3.46583C15.3744 3.62996 15.2055 3.79878 15.0551 3.94606Z" fill="#33A959" stroke="#33A959" stroke-width="0.1"/>
</g>
</g>
</g>
</svg>
