<svg xmlns="http://www.w3.org/2000/svg" width="20" height="21" viewBox="0 0 20 21" fill="none">
  <path d="M18.7772 10.0619H17.686C17.687 12.0835 16.8856 14.0227 15.458 15.454C14.4677 16.4898 13.1936 17.21 11.7954 17.5243C8.81963 18.1856 6.31435 17.3158 4.21094 15.1335L5.48265 13.2336C7.38514 15.4718 9.68186 16.2196 12.4186 14.9784C13.3457 14.5405 14.1272 13.8451 14.6698 12.9751C15.2123 12.1051 15.493 11.0973 15.4783 10.0721H14.3821L16.5796 6.76562L16.7017 6.94112L18.6475 9.87115C18.6854 9.92567 18.727 9.97751 18.7721 10.0263L18.7772 10.0619Z" fill="#40C96D"/>
  <path d="M3.41509 13.3531L1.22266 10.0645H2.2909C2.33414 9.63207 2.3494 9.21241 2.4257 8.808C2.95982 6.01023 4.52149 3.97548 7.18446 2.94031C10.2722 1.74744 13.0522 2.4011 15.4582 4.67493C15.7914 4.99031 15.7838 4.99794 15.5295 5.382L14.5299 6.87754C14.5305 6.88175 14.5305 6.88604 14.5299 6.89025C12.5486 4.58591 10.1704 3.83814 7.39302 5.26755C5.48799 6.23151 4.59779 7.92289 4.4986 10.0594H5.61007L3.41509 13.3531Z" fill="#40C96D"/>
</svg>