<svg width="20" height="21" viewBox="0 0 20 21" fill="none" xmlns="http://www.w3.org/2000/svg">
<path fill-rule="evenodd" clip-rule="evenodd" d="M14.8949 14.5578C16.001 13.2512 16.668 11.5609 16.668 9.71484C16.668 5.57271 13.3101 2.21484 9.16797 2.21484C5.02584 2.21484 1.66797 5.57271 1.66797 9.71484C1.66797 13.857 5.02584 17.2148 9.16797 17.2148C11.0141 17.2148 12.7043 16.5478 14.011 15.4418L16.2261 17.6568C16.4701 17.9008 16.8658 17.9008 17.1099 17.6568C17.354 17.4127 17.354 17.017 17.1099 16.7729L14.8949 14.5578ZM15.418 9.71484C15.418 13.1666 12.6197 15.9648 9.16797 15.9648C5.71619 15.9648 2.91797 13.1666 2.91797 9.71484C2.91797 6.26306 5.71619 3.46484 9.16797 3.46484C12.6197 3.46484 15.418 6.26306 15.418 9.71484Z" fill="#6C6C6C"/>
</svg>
