<svg xmlns="http://www.w3.org/2000/svg" width="61" height="61" viewBox="0 0 61 61" fill="none">
  <path d="M8.44189 34.8963V32.8023C8.44189 32.6763 8.50789 32.5503 8.51989 32.4243C8.65728 31.1068 8.98887 29.8168 9.50389 28.5963C9.54872 28.5024 9.60088 28.4121 9.65989 28.3263C13.7519 32.1003 18.4499 33.4203 23.7179 31.5963C28.9859 29.7723 31.8959 25.8243 32.8019 20.3523C34.1999 20.3523 35.6039 20.3523 37.0019 20.3523C37.1377 20.372 37.2762 20.3477 37.3971 20.2829C37.518 20.2181 37.615 20.1163 37.6739 19.9923C38.2399 18.9687 39.0327 18.0883 39.9916 17.4186C40.9505 16.7488 42.05 16.3074 43.2059 16.1283C44.9359 15.9522 46.6761 15.896 48.4139 15.9603C48.6654 15.9674 48.9074 16.0579 49.1018 16.2175C49.2963 16.3772 49.4321 16.597 49.4879 16.8423C49.5794 17.131 49.5699 17.4422 49.4608 17.7247C49.3517 18.0072 49.1497 18.2441 48.8879 18.3963C47.2045 19.7289 46.0137 21.5848 45.5039 23.6703C45.4603 23.8044 45.4564 23.9482 45.4926 24.0844C45.5288 24.2207 45.6036 24.3436 45.7079 24.4383C46.2419 25.0383 46.7039 25.6383 47.2199 26.2383C47.3755 26.4214 47.5859 26.5497 47.8199 26.6043C49.1459 26.8563 50.4779 27.0723 51.8039 27.3003C51.991 27.3078 52.1745 27.3543 52.3426 27.4369C52.5107 27.5194 52.6596 27.6362 52.78 27.7797C52.9003 27.9232 52.9893 28.0902 53.0413 28.2701C53.0933 28.45 53.1071 28.6388 53.0819 28.8243V36.2703C53.1228 36.5927 53.0466 36.9191 52.8671 37.19C52.6875 37.4609 52.4167 37.6583 52.1039 37.7463C51.0179 38.1963 49.9199 38.6223 48.8399 39.0843C48.6259 39.182 48.4491 39.3461 48.3359 39.5523C47.4622 41.4037 46.1946 43.0418 44.6219 44.3523C44.4742 44.4939 44.388 44.6878 44.3819 44.8923C44.3819 46.8843 44.3399 48.8763 44.3819 50.8923C44.4319 51.2511 44.3642 51.6164 44.1889 51.9333C44.0136 52.2503 43.7403 52.5019 43.4099 52.6503H37.4579C37.1891 52.5158 36.9547 52.3214 36.7727 52.0822C36.5907 51.843 36.4659 51.5653 36.4079 51.2703C36.0479 50.0703 35.6339 48.9303 35.2559 47.7603C35.2485 47.7016 35.2296 47.6449 35.2002 47.5935C35.1709 47.5421 35.1316 47.497 35.0848 47.4608C35.038 47.4245 34.9845 47.3979 34.9274 47.3824C34.8702 47.3669 34.8106 47.3628 34.7519 47.3703C30.9239 47.3703 27.0939 47.3703 23.2619 47.3703C23.2032 47.3628 23.1436 47.3669 23.0864 47.3824C23.0293 47.3979 22.9758 47.4245 22.929 47.4608C22.8821 47.497 22.8429 47.5421 22.8136 47.5935C22.7842 47.6449 22.7653 47.7016 22.7579 47.7603C22.3799 48.9603 21.9659 50.0943 21.6059 51.2703C21.5431 51.5604 21.4155 51.8326 21.2326 52.0663C21.0497 52.3001 20.8163 52.4895 20.5499 52.6203H14.6279C14.2967 52.4746 14.0224 52.2244 13.8469 51.908C13.6713 51.5916 13.6043 51.2265 13.6559 50.8683C13.6979 48.9063 13.6559 46.9443 13.6559 44.9823C13.6702 44.8445 13.6497 44.7052 13.5963 44.5773C13.5428 44.4494 13.4581 44.337 13.3499 44.2503C11.2055 42.5096 9.66449 40.1372 8.94589 37.4703C8.72389 36.6123 8.60389 35.7483 8.44189 34.8963ZM43.0379 29.0703C43.0391 28.8111 42.9632 28.5574 42.82 28.3414C42.6767 28.1254 42.4725 27.9568 42.2332 27.8571C41.994 27.7573 41.7305 27.7309 41.4762 27.7812C41.2219 27.8315 40.9883 27.9562 40.805 28.1395C40.6217 28.3227 40.497 28.5564 40.4467 28.8106C40.3965 29.0649 40.4229 29.3284 40.5226 29.5677C40.6224 29.8069 40.7909 30.0111 41.007 30.1544C41.223 30.2977 41.4767 30.3735 41.7359 30.3723C42.0788 30.3647 42.4056 30.2251 42.6481 29.9825C42.8906 29.74 43.0303 29.4133 43.0379 29.0703Z" fill="#33A959"/>
  <path d="M20.2922 7.9209C20.7302 7.9989 21.1742 8.0709 21.6122 8.1669C23.5768 8.57724 25.3902 9.52169 26.8527 10.8963C28.3152 12.2709 29.37 14.0223 29.9012 15.9578C30.4323 17.8934 30.4191 19.9379 29.8631 21.8664C29.3071 23.7949 28.2297 25.5326 26.7497 26.8883C25.2696 28.2439 23.4442 29.1649 21.4744 29.5499C19.5046 29.9349 17.4668 29.769 15.5852 29.0704C13.7037 28.3718 12.0513 27.1676 10.8101 25.5903C9.56887 24.0131 8.78687 22.124 8.55017 20.1309C8.53054 20.0175 8.5045 19.9053 8.47217 19.7949V17.8749C8.50384 17.7643 8.52988 17.6521 8.55017 17.5389C8.80964 15.3589 9.72018 13.3077 11.163 11.653C12.6058 9.99828 14.5138 8.81686 16.6382 8.2629C17.2082 8.1189 17.7962 8.0349 18.3782 7.9209H20.2922ZM20.1362 14.9349L20.6942 15.3249C20.8112 15.4367 20.9625 15.5057 21.1236 15.521C21.2847 15.5362 21.4462 15.4967 21.5822 15.4089C21.8276 15.2315 21.997 14.9679 22.0562 14.6709C22.0552 14.5236 22.0226 14.3782 21.9605 14.2447C21.8984 14.1111 21.8082 13.9925 21.6962 13.8969C21.1999 13.5678 20.6828 13.2712 20.1482 13.0089C20.1482 13.0089 20.1482 12.9369 20.1482 12.8469C20.1482 12.1929 19.8062 11.8209 19.2722 11.8269C18.7382 11.8329 18.3962 12.2709 18.4022 12.8709C18.4151 12.9823 18.3859 13.0944 18.3204 13.1854C18.2549 13.2764 18.1579 13.3397 18.0482 13.3629C17.5383 13.549 17.0932 13.8785 16.7664 14.3118C16.4396 14.745 16.245 15.2636 16.2062 15.8049C16.1098 16.3421 16.1884 16.8961 16.4303 17.3854C16.6722 17.8746 17.0648 18.2733 17.5502 18.5229C17.7559 18.6243 17.9562 18.7365 18.1502 18.8589C18.2021 18.8889 18.2471 18.9295 18.2823 18.9781C18.3174 19.0267 18.3419 19.0822 18.3542 19.1409C18.3542 20.2869 18.3542 21.4329 18.3542 22.7049C17.9522 22.5189 17.6402 22.3569 17.3162 22.2249C17.1013 22.1144 16.8669 22.0472 16.6262 22.0269C16.4496 22.0326 16.2804 22.0989 16.1471 22.2148C16.0138 22.3306 15.9244 22.4889 15.8942 22.6629C15.8327 22.8384 15.8364 23.0302 15.9047 23.2032C15.973 23.3762 16.1013 23.5188 16.2662 23.6049C16.9262 23.9469 17.6102 24.2049 18.3542 24.5709C18.3425 24.6786 18.3425 24.7872 18.3542 24.8949C18.368 25.0682 18.4148 25.2372 18.4922 25.3929C18.5889 25.5559 18.7372 25.6819 18.9136 25.7511C19.09 25.8204 19.2845 25.8288 19.4662 25.7751C19.648 25.7214 19.8066 25.6086 19.9171 25.4547C20.0275 25.3007 20.0835 25.1143 20.0762 24.9249C20.0762 24.4869 20.1902 24.2949 20.6222 24.1209C21.3908 23.803 22.0187 23.2181 22.3903 22.4739C22.7618 21.7297 22.852 20.8763 22.6442 20.0709C22.4995 19.5692 22.2324 19.1113 21.8669 18.7385C21.5014 18.3656 21.0489 18.0895 20.5502 17.9349C20.3882 17.8749 20.1422 17.7129 20.1422 17.5929C20.1242 16.7409 20.1362 15.8709 20.1362 14.9349Z" fill="#6EEC97"/>
  <path d="M20.1541 22.4049V19.7529C20.3644 19.7883 20.5582 19.8891 20.7079 20.041C20.8576 20.1929 20.9557 20.3881 20.9881 20.5989C21.0566 20.9494 21.0129 21.3126 20.8632 21.6368C20.7135 21.9611 20.4653 22.2299 20.1541 22.4049Z" fill="#6EEC97"/>
  <path d="M18.372 15.2705V16.9145C17.772 16.5905 17.76 15.8165 18.372 15.2705Z" fill="#6EEC97"/>
</svg>