<svg xmlns="http://www.w3.org/2000/svg" width="70" height="70" viewBox="0 0 70 70" fill="none">
  <path d="M56.8959 12.6562H13.1249C9.19091 12.6562 6.60791 15.2253 6.60791 19.1523V50.8202C6.60791 54.7612 9.17691 57.3442 13.0969 57.3442H56.8679C60.8089 57.3442 63.3849 54.7752 63.3849 50.8482V19.1802C63.3849 15.2392 60.8159 12.6562 56.8959 12.6562ZM30.3869 36.3022C27.2322 39.4802 24.0659 42.6512 20.8879 45.8152C20.704 46.0313 20.4782 46.2079 20.2242 46.3343C19.9701 46.4607 19.6931 46.5342 19.4098 46.5506C19.1265 46.567 18.8429 46.5257 18.576 46.4294C18.3091 46.3331 18.0645 46.1837 17.8569 45.9902C17.6545 45.7881 17.4969 45.5457 17.3941 45.2787C17.2913 45.0118 17.2457 44.7262 17.2602 44.4405C17.2747 44.1548 17.349 43.8754 17.4783 43.6202C17.6077 43.3651 17.7891 43.1399 18.0109 42.9592C20.5962 40.3599 23.1792 37.7676 25.7599 35.1822C25.9209 35.0212 26.1169 34.8882 26.4599 34.6082C26.2161 34.4503 25.9823 34.2773 25.7599 34.0903C23.1699 31.5049 20.5846 28.9172 18.0039 26.3273C17.7844 26.1462 17.6052 25.9212 17.478 25.6666C17.3507 25.4121 17.2782 25.1338 17.2651 24.8495C17.252 24.5653 17.2986 24.2814 17.4019 24.0163C17.5052 23.7511 17.6629 23.5106 17.8648 23.3101C18.0668 23.1096 18.3085 22.9537 18.5744 22.8523C18.8403 22.751 19.1245 22.7064 19.4086 22.7216C19.6928 22.7368 19.9706 22.8114 20.2242 22.9405C20.4778 23.0696 20.7015 23.2504 20.8809 23.4712C24.0496 26.6446 27.2159 29.8156 30.3799 32.9842C31.4999 34.0902 31.4999 35.1962 30.3869 36.3022ZM51.0229 46.8022H35.1889C34.9082 46.8256 34.6256 46.7904 34.3591 46.699C34.0927 46.6076 33.848 46.4619 33.6408 46.2711C33.4335 46.0803 33.268 45.8486 33.1548 45.5906C33.0416 45.3326 32.9832 45.054 32.9832 44.7722C32.9832 44.4905 33.0416 44.2119 33.1548 43.9539C33.268 43.6959 33.4335 43.4642 33.6408 43.2734C33.848 43.0826 34.0927 42.9369 34.3591 42.8455C34.6256 42.7541 34.9082 42.7189 35.1889 42.7423H50.9949C51.2757 42.7189 51.5582 42.7541 51.8247 42.8455C52.0912 42.9369 52.3358 43.0826 52.5431 43.2734C52.7504 43.4642 52.9158 43.6959 53.029 43.9539C53.1422 44.2119 53.2006 44.4905 53.2006 44.7722C53.2006 45.054 53.1422 45.3326 53.029 45.5906C52.9158 45.8486 52.7504 46.0803 52.5431 46.2711C52.3358 46.4619 52.0912 46.6076 51.8247 46.699C51.5582 46.7904 51.2757 46.8256 50.9949 46.8022H51.0229Z" fill="#33A959"/>
  <path d="M53.2421 44.8005C53.2393 45.0819 53.1784 45.3597 53.0632 45.6165C52.948 45.8733 52.781 46.1036 52.5727 46.2928C52.3644 46.4821 52.1192 46.6263 51.8526 46.7164C51.5859 46.8065 51.3035 46.8406 51.0231 46.8165H35.1891C34.9084 46.8398 34.6258 46.8046 34.3593 46.7132C34.0929 46.6218 33.8483 46.4761 33.641 46.2853C33.4337 46.0945 33.2682 45.8628 33.155 45.6048C33.0418 45.3468 32.9834 45.0682 32.9834 44.7865C32.9834 44.5047 33.0418 44.2261 33.155 43.9681C33.2682 43.7101 33.4337 43.4784 33.641 43.2876C33.8483 43.0968 34.0929 42.9511 34.3593 42.8597C34.6258 42.7683 34.9084 42.7331 35.1891 42.7565H50.9951C51.2799 42.7291 51.5672 42.7617 51.8387 42.852C52.1101 42.9423 52.3596 43.0884 52.5713 43.2809C52.7829 43.4734 52.9519 43.708 53.0674 43.9697C53.1829 44.2314 53.2425 44.5144 53.2421 44.8005Z" fill="white"/>
  <path d="M30.3872 36.3023C27.2325 39.4803 24.0662 42.6513 20.8882 45.8153C20.7043 46.0313 20.4785 46.2079 20.2244 46.3343C19.9704 46.4607 19.6934 46.5343 19.4101 46.5506C19.1268 46.567 18.8432 46.5258 18.5763 46.4295C18.3094 46.3331 18.0647 46.1837 17.8572 45.9903C17.6548 45.7881 17.4971 45.5457 17.3943 45.2787C17.2915 45.0118 17.2459 44.7262 17.2604 44.4405C17.275 44.1549 17.3493 43.8754 17.4786 43.6202C17.6079 43.3651 17.7894 43.1399 18.0112 42.9593C20.5965 40.3599 23.1795 37.7676 25.7602 35.1823C25.9212 35.0213 26.1172 34.8883 26.4602 34.6083C26.2163 34.4503 25.9825 34.2773 25.7602 34.0903C23.1702 31.5049 20.5848 28.9173 18.0042 26.3273C17.7846 26.1462 17.6055 25.9212 17.4782 25.6667C17.351 25.4122 17.2785 25.1338 17.2654 24.8495C17.2522 24.5653 17.2988 24.2814 17.4021 24.0163C17.5054 23.7511 17.6632 23.5106 17.8651 23.3101C18.067 23.1096 18.3088 22.9537 18.5747 22.8523C18.8406 22.751 19.1247 22.7065 19.4089 22.7217C19.693 22.7368 19.9709 22.8114 20.2244 22.9405C20.478 23.0696 20.7017 23.2504 20.8812 23.4713C24.0498 26.6446 27.2162 29.8156 30.3802 32.9843C31.5002 34.0903 31.5002 35.1963 30.3872 36.3023Z" fill="white"/>
</svg>