<svg xmlns="http://www.w3.org/2000/svg" width="20" height="21" viewBox="0 0 20 21" fill="none">
  <g clip-path="url(#clip0_6592_2738)">
    <path d="M6.42838 12.8685L6.77071 13.2108L7.1239 12.8797L10.3801 9.82701L10.7449 9.48504L10.4029 9.12027L8.87657 7.49216L8.58688 7.18315L8.23445 7.4181L7.92918 7.62162L7.88799 7.64908L7.85298 7.68409C7.73776 7.7993 7.60848 7.84291 7.50695 7.84291C7.40894 7.84291 7.33396 7.80467 7.28369 7.73764L7.25349 7.69738L7.21587 7.66394L6.31259 6.86102C6.20398 6.74812 6.1626 6.62289 6.1626 6.524C6.1626 6.426 6.20084 6.35102 6.26787 6.30074L6.2963 6.27942L6.32143 6.2543L11.3075 1.2682C11.4227 1.15299 11.552 1.10938 11.6536 1.10938C11.7516 1.10938 11.8265 1.14761 11.8768 1.21465L11.8981 1.24307L11.9233 1.2682L12.8391 2.18401L13.1926 1.83046L12.8391 2.18401C12.9543 2.29923 12.9979 2.42851 12.9979 2.53004C12.9979 2.62805 12.9597 2.70303 12.8926 2.7533L12.8642 2.77462L12.8391 2.79975L12.6356 3.00326L12.282 3.35682L12.6356 3.71037L17.1129 8.18768L17.4664 8.54123L17.82 8.18768L18.0235 7.98417C18.1387 7.86895 18.268 7.82534 18.3695 7.82534C18.4675 7.82534 18.5425 7.86358 18.5928 7.93061L18.6141 7.95904L18.6392 7.98417L19.555 8.89998C19.6703 9.01519 19.7139 9.14448 19.7139 9.24601C19.7139 9.34401 19.6756 9.419 19.6086 9.46927L19.5781 9.49214L19.5514 9.51938L14.6707 14.5018C14.6702 14.5023 14.6697 14.5028 14.6692 14.5034C14.5543 14.6174 14.4257 14.6606 14.3247 14.6606C14.2267 14.6606 14.1517 14.6224 14.1014 14.5554L14.0801 14.5269L14.055 14.5018L13.1392 13.586C13.0239 13.4708 12.9803 13.3415 12.9803 13.24C12.9803 13.142 13.0186 13.067 13.0856 13.0167L13.114 12.9954L13.1392 12.9703L13.3427 12.7667L13.6962 12.4132L13.3427 12.0596L11.7146 10.4315L11.361 10.078L11.0074 10.4315L7.75122 13.6878L7.39767 14.0413L7.75122 14.3949L7.95473 14.5984C8.26826 14.9119 8.26826 15.4094 7.95473 15.7229L3.37567 20.302L3.31829 20.3593L3.2973 20.4013C3.29026 20.4048 3.28004 20.4094 3.2658 20.4146C3.19808 20.4392 3.08239 20.4608 2.91516 20.4608C2.744 20.4608 2.56547 20.4128 2.3529 20.2002L0.521275 18.3686C0.207752 18.0551 0.207752 17.5576 0.521275 17.2441L5.10034 12.665C5.41387 12.3515 5.91134 12.3515 6.22486 12.665L6.42838 12.8685ZM3.31037 20.3937C3.31041 20.3937 3.3099 20.3941 3.30875 20.3949C3.30975 20.394 3.31033 20.3936 3.31037 20.3937ZM8.41004 19.4256H8.91004V18.9256C8.91004 18.66 9.12515 18.4081 9.42762 18.4081H17.8735C18.1391 18.4081 18.391 18.6232 18.391 18.9256V19.4256H18.891H19.1963C19.462 19.4256 19.7139 19.6407 19.7139 19.9432C19.7139 20.2089 19.4988 20.4608 19.1963 20.4608H8.10477C7.83908 20.4608 7.5872 20.2457 7.5872 19.9432C7.5872 19.6775 7.8023 19.4256 8.10477 19.4256H8.41004Z" stroke="#40C96D"/>
  </g>
  <defs>
    <clipPath id="clip0_6592_2738">
      <rect width="20" height="20" fill="white" transform="translate(0 0.785156)"/>
    </clipPath>
  </defs>
</svg>