<svg width="17" height="16" viewBox="0 0 17 16" fill="none" xmlns="http://www.w3.org/2000/svg">
<g id="Frame 1000008351" clip-path="url(#clip0_6443_9590)">
<path id="gavel_1_" d="M5.47575 9.64817L5.74665 9.91907L6.02613 9.65705L8.60285 7.24137L8.8915 6.97076L8.62089 6.68211L7.41306 5.39375L7.18382 5.14923L6.90493 5.33515L6.66337 5.4962L6.63077 5.51793L6.60307 5.54563C6.51189 5.63681 6.40959 5.67131 6.32925 5.67131C6.25169 5.67131 6.19236 5.64106 6.15258 5.58801L6.12868 5.55615L6.09891 5.52969L5.38413 4.89432C5.29818 4.80498 5.26544 4.70589 5.26544 4.62764C5.26544 4.55008 5.2957 4.49075 5.34874 4.45096L5.37124 4.43409L5.39112 4.41421L9.33672 0.468607L9.06186 0.193741L9.33672 0.468607C9.42789 0.377436 9.5302 0.342926 9.61054 0.342926C9.68809 0.342926 9.74743 0.373186 9.78721 0.426229L9.80408 0.448724L9.82397 0.468607L10.5487 1.19331C10.6398 1.28448 10.6743 1.38679 10.6743 1.46713C10.6743 1.54468 10.6441 1.60402 10.591 1.6438L10.5686 1.66067L10.5487 1.68055L10.3876 1.8416L10.1078 2.12137L10.3876 2.40115L13.9306 5.94414L14.2104 6.22391L14.4902 5.94414L14.6512 5.78309C14.7424 5.69192 14.8447 5.65741 14.925 5.65741C15.0026 5.65741 15.0619 5.68767 15.1017 5.74071L15.1186 5.76321L15.1385 5.78309L15.8632 6.50779C15.9543 6.59897 15.9888 6.70127 15.9888 6.78161C15.9888 6.85917 15.9586 6.9185 15.9055 6.95828L15.8814 6.97639L15.8603 6.99794L11.9968 10.9419C11.9059 11.0321 11.8042 11.0663 11.7243 11.0663C11.6467 11.0663 11.5874 11.0361 11.5476 10.983L11.5307 10.9605L11.5108 10.9406L10.7861 10.2159C10.695 10.1248 10.6604 10.0225 10.6604 9.94212C10.6604 9.86457 10.6907 9.80523 10.7437 9.76545L10.7662 9.74858L10.7861 9.72869L10.9472 9.56765L11.2269 9.28788L10.9472 9.0081L9.65881 7.71974L9.37904 7.43997L9.09926 7.71974L6.52254 10.2965L6.24277 10.5762L6.52254 10.856L6.68359 11.0171C6.93169 11.2652 6.93169 11.6588 6.68359 11.9069L3.06008 15.5304L3.01468 15.5758L2.99806 15.609C2.9925 15.6118 2.9844 15.6154 2.97313 15.6195C2.91955 15.639 2.828 15.6561 2.69567 15.6561C2.56023 15.6561 2.41896 15.6181 2.25074 15.4499L0.801338 14.0005L0.522511 14.2793L0.801338 14.0005C0.553241 13.7524 0.55324 13.3587 0.801338 13.1106L4.42485 9.48713C4.67295 9.23903 5.06661 9.23903 5.31471 9.48713L5.47575 9.64817ZM3.0084 15.603C3.00843 15.603 3.00803 15.6033 3.00712 15.6039L3.0084 15.603ZM7.04389 14.837H7.43955V14.4413C7.43955 14.2311 7.60976 14.0317 7.84911 14.0317H14.5325C14.7427 14.0317 14.942 14.202 14.942 14.4413V14.837H15.3377H15.5793C15.7895 14.837 15.9888 15.0072 15.9888 15.2465C15.9888 15.4568 15.8186 15.6561 15.5793 15.6561H6.80232C6.59207 15.6561 6.39275 15.4859 6.39275 15.2465C6.39275 15.0363 6.56297 14.837 6.80232 14.837H7.04389Z" stroke="#40C96D" stroke-width="0.791321"/>
</g>
<defs>
<clipPath id="clip0_6443_9590">
<rect width="15.8264" height="15.8264" fill="white" transform="translate(0.388794 0.0869141)"/>
</clipPath>
</defs>
</svg>
