<svg width="20" height="21" viewBox="0 0 20 21" fill="none" xmlns="http://www.w3.org/2000/svg">
<g id="s&#225;&#186;&#163;n ph&#225;&#186;&#169;m-02">
<path id="Vector" d="M11.758 17.8996C11.758 17.3756 11.772 16.8616 11.758 16.3476C11.7472 16.2271 11.7647 16.1058 11.8092 15.9932C11.8536 15.8807 11.9237 15.7802 12.014 15.6996C13.036 14.6996 14.042 13.6716 15.054 12.6536C15.099 12.5982 15.1385 12.5386 15.172 12.4756L17.152 14.4516C17.114 14.4916 17.07 14.5416 17.024 14.5876C15.9573 15.6543 14.8853 16.7169 13.808 17.7756C13.7444 17.8409 13.6604 17.8825 13.57 17.8936C13.004 17.8936 12.44 17.8936 11.874 17.8936C11.8354 17.8976 11.7967 17.8996 11.758 17.8996Z" fill="#6EEC97"/>
<path id="Vector_2" d="M17.826 13.8277L15.854 11.8597C16.098 11.6157 16.342 11.3497 16.612 11.1117C16.7475 10.9941 16.9217 10.9307 17.1011 10.9337C17.2805 10.9366 17.4524 11.0057 17.584 11.1277C17.912 11.4317 18.23 11.7497 18.536 12.0777C18.6658 12.2199 18.7358 12.4066 18.7317 12.5991C18.7276 12.7916 18.6497 12.9751 18.514 13.1117C18.458 13.1717 18.398 13.2277 18.342 13.2857C18.168 13.4677 18 13.6517 17.826 13.8277Z" fill="#6EEC97"/>
<path id="Vector_3" d="M15.314 3.18624C14.9534 3.11929 14.5863 3.09446 14.22 3.11224C12.532 3.11224 10.842 3.11224 9.15197 3.11224V3.10024H3.59997C3.08139 3.08803 2.57442 3.25475 2.16429 3.57235C1.75417 3.88996 1.46591 4.33909 1.34797 4.84423C1.29144 5.19791 1.274 5.55674 1.29597 5.91423C1.29597 8.39557 1.29597 10.8769 1.29597 13.3582C1.301 13.4395 1.301 13.521 1.29597 13.6022C1.22302 14.1648 1.36317 14.7343 1.68886 15.1988C2.01454 15.6633 2.50221 15.9891 3.05597 16.1122C3.39713 16.1664 3.74325 16.1825 4.08797 16.1602C6.08797 16.1602 8.08397 16.1602 10.076 16.1602H10.166C10.4046 16.1554 10.632 16.0579 10.8 15.8882L16.722 9.95424C16.8094 9.86917 16.8791 9.76752 16.9268 9.65523C16.9746 9.54293 16.9994 9.42225 17 9.30024V9.28224C17 7.9849 17.0053 6.68624 17.016 5.38623C17.0207 4.88164 16.8553 4.39018 16.5465 3.99106C16.2377 3.59194 15.8036 3.30843 15.314 3.18624ZM14.278 7.15024L11.868 8.90024L10.116 10.1702C9.81292 10.4088 9.43542 10.5327 9.04997 10.5202C8.75603 10.5038 8.4735 10.4009 8.23797 10.2242C6.82197 9.20023 5.4093 8.17357 3.99997 7.14424C3.925 7.09681 3.86049 7.03459 3.8104 6.96138C3.76031 6.88816 3.72569 6.8055 3.70865 6.71844C3.69161 6.63138 3.69252 6.54176 3.71132 6.45506C3.73011 6.36837 3.76641 6.28642 3.81797 6.21424C3.87146 6.14218 3.93909 6.08179 4.01671 6.03676C4.09433 5.99172 4.18033 5.96299 4.26943 5.95232C4.35854 5.94165 4.44888 5.94927 4.53494 5.9747C4.621 6.00013 4.70098 6.04285 4.76997 6.10023L8.85197 9.06024C9.13597 9.26023 9.13597 9.26023 9.41597 9.06024L13.498 6.10023C13.926 5.79024 14.452 5.95624 14.568 6.43824C14.604 6.5723 14.5951 6.71446 14.5427 6.84301C14.4904 6.97157 14.3974 7.07946 14.278 7.15024Z" fill="#33A959"/>
<path id="Vector_4" d="M14.278 7.14984L11.868 8.89984L10.116 10.1698C9.81294 10.4084 9.43545 10.5323 9.04999 10.5198C8.75605 10.5034 8.47353 10.4005 8.23799 10.2238C6.82199 9.19984 5.40932 8.17317 3.99999 7.14384C3.92502 7.09641 3.86051 7.03419 3.81042 6.96098C3.76033 6.88776 3.72571 6.8051 3.70867 6.71804C3.69163 6.63098 3.69254 6.54136 3.71134 6.45466C3.73013 6.36797 3.76643 6.28602 3.81799 6.21384C3.87148 6.14178 3.93911 6.08139 4.01673 6.03636C4.09435 5.99132 4.18035 5.96259 4.26945 5.95192C4.35856 5.94125 4.4489 5.94887 4.53496 5.9743C4.62103 5.99973 4.701 6.04245 4.76999 6.09984L8.85199 9.05984C9.13599 9.25984 9.13599 9.25984 9.41599 9.05984L13.498 6.09984C13.926 5.78984 14.452 5.95584 14.568 6.43784C14.604 6.5719 14.5951 6.71406 14.5427 6.84261C14.4904 6.97117 14.3974 7.07906 14.278 7.14984Z" fill="white"/>
</g>
</svg>
