<svg xmlns="http://www.w3.org/2000/svg" width="16" height="17" viewBox="0 0 16 17" fill="none">
  <path d="M6.44521 5.28916C7.11701 4.08402 7.45291 3.48145 7.9551 3.48145C8.45729 3.48145 8.79319 4.08402 9.46498 5.28916L9.63879 5.60094C9.82969 5.9434 9.92514 6.11463 10.074 6.22762C10.2228 6.3406 10.4082 6.38253 10.7789 6.46641L11.1164 6.54277C12.4209 6.83794 13.0732 6.98552 13.2284 7.48456C13.3836 7.98359 12.9389 8.50359 12.0495 9.54357L11.8194 9.81263C11.5667 10.1082 11.4404 10.2559 11.3835 10.4387C11.3267 10.6215 11.3458 10.8187 11.384 11.213L11.4188 11.572C11.5532 12.9595 11.6204 13.6533 11.2142 13.9617C10.8079 14.2702 10.1972 13.989 8.97571 13.4266L8.65971 13.2811C8.31261 13.1212 8.13906 13.0413 7.9551 13.0413C7.77114 13.0413 7.59759 13.1212 7.25049 13.2811L6.93449 13.4266C5.71304 13.989 5.10231 14.2702 4.69603 13.9617C4.28975 13.6533 4.35698 12.9595 4.49144 11.572L4.52623 11.213C4.56444 10.8187 4.58354 10.6215 4.52669 10.4387C4.46985 10.2559 4.34348 10.1082 4.09076 9.81263L3.86067 9.54357C2.97131 8.50359 2.52664 7.98359 2.68182 7.48456C2.83701 6.98552 3.48928 6.83794 4.79383 6.54277L5.13133 6.46641C5.50204 6.38253 5.6874 6.3406 5.83623 6.22762C5.98506 6.11463 6.08051 5.9434 6.27141 5.60094L6.44521 5.28916Z" fill="#F8E008"/>
</svg>