<svg xmlns="http://www.w3.org/2000/svg" width="40" height="41" viewBox="0 0 40 41" fill="none">
  <path d="M16.2055 11.7115C17.8944 8.68183 18.7388 7.16699 20.0013 7.16699C21.2638 7.16699 22.1082 8.68183 23.7971 11.7115L24.234 12.4953C24.7139 13.3562 24.9539 13.7867 25.328 14.0707C25.7022 14.3548 26.1682 14.4602 27.1001 14.6711L27.9486 14.863C31.2282 15.6051 32.8679 15.9761 33.2581 17.2306C33.6482 18.4852 32.5303 19.7924 30.2945 22.4069L29.7161 23.0833C29.0807 23.8262 28.7631 24.1977 28.6202 24.6573C28.4772 25.1168 28.5253 25.6125 28.6213 26.6037L28.7088 27.5062C29.0468 30.9945 29.2158 32.7386 28.1944 33.514C27.1731 34.2893 25.6377 33.5824 22.5671 32.1686L21.7727 31.8028C20.9001 31.401 20.4638 31.2001 20.0013 31.2001C19.5388 31.2001 19.1025 31.401 18.23 31.8028L17.4355 32.1686C14.3649 33.5824 12.8295 34.2893 11.8082 33.514C10.7868 32.7386 10.9558 30.9945 11.2938 27.5062L11.3813 26.6037C11.4773 25.6125 11.5254 25.1168 11.3825 24.6573C11.2395 24.1977 10.9219 23.8262 10.2865 23.0833L9.7081 22.4069C7.4723 19.7924 6.3544 18.4852 6.74453 17.2306C7.13466 15.9761 8.77444 15.6051 12.054 14.863L12.9025 14.6711C13.8344 14.4602 14.3004 14.3548 14.6746 14.0707C15.0487 13.7867 15.2887 13.3562 15.7686 12.4953L16.2055 11.7115Z" fill="#E1E1E1"/>
</svg>