<svg width="25" height="26" viewBox="0 0 25 26" fill="none" xmlns="http://www.w3.org/2000/svg">
<g id="Linear / Like / Star">
<path id="Vector" d="M10.128 7.55516C11.1835 5.66161 11.7113 4.71484 12.5003 4.71484C13.2894 4.71484 13.8171 5.66161 14.8727 7.55516L15.1458 8.04504C15.4457 8.58312 15.5957 8.85217 15.8295 9.02968C16.0634 9.2072 16.3546 9.27309 16.9371 9.40488L17.4674 9.52487C19.5171 9.98864 20.542 10.2205 20.7858 11.0046C21.0296 11.7887 20.331 12.6057 18.9336 14.2398L18.5721 14.6625C18.175 15.1269 17.9764 15.359 17.8871 15.6463C17.7978 15.9335 17.8278 16.2433 17.8878 16.8628L17.9425 17.4268C18.1538 19.607 18.2594 20.6971 17.621 21.1817C16.9827 21.6663 16.0231 21.2245 14.1039 20.3408L13.6074 20.1122C13.0621 19.8611 12.7894 19.7356 12.5003 19.7356C12.2113 19.7356 11.9386 19.8611 11.3932 20.1122L10.8967 20.3408C8.97755 21.2245 8.01797 21.6663 7.37962 21.1817C6.74126 20.6971 6.84689 19.607 7.05816 17.4268L7.11281 16.8628C7.17285 16.2433 7.20286 15.9335 7.11354 15.6463C7.02422 15.359 6.82568 15.1269 6.42859 14.6625L6.06707 14.2398C4.6697 12.6057 3.97101 11.7887 4.21484 11.0046C4.45867 10.2205 5.48354 9.98864 7.53327 9.52487L8.06356 9.40488C8.64603 9.2731 8.93727 9.2072 9.17111 9.02968C9.40495 8.85217 9.55493 8.58312 9.85488 8.04504L10.128 7.55516Z" fill="#FFC805"/>
</g>
</svg>
