<svg xmlns="http://www.w3.org/2000/svg" width="30" height="31" viewBox="0 0 30 31" fill="none">
  <g clip-path="url(#clip0_282_5835)">
    <rect y="0.25293" width="30" height="30" fill="#34AADF"/>
    <path d="M8.34605 14.722C8.34605 14.722 14.4495 12.1513 16.5662 11.2461C17.3777 10.8841 20.1295 9.72544 20.1295 9.72544C20.1295 9.72544 21.3996 9.21858 21.2937 10.4496C21.2584 10.9565 20.9762 12.7306 20.694 14.6496C20.2706 17.3651 19.812 20.334 19.812 20.334C19.812 20.334 19.7414 21.1668 19.1417 21.3116C18.5419 21.4564 17.5541 20.8048 17.3777 20.6599C17.2365 20.5513 14.7317 18.922 13.8144 18.1254C13.5674 17.9082 13.2852 17.4737 13.8497 16.9668C15.1198 15.772 16.6368 14.2875 17.5541 13.3462C17.9774 12.9116 18.4008 11.8979 16.6368 13.1289C14.1319 14.903 11.6624 16.5685 11.6624 16.5685C11.6624 16.5685 11.0979 16.9306 10.0395 16.6047C8.98105 16.2789 7.74626 15.8444 7.74626 15.8444C7.74626 15.8444 6.89959 15.3013 8.34605 14.722Z" fill="white"/>
  </g>
  <defs>
    <clipPath id="clip0_282_5835">
      <rect y="0.25293" width="30" height="30" rx="15" fill="white"/>
    </clipPath>
  </defs>
</svg>