<svg xmlns="http://www.w3.org/2000/svg" width="20" height="21" viewBox="0 0 20 21" fill="none">
  <path d="M2.35951 10.0309C2.35951 10.0309 9.65897 6.95654 12.1905 5.87397C13.161 5.44097 16.4521 4.05527 16.4521 4.05527C16.4521 4.05527 17.9711 3.44908 17.8445 4.92132C17.8023 5.52757 17.4647 7.64933 17.1272 9.94435C16.6208 13.192 16.0723 16.7427 16.0723 16.7427C16.0723 16.7427 15.988 17.7387 15.2707 17.9119C14.5534 18.0851 13.3719 17.3057 13.161 17.1325C12.9922 17.0026 9.9965 15.054 8.89948 14.1013C8.60411 13.8415 8.26658 13.3219 8.94164 12.7157C10.4606 11.2867 12.2749 9.51136 13.3719 8.38551C13.8783 7.86586 14.3846 6.65341 12.2749 8.12565C9.27922 10.2475 6.32569 12.2394 6.32569 12.2394C6.32569 12.2394 5.65057 12.6724 4.38479 12.2826C3.11894 11.893 1.64217 11.3733 1.64217 11.3733C1.64217 11.3733 0.629593 10.7238 2.35951 10.0309Z" fill="#33A959"/>
</svg>