<svg xmlns="http://www.w3.org/2000/svg" width="21" height="19" viewBox="0 0 21 19" fill="none">
  <path d="M1.34896 8.61477C1.34896 8.61477 10.5731 4.72972 13.7722 3.3617C14.9986 2.81453 19.1574 1.06345 19.1574 1.06345C19.1574 1.06345 21.0769 0.297425 20.9169 2.15786C20.8636 2.92396 20.4371 5.60518 20.0105 8.50534C19.3707 12.6093 18.6775 17.0963 18.6775 17.0963C18.6775 17.0963 18.5709 18.3549 17.6645 18.5738C16.7581 18.7926 15.2651 17.8077 14.9986 17.5888C14.7852 17.4247 10.9996 14.9623 9.61336 13.7584C9.24012 13.4301 8.81359 12.7735 9.66664 12.0074C11.5862 10.2017 13.8788 7.95818 15.2651 6.53548C15.905 5.8788 16.5448 4.34667 13.8788 6.2071C10.0932 8.88839 6.36093 11.4055 6.36093 11.4055C6.36093 11.4055 5.5078 11.9527 3.90826 11.4602C2.30865 10.9678 0.442488 10.3111 0.442488 10.3111C0.442488 10.3111 -0.837087 9.49031 1.34896 8.61477Z" fill="white"/>
</svg>