<svg width="21" height="21" viewBox="0 0 21 21" fill="none" xmlns="http://www.w3.org/2000/svg">
<g id="Brand / Plain / Telegram">
<path id="Vector" d="M4.89799 10.1236C4.89799 10.1236 10.5237 7.75413 12.4747 6.91979C13.2227 6.58609 15.7591 5.51813 15.7591 5.51813C15.7591 5.51813 16.9298 5.05094 16.8322 6.18559C16.7997 6.65283 16.5395 8.28806 16.2794 10.0568C15.8892 12.5598 15.4664 15.2963 15.4664 15.2963C15.4664 15.2963 15.4014 16.0639 14.8486 16.1974C14.2958 16.3309 13.3852 15.7302 13.2227 15.5967C13.0926 15.4966 10.7838 13.9948 9.93832 13.2606C9.71069 13.0604 9.45055 12.6599 9.97082 12.1927C11.1415 11.0914 12.5398 9.72312 13.3852 8.85543C13.7755 8.45494 14.1657 7.52051 12.5398 8.65516C10.231 10.2904 7.95471 11.8256 7.95471 11.8256C7.95471 11.8256 7.43441 12.1593 6.45887 11.8589C5.48329 11.5586 4.34515 11.1581 4.34515 11.1581C4.34515 11.1581 3.56476 10.6575 4.89799 10.1236Z" fill="#33A959"/>
</g>
</svg>
