<svg width="20" height="21" viewBox="0 0 20 21" fill="none" xmlns="http://www.w3.org/2000/svg">
<g id="Brand / Plain / Telegram">
<path id="Vector" d="M2.35984 10.2263C2.35984 10.2263 9.6593 7.15185 12.1909 6.06928C13.1613 5.63628 16.4524 4.25058 16.4524 4.25058C16.4524 4.25058 17.9714 3.64439 17.8448 5.11663C17.8026 5.72288 17.4651 7.84464 17.1275 10.1397C16.6212 13.3873 16.0727 16.9381 16.0727 16.9381C16.0727 16.9381 15.9883 17.934 15.271 18.1072C14.5537 18.2804 13.3723 17.501 13.1613 17.3278C12.9925 17.1979 9.99683 15.2493 8.8998 14.2966C8.60444 14.0368 8.26691 13.5173 8.94197 12.911C10.461 11.482 12.2753 9.70667 13.3723 8.58082C13.8786 8.06117 14.3849 6.84873 12.2752 8.32097C9.27955 10.4428 6.32601 12.4347 6.32601 12.4347C6.32601 12.4347 5.6509 12.8677 4.38512 12.4779C3.11927 12.0883 1.6425 11.5686 1.6425 11.5686C1.6425 11.5686 0.629921 10.9191 2.35984 10.2263Z" fill="#33A959"/>
</g>
</svg>
