<svg xmlns="http://www.w3.org/2000/svg" width="41" height="41" viewBox="0 0 25 29" fill="none">
  <path d="M21.925 6.96868C21.736 6.87099 21.552 6.7639 21.3737 6.64781C20.8552 6.30503 20.3798 5.90114 19.9578 5.44484C18.9018 4.23661 18.5075 3.01089 18.3622 2.15271H18.368C18.2467 1.44038 18.2969 0.979492 18.3044 0.979492H13.4949V19.5771C13.4949 19.8268 13.4949 20.0736 13.4844 20.3174C13.4844 20.3478 13.4815 20.3758 13.4797 20.4085C13.4797 20.4219 13.4797 20.4359 13.4768 20.4499C13.4768 20.4534 13.4768 20.4569 13.4768 20.4604C13.4261 21.1277 13.2122 21.7723 12.8539 22.3375C12.4956 22.9027 12.0039 23.3712 11.4221 23.7018C10.8157 24.0468 10.1298 24.2277 9.4321 24.2268C7.19126 24.2268 5.37513 22.3996 5.37513 20.143C5.37513 17.8864 7.19126 16.0592 9.4321 16.0592C9.85628 16.0588 10.2778 16.1256 10.6812 16.257L10.687 11.3599C9.46264 11.2018 8.21881 11.2991 7.03395 11.6457C5.8491 11.9923 4.74894 12.5807 3.80287 13.3738C2.9739 14.0941 2.27698 14.9535 1.74347 15.9134C1.54045 16.2634 0.774441 17.67 0.681681 19.9528C0.623341 21.2486 1.01247 22.591 1.19799 23.1458V23.1574C1.31467 23.4841 1.7668 24.599 2.50364 25.5389C3.09779 26.2928 3.79977 26.9551 4.58696 27.5044V27.4927L4.59863 27.5044C6.92698 29.0865 9.50852 28.9827 9.50852 28.9827C9.95541 28.9646 11.4524 28.9827 13.1524 28.177C15.038 27.2838 16.1114 25.9531 16.1114 25.9531C16.7972 25.158 17.3425 24.2518 17.724 23.2735C18.1592 22.1295 18.3044 20.7573 18.3044 20.2089V10.3425C18.3628 10.3775 19.1399 10.8915 19.1399 10.8915C19.1399 10.8915 20.2594 11.609 22.0061 12.0763C23.2593 12.4089 24.9476 12.4789 24.9476 12.4789V7.70434C24.356 7.76852 23.1548 7.58183 21.925 6.96868Z" fill="#252C32"/>
</svg>