<svg width="30" height="31" viewBox="0 0 30 31" fill="none" xmlns="http://www.w3.org/2000/svg">
<path fill-rule="evenodd" clip-rule="evenodd" d="M11.7382 5.94275C11.7382 5.34227 12.225 4.85547 12.8254 4.85547H17.1746C17.7751 4.85547 18.2618 5.34227 18.2618 5.94275C18.2618 6.54323 17.7751 7.03003 17.1746 7.03003H16.0873V8.1846C20.378 8.71965 23.6982 12.3799 23.6982 16.8156C23.6982 21.6195 19.8039 25.5138 15 25.5138C10.1961 25.5138 6.30176 21.6195 6.30176 16.8156C6.30176 12.3799 9.62197 8.71965 13.9127 8.1846V7.03003H12.8254C12.225 7.03003 11.7382 6.54323 11.7382 5.94275ZM19.0307 12.7849C19.4552 13.2095 19.4552 13.8979 19.0307 14.3225L17.101 16.2523C17.1489 16.432 17.1746 16.6207 17.1746 16.8156C17.1746 18.0166 16.201 18.9901 15 18.9901C13.799 18.9901 12.8254 18.0166 12.8254 16.8156C12.8254 15.6145 13.799 14.641 15 14.641C15.1948 14.641 15.3836 14.6667 15.5632 14.7146L17.493 12.7849C17.9176 12.3603 18.6061 12.3603 19.0307 12.7849Z" fill="black"/>
</svg>
