<svg width="25" height="25" viewBox="0 0 25 25" fill="none" xmlns="http://www.w3.org/2000/svg">
<path fill-rule="evenodd" clip-rule="evenodd" d="M12.7109 20.7734C17.4053 20.7734 21.2109 16.9678 21.2109 12.2734C21.2109 7.57902 17.4053 3.77344 12.7109 3.77344C8.01652 3.77344 4.21094 7.57902 4.21094 12.2734C4.21094 16.9678 8.01652 20.7734 12.7109 20.7734ZM12.7109 22.2734C18.2337 22.2734 22.7109 17.7962 22.7109 12.2734C22.7109 6.75059 18.2337 2.27344 12.7109 2.27344C7.18809 2.27344 2.71094 6.75059 2.71094 12.2734C2.71094 17.7962 7.18809 22.2734 12.7109 22.2734Z" fill="#33A959"/>
<path fill-rule="evenodd" clip-rule="evenodd" d="M12.7109 10.5234C13.1251 10.5234 13.4609 10.8592 13.4609 11.2734V16.2743C13.4609 16.6885 13.1251 17.0243 12.7109 17.0243C12.2967 17.0243 11.9609 16.6885 11.9609 16.2743V11.2734C11.9609 10.8592 12.2967 10.5234 12.7109 10.5234Z" fill="#33A959"/>
<path d="M13.7109 8.27344C13.7109 8.82572 13.2632 9.27344 12.7109 9.27344C12.1586 9.27344 11.7109 8.82572 11.7109 8.27344C11.7109 7.72116 12.1586 7.27344 12.7109 7.27344C13.2632 7.27344 13.7109 7.72116 13.7109 8.27344Z" fill="#33A959"/>
</svg>
