<svg xmlns="http://www.w3.org/2000/svg" width="24" height="25" viewBox="0 0 24 25" fill="none">
  <path fill-rule="evenodd" clip-rule="evenodd" d="M12.2069 19.255C12.5974 18.8645 12.5974 18.2313 12.2069 17.8408L6.41407 12.0479L12.2069 6.25496C12.5974 5.86443 12.5974 5.23127 12.2069 4.84074C11.8164 4.45022 11.1832 4.45022 10.7927 4.84074L4.99985 10.6337C4.2188 11.4147 4.2188 12.6811 4.99985 13.4621L10.7927 19.255C11.1832 19.6455 11.8164 19.6455 12.2069 19.255Z" fill="#3F3F3F"/>
  <path fill-rule="evenodd" clip-rule="evenodd" d="M18.4569 19.255C18.8474 18.8645 18.8474 18.2313 18.4569 17.8408L12.664 12.0479L18.4569 6.25496C18.8474 5.86443 18.8474 5.23127 18.4569 4.84074C18.0664 4.45022 17.4332 4.45022 17.0427 4.84074L11.2498 10.6337C10.4688 11.4147 10.4688 12.6811 11.2498 13.4621L17.0427 19.255C17.4332 19.6455 18.0664 19.6455 18.4569 19.255Z" fill="#3F3F3F"/>
</svg>