<svg xmlns="http://www.w3.org/2000/svg" width="24" height="25" viewBox="0 0 24 25" fill="none">
  <path d="M10 2.04785H4C2.89543 2.04785 2 2.94328 2 4.04785V8.04785C2 9.15242 2.89543 10.0479 4 10.0479H10C11.1046 10.0479 12 9.15242 12 8.04785V4.04785C12 2.94328 11.1046 2.04785 10 2.04785Z" stroke="#40C96D" stroke-width="1.5"/>
  <path d="M20 14.0479H14C12.8954 14.0479 12 14.9433 12 16.0479V20.0479C12 21.1524 12.8954 22.0479 14 22.0479H20C21.1046 22.0479 22 21.1524 22 20.0479V16.0479C22 14.9433 21.1046 14.0479 20 14.0479Z" stroke="#40C96D" stroke-width="1.5"/>
  <path d="M20.9445 3.51752C20.6517 3.22463 20.1768 3.22463 19.8839 3.51752C19.591 3.81041 19.591 4.28529 19.8839 4.57818L20.9445 3.51752ZM19.8839 7.51752C19.591 7.81041 19.591 8.28529 19.8839 8.57818C20.1768 8.87107 20.6517 8.87107 20.9445 8.57818L19.8839 7.51752ZM16 5.29785C15.5858 5.29785 15.25 5.63364 15.25 6.04785C15.25 6.46206 15.5858 6.79785 16 6.79785V5.29785ZM21.4142 6.79785C21.8284 6.79785 22.1642 6.46206 22.1642 6.04785C22.1642 5.63364 21.8284 5.29785 21.4142 5.29785V6.79785ZM19.8839 4.57818L21.1768 5.87107L22.2374 4.81041L20.9445 3.51752L19.8839 4.57818ZM21.1768 6.22463L19.8839 7.51752L20.9445 8.57818L22.2374 7.28529L21.1768 6.22463ZM21.1768 5.87107C21.2744 5.9687 21.2744 6.127 21.1768 6.22463L22.2374 7.28529C22.9209 6.60187 22.9209 5.49383 22.2374 4.81041L21.1768 5.87107ZM16 6.79785H21.4142V5.29785H16V6.79785Z" fill="#40C96D"/>
  <path d="M3.05546 15.5175C3.34835 15.2246 3.82322 15.2246 4.11612 15.5175C4.40901 15.8104 4.40901 16.2852 4.11612 16.5781L3.05546 15.5175ZM4.11612 19.5175C4.40901 19.8104 4.40901 20.2852 4.11612 20.5781C3.82322 20.871 3.34835 20.871 3.05546 20.5781L4.11612 19.5175ZM8 17.2978C8.41421 17.2978 8.75 17.6336 8.75 18.0478C8.75 18.462 8.41421 18.7978 8 18.7978V17.2978ZM2.58579 18.7978C2.17157 18.7978 1.83579 18.462 1.83579 18.0478C1.83579 17.6336 2.17157 17.2978 2.58579 17.2978V18.7978ZM4.11612 16.5781L2.82322 17.871L1.76256 16.8104L3.05546 15.5175L4.11612 16.5781ZM2.82322 18.2246L4.11612 19.5175L3.05546 20.5781L1.76256 19.2852L2.82322 18.2246ZM2.82322 17.871C2.72559 17.9687 2.72559 18.1269 2.82322 18.2246L1.76256 19.2852C1.07915 18.6018 1.07914 17.4938 1.76256 16.8104L2.82322 17.871ZM8 18.7978H2.58579V17.2978H8V18.7978Z" fill="#40C96D"/>
</svg>
