<svg xmlns="http://www.w3.org/2000/svg" width="30" height="30" viewBox="0 0 16 14" fill="none">
  <path d="M15.4463 2.50308C14.9509 2.71645 14.4302 2.86503 13.8969 2.94514C14.1462 2.90236 14.5131 2.45317 14.6591 2.27136C14.881 1.99711 15.05 1.68403 15.1578 1.34802C15.1578 1.32307 15.1827 1.28742 15.1578 1.26959C15.1452 1.26273 15.1311 1.25913 15.1168 1.25913C15.1025 1.25913 15.0884 1.26273 15.0758 1.26959C14.4967 1.58346 13.8804 1.82302 13.2415 1.98259C13.2192 1.9894 13.1955 1.99001 13.1729 1.98436C13.1503 1.97871 13.1297 1.967 13.1133 1.95051C13.0635 1.89123 13.01 1.83526 12.953 1.78295C12.6924 1.54925 12.3967 1.35797 12.0768 1.21612C11.6449 1.03878 11.1784 0.961985 10.7126 0.99152C10.2606 1.02009 9.81923 1.14144 9.41607 1.34802C9.01905 1.56581 8.67013 1.86169 8.39026 2.21788C8.09587 2.58449 7.88333 3.00995 7.76694 3.46563C7.67096 3.89909 7.66007 4.34708 7.73488 4.78469C7.73488 4.85955 7.73488 4.87025 7.67077 4.85955C5.13118 4.48522 3.0475 3.58328 1.34494 1.64748C1.27014 1.56192 1.23096 1.56192 1.17041 1.64748C0.429548 2.77402 0.789293 4.55652 1.71537 5.43708C1.84004 5.55473 1.96826 5.66881 2.10361 5.77576C1.67901 5.74559 1.26478 5.63042 0.885463 5.43708C0.814226 5.39074 0.775046 5.41569 0.771484 5.50125C0.761387 5.61987 0.761387 5.73913 0.771484 5.85775C0.845804 6.42623 1.06964 6.96474 1.4201 7.41824C1.77055 7.87173 2.23506 8.22393 2.76611 8.43882C2.89557 8.49431 3.03047 8.53613 3.1686 8.56359C2.77553 8.64105 2.37238 8.65309 1.97539 8.59924C1.8899 8.58142 1.85785 8.62776 1.8899 8.70976C2.41349 10.1358 3.54972 10.5707 4.38319 10.8131C4.49717 10.8309 4.61115 10.8309 4.73937 10.8595C4.73937 10.8595 4.73937 10.8595 4.718 10.8808C4.47223 11.33 3.47848 11.6331 3.02257 11.7899C2.1904 12.0891 1.30316 12.2034 0.422424 12.125C0.283512 12.1036 0.251456 12.1072 0.215837 12.125C0.180219 12.1429 0.215837 12.1821 0.255018 12.2177C0.43311 12.3354 0.611201 12.4388 0.796417 12.5386C1.34781 12.8396 1.93073 13.0787 2.53459 13.2516C5.66189 14.1143 9.18099 13.4797 11.5282 11.1447C13.3733 9.31224 14.0215 6.78465 14.0215 4.2535C14.0215 4.15724 14.1391 4.1002 14.2067 4.05029C14.6735 3.68627 15.085 3.25636 15.4285 2.77402C15.4879 2.70212 15.5184 2.61058 15.5139 2.51734C15.5139 2.46387 15.5139 2.47456 15.4463 2.50308Z" fill="white"/>
</svg>