<svg xmlns="http://www.w3.org/2000/svg" width="49" height="41" viewBox="0 0 33 23" fill="none">
  <path d="M32.3339 2.93302C31.3137 3.29923 30.2412 3.55423 29.1428 3.69174C29.6563 3.61831 30.4119 2.84736 30.7127 2.53531C31.1696 2.06461 31.5179 1.52727 31.7397 0.950577C31.7397 0.907747 31.7911 0.84656 31.7397 0.815967C31.7138 0.804185 31.6848 0.798011 31.6554 0.798011C31.6259 0.798011 31.5969 0.804185 31.571 0.815967C30.3783 1.35467 29.109 1.76582 27.793 2.0397C27.7472 2.05139 27.6983 2.05243 27.6518 2.04273C27.6053 2.03303 27.5628 2.01295 27.5289 1.98463C27.4265 1.8829 27.3162 1.78683 27.1988 1.69705C26.6621 1.29594 26.0531 0.967654 25.3942 0.724187C24.5047 0.419831 23.544 0.288021 22.5846 0.338711C21.6536 0.387751 20.7447 0.596024 19.9143 0.950577C19.0966 1.32438 18.378 1.8322 17.8016 2.44353C17.1952 3.07274 16.7575 3.80296 16.5178 4.58506C16.3201 5.329 16.2977 6.09789 16.4518 6.84896C16.4518 6.97746 16.4518 6.99581 16.3197 6.97746C11.0893 6.335 6.79777 4.78698 3.29122 1.46454C3.13717 1.3177 3.05647 1.3177 2.93176 1.46454C1.4059 3.39804 2.14683 6.45737 4.05415 7.96868C4.31091 8.17059 4.575 8.36639 4.85376 8.54995C3.97926 8.49817 3.12613 8.30051 2.34489 7.96868C2.19818 7.88914 2.11748 7.93197 2.11015 8.07881C2.08935 8.2824 2.08935 8.48709 2.11015 8.69068C2.26321 9.66636 2.72422 10.5906 3.44601 11.369C4.1678 12.1473 5.12449 12.7518 6.21823 13.1206C6.48486 13.2158 6.76269 13.2876 7.04719 13.3347C6.23762 13.4677 5.40731 13.4884 4.58967 13.3959C4.41361 13.3653 4.34759 13.4449 4.41361 13.5856C5.49198 16.0331 7.83212 16.7795 9.54872 17.1956C9.78347 17.2262 10.0182 17.2262 10.2823 17.2752C10.2823 17.2752 10.2823 17.2752 10.2383 17.3119C9.73211 18.0828 7.68541 18.6029 6.74642 18.8721C5.03252 19.3856 3.20518 19.5819 1.39123 19.4473C1.10513 19.4106 1.03911 19.4167 0.965752 19.4473C0.892393 19.4779 0.965752 19.5452 1.04645 19.6064C1.41324 19.8083 1.78003 19.9857 2.1615 20.157C3.29712 20.6737 4.49771 21.0841 5.7414 21.3808C12.1823 22.8615 19.4301 21.7724 24.2645 17.7647C28.0645 14.6197 29.3996 10.2815 29.3996 5.93728C29.3996 5.77208 29.6417 5.67418 29.781 5.58852C30.7424 4.96374 31.59 4.22589 32.2972 3.39804C32.4197 3.27464 32.4825 3.11752 32.4733 2.9575C32.4733 2.86572 32.4733 2.88407 32.3339 2.93302Z" fill="#252C32"/>
</svg>