<svg xmlns="http://www.w3.org/2000/svg" width="31" height="31" viewBox="0 0 31 31" fill="none">
  <path d="M12.4129 19.9607C12.0468 20.3269 11.4532 20.3269 11.0871 19.9607C10.721 19.5946 10.721 19.0011 11.0871 18.635L14.8371 14.885C15.0194 14.7026 15.2582 14.6111 15.4972 14.6104H15.5H15.5027C15.6289 14.6107 15.7491 14.636 15.8589 14.6815C15.9694 14.7272 16.073 14.7951 16.1629 14.885L19.9129 18.635C20.279 19.0011 20.279 19.5946 19.9129 19.9607C19.5467 20.3269 18.9532 20.3269 18.5871 19.9607L16.4375 17.8112V25.5479C16.4375 26.0656 16.0177 26.4854 15.5 26.4854C14.9822 26.4854 14.5625 26.0656 14.5625 25.5479V17.8112L12.4129 19.9607Z" fill="#33A959"/>
  <path fill-rule="evenodd" clip-rule="evenodd" d="M11.3787 8.75361C12.5999 5.59836 15.6626 3.36035 19.25 3.36035C23.9099 3.36035 27.6875 7.13795 27.6875 11.7979C27.6875 14.2969 26.5999 16.5431 24.8752 18.0867C24.4894 18.432 23.8967 18.3991 23.5514 18.0134C23.2061 17.6276 23.239 17.0349 23.6248 16.6896C24.9689 15.4866 25.8125 13.7414 25.8125 11.7979C25.8125 8.17349 22.8744 5.23535 19.25 5.23535C16.142 5.23535 13.5366 7.39676 12.8591 10.2994C12.7899 10.596 12.5809 10.8405 12.2987 10.955C12.0165 11.0696 11.6963 11.0399 11.4399 10.8754C10.8085 10.4704 10.0581 10.2354 9.25 10.2354C7.00634 10.2354 5.1875 12.0542 5.1875 14.2979C5.1875 15.8004 6.0027 17.1136 7.21942 17.8175C7.66761 18.0767 7.82076 18.6502 7.5615 19.0984C7.30225 19.5466 6.72875 19.6997 6.28058 19.4405C4.50829 18.4152 3.3125 16.4967 3.3125 14.2979C3.3125 11.0187 5.97081 8.36035 9.25 8.36035C9.99936 8.36035 10.7174 8.49956 11.3787 8.75361Z" fill="#33A959"/>
</svg>