<svg width="20" height="21" viewBox="0 0 20 21" fill="none" xmlns="http://www.w3.org/2000/svg">
<g id="wallet">
<path id="Vector" fill-rule="evenodd" clip-rule="evenodd" d="M4.16663 1.94043C2.78592 1.94043 1.66663 3.05972 1.66663 4.44043V16.1071C1.66663 17.4878 2.78592 18.6071 4.16663 18.6071H15.8333C17.214 18.6071 18.3333 17.4878 18.3333 16.1071V7.77376C18.3333 6.68525 17.6376 5.75921 16.6666 5.41602V4.44043C16.6666 3.05972 15.5474 1.94043 14.1666 1.94043H4.16663ZM4.16663 3.6071C3.70639 3.6071 3.33329 3.9802 3.33329 4.44043C3.33329 4.90066 3.70639 5.27376 4.16663 5.27376H15V4.44043C15 3.9802 14.6269 3.6071 14.1666 3.6071H4.16663ZM14.1666 10.2738C13.2461 10.2738 12.5 11.0199 12.5 11.9404C12.5 12.8609 13.2461 13.6071 14.1666 13.6071H15.8333C16.2935 13.6071 16.6666 13.234 16.6666 12.7738V11.1071C16.6666 10.6468 16.2935 10.2738 15.8333 10.2738H14.1666Z" fill="#40C96D"/>
</g>
</svg>
