<svg xmlns="http://www.w3.org/2000/svg" width="24" height="25" viewBox="0 0 24 25" fill="none">
  <path d="M18 7.04785H18.75C18.75 6.84894 18.671 6.65817 18.5303 6.51752C18.3897 6.37687 18.1989 6.29785 18 6.29785V7.04785ZM6 7.04785V6.29785C5.80109 6.29785 5.61032 6.37687 5.46967 6.51752C5.32902 6.65817 5.25 6.84894 5.25 7.04785H6ZM17.25 7.04785V11.0479H18.75V7.04785H17.25ZM17.25 11.0479V19.0479H18.75V11.0479H17.25ZM16 20.2979H8V21.7979H16V20.2979ZM6.75 19.0479V7.04785H5.25V19.0479H6.75ZM6 7.79785H18V6.29785H6V7.79785ZM6 3.79785H18V2.29785H6V3.79785ZM2.75 7.04785C2.75 5.25293 4.20507 3.79785 6 3.79785V2.29785C3.37665 2.29785 1.25 4.4245 1.25 7.04785H2.75ZM6 10.2979C4.20507 10.2979 2.75 8.84278 2.75 7.04785H1.25C1.25 9.6712 3.37665 11.7979 6 11.7979V10.2979ZM21.25 7.04785C21.25 8.84278 19.7949 10.2979 18 10.2979V11.7979C20.6234 11.7979 22.75 9.6712 22.75 7.04785H21.25ZM22.75 7.04785C22.75 4.4245 20.6234 2.29785 18 2.29785V3.79785C19.7949 3.79785 21.25 5.25293 21.25 7.04785H22.75ZM17.25 19.0479C17.25 19.7383 16.6904 20.2979 16 20.2979V21.7979C17.5188 21.7979 18.75 20.5667 18.75 19.0479H17.25ZM8 20.2979C7.30964 20.2979 6.75 19.7383 6.75 19.0479H5.25C5.25 20.5667 6.48122 21.7979 8 21.7979V20.2979Z" fill="#40C96D"/>
  <path d="M14.5303 15.5782C14.8232 15.2853 14.8232 14.8105 14.5303 14.5176C14.2374 14.2247 13.7626 14.2247 13.4697 14.5176L14.5303 15.5782ZM10.5303 14.5176C10.2374 14.2247 9.76256 14.2247 9.46967 14.5176C9.17678 14.8105 9.17678 15.2853 9.46967 15.5782L10.5303 14.5176ZM12.75 11.0479C12.75 10.6337 12.4142 10.2979 12 10.2979C11.5858 10.2979 11.25 10.6337 11.25 11.0479H12.75ZM11.25 16.0479C11.25 16.4621 11.5858 16.7979 12 16.7979C12.4142 16.7979 12.75 16.4621 12.75 16.0479H11.25ZM13.4697 14.5176L12.1768 15.8105L13.2374 16.8711L14.5303 15.5782L13.4697 14.5176ZM11.8232 15.8105L10.5303 14.5176L9.46967 15.5782L10.7626 16.8711L11.8232 15.8105ZM12.1768 15.8105C12.0791 15.9081 11.9209 15.9081 11.8232 15.8105L10.7626 16.8711C11.446 17.5545 12.554 17.5545 13.2374 16.8711L12.1768 15.8105ZM11.25 11.0479V16.0479H12.75V11.0479H11.25Z" fill="#40C96D"/>
</svg>