<svg xmlns="http://www.w3.org/2000/svg" width="41" height="41" viewBox="0 0 41 41" fill="none">
  <path d="M36.337 12.3005C35.9862 10.965 34.9336 9.91253 33.5982 9.55037C31.1876 8.90527 21.4998 8.90527 21.4998 8.90527C21.4998 8.90527 11.8234 8.90527 9.40149 9.55037C8.07735 9.91253 7.02483 10.965 6.66267 12.3005C6.01758 14.7224 6.01758 19.77 6.01758 19.77C6.01758 19.77 6.01758 24.8176 6.66267 27.2395C7.01351 28.575 8.06604 29.6275 9.40149 29.9897C11.8234 30.6348 21.4998 30.6348 21.4998 30.6348C21.4998 30.6348 31.1876 30.6348 33.5982 29.9897C34.9336 29.6388 35.9748 28.5863 36.337 27.2395C36.9821 24.8176 36.9821 19.77 36.9821 19.77C36.9821 19.77 36.9821 14.7224 36.337 12.3005ZM18.4102 24.4215V15.1185L26.4569 19.77L18.4102 24.4215Z" fill="#252C32"/>
</svg>