<svg width="20" height="21" viewBox="0 0 20 21" fill="none" xmlns="http://www.w3.org/2000/svg">
<g id="clipboard-02">
<g id="Group 123">
<path id="Vector" d="M16.6201 8.28619H15.0001V5.05619C15.0068 4.67086 14.9359 4.28812 14.7916 3.93079C14.6472 3.57345 14.4324 3.24885 14.1599 2.97635C13.8874 2.70384 13.5628 2.489 13.2055 2.34466C12.8481 2.20031 12.4654 2.12941 12.0801 2.13619H4.81006C4.4268 2.13217 4.04659 2.2047 3.69172 2.34952C3.33685 2.49434 3.01446 2.70854 2.74343 2.97956C2.47241 3.25058 2.25822 3.57298 2.1134 3.92785C1.96858 4.28272 1.89605 4.66292 1.90006 5.04619V16.0462C1.89608 16.4278 1.96797 16.8063 2.11155 17.1599C2.25513 17.5134 2.46753 17.8349 2.73643 18.1056C3.00532 18.3764 3.32533 18.591 3.67788 18.737C4.03043 18.883 4.40847 18.9575 4.79006 18.9562H16.0901C16.2594 18.9769 16.4307 18.9769 16.6001 18.9562C17.0458 18.8532 17.4407 18.596 17.7152 18.23C17.9896 17.8641 18.126 17.4129 18.1001 16.9562V9.75619C18.1207 9.5572 18.0965 9.35612 18.0292 9.16771C17.962 8.9793 17.8534 8.80833 17.7115 8.66735C17.5696 8.52638 17.3979 8.41897 17.209 8.35301C17.0201 8.28705 16.8189 8.26422 16.6201 8.28619ZM4.84006 18.1262C4.33035 18.1522 3.82998 17.9823 3.44143 17.6514C3.05288 17.3205 2.80554 16.8535 2.75006 16.3462C2.74011 16.2331 2.74011 16.1193 2.75006 16.0062V5.09619C2.7313 4.81418 2.77253 4.53141 2.87102 4.2665C2.96951 4.00159 3.12302 3.76057 3.32144 3.55931C3.51987 3.35805 3.75869 3.20113 4.02218 3.0989C4.28566 2.99666 4.56782 2.95143 4.85006 2.96619H12.0701C12.3538 2.94715 12.6384 2.98885 12.9048 3.08852C13.1712 3.18819 13.4132 3.34352 13.6148 3.54416C13.8164 3.7448 13.9729 3.98613 14.0738 4.25204C14.1747 4.51795 14.2178 4.80232 14.2001 5.08619V16.7662C14.1778 17.1329 14.2429 17.4996 14.3901 17.8362L14.5201 18.1262H4.84006ZM17.2701 16.9362C17.2823 17.2226 17.1861 17.503 17.0008 17.7217C16.8155 17.9404 16.5546 18.0812 16.2701 18.1162H16.1701C16.0171 18.123 15.8644 18.0985 15.7213 18.044C15.5783 17.9895 15.4479 17.9063 15.3383 17.7995C15.2286 17.6927 15.142 17.5645 15.0839 17.4229C15.0257 17.2813 14.9972 17.1292 15.0001 16.9762V9.11619H16.7401C16.871 9.11616 16.9966 9.16746 17.0901 9.25908C17.1836 9.3507 17.2374 9.47532 17.2401 9.60619L17.2701 16.9362Z" fill="#40C96D"/>
<path id="Vector_2" d="M16.6201 8.28619H15.0001V5.05619C15.0068 4.67086 14.9359 4.28812 14.7916 3.93079C14.6472 3.57345 14.4324 3.24885 14.1599 2.97635C13.8874 2.70384 13.5628 2.489 13.2055 2.34466C12.8481 2.20031 12.4654 2.12941 12.0801 2.13619H4.81006C4.4268 2.13217 4.04659 2.2047 3.69172 2.34952C3.33685 2.49434 3.01446 2.70854 2.74343 2.97956C2.47241 3.25058 2.25822 3.57298 2.1134 3.92785C1.96858 4.28272 1.89605 4.66292 1.90006 5.04619V16.0462C1.89608 16.4278 1.96797 16.8063 2.11155 17.1599C2.25513 17.5134 2.46753 17.8349 2.73643 18.1056C3.00532 18.3764 3.32533 18.591 3.67788 18.737C4.03043 18.883 4.40847 18.9575 4.79006 18.9562H16.0901C16.2594 18.9769 16.4307 18.9769 16.6001 18.9562C17.0458 18.8532 17.4407 18.596 17.7152 18.23C17.9896 17.8641 18.126 17.4129 18.1001 16.9562V9.75619C18.1207 9.5572 18.0965 9.35612 18.0292 9.16771C17.962 8.9793 17.8534 8.80833 17.7115 8.66735C17.5696 8.52638 17.3979 8.41897 17.209 8.35301C17.0201 8.28705 16.8189 8.26422 16.6201 8.28619ZM4.84006 18.1262C4.33035 18.1522 3.82998 17.9823 3.44143 17.6514C3.05288 17.3205 2.80554 16.8535 2.75006 16.3462C2.74011 16.2331 2.74011 16.1193 2.75006 16.0062V5.09619C2.7313 4.81418 2.77253 4.53141 2.87102 4.2665C2.96951 4.00159 3.12302 3.76057 3.32144 3.55931C3.51987 3.35805 3.75869 3.20113 4.02218 3.0989C4.28566 2.99666 4.56782 2.95143 4.85006 2.96619H12.0701C12.3538 2.94715 12.6384 2.98885 12.9048 3.08852C13.1712 3.18819 13.4132 3.34352 13.6148 3.54416C13.8164 3.7448 13.9729 3.98613 14.0738 4.25204C14.1747 4.51795 14.2178 4.80232 14.2001 5.08619V16.7662C14.1778 17.1329 14.2429 17.4996 14.3901 17.8362L14.5201 18.1262H4.84006ZM17.2701 16.9362C17.2823 17.2226 17.1861 17.503 17.0008 17.7217C16.8155 17.9404 16.5546 18.0812 16.2701 18.1162H16.1701C16.0171 18.123 15.8644 18.0985 15.7213 18.044C15.5783 17.9895 15.4479 17.9063 15.3383 17.7995C15.2286 17.6927 15.142 17.5645 15.0839 17.4229C15.0257 17.2813 14.9972 17.1292 15.0001 16.9762V9.11619H16.7401C16.871 9.11616 16.9966 9.16746 17.0901 9.25908C17.1836 9.3507 17.2374 9.47532 17.2401 9.60619L17.2701 16.9362Z" fill="#40C96D"/>
<path id="Vector_3" d="M12.23 7.01633C12.1959 7.10023 12.1357 7.17087 12.0582 7.21773C11.9807 7.26458 11.8901 7.28514 11.8 7.27633H5.09001C4.9877 7.27958 4.88787 7.24445 4.81015 7.17783C4.73243 7.11121 4.68245 7.01793 4.67001 6.91633C4.65533 6.81193 4.68142 6.70589 4.74288 6.62023C4.80433 6.53457 4.89642 6.47587 5.00001 6.45633H11.83C11.9067 6.45366 11.9828 6.47063 12.051 6.50564C12.1193 6.54064 12.1774 6.59251 12.22 6.65633C12.2497 6.71137 12.2661 6.77262 12.2678 6.83514C12.2696 6.89766 12.2566 6.95972 12.23 7.01633Z" fill="#40C96D"/>
<path id="Vector_4" d="M12.2301 10.7062C12.1931 10.7873 12.1319 10.8549 12.0549 10.8997C11.9778 10.9445 11.8888 10.9642 11.8001 10.9562H5.09005C4.98916 10.9562 4.8918 10.919 4.81662 10.8517C4.74143 10.7844 4.6937 10.6918 4.68256 10.5915C4.67142 10.4912 4.69765 10.3903 4.75622 10.3082C4.8148 10.226 4.90162 10.1684 5.00005 10.1462H11.8001C11.8784 10.1418 11.9565 10.1579 12.0267 10.193C12.0968 10.2281 12.1566 10.2809 12.2001 10.3462C12.2329 10.3997 12.2528 10.4601 12.258 10.5226C12.2632 10.5852 12.2536 10.6481 12.2301 10.7062Z" fill="#40C96D"/>
<path id="Vector_5" d="M9.17995 14.2366C9.18022 14.294 9.16845 14.3508 9.14539 14.4034C9.12233 14.4559 9.0885 14.503 9.04608 14.5417C9.00367 14.5803 8.95361 14.6096 8.89916 14.6277C8.8447 14.6458 8.78706 14.6522 8.72995 14.6466H5.13995C5.08158 14.6537 5.02239 14.6483 4.9662 14.631C4.91002 14.6137 4.8581 14.5848 4.8138 14.5461C4.76949 14.5075 4.7338 14.46 4.70902 14.4067C4.68424 14.3534 4.67093 14.2954 4.66995 14.2366C4.66478 14.1846 4.67206 14.1321 4.69119 14.0834C4.71031 14.0347 4.74074 13.9913 4.77995 13.9566C4.82547 13.9104 4.88006 13.8741 4.9403 13.85C5.00053 13.8259 5.06511 13.8146 5.12995 13.8166H8.71995C8.78479 13.8146 8.84936 13.8259 8.9096 13.85C8.96984 13.8741 9.02443 13.9104 9.06995 13.9566C9.10739 13.9926 9.13661 14.0363 9.1556 14.0846C9.17459 14.1329 9.18289 14.1848 9.17995 14.2366Z" fill="#40C96D"/>
</g>
</g>
</svg>
