<svg width="20" height="21" viewBox="0 0 20 21" fill="none" xmlns="http://www.w3.org/2000/svg">
<g id="clipboard-04">
<g id="Group 124">
<path id="Vector" d="M10.07 17.7663H4.06996C3.9031 17.7842 3.73434 17.7654 3.57554 17.7111C3.41674 17.6568 3.27175 17.5685 3.15072 17.4522C3.0297 17.336 2.93559 17.1946 2.87499 17.0381C2.8144 16.8816 2.78879 16.7138 2.79996 16.5463V4.59633C2.78114 4.42715 2.80045 4.25591 2.85646 4.09517C2.91248 3.93443 3.00378 3.78827 3.12366 3.66743C3.24355 3.54658 3.38897 3.45412 3.54926 3.39683C3.70955 3.33953 3.88063 3.31886 4.04996 3.33633H10.39V5.89633C10.3748 6.06079 10.3958 6.22658 10.4516 6.38203C10.5074 6.53748 10.5966 6.67881 10.7129 6.79607C10.8292 6.91334 10.9698 7.00368 11.1248 7.06073C11.2798 7.11779 11.4454 7.14018 11.61 7.12633H14.18V9.73633C14.1865 9.82667 14.2103 9.91492 14.25 9.99633C14.2806 10.0455 14.3234 10.086 14.3742 10.114C14.4249 10.142 14.482 10.1566 14.54 10.1563H14.65C14.7291 10.1324 14.7982 10.0834 14.847 10.0166C14.8957 9.94981 14.9213 9.86897 14.92 9.78633V8.78633C14.92 8.24633 14.92 7.70633 14.92 7.15633C14.9267 6.97007 14.8936 6.78452 14.8229 6.61208C14.7522 6.43963 14.6455 6.28425 14.51 6.15633L11.32 3.00633C11.1933 2.86919 11.0381 2.76143 10.8654 2.69061C10.6926 2.61978 10.5065 2.5876 10.32 2.59633H4.04996C3.91347 2.58638 3.77644 2.58638 3.63996 2.59633C3.18069 2.66542 2.76388 2.90383 2.4715 3.26468C2.17912 3.62553 2.03232 4.08272 2.05996 4.54633V16.5463C2.05 16.6761 2.05 16.8065 2.05996 16.9363C2.13967 17.3863 2.38058 17.7919 2.73764 18.0772C3.09469 18.3625 3.54344 18.5079 3.99996 18.4863H9.99996C10.0887 18.4842 10.1736 18.4493 10.2382 18.3884C10.3028 18.3275 10.3426 18.2448 10.35 18.1563C10.3573 18.0686 10.3331 17.9812 10.2818 17.9097C10.2305 17.8383 10.1554 17.7874 10.07 17.7663ZM11.13 3.82633L11.4 4.09633L13.29 5.99633L13.68 6.38633H11.57C11.5115 6.39239 11.4525 6.38552 11.3971 6.3662C11.3416 6.34688 11.2911 6.31558 11.2491 6.27454C11.2071 6.2335 11.1746 6.18371 11.1541 6.12871C11.1335 6.07372 11.1252 6.01486 11.13 5.95633V3.82633Z" fill="#40C96D"/>
<path id="Vector_2" d="M17.57 15.2665C17.4526 15.1421 17.3872 14.9775 17.3872 14.8065C17.3872 14.6354 17.4526 14.4708 17.57 14.3465L17.64 14.2465L17.83 14.0065C17.8852 13.949 17.9215 13.8761 17.9341 13.7974C17.9466 13.7188 17.9347 13.6382 17.9 13.5665C17.74 13.2465 17.57 12.9265 17.39 12.6165C17.3482 12.5129 17.2763 12.4243 17.1836 12.3619C17.0909 12.2995 16.9817 12.2663 16.87 12.2665H16.65H16.43H16.25C16.1038 12.2698 15.9606 12.2244 15.843 12.1375C15.7253 12.0507 15.6399 11.9272 15.6 11.7865V11.6765C15.6 11.5865 15.52 11.5065 15.49 11.4165C15.4677 11.3275 15.4161 11.2486 15.3436 11.1924C15.2711 11.1362 15.1818 11.1059 15.09 11.1065H13.83C13.7383 11.1059 13.649 11.1362 13.5765 11.1924C13.504 11.2486 13.4524 11.3275 13.43 11.4165L13.34 11.6565L13.29 11.7565C13.2523 11.9027 13.1669 12.0322 13.0474 12.1245C12.9279 12.2169 12.7811 12.2668 12.63 12.2665C12.5603 12.2755 12.4897 12.2755 12.42 12.2665H11.93C11.8781 12.2661 11.8267 12.2776 11.7799 12.3001C11.7331 12.3226 11.6921 12.3556 11.66 12.3965C11.3533 12.7471 11.1188 13.1549 10.97 13.5965C10.9376 13.6527 10.9205 13.7165 10.9205 13.7815C10.9205 13.8464 10.9376 13.9102 10.97 13.9665L11.25 14.3365C11.3178 14.4009 11.3718 14.4785 11.4086 14.5644C11.4455 14.6504 11.4645 14.7429 11.4645 14.8365C11.4645 14.93 11.4455 15.0225 11.4086 15.1085C11.3718 15.1944 11.3178 15.272 11.25 15.3365L10.98 15.6865C10.9328 15.7363 10.9018 15.7993 10.8911 15.8671C10.8804 15.935 10.8905 16.0045 10.92 16.0665C11.07 16.3965 11.24 16.7165 11.41 17.0665C11.4568 17.175 11.5332 17.2682 11.6305 17.3354C11.7277 17.4026 11.8419 17.4411 11.96 17.4465H12.19C12.2565 17.4393 12.3236 17.4393 12.39 17.4465H12.57C12.7172 17.4443 12.861 17.4899 12.98 17.5764C13.0991 17.663 13.1868 17.7858 13.23 17.9265L13.28 18.0265L13.38 18.2965C13.4024 18.3854 13.454 18.4643 13.5265 18.5205C13.599 18.5767 13.6883 18.607 13.78 18.6065H15.01C15.1027 18.6047 15.1921 18.5724 15.2645 18.5145C15.3368 18.4566 15.388 18.3764 15.41 18.2865C15.4356 18.2049 15.4657 18.1247 15.5 18.0465V17.9565C15.5398 17.8094 15.627 17.6797 15.7482 17.5874C15.8694 17.4952 16.0177 17.4456 16.17 17.4465H16.37L16.85 17.5065C16.9051 17.5084 16.9599 17.4977 17.0102 17.4752C17.0604 17.4526 17.1049 17.4189 17.14 17.3765C17.4434 17.0196 17.6774 16.6092 17.83 16.1665C17.8553 16.1069 17.8631 16.0415 17.8524 15.9777C17.8418 15.914 17.8132 15.8545 17.77 15.8065L17.57 15.2665ZM16.99 16.2665C16.9551 16.3601 16.8899 16.4395 16.8048 16.492C16.7196 16.5445 16.6195 16.5672 16.52 16.5565C16.4172 16.5428 16.3129 16.5428 16.21 16.5565C15.9703 16.5645 15.7379 16.6408 15.54 16.7765C15.2772 16.9136 15.0768 17.1462 14.98 17.4265C14.91 17.6365 14.82 17.7465 14.7 17.7765H14.49H14.24L14 17.6565V17.5465C13.9658 17.4783 13.9358 17.4082 13.91 17.3365C13.8666 17.2072 13.7972 17.0881 13.706 16.9867C13.6149 16.8852 13.5039 16.8035 13.38 16.7465C13.1801 16.6099 12.9421 16.5399 12.7 16.5465C12.5939 16.532 12.4862 16.532 12.38 16.5465H12.27C12.1979 16.5424 12.1282 16.5189 12.0683 16.4784C12.0084 16.4379 11.9606 16.3819 11.93 16.3165C11.74 16.0065 11.72 15.8965 11.99 15.5865C12.0815 15.4988 12.1503 15.3901 12.1904 15.2699C12.2305 15.1497 12.2406 15.0215 12.22 14.8965V14.7565C12.2518 14.597 12.2397 14.4318 12.1851 14.2787C12.1306 14.1255 12.0355 13.9899 11.91 13.8865C11.8312 13.8045 11.7872 13.6952 11.7872 13.5815C11.7872 13.4677 11.8312 13.3584 11.91 13.2765C11.94 13.2012 11.9906 13.1359 12.0561 13.0881C12.1216 13.0403 12.1992 13.012 12.28 13.0065H12.38H12.56H12.81C12.9169 13.0062 13.0199 12.9671 13.1 12.8965C13.1844 12.8261 13.2787 12.7688 13.38 12.7265C13.5026 12.6836 13.6125 12.6109 13.6998 12.5148C13.7871 12.4188 13.849 12.3025 13.88 12.1765C13.9033 12.0529 13.969 11.9413 14.0658 11.861C14.1625 11.7806 14.2843 11.7366 14.41 11.7365C14.4895 11.7236 14.5706 11.7236 14.65 11.7365C14.7017 11.7496 14.749 11.7758 14.7876 11.8126C14.8261 11.8494 14.8545 11.8955 14.87 11.9465C14.9251 12.1498 15.0284 12.3369 15.1711 12.4918C15.3139 12.6467 15.4919 12.765 15.69 12.8365C15.8054 12.9075 15.9353 12.952 16.07 12.9665H16.17H16.37H16.54C16.6339 12.9711 16.7247 13.0015 16.8023 13.0545C16.8799 13.1074 16.9415 13.1808 16.98 13.2665C17.0447 13.3585 17.0742 13.4707 17.0632 13.5826C17.0521 13.6945 17.0014 13.7988 16.92 13.8765C16.8458 13.957 16.7789 14.044 16.72 14.1365C16.5897 14.519 16.5897 14.9339 16.72 15.3165L16.98 15.6565C17.0307 15.6899 17.0727 15.7351 17.1023 15.7881C17.132 15.8412 17.1484 15.9005 17.1504 15.9613C17.1524 16.022 17.1397 16.0823 17.1136 16.1372C17.0874 16.192 17.0485 16.2398 17 16.2765L16.99 16.2665Z" fill="#40C96D"/>
<path id="Vector_3" d="M11.91 9.54596C11.929 9.48769 11.9344 9.42582 11.9257 9.36514C11.9171 9.30445 11.8946 9.24657 11.86 9.19596C11.8104 9.13935 11.7487 9.09466 11.6794 9.06523C11.6102 9.03579 11.5351 9.02237 11.46 9.02596H5.45998C5.37313 9.02152 5.28705 9.04415 5.21361 9.09072C5.14017 9.13729 5.08299 9.20551 5.04998 9.28596C5.01931 9.3446 5.0033 9.40979 5.0033 9.47596C5.0033 9.54213 5.01931 9.60732 5.04998 9.66596C5.09371 9.72793 5.15239 9.77784 5.22057 9.81106C5.28875 9.84428 5.36423 9.85972 5.43998 9.85596H11.44C11.5428 9.87166 11.6478 9.84864 11.7346 9.79138C11.8214 9.73411 11.8839 9.64666 11.91 9.54596Z" fill="#40C96D"/>
<path id="Vector_4" d="M5.43998 15.1264H8.82998C8.88709 15.132 8.94474 15.1255 8.99919 15.1075C9.05365 15.0894 9.1037 15.0601 9.14612 15.0214C9.18853 14.9828 9.22237 14.9357 9.24543 14.8831C9.26848 14.8306 9.28026 14.7738 9.27998 14.7164C9.28246 14.6622 9.27299 14.6081 9.25226 14.558C9.23152 14.5079 9.20002 14.463 9.15998 14.4264C9.11931 14.3827 9.06961 14.3485 9.01434 14.326C8.95907 14.3036 8.89957 14.2935 8.83998 14.2964H5.46998C5.35751 14.3135 5.25102 14.3582 5.15998 14.4264C5.09794 14.4768 5.05444 14.5464 5.03633 14.6243C5.01823 14.7021 5.02655 14.7838 5.05998 14.8564C5.08581 14.9363 5.13674 15.0058 5.20521 15.0544C5.27367 15.1031 5.35602 15.1283 5.43998 15.1264Z" fill="#40C96D"/>
<path id="Vector_5" d="M6.94001 12.4861H8.82001C8.90282 12.4993 8.98721 12.4993 9.07001 12.4861C9.14819 12.4439 9.20964 12.3763 9.24419 12.2945C9.27874 12.2127 9.28432 12.1215 9.26001 12.0361C9.24404 11.9459 9.19758 11.8639 9.12842 11.8038C9.05925 11.7437 8.97156 11.7092 8.88001 11.7061H5.51001C5.22001 11.7061 5.04001 11.8661 5.04001 12.1161C5.03675 12.1709 5.04483 12.2259 5.06376 12.2775C5.08268 12.3291 5.11205 12.3763 5.15001 12.4161C5.24656 12.5012 5.37128 12.5475 5.50001 12.5461L6.94001 12.4861Z" fill="#40C96D"/>
<path id="Vector_6" d="M14.4399 13.8262C14.1747 13.8262 13.9204 13.9315 13.7328 14.1191C13.5453 14.3066 13.4399 14.561 13.4399 14.8262C13.4399 15.0914 13.5453 15.3457 13.7328 15.5333C13.9204 15.7208 14.1747 15.8262 14.4399 15.8262C14.7052 15.8262 14.9595 15.7208 15.147 15.5333C15.3346 15.3457 15.4399 15.0914 15.4399 14.8262C15.4362 14.5673 15.3323 14.32 15.1499 14.1362C15.0582 14.0399 14.9481 13.9629 14.8262 13.9096C14.7043 13.8564 14.573 13.828 14.4399 13.8262Z" fill="#40C96D"/>
</g>
</g>
</svg>
