<svg width="20" height="21" viewBox="0 0 20 21" fill="none" xmlns="http://www.w3.org/2000/svg">
<g id="clipboard-03">
<path id="Vector" d="M16.7099 6.47552H15.4799V4.67552C15.4799 4.41031 15.3746 4.15595 15.187 3.96842C14.9995 3.78088 14.7452 3.67552 14.4799 3.67552H4.12994C3.88294 3.66856 3.63713 3.71224 3.40765 3.80388C3.17817 3.89553 2.96989 4.03318 2.79563 4.20838C2.62137 4.38357 2.48484 4.59259 2.39443 4.82256C2.30402 5.05252 2.26165 5.29856 2.26994 5.54552C2.26994 8.87886 2.26994 12.2122 2.26994 15.5455C2.26165 15.7938 2.30428 16.0411 2.39519 16.2723C2.4861 16.5035 2.62338 16.7136 2.79857 16.8897C2.97375 17.0659 3.18313 17.2043 3.41382 17.2964C3.64451 17.3885 3.89163 17.4325 4.13994 17.4255H16.6999C16.9652 17.4255 17.2195 17.3202 17.407 17.1326C17.5946 16.9451 17.6999 16.6907 17.6999 16.4255V7.54552C17.7095 7.40927 17.6911 7.27251 17.6457 7.14366C17.6004 7.01481 17.5292 6.89662 17.4364 6.79636C17.3436 6.69611 17.2313 6.61591 17.1064 6.56073C16.9814 6.50555 16.8465 6.47655 16.7099 6.47552ZM3.12994 5.20552C3.18552 5.01183 3.29833 4.83944 3.45358 4.71096C3.60882 4.58248 3.79926 4.5039 3.99994 4.48552H14.5999V6.48552H4.14994C3.9838 6.49411 3.81814 6.46112 3.66797 6.38952C3.51781 6.31793 3.38787 6.21001 3.28994 6.07552C3.19833 5.95249 3.13625 5.81004 3.10851 5.65918C3.08077 5.50832 3.0881 5.3531 3.12994 5.20552ZM16.8899 16.6055H4.17994C4.03605 16.6188 3.89099 16.6008 3.75474 16.5527C3.61849 16.5045 3.4943 16.4274 3.3907 16.3267C3.28711 16.2259 3.20658 16.1039 3.15466 15.9691C3.10273 15.8342 3.08066 15.6897 3.08994 15.5455V7.02552L3.30994 7.12552C3.65235 7.26349 4.0217 7.32163 4.38994 7.29552H16.8899V9.84552H14.5099C13.9923 9.84441 13.4924 10.0346 13.1064 10.3794C12.7203 10.7243 12.4753 11.1996 12.4182 11.7142C12.3612 12.2287 12.4962 12.7461 12.7974 13.1672C13.0985 13.5883 13.5446 13.8832 14.0499 13.9955C14.213 14.0079 14.3768 14.0079 14.5399 13.9955H16.8899V16.6055ZM16.8899 13.0655V13.2055H16.6399H14.5399C14.363 13.2212 14.1848 13.1999 14.0165 13.1429C13.8483 13.086 13.6937 12.9947 13.5627 12.8747C13.4317 12.7548 13.327 12.6089 13.2555 12.4464C13.1839 12.2838 13.1469 12.1081 13.1469 11.9305C13.1469 11.7529 13.1839 11.5772 13.2555 11.4147C13.327 11.2521 13.4317 11.1062 13.5627 10.9863C13.6937 10.8664 13.8483 10.775 14.0165 10.7181C14.1848 10.6611 14.363 10.6398 14.5399 10.6555H16.8999L16.8899 13.0655Z" fill="black"/>
<path id="Vector_2" d="M16.7099 6.47552H15.4799V4.67552C15.4799 4.41031 15.3746 4.15595 15.187 3.96842C14.9995 3.78088 14.7452 3.67552 14.4799 3.67552H4.12994C3.88294 3.66856 3.63713 3.71224 3.40765 3.80388C3.17817 3.89553 2.96989 4.03318 2.79563 4.20838C2.62137 4.38357 2.48484 4.59259 2.39443 4.82256C2.30402 5.05252 2.26165 5.29856 2.26994 5.54552C2.26994 8.87886 2.26994 12.2122 2.26994 15.5455C2.26165 15.7938 2.30428 16.0411 2.39519 16.2723C2.4861 16.5035 2.62338 16.7136 2.79857 16.8897C2.97375 17.0659 3.18313 17.2043 3.41382 17.2964C3.64451 17.3885 3.89163 17.4325 4.13994 17.4255H16.6999C16.9652 17.4255 17.2195 17.3202 17.407 17.1326C17.5946 16.9451 17.6999 16.6907 17.6999 16.4255V7.54552C17.7095 7.40927 17.6911 7.27251 17.6457 7.14366C17.6004 7.01481 17.5292 6.89662 17.4364 6.79636C17.3436 6.69611 17.2313 6.61591 17.1064 6.56073C16.9814 6.50555 16.8465 6.47655 16.7099 6.47552ZM3.12994 5.20552C3.18552 5.01183 3.29833 4.83944 3.45358 4.71096C3.60882 4.58248 3.79926 4.5039 3.99994 4.48552H14.5999V6.48552H4.14994C3.9838 6.49411 3.81814 6.46112 3.66797 6.38952C3.51781 6.31793 3.38787 6.21001 3.28994 6.07552C3.19833 5.95249 3.13625 5.81004 3.10851 5.65918C3.08077 5.50832 3.0881 5.3531 3.12994 5.20552ZM16.8899 16.6055H4.17994C4.03605 16.6188 3.89099 16.6008 3.75474 16.5527C3.61849 16.5045 3.4943 16.4274 3.3907 16.3267C3.28711 16.2259 3.20658 16.1039 3.15466 15.9691C3.10273 15.8342 3.08066 15.6897 3.08994 15.5455V7.02552L3.30994 7.12552C3.65235 7.26349 4.0217 7.32163 4.38994 7.29552H16.8899V9.84552H14.5099C13.9923 9.84441 13.4924 10.0346 13.1064 10.3794C12.7203 10.7243 12.4753 11.1996 12.4182 11.7142C12.3612 12.2287 12.4962 12.7461 12.7974 13.1672C13.0985 13.5883 13.5446 13.8832 14.0499 13.9955C14.213 14.0079 14.3768 14.0079 14.5399 13.9955H16.8899V16.6055ZM16.8899 13.0655V13.2055H16.6399H14.5399C14.363 13.2212 14.1848 13.1999 14.0165 13.1429C13.8483 13.086 13.6937 12.9947 13.5627 12.8747C13.4317 12.7548 13.327 12.6089 13.2555 12.4464C13.1839 12.2838 13.1469 12.1081 13.1469 11.9305C13.1469 11.7529 13.1839 11.5772 13.2555 11.4147C13.327 11.2521 13.4317 11.1062 13.5627 10.9863C13.6937 10.8664 13.8483 10.775 14.0165 10.7181C14.1848 10.6611 14.363 10.6398 14.5399 10.6555H16.8999L16.8899 13.0655Z" fill="#40C96D"/>
</g>
</svg>
