<svg width="20" height="21" viewBox="0 0 20 21" fill="none" xmlns="http://www.w3.org/2000/svg">
<g id="clipboard-01" clip-path="url(#clip0_823_18542)">
<g id="Group 122">
<path id="Vector" d="M10.264 0.858398C10.3934 0.884799 10.5214 0.917721 10.6476 0.957037C10.9435 1.03106 11.2179 1.17385 11.4483 1.3738C11.6787 1.57375 11.8587 1.82523 11.9737 2.10782C11.9864 2.15507 12.0153 2.19634 12.0554 2.2244C12.0955 2.25246 12.1442 2.2655 12.1929 2.26125C12.5655 2.26125 12.9382 2.26125 13.2889 2.26125C13.3872 2.2504 13.4864 2.2504 13.5848 2.26125C13.6798 2.2749 13.7659 2.32469 13.8251 2.40023C13.8843 2.47577 13.9121 2.57125 13.9026 2.66677V3.39012H15.5356C15.7536 3.38787 15.9709 3.41365 16.1823 3.46683C16.6037 3.56518 16.9798 3.80238 17.2502 4.14031C17.5205 4.47824 17.6694 4.89726 17.6728 5.33V18.4818C17.6636 18.91 17.5017 19.3209 17.2164 19.6404C16.9311 19.9599 16.541 20.167 16.1165 20.2244C15.9596 20.2357 15.8021 20.2357 15.6452 20.2244H4.3895C3.96315 20.2308 3.54418 20.1127 3.18392 19.8846C2.93078 19.7437 2.71879 19.5391 2.56887 19.2912C2.41895 19.0432 2.33629 18.7605 2.32906 18.4708V5.4396C2.31777 5.16656 2.36398 4.8942 2.46468 4.64016C2.56538 4.38612 2.71833 4.15607 2.91361 3.96492C3.1089 3.77377 3.34217 3.62577 3.5983 3.53053C3.85444 3.43528 4.12773 3.39491 4.40046 3.41204H6.06635V2.75445C6.06635 2.42565 6.19787 2.28317 6.52667 2.27221C6.85546 2.26125 7.34865 2.27221 7.76513 2.27221C7.81138 2.27891 7.85846 2.26798 7.89703 2.24159C7.9356 2.2152 7.96285 2.17527 7.97336 2.12974C8.11133 1.81055 8.32704 1.53099 8.6008 1.31657C8.87457 1.10216 9.19766 0.959713 9.54062 0.902238H9.61733L10.264 0.858398ZM13.9574 4.35458V5.28616C13.9574 5.73552 13.7821 5.91087 13.3218 5.91087H6.71298C6.26363 5.91087 6.09923 5.74648 6.09923 5.28616V4.35458H5.96772C5.3978 4.35458 4.87173 4.35458 4.25798 4.35458C4.1239 4.36275 3.99285 4.39793 3.87269 4.458C3.75254 4.51807 3.64575 4.60179 3.55875 4.70415C3.47175 4.8065 3.40632 4.92538 3.3664 5.05364C3.32647 5.1819 3.31287 5.31691 3.3264 5.45056V18.4379C3.3104 18.633 3.36453 18.8274 3.47905 18.9861C3.59356 19.1448 3.76095 19.2575 3.95111 19.3038C4.11937 19.3472 4.29244 19.3693 4.46622 19.3695H15.8425C15.966 19.3672 16.0877 19.3392 16.1998 19.2872C16.3118 19.2352 16.4118 19.1604 16.4933 19.0676C16.5748 18.9747 16.636 18.8659 16.673 18.748C16.7101 18.6302 16.7221 18.5059 16.7083 18.3831V5.33C16.7045 5.08721 16.6122 4.85418 16.4487 4.6746C16.2853 4.49502 16.0619 4.38123 15.8206 4.35458C15.2068 4.3217 14.5821 4.35458 13.9574 4.35458ZM7.0089 5.02313H12.993V3.18188H11.8422C11.7685 3.19426 11.693 3.19143 11.6205 3.17358C11.5479 3.15572 11.4797 3.12321 11.4202 3.07804C11.3607 3.03287 11.311 2.976 11.2742 2.91093C11.2375 2.84586 11.2144 2.77396 11.2065 2.69965C11.1329 2.40931 10.96 2.15391 10.7177 1.97774C10.4755 1.80157 10.1793 1.71576 9.88037 1.73518C9.60453 1.76104 9.34352 1.87195 9.13345 2.05258C8.92337 2.23321 8.77459 2.47464 8.70767 2.74349C8.69958 2.80992 8.67834 2.87408 8.64519 2.93223C8.61204 2.99037 8.56765 3.04133 8.5146 3.08214C8.46155 3.12294 8.40091 3.15278 8.33621 3.1699C8.27151 3.18703 8.20405 3.1911 8.13776 3.18188H7.04178L7.0089 5.02313Z" fill="#40C96D"/>
<path id="Vector_2" d="M12.1929 8.49729H14.7904C14.9024 8.48478 15.0153 8.51192 15.1094 8.57399C15.2035 8.63606 15.2729 8.72913 15.3055 8.83704C15.3217 8.89832 15.325 8.96226 15.3153 9.02487C15.3055 9.08749 15.283 9.14742 15.249 9.20092C15.2151 9.25441 15.1705 9.30033 15.1179 9.33578C15.0654 9.37123 15.0062 9.39546 14.9438 9.40695H14.7027H9.50778C9.39052 9.40126 9.28015 9.34991 9.20027 9.26389C9.12039 9.17786 9.07735 9.064 9.08035 8.94664C9.08021 8.82826 9.12569 8.71438 9.20733 8.62866C9.28897 8.54294 9.4005 8.49197 9.51874 8.48633H12.1929V8.49729Z" fill="#40C96D"/>
<path id="Vector_3" d="M12.1928 16.8273H9.6282C9.2994 16.8273 9.10212 16.6738 9.0802 16.4108C9.06968 16.2957 9.10183 16.1807 9.17053 16.0878C9.23924 15.9948 9.33971 15.9303 9.45284 15.9066H14.7903C14.8539 15.899 14.9184 15.9045 14.9799 15.9227C15.0414 15.941 15.0985 15.9715 15.1477 16.0126C15.1969 16.0536 15.2373 16.1042 15.2663 16.1614C15.2953 16.2186 15.3123 16.281 15.3163 16.345C15.3259 16.4563 15.2927 16.5669 15.2234 16.6545C15.1542 16.7421 15.0541 16.8 14.9437 16.8163C14.8637 16.8277 14.7826 16.8277 14.7026 16.8163L12.1928 16.8273Z" fill="#40C96D"/>
<path id="Vector_4" d="M12.1927 13.1225H9.58429C9.51933 13.1288 9.45378 13.1211 9.392 13.1001C9.33021 13.0791 9.2736 13.0452 9.22593 13.0006C9.17825 12.956 9.1406 12.9019 9.11546 12.8416C9.09033 12.7814 9.07829 12.7165 9.08014 12.6513C9.07983 12.5405 9.12148 12.4337 9.19671 12.3524C9.27194 12.271 9.37518 12.2212 9.48565 12.2129H14.7902C14.912 12.1971 15.0352 12.2295 15.1334 12.3032C15.2317 12.3769 15.2973 12.4861 15.3163 12.6074C15.3246 12.6766 15.3174 12.7468 15.2954 12.8129C15.2733 12.879 15.2368 12.9394 15.1886 12.9897C15.1404 13.04 15.0816 13.079 15.0165 13.1039C14.9514 13.1287 14.8816 13.1389 14.8121 13.1335H12.1927V13.1225Z" fill="#40C96D"/>
<path id="Vector_5" d="M6.13208 12.5524L7.49109 11.2592C7.58284 11.1755 7.69112 11.112 7.80893 11.0728C7.90784 11.0502 8.01151 11.0617 8.10305 11.1055C8.19459 11.1493 8.26861 11.2228 8.31308 11.314C8.36716 11.4014 8.38701 11.5057 8.3688 11.6069C8.35059 11.708 8.29561 11.7989 8.21444 11.862C7.69933 12.3661 7.17326 12.8593 6.64719 13.3525C6.56848 13.4348 6.48426 13.5117 6.39511 13.5826C6.35527 13.6237 6.30757 13.6564 6.25485 13.6787C6.20214 13.701 6.14548 13.7125 6.08824 13.7125C6.03099 13.7125 5.97433 13.701 5.92162 13.6787C5.8689 13.6564 5.82121 13.6237 5.78136 13.5826C5.46353 13.2648 5.14569 12.947 4.82786 12.6072C4.78412 12.5644 4.74936 12.5132 4.72564 12.4567C4.70192 12.4003 4.6897 12.3397 4.6897 12.2784C4.6897 12.2172 4.70192 12.1566 4.72564 12.1001C4.74936 12.0436 4.78412 11.9925 4.82786 11.9496C4.86991 11.9045 4.9208 11.8685 4.97737 11.8439C5.03393 11.8193 5.09496 11.8066 5.15665 11.8066C5.21834 11.8066 5.27937 11.8193 5.33594 11.8439C5.39251 11.8685 5.4434 11.9045 5.48545 11.9496L6.13208 12.5524Z" fill="#40C96D"/>
<path id="Vector_6" d="M6.12116 8.85866L7.35962 7.68596L7.56786 7.48868C7.61166 7.44461 7.66374 7.40963 7.72111 7.38576C7.77848 7.3619 7.84 7.34961 7.90213 7.34961C7.96427 7.34961 8.02579 7.3619 8.08316 7.38576C8.14053 7.40963 8.19261 7.44461 8.23641 7.48868C8.27983 7.53059 8.31436 7.58082 8.33795 7.63637C8.36154 7.69192 8.37369 7.75165 8.37369 7.81199C8.37369 7.87234 8.36154 7.93207 8.33795 7.98762C8.31436 8.04317 8.27983 8.0934 8.23641 8.13531L6.40612 9.86696C6.36707 9.91505 6.31778 9.95383 6.26185 9.98046C6.20592 10.0071 6.14475 10.0209 6.0828 10.0209C6.02086 10.0209 5.95969 10.0071 5.90376 9.98046C5.84782 9.95383 5.79854 9.91505 5.75949 9.86696L4.84982 8.92442C4.80175 8.87838 4.7635 8.82309 4.73736 8.76187C4.71123 8.70066 4.69775 8.63478 4.69775 8.56822C4.69775 8.50166 4.71123 8.43579 4.73736 8.37457C4.7635 8.31336 4.80175 8.25807 4.84982 8.21203C4.90038 8.17115 4.95869 8.14092 5.02123 8.12316C5.08377 8.10539 5.14926 8.10045 5.21375 8.10864C5.27825 8.11683 5.34043 8.13798 5.39654 8.17081C5.45266 8.20365 5.50155 8.24749 5.54029 8.29971L6.12116 8.85866Z" fill="#40C96D"/>
<path id="Vector_7" d="M6.12105 16.2675L7.52391 14.9633C7.59246 14.8797 7.68823 14.8229 7.79443 14.8029C7.90063 14.7829 8.0105 14.8008 8.10478 14.8537C8.17136 14.883 8.22959 14.9284 8.27422 14.9859C8.31886 15.0433 8.34849 15.111 8.36045 15.1828C8.37241 15.2545 8.36633 15.3281 8.34274 15.397C8.31915 15.4658 8.27881 15.5277 8.22534 15.577L6.39505 17.2758C6.35497 17.3204 6.30595 17.356 6.2512 17.3804C6.19644 17.4048 6.13716 17.4174 6.07722 17.4174C6.01727 17.4174 5.95799 17.4048 5.90323 17.3804C5.84848 17.356 5.79946 17.3204 5.75938 17.2758L4.86068 16.3552C4.81055 16.314 4.7697 16.2626 4.7408 16.2045C4.7119 16.1464 4.69561 16.0829 4.693 16.0181C4.69039 15.9532 4.70151 15.8886 4.72564 15.8284C4.74977 15.7681 4.78636 15.7137 4.83301 15.6686C4.87966 15.6235 4.93532 15.5888 4.99634 15.5667C5.05735 15.5446 5.12234 15.5357 5.18705 15.5405C5.25175 15.5453 5.31471 15.5637 5.37179 15.5946C5.42888 15.6254 5.47879 15.668 5.51826 15.7195L6.12105 16.2675Z" fill="#40C96D"/>
</g>
</g>
<defs>
<clipPath id="clip0_823_18542">
<rect width="20" height="20" fill="white" transform="translate(0 0.545898)"/>
</clipPath>
</defs>
</svg>
