<svg width="20" height="21" viewBox="0 0 20 21" fill="none" xmlns="http://www.w3.org/2000/svg">
<g id="heart.2">
<path id="Vector" fill-rule="evenodd" clip-rule="evenodd" d="M8.79267 5.91197C7.49605 4.59054 5.39889 4.59054 4.1023 5.91197C2.79924 7.24002 2.79924 9.39807 4.1023 10.7261L9.2565 15.9791C9.66483 16.3952 10.3352 16.3952 10.7435 15.9791L15.8977 10.7261C17.2008 9.39807 17.2008 7.24002 15.8977 5.91197C14.6011 4.59054 12.5039 4.59054 11.2074 5.91197L10.4461 6.68782C10.3286 6.80761 10.1678 6.8751 10 6.8751C9.83217 6.8751 9.67142 6.80761 9.55392 6.68782L8.79267 5.91197ZM9.68484 5.03652L10 5.3577L10.3152 5.03652C12.1018 3.21569 15.0033 3.21569 16.7899 5.03652C18.57 6.85073 18.57 9.78732 16.7899 11.6016L11.6358 16.8545C10.7374 17.7701 9.26259 17.7701 8.36425 16.8545L3.21007 11.6016C1.42998 9.78732 1.42998 6.85073 3.21007 5.03652C4.99665 3.21569 7.89828 3.21569 9.68484 5.03652Z" fill="#40C96D"/>
</g>
</svg>
