<svg width="20" height="21" viewBox="0 0 20 21" fill="none" xmlns="http://www.w3.org/2000/svg">
<g id="login.1">
<path id="Vector" fill-rule="evenodd" clip-rule="evenodd" d="M17.2917 4.71256C17.2917 3.44692 16.2657 2.4209 15 2.4209H10C8.73437 2.4209 7.70837 3.44692 7.70837 4.71256V5.5459C7.70837 5.89107 7.9882 6.1709 8.33337 6.1709C8.67854 6.1709 8.95837 5.89107 8.95837 5.5459V4.71256C8.95837 4.13727 9.42471 3.6709 10 3.6709H15C15.5754 3.6709 16.0417 4.13727 16.0417 4.71256V16.3792C16.0417 16.9546 15.5754 17.4209 15 17.4209H10C9.42471 17.4209 8.95837 16.9546 8.95837 16.3792V15.5459C8.95837 15.2007 8.67854 14.9209 8.33337 14.9209C7.9882 14.9209 7.70837 15.2007 7.70837 15.5459V16.3792C7.70837 17.6449 8.73437 18.6709 10 18.6709H15C16.2657 18.6709 17.2917 17.6449 17.2917 16.3792V4.71256Z" fill="#40C96D"/>
<path id="Vector_2" d="M10.442 7.18696C10.1979 6.94289 9.80221 6.94289 9.55812 7.18696C9.31404 7.43104 9.31404 7.82677 9.55812 8.07085L11.4078 9.92057H3.33337C2.9882 9.92057 2.70837 10.2004 2.70837 10.5456C2.70837 10.8907 2.9882 11.1706 3.33337 11.1706H11.4078L9.55812 13.0203C9.31404 13.2644 9.31404 13.6601 9.55812 13.9042C9.80221 14.1482 10.1979 14.1482 10.442 13.9042L12.7694 11.5767C13.3389 11.0072 13.3389 10.0839 12.7694 9.5144L10.442 7.18696Z" fill="#40C96D"/>
</g>
</svg>
