<svg width="20" height="21" viewBox="0 0 20 21" fill="none" xmlns="http://www.w3.org/2000/svg">
<g id="person">
<path id="Vector" fill-rule="evenodd" clip-rule="evenodd" d="M10 9.29622C11.6109 9.29622 12.9167 7.99039 12.9167 6.37956C12.9167 4.76872 11.6109 3.46289 10 3.46289C8.38921 3.46289 7.08337 4.76872 7.08337 6.37956C7.08337 7.99039 8.38921 9.29622 10 9.29622ZM10 10.5462C12.3012 10.5462 14.1667 8.68074 14.1667 6.37956C14.1667 4.07837 12.3012 2.21289 10 2.21289C7.69886 2.21289 5.83337 4.07837 5.83337 6.37956C5.83337 8.68074 7.69886 10.5462 10 10.5462Z" fill="#40C96D"/>
<path id="Vector_2" fill-rule="evenodd" clip-rule="evenodd" d="M7.50004 13.6709C5.54403 13.6709 3.95837 15.2566 3.95837 17.2126V18.0459C3.95837 18.3911 3.67855 18.6709 3.33337 18.6709C2.9882 18.6709 2.70837 18.3911 2.70837 18.0459V17.2126C2.70837 14.5662 4.85367 12.4209 7.50004 12.4209H12.5C15.1464 12.4209 17.2917 14.5662 17.2917 17.2126V18.0459C17.2917 18.3911 17.0119 18.6709 16.6667 18.6709C16.3215 18.6709 16.0417 18.3911 16.0417 18.0459V17.2126C16.0417 15.2566 14.456 13.6709 12.5 13.6709H7.50004Z" fill="#40C96D"/>
</g>
</svg>
