<svg width="20" height="21" viewBox="0 0 20 21" fill="none" xmlns="http://www.w3.org/2000/svg">
<g id="Frame 1000008702">
<g id="Group 121">
<path id="Vector" d="M17.8951 10.5587H16.9137C16.9145 12.3771 16.1937 14.1214 14.9096 15.4088C14.0188 16.3405 12.8727 16.9884 11.6151 17.2711C8.93844 17.8659 6.68497 17.0835 4.79297 15.1206L5.93686 13.4116C7.64813 15.4248 9.714 16.0975 12.1757 14.981C13.0096 14.5872 13.7126 13.9616 14.2006 13.1791C14.6886 12.3965 14.9411 11.49 14.9279 10.5679H13.9418L15.9185 7.59375L16.0283 7.75161L17.7784 10.3871C17.8126 10.4362 17.85 10.4828 17.8905 10.5267L17.8951 10.5587Z" fill="#40C96D"/>
<path id="Vector_2" d="M4.07705 13.5191L2.10498 10.561H3.06585C3.10474 10.1721 3.11847 9.79459 3.1871 9.43083C3.66754 6.91427 5.07224 5.08404 7.46755 4.15291C10.2449 3.07994 12.7455 3.6679 14.9097 5.71318C15.2094 5.99687 15.2026 6.00373 14.9738 6.34919L14.0747 7.6944C14.0752 7.6982 14.0752 7.70205 14.0747 7.70584C12.2925 5.63311 10.1534 4.9605 7.65515 6.24623C5.9416 7.11331 5.14087 8.63468 5.05165 10.5564H6.05141L4.07705 13.5191Z" fill="#40C96D"/>
</g>
</g>
</svg>
